<svg width="116.700928" height="125.374023" viewBox="0 0 116.701 125.374" fill="none" xmlns="http://www.w3.org/2000/svg" xmlns:xlink="http://www.w3.org/1999/xlink">
	<desc>
			Created with Pixso.
	</desc>
	<defs/>
	<mask id="mask1_428" mask-type="alpha" maskUnits="userSpaceOnUse" x="0.000000" y="0.000000" width="116.700928" height="125.374023">
		<g style="mix-blend-mode:normal">
			<rect id="Rectangle 73" width="116.700996" height="125.374001" fill="#00374B" fill-opacity="1.000000"/>
		</g>
	</mask>
	<g mask="url(#mask1_428)">
		<g style="mix-blend-mode:normal">
			<path id="Tracé 510" d="M36.9 20.59L37.04 20.33C37.69 19.11 38.02 17.79 38.02 16.42C38.02 11.83 34.32 8.1 29.77 8.1C25.22 8.1 21.52 11.83 21.52 16.42C21.52 17.79 21.85 19.11 22.5 20.33L22.64 20.59L22.36 20.69C18.63 21.98 16.12 25.5 16.12 29.45L16.12 34.92C16.12 35.58 16.66 36.11 17.31 36.11L42.15 36.11C42.81 36.11 43.34 35.58 43.34 34.92L43.34 29.45C43.34 25.58 40.86 22.06 37.17 20.68L36.9 20.59ZM29.77 10.48C33.01 10.48 35.64 13.14 35.64 16.42C35.64 19.65 33.01 22.28 29.77 22.28C26.54 22.28 23.9 19.65 23.9 16.42C23.9 13.14 26.54 10.48 29.77 10.48ZM40.96 29.45L40.96 33.73L37.51 33.73L37.51 30.67C37.51 30.02 36.98 29.48 36.32 29.48C35.67 29.48 35.13 30.02 35.13 30.67L35.13 33.73L24.34 33.73L24.34 30.67C24.34 30.02 23.8 29.48 23.15 29.48C22.49 29.48 21.96 30.02 21.96 30.67L21.96 33.73L18.5 33.73L18.5 29.45C18.5 26.1 20.95 23.18 24.19 22.65L24.3 22.63C25.86 23.9 27.86 24.66 29.77 24.66C31.71 24.66 33.6 23.97 35.08 22.71L35.29 22.65C38.58 23.26 40.96 26.12 40.96 29.45Z" fill="#00374B" fill-opacity="1.000000" fill-rule="nonzero"/>
		</g>
	</g>
	<g mask="url(#mask1_428)">
		<g style="mix-blend-mode:normal">
			<path id="Tracé 511" d="M35.37 100.88L35.5 100.63C36.15 99.4 36.48 98.08 36.48 96.71C36.48 92.12 32.78 88.39 28.23 88.39C23.69 88.39 19.99 92.12 19.99 96.71C19.99 98.08 20.32 99.4 20.97 100.63L21.1 100.88L20.83 100.98C17.09 102.27 14.59 105.79 14.59 109.74L14.59 115.22C14.59 115.87 15.12 116.41 15.78 116.41L40.62 116.41C41.27 116.41 41.81 115.87 41.81 115.22L41.81 109.74C41.81 105.88 39.33 102.35 35.63 100.98L35.37 100.88ZM28.23 90.77C31.47 90.77 34.1 93.44 34.1 96.71C34.1 99.95 31.47 102.58 28.23 102.58C25 102.58 22.37 99.95 22.37 96.71C22.37 93.44 25 90.77 28.23 90.77ZM39.43 109.74L39.43 114.03L35.97 114.03L35.97 110.97C35.97 110.31 35.44 109.78 34.78 109.78C34.13 109.78 33.59 110.31 33.59 110.97L33.59 114.03L22.8 114.03L22.8 110.97C22.8 110.31 22.26 109.78 21.61 109.78C20.95 109.78 20.42 110.31 20.42 110.97L20.42 114.03L16.97 114.03L16.97 109.74C16.97 106.39 19.41 103.47 22.65 102.94L22.76 102.93C24.32 104.19 26.32 104.96 28.23 104.96C30.17 104.96 32.06 104.26 33.54 103L33.75 102.95C37.04 103.56 39.43 106.42 39.43 109.74Z" fill="#00374B" fill-opacity="1.000000" fill-rule="nonzero"/>
		</g>
	</g>
	<g mask="url(#mask1_428)">
		<g style="mix-blend-mode:normal">
			<path id="Tracé 512" d="M27.22 89.88L27.22 84.41C27.22 80.54 24.73 77.02 21.04 75.65L20.78 75.55L20.91 75.29C21.56 74.07 21.89 72.75 21.89 71.38C21.89 66.79 18.19 63.06 13.64 63.06C9.09 63.06 5.39 66.79 5.39 71.38C5.39 72.75 5.72 74.07 6.37 75.29L6.51 75.55L6.23 75.65C2.5 76.94 0 80.46 0 84.41L0 89.88C0 90.54 0.53 91.07 1.18 91.07L26.03 91.07C26.68 91.07 27.22 90.54 27.22 89.88ZM13.64 65.44C16.88 65.44 19.51 68.11 19.51 71.38C19.51 74.61 16.88 77.25 13.64 77.25C10.41 77.25 7.78 74.61 7.78 71.38C7.78 68.11 10.41 65.44 13.64 65.44ZM24.84 88.69L21.38 88.69L21.38 85.64C21.38 84.98 20.85 84.45 20.19 84.45C19.54 84.45 19 84.98 19 85.64L19 88.69L8.21 88.69L8.21 85.64C8.21 84.98 7.67 84.45 7.02 84.45C6.36 84.45 5.83 84.98 5.83 85.64L5.83 88.69L2.37 88.69L2.37 84.41C2.37 81.06 4.82 78.14 8.06 77.61L8.17 77.59C9.73 78.86 11.73 79.62 13.64 79.62C15.58 79.62 17.47 78.93 18.95 77.67L19.16 77.61C22.45 78.23 24.84 81.08 24.84 84.41L24.84 88.69Z" fill="#00374B" fill-opacity="1.000000" fill-rule="nonzero"/>
		</g>
	</g>
	<g mask="url(#mask1_428)">
		<g style="mix-blend-mode:normal">
			<path id="Tracé 513" d="M110.18 75.65L109.91 75.55L110.04 75.3C110.69 74.07 111.02 72.75 111.02 71.38C111.02 66.79 107.32 63.06 102.78 63.06C98.23 63.06 94.53 66.79 94.53 71.38C94.53 72.75 94.86 74.07 95.51 75.3L95.65 75.55L95.37 75.65C91.64 76.94 89.13 80.46 89.13 84.41L89.13 89.88C89.13 90.54 89.66 91.07 90.32 91.07L115.16 91.07C115.82 91.07 116.35 90.54 116.35 89.88L116.35 84.41C116.35 80.54 113.87 77.02 110.18 75.65ZM102.78 65.44C106.01 65.44 108.64 68.11 108.64 71.38C108.64 74.61 106.01 77.25 102.78 77.25C99.54 77.25 96.91 74.61 96.91 71.38C96.91 68.11 99.54 65.44 102.78 65.44ZM113.97 88.69L110.52 88.69L110.52 85.64C110.52 84.98 109.99 84.45 109.33 84.45C108.67 84.45 108.14 84.98 108.14 85.64L108.14 88.69L97.34 88.69L97.34 85.64C97.34 84.98 96.81 84.45 96.15 84.45C95.5 84.45 94.96 84.98 94.96 85.64L94.96 88.69L91.51 88.69L91.51 84.41C91.51 81.06 93.95 78.14 97.19 77.61L97.3 77.59C98.86 78.86 100.87 79.62 102.78 79.62C104.72 79.62 106.6 78.93 108.09 77.67L108.29 77.61C111.58 78.23 113.97 81.08 113.97 84.41L113.97 88.69Z" fill="#00374B" fill-opacity="1.000000" fill-rule="nonzero"/>
		</g>
	</g>
	<g mask="url(#mask1_428)">
		<g style="mix-blend-mode:normal">
			<path id="Tracé 514" d="M99.66 34.92L99.66 29.45C99.66 25.58 97.18 22.06 93.49 20.68L93.22 20.59L93.35 20.33C94 19.11 94.33 17.79 94.33 16.42C94.33 11.83 90.63 8.1 86.08 8.1C81.54 8.1 77.84 11.83 77.84 16.42C77.84 17.79 78.17 19.11 78.82 20.33L78.95 20.59L78.68 20.69C74.95 21.98 72.44 25.5 72.44 29.45L72.44 34.92C72.44 35.58 72.97 36.11 73.63 36.11L98.47 36.11C99.12 36.11 99.66 35.58 99.66 34.92ZM86.08 10.48C89.32 10.48 91.95 13.14 91.95 16.42C91.95 19.65 89.32 22.28 86.08 22.28C82.85 22.28 80.22 19.65 80.22 16.42C80.22 13.14 82.85 10.48 86.08 10.48ZM97.28 33.73L93.83 33.73L93.83 30.67C93.83 30.02 93.29 29.48 92.64 29.48C91.98 29.48 91.45 30.02 91.45 30.67L91.45 33.73L80.65 33.73L80.65 30.67C80.65 30.02 80.12 29.48 79.46 29.48C78.8 29.48 78.27 30.02 78.27 30.67L78.27 33.73L74.82 33.73L74.82 29.45C74.82 26.1 77.26 23.18 80.5 22.65L80.61 22.63C82.17 23.9 84.17 24.66 86.08 24.66C88.02 24.66 89.91 23.97 91.39 22.71L91.6 22.65C94.89 23.26 97.28 26.12 97.28 29.45L97.28 33.73Z" fill="#00374B" fill-opacity="1.000000" fill-rule="nonzero"/>
		</g>
	</g>
	<g mask="url(#mask1_428)">
		<g style="mix-blend-mode:normal">
			<path id="Tracé 515" d="M95.23 100.81L95.37 100.55C96.02 99.33 96.35 98.01 96.35 96.64C96.35 92.05 92.65 88.32 88.1 88.32C83.55 88.32 79.85 92.05 79.85 96.64C79.85 98.01 80.18 99.33 80.83 100.55L80.97 100.81L80.69 100.91C76.96 102.2 74.45 105.72 74.45 109.67L74.45 115.14C74.45 115.8 74.99 116.33 75.64 116.33L100.48 116.33C101.14 116.33 101.67 115.8 101.67 115.14L101.67 109.67C101.67 105.8 99.19 102.28 95.5 100.91L95.23 100.81ZM88.1 90.7C91.33 90.7 93.96 93.37 93.96 96.64C93.96 99.87 91.33 102.51 88.1 102.51C84.86 102.51 82.23 99.87 82.23 96.64C82.23 93.37 84.86 90.7 88.1 90.7ZM99.29 109.67L99.29 113.95L95.84 113.95L95.84 110.9C95.84 110.24 95.31 109.71 94.65 109.71C93.99 109.71 93.46 110.24 93.46 110.9L93.46 113.95L82.66 113.95L82.66 110.9C82.66 110.24 82.13 109.71 81.47 109.71C80.82 109.71 80.28 110.24 80.28 110.9L80.28 113.95L76.83 113.95L76.83 109.67C76.83 106.32 79.28 103.4 82.52 102.87L82.63 102.86C84.19 104.12 86.19 104.89 88.1 104.89C90.04 104.89 91.93 104.19 93.41 102.93L93.62 102.87C96.91 103.49 99.29 106.34 99.29 109.67Z" fill="#00374B" fill-opacity="1.000000" fill-rule="nonzero"/>
		</g>
	</g>
	<g mask="url(#mask1_428)">
		<g style="mix-blend-mode:normal">
			<path id="Tracé 516" d="M2.17 62.06L27.01 62.06C27.66 62.06 28.2 61.53 28.2 60.87L28.2 55.4C28.2 51.53 25.72 48.01 22.02 46.63L21.76 46.54L21.89 46.28C22.54 45.06 22.87 43.74 22.87 42.37C22.87 37.78 19.17 34.05 14.62 34.05C10.08 34.05 6.38 37.78 6.38 42.37C6.38 43.74 6.7 45.06 7.35 46.28L7.49 46.54L7.21 46.64C3.48 47.93 0.98 51.45 0.98 55.4L0.98 60.87C0.98 61.53 1.51 62.06 2.17 62.06ZM14.62 36.43C17.86 36.43 20.49 39.09 20.49 42.37C20.49 45.6 17.86 48.23 14.62 48.23C11.39 48.23 8.76 45.6 8.76 42.37C8.76 39.09 11.39 36.43 14.62 36.43ZM3.36 55.4C3.36 52.05 5.8 49.13 9.04 48.6L9.15 48.58C10.71 49.85 12.71 50.61 14.62 50.61C16.56 50.61 18.45 49.92 19.93 48.66L20.14 48.6C23.43 49.21 25.82 52.07 25.82 55.4L25.82 59.68L22.36 59.68L22.36 56.62C22.36 55.97 21.83 55.43 21.17 55.43C20.52 55.43 19.98 55.97 19.98 56.62L19.98 59.68L9.19 59.68L9.19 56.62C9.19 55.97 8.65 55.43 8 55.43C7.34 55.43 6.81 55.97 6.81 56.62L6.81 59.68L3.36 59.68L3.36 55.4Z" fill="#00374B" fill-opacity="1.000000" fill-rule="nonzero"/>
		</g>
	</g>
	<g mask="url(#mask1_428)">
		<g style="mix-blend-mode:normal">
			<path id="Tracé 517" d="M94.73 46.28L94.87 46.54L94.6 46.64C90.86 47.93 88.36 51.45 88.36 55.4L88.36 60.87C88.36 61.53 88.89 62.06 89.55 62.06L114.39 62.06C115.04 62.06 115.58 61.53 115.58 60.87L115.58 55.4C115.58 51.53 113.1 48.01 109.4 46.64L109.14 46.54L109.27 46.28C109.92 45.06 110.25 43.74 110.25 42.37C110.25 37.78 106.55 34.05 102 34.05C97.46 34.05 93.76 37.78 93.76 42.37C93.76 43.74 94.09 45.06 94.73 46.28ZM113.2 55.4L113.2 59.68L109.74 59.68L109.74 56.62C109.74 55.97 109.21 55.43 108.55 55.43C107.9 55.43 107.36 55.97 107.36 56.62L107.36 59.68L96.57 59.68L96.57 56.62C96.57 55.97 96.03 55.43 95.38 55.43C94.72 55.43 94.19 55.97 94.19 56.62L94.19 59.68L90.74 59.68L90.74 55.4C90.74 52.05 93.18 49.13 96.42 48.6L96.53 48.58C98.09 49.85 100.09 50.61 102 50.61C103.94 50.61 105.83 49.92 107.31 48.66L107.52 48.6C110.81 49.21 113.2 52.07 113.2 55.4ZM102 36.43C105.24 36.43 107.87 39.09 107.87 42.37C107.87 45.6 105.24 48.23 102 48.23C98.77 48.23 96.14 45.6 96.14 42.37C96.14 39.09 98.77 36.43 102 36.43Z" fill="#00374B" fill-opacity="1.000000" fill-rule="nonzero"/>
		</g>
	</g>
	<g mask="url(#mask1_428)">
		<g style="mix-blend-mode:normal">
			<path id="Tracé 518" d="M64.9 12.48L65.04 12.23C65.69 11 66.01 9.68 66.01 8.31C66.01 3.73 62.32 0 57.77 0C53.22 0 49.52 3.73 49.52 8.31C49.52 9.68 49.85 11 50.5 12.23L50.64 12.49L50.36 12.58C46.63 13.87 44.12 17.4 44.12 21.35L44.12 26.82C44.12 27.47 44.66 28.01 45.31 28.01L70.15 28.01C70.81 28.01 71.34 27.47 71.34 26.82L71.34 21.35C71.34 17.48 68.86 13.96 65.17 12.58L64.9 12.48ZM57.77 2.38C61 2.38 63.63 5.04 63.63 8.31C63.63 11.55 61 14.18 57.77 14.18C54.53 14.18 51.9 11.55 51.9 8.31C51.9 5.04 54.53 2.38 57.77 2.38ZM68.96 21.35L68.96 25.63L65.51 25.63L65.51 22.57C65.51 21.91 64.98 21.38 64.32 21.38C63.66 21.38 63.13 21.91 63.13 22.57L63.13 25.63L52.33 25.63L52.33 22.57C52.33 21.91 51.8 21.38 51.14 21.38C50.49 21.38 49.96 21.91 49.96 22.57L49.96 25.63L46.5 25.63L46.5 21.35C46.5 18 48.95 15.08 52.18 14.55L52.3 14.53C53.86 15.79 55.86 16.56 57.77 16.56C59.71 16.56 61.59 15.87 63.08 14.6L63.29 14.55C66.58 15.16 68.96 18.02 68.96 21.35Z" fill="#00374B" fill-opacity="1.000000" fill-rule="nonzero"/>
		</g>
	</g>
	<g mask="url(#mask1_428)">
		<g style="mix-blend-mode:normal">
			<path id="Tracé 519" d="M64.9 109.84L65.04 109.59C65.69 108.36 66.01 107.05 66.01 105.68C66.01 101.09 62.32 97.36 57.77 97.36C53.22 97.36 49.52 101.09 49.52 105.68C49.52 107.05 49.85 108.36 50.5 109.59L50.64 109.85L50.36 109.94C46.63 111.24 44.12 114.76 44.12 118.71L44.12 124.18C44.12 124.84 44.66 125.37 45.31 125.37L70.15 125.37C70.81 125.37 71.34 124.84 71.34 124.18L71.34 118.71C71.34 114.84 68.86 111.32 65.17 109.94L64.9 109.84ZM57.77 99.74C61 99.74 63.63 102.4 63.63 105.68C63.63 108.91 61 111.54 57.77 111.54C54.53 111.54 51.9 108.91 51.9 105.68C51.9 102.4 54.53 99.74 57.77 99.74ZM68.96 118.71L68.96 122.99L65.51 122.99L65.51 119.93C65.51 119.28 64.98 118.74 64.32 118.74C63.66 118.74 63.13 119.28 63.13 119.93L63.13 122.99L52.33 122.99L52.33 119.93C52.33 119.28 51.8 118.74 51.14 118.74C50.49 118.74 49.96 119.28 49.96 119.93L49.96 122.99L46.5 122.99L46.5 118.71C46.5 115.36 48.95 112.44 52.18 111.91L52.3 111.89C53.86 113.16 55.86 113.92 57.77 113.92C59.71 113.92 61.59 113.23 63.08 111.97L63.29 111.91C66.58 112.52 68.96 115.38 68.96 118.71Z" fill="#00374B" fill-opacity="1.000000" fill-rule="nonzero"/>
		</g>
	</g>
	<g mask="url(#mask1_428)">
		<g style="mix-blend-mode:normal">
			<path id="Tracé 520" d="M58.04 55.65C53.06 55.65 49.01 59.7 49.01 64.68C49.01 69.66 53.06 73.71 58.04 73.71C63.01 73.71 67.07 69.66 67.07 64.68C67.07 59.7 63.01 55.65 58.04 55.65ZM58.04 71.46C54.3 71.46 51.26 68.42 51.26 64.68C51.26 60.95 54.3 57.91 58.04 57.91C61.77 57.91 64.81 60.95 64.81 64.68C64.81 68.42 61.77 71.46 58.04 71.46Z" fill="#00374B" fill-opacity="1.000000" fill-rule="nonzero"/>
		</g>
	</g>
	<g mask="url(#mask1_428)">
		<g style="mix-blend-mode:normal">
			<path id="Tracé 521" d="M76.03 60.38L73.13 59.75C72.88 58.98 72.57 58.22 72.2 57.5L73.8 55C74.09 54.55 74.03 53.96 73.65 53.59L69.13 49.07C68.75 48.69 68.17 48.63 67.72 48.92L65.22 50.52C64.49 50.15 63.74 49.84 62.97 49.59L62.34 46.68C62.22 46.17 61.76 45.8 61.23 45.8L54.84 45.8C54.31 45.8 53.85 46.17 53.73 46.68L53.1 49.59C52.33 49.84 51.58 50.15 50.85 50.52L48.35 48.92C47.9 48.63 47.32 48.69 46.94 49.07L42.42 53.59C42.04 53.96 41.98 54.55 42.27 55L43.88 57.5C43.51 58.22 43.19 58.98 42.94 59.75L40.04 60.38C39.52 60.5 39.15 60.95 39.15 61.49L39.15 67.88C39.15 68.41 39.52 68.87 40.04 68.98L42.94 69.62C43.19 70.39 43.51 71.14 43.88 71.87L42.27 74.37C41.98 74.82 42.04 75.4 42.42 75.78L46.94 80.3C47.32 80.68 47.9 80.74 48.35 80.45L50.85 78.84C51.58 79.21 52.33 79.53 53.1 79.78L53.73 82.68C53.85 83.2 54.31 83.57 54.84 83.57L61.23 83.57C61.76 83.57 62.22 83.2 62.34 82.68L62.97 79.78C63.74 79.53 64.49 79.21 65.22 78.84L67.72 80.45C68.17 80.74 68.75 80.68 69.13 80.3L73.65 75.78C74.03 75.4 74.09 74.82 73.8 74.37L72.2 71.87C72.57 71.14 72.88 70.39 73.13 69.62L76.03 68.98C76.55 68.87 76.92 68.41 76.92 67.88L76.92 61.49C76.92 60.95 76.55 60.5 76.03 60.38ZM74.67 66.97L72 67.55C71.59 67.64 71.27 67.95 71.16 68.35C70.86 69.4 70.44 70.41 69.91 71.37C69.7 71.73 69.71 72.18 69.94 72.53L71.41 74.82L68.18 78.06L65.88 76.59C65.53 76.36 65.08 76.35 64.72 76.55C63.77 77.09 62.75 77.51 61.7 77.8C61.3 77.92 60.99 78.24 60.9 78.65L60.32 81.31L55.75 81.31L55.17 78.65C55.08 78.24 54.77 77.92 54.37 77.8C53.32 77.51 52.31 77.09 51.35 76.55C50.99 76.35 50.54 76.36 50.19 76.59L47.9 78.06L44.66 74.82L46.13 72.53C46.36 72.18 46.37 71.73 46.17 71.37C45.63 70.41 45.21 69.4 44.92 68.35C44.8 67.95 44.48 67.64 44.07 67.55L41.41 66.97L41.41 62.39L44.07 61.82C44.48 61.73 44.8 61.42 44.92 61.02C45.21 59.97 45.63 58.95 46.17 58C46.37 57.64 46.36 57.19 46.13 56.84L44.66 54.54L47.89 51.31L50.19 52.78C50.54 53.01 50.99 53.02 51.35 52.81C52.31 52.28 53.32 51.86 54.37 51.56C54.77 51.45 55.08 51.12 55.17 50.72L55.75 48.05L60.32 48.05L60.9 50.72C60.99 51.12 61.3 51.45 61.7 51.56C62.75 51.86 63.77 52.28 64.72 52.81C65.08 53.02 65.53 53.01 65.88 52.78L68.18 51.31L71.41 54.54L69.94 56.84C69.71 57.19 69.7 57.64 69.91 58C70.44 58.95 70.86 59.97 71.16 61.02C71.27 61.42 71.59 61.73 72 61.82L74.67 62.39L74.67 66.97Z" fill="#00374B" fill-opacity="1.000000" fill-rule="nonzero"/>
		</g>
	</g>
</svg>
