<svg width="221.733887" height="127.568359" viewBox="0 0 221.734 127.568" fill="none" xmlns="http://www.w3.org/2000/svg" xmlns:xlink="http://www.w3.org/1999/xlink">
	<desc>
			Created with Pixso.
	</desc>
	<defs/>
	<mask id="mask1_442" mask-type="alpha" maskUnits="userSpaceOnUse" x="0.000000" y="0.000000" width="176.355957" height="110.927002">
		<g style="mix-blend-mode:normal">
			<rect id="Rectangle 74" width="176.356003" height="110.927002" fill="#00374B" fill-opacity="1.000000"/>
		</g>
	</mask>
	<g mask="url(#mask1_442)">
		<g style="mix-blend-mode:normal">
			<path id="Tracé 522" d="M170.18 95.49L169.91 95.4L170.04 95.14C170.69 93.92 171.02 92.6 171.02 91.23C171.02 86.64 167.32 82.91 162.78 82.91C161.99 82.91 161.23 83.03 160.5 83.24C159.6 81.39 158.1 79.85 156.2 78.9C155.89 78.75 155.59 78.61 155.26 78.49L155 78.39L155.13 78.14C155.78 76.91 156.11 75.59 156.11 74.22C156.11 72.79 155.75 71.45 155.12 70.28C153.72 67.67 151 65.9 147.86 65.9C147.07 65.9 146.3 66.03 145.56 66.24C144.52 64.13 142.69 62.42 140.38 61.55L140.08 61.44L140.22 61.19C140.87 59.96 141.2 58.64 141.2 57.27C141.2 55.68 140.74 54.19 139.97 52.93C138.51 50.55 135.92 48.96 132.95 48.96C132 48.96 131.09 49.13 130.23 49.43C129.57 48.36 128.69 47.42 127.64 46.68C126.98 46.22 126.25 45.82 125.47 45.53L125.21 45.43L125.34 45.18C125.99 43.96 126.32 42.64 126.32 41.27C126.32 40.13 126.09 39.04 125.68 38.06C124.43 35.06 121.49 32.95 118.07 32.95C117.15 32.95 116.26 33.11 115.43 33.39C114.35 31.57 112.65 30.1 110.56 29.32L110.29 29.22L110.41 29.01C111.06 27.78 111.41 26.43 111.41 25.05C111.41 23.32 110.88 21.71 109.98 20.38C108.49 18.18 105.99 16.74 103.16 16.74C102.34 16.74 101.54 16.86 100.8 17.09C99.73 15.06 97.93 13.42 95.68 12.58L95.41 12.48L95.55 12.23C96.2 11 96.53 9.68 96.53 8.31C96.53 3.73 92.83 0 88.28 0C83.73 0 80.04 3.73 80.04 8.31C80.04 9.68 80.36 11 81.01 12.23L81.15 12.49L80.87 12.58C78.58 13.38 76.75 15.02 75.68 17.08C74.93 16.86 74.15 16.74 73.33 16.74C70.5 16.74 68 18.18 66.51 20.38C65.61 21.71 65.09 23.32 65.09 25.05C65.09 26.43 65.41 27.74 66.06 28.97L66.2 29.23L65.92 29.32C63.8 30.06 62.08 31.52 60.98 33.37C60.17 33.1 59.31 32.95 58.42 32.95C55 32.95 52.06 35.06 50.81 38.06C50.4 39.04 50.17 40.13 50.17 41.27C50.17 42.64 50.5 43.96 51.15 45.18L51.29 45.44L51.01 45.54C50.2 45.82 49.45 46.21 48.77 46.68C47.72 47.41 46.83 48.35 46.16 49.42C45.32 49.12 44.41 48.96 43.47 48.96C40.5 48.96 37.91 50.55 36.45 52.93C35.68 54.19 35.22 55.68 35.22 57.27C35.22 58.65 35.55 59.96 36.2 61.19L36.34 61.45L36.06 61.54C33.71 62.36 31.83 64.08 30.78 66.22C30.07 66.02 29.33 65.9 28.56 65.9C25.27 65.9 22.43 67.86 21.11 70.67C20.6 71.75 20.31 72.95 20.31 74.22C20.31 75.59 20.64 76.91 21.29 78.14L21.42 78.39L21.15 78.49C20.81 78.61 20.49 78.75 20.17 78.9C18.25 79.82 16.74 81.36 15.84 83.22C15.14 83.02 14.4 82.91 13.64 82.91C9.09 82.91 5.39 86.64 5.39 91.23C5.39 92.6 5.72 93.92 6.37 95.14L6.51 95.4L6.23 95.5C2.5 96.79 0 100.31 0 104.26L0 109.73C0 110.39 0.53 110.92 1.18 110.92L26.03 110.92C26.68 110.92 27.22 110.39 27.22 109.73L27.22 104.26C27.22 100.4 24.75 96.89 21.07 95.51L20.77 95.4L20.91 95.14C21.12 94.74 21.28 94.33 21.43 93.92C21.72 93.05 21.89 92.15 21.89 91.23C21.89 89.95 21.59 88.74 21.08 87.66C21.02 87.55 20.98 87.43 20.92 87.33C20.24 86.04 19.23 84.96 18.01 84.19C18.97 82.26 20.79 80.81 22.97 80.46L23.08 80.44C24.64 81.7 26.64 82.47 28.56 82.47C30.5 82.47 32.38 81.77 33.86 80.51L34.07 80.46C36.29 80.87 38.08 82.32 39.02 84.23C37.98 84.91 37.1 85.81 36.45 86.88C36.29 87.15 36.14 87.43 36 87.72C35.51 88.79 35.22 89.97 35.22 91.23C35.22 92.15 35.38 93.05 35.68 93.92C35.83 94.33 35.99 94.74 36.2 95.14L36.34 95.4L36.06 95.5C32.34 96.79 29.82 100.32 29.82 104.26L29.82 109.73C29.82 110.39 30.36 110.92 31.01 110.92L55.85 110.92C56.51 110.92 57.04 110.39 57.04 109.73L57.04 104.26C57.04 100.4 54.57 96.89 50.89 95.51L50.6 95.4L50.74 95.14C50.95 94.74 51.11 94.33 51.25 93.92C51.55 93.05 51.71 92.15 51.71 91.23C51.71 89.95 51.42 88.74 50.9 87.66C50.78 87.39 50.64 87.13 50.48 86.88C49.82 85.79 48.91 84.87 47.84 84.19C48.8 82.26 50.61 80.81 52.8 80.46L52.91 80.44C54.47 81.7 56.47 82.47 58.38 82.47C60.32 82.47 62.21 81.77 63.69 80.51L63.9 80.46C66.12 80.87 67.91 82.32 68.85 84.23C67.81 84.91 66.93 85.81 66.28 86.88C66.11 87.15 65.96 87.43 65.83 87.72C65.33 88.79 65.05 89.97 65.05 91.23C65.05 92.15 65.21 93.05 65.51 93.92C65.65 94.33 65.82 94.74 66.03 95.14L66.16 95.4L65.89 95.5C62.17 96.79 59.65 100.32 59.65 104.26L59.65 109.73C59.65 110.39 60.18 110.92 60.84 110.92L85.68 110.92C86.34 110.92 86.87 110.39 86.87 109.73L86.87 104.26C86.87 100.4 84.4 96.89 80.72 95.51L80.43 95.4L80.56 95.14C80.77 94.74 80.94 94.33 81.08 93.92C81.38 93.05 81.54 92.15 81.54 91.23C81.54 89.95 81.25 88.74 80.73 87.66C80.6 87.39 80.47 87.13 80.31 86.88C79.64 85.79 78.74 84.87 77.67 84.19C78.62 82.26 80.44 80.81 82.62 80.46L82.74 80.44C84.3 81.7 86.3 82.47 88.21 82.47C90.15 82.47 92.04 81.77 93.52 80.51L93.73 80.46C95.95 80.87 97.74 82.32 98.68 84.23C97.63 84.91 96.76 85.81 96.11 86.88C95.94 87.15 95.79 87.43 95.66 87.72C95.16 88.79 94.88 89.97 94.88 91.23C94.88 92.15 95.04 93.05 95.34 93.92C95.48 94.33 95.64 94.74 95.86 95.14L95.99 95.4L95.72 95.5C92 96.79 89.48 100.32 89.48 104.26L89.48 109.73C89.48 110.39 90.01 110.92 90.67 110.92L115.51 110.92C116.16 110.92 116.7 110.39 116.7 109.73L116.7 104.26C116.7 100.4 114.23 96.89 110.55 95.51L110.26 95.4L110.39 95.14C110.6 94.74 110.77 94.33 110.91 93.92C111.21 93.05 111.37 92.15 111.37 91.23C111.37 89.95 111.07 88.74 110.56 87.66C110.43 87.39 110.29 87.13 110.14 86.88C109.47 85.79 108.57 84.87 107.49 84.19C108.45 82.26 110.27 80.81 112.45 80.46L112.56 80.44C114.12 81.7 116.12 82.47 118.04 82.47C119.98 82.47 121.86 81.77 123.35 80.51L123.55 80.46C125.78 80.87 127.56 82.32 128.5 84.23C127.46 84.91 126.59 85.81 125.93 86.88C125.77 87.15 125.62 87.43 125.48 87.72C124.99 88.79 124.7 89.97 124.7 91.23C124.7 92.15 124.87 93.05 125.16 93.92C125.31 94.33 125.47 94.74 125.68 95.14L125.82 95.4L125.54 95.5C121.82 96.79 119.3 100.32 119.3 104.26L119.3 109.73C119.3 110.39 119.84 110.92 120.49 110.92L145.33 110.92C145.99 110.92 146.52 110.39 146.52 109.73L146.52 104.26C146.52 100.4 144.05 96.89 140.38 95.51L140.08 95.4L140.22 95.14C140.43 94.74 140.59 94.33 140.74 93.92C141.03 93.05 141.2 92.15 141.2 91.23C141.2 89.95 140.9 88.74 140.39 87.66C140.26 87.39 140.12 87.13 139.97 86.88C139.3 85.79 138.39 84.87 137.32 84.19C138.28 82.26 140.1 80.81 142.28 80.46L142.39 80.44C143.95 81.7 145.95 82.47 147.86 82.47C149.8 82.47 151.69 81.77 153.17 80.51L153.38 80.46C155.6 80.87 157.39 82.32 158.33 84.23C157.29 84.91 156.41 85.81 155.76 86.88C155.6 87.15 155.45 87.43 155.31 87.72C154.82 88.79 154.53 89.97 154.53 91.23C154.53 92.15 154.69 93.05 154.99 93.92C155.13 94.33 155.3 94.74 155.51 95.14L155.65 95.4L155.37 95.5C151.65 96.79 149.13 100.32 149.13 104.26L149.13 109.73C149.13 110.39 149.67 110.92 150.32 110.92L175.16 110.92C175.82 110.92 176.35 110.39 176.35 109.73L176.35 104.26C176.35 100.39 173.87 96.87 170.18 95.49ZM24.84 104.26L24.84 108.54L21.38 108.54L21.38 105.48C21.38 104.83 20.85 104.29 20.19 104.29C19.54 104.29 19 104.83 19 105.48L19 108.54L8.21 108.54L8.21 105.48C8.21 104.83 7.67 104.29 7.02 104.29C6.36 104.29 5.83 104.83 5.83 105.48L5.83 108.54L2.37 108.54L2.37 104.26C2.37 100.91 4.82 97.99 8.06 97.46L8.17 97.44C9.73 98.71 11.73 99.47 13.64 99.47C15.58 99.47 17.47 98.78 18.95 97.52L19.16 97.46C22.45 98.07 24.84 100.93 24.84 104.26ZM18.52 87.93C19.14 88.88 19.51 90.01 19.51 91.23C19.51 91.33 19.5 91.43 19.49 91.54C19.45 92.39 19.22 93.2 18.85 93.92C18.54 94.51 18.13 95.05 17.64 95.51C16.59 96.49 15.19 97.09 13.64 97.09C10.41 97.09 7.78 94.46 7.78 91.23C7.78 87.95 10.41 85.29 13.64 85.29C14.14 85.29 14.62 85.36 15.09 85.48C15.91 85.69 16.67 86.08 17.32 86.61C17.78 86.99 18.19 87.43 18.52 87.93ZM131.23 51.6C131.77 51.43 132.35 51.34 132.95 51.34C134.49 51.34 135.88 51.94 136.93 52.93C138.09 54.01 138.82 55.56 138.82 57.27C138.82 58.96 138.1 60.48 136.95 61.55C135.9 62.53 134.5 63.14 132.95 63.14C131.4 63.14 130 62.53 128.95 61.55C128.75 61.37 128.56 61.17 128.39 60.96C127.84 60.28 127.44 59.47 127.24 58.58C127.14 58.16 127.08 57.72 127.08 57.27C127.08 55.56 127.81 54.01 128.97 52.93L129.12 52.93C129.11 52.89 129.09 52.85 129.09 52.82C129.7 52.27 130.43 51.85 131.23 51.6ZM128.12 50.54C127.25 51.18 126.5 51.99 125.93 52.93C125.63 53.42 125.38 53.94 125.19 54.5C124.88 55.37 124.7 56.3 124.7 57.27C124.7 58.56 125.01 59.8 125.58 60.96C125.62 61.04 125.64 61.11 125.68 61.19L125.82 61.45L125.54 61.54C123.19 62.36 121.31 64.08 120.26 66.22C119.55 66.02 118.81 65.9 118.04 65.9C117.24 65.9 116.47 66.03 115.74 66.24C114.69 64.13 112.86 62.42 110.55 61.55L110.26 61.44L110.39 61.19C110.43 61.11 110.46 61.04 110.49 60.96C111.07 59.8 111.37 58.56 111.37 57.27C111.37 56.3 111.19 55.37 110.89 54.49C110.69 53.94 110.44 53.42 110.14 52.93C109.57 51.99 108.82 51.17 107.93 50.53C108.95 48.96 110.58 47.81 112.49 47.5L112.6 47.48C114.16 48.75 116.16 49.51 118.07 49.51C120.01 49.51 121.9 48.82 123.38 47.56L123.59 47.5C125.52 47.86 127.12 49 128.12 50.54ZM90.43 66.22C89.72 66.02 88.98 65.9 88.21 65.9C87.41 65.9 86.64 66.03 85.91 66.24C84.87 64.13 83.03 62.42 80.72 61.55L80.43 61.44L80.56 61.19C80.6 61.11 80.63 61.04 80.67 60.96C81.24 59.8 81.54 58.56 81.54 57.27C81.54 56.3 81.37 55.37 81.06 54.49C80.86 53.94 80.61 53.42 80.31 52.93C79.74 51.99 78.99 51.17 78.11 50.53C79.12 48.96 80.75 47.81 82.66 47.5L82.77 47.48C84.33 48.75 86.33 49.51 88.25 49.51C90.18 49.51 92.07 48.82 93.56 47.56L93.76 47.5C95.69 47.86 97.29 49 98.3 50.54C97.42 51.18 96.68 51.99 96.11 52.93C95.81 53.42 95.56 53.94 95.36 54.5C95.05 55.37 94.88 56.3 94.88 57.27C94.88 58.56 95.18 59.8 95.75 60.96C95.79 61.04 95.82 61.11 95.86 61.19L95.99 61.45L95.72 61.54C93.37 62.36 91.48 64.08 90.43 66.22ZM68.74 60.96C68.18 60.28 67.78 59.47 67.58 58.58C67.49 58.16 67.43 57.72 67.43 57.27C67.43 55.56 68.16 54.01 69.32 52.93L69.46 52.93C69.45 52.89 69.44 52.85 69.43 52.82C70.05 52.27 70.77 51.85 71.58 51.6C72.12 51.43 72.7 51.34 73.3 51.34C73.89 51.34 74.47 51.43 75.01 51.6C75.81 51.84 76.53 52.26 77.15 52.81C77.14 52.85 77.13 52.89 77.12 52.93L77.28 52.93C78.43 54.01 79.16 55.56 79.16 57.27C79.16 57.72 79.11 58.16 79.01 58.58C78.81 59.47 78.4 60.28 77.85 60.96C77.68 61.17 77.49 61.37 77.3 61.55C76.25 62.53 74.84 63.14 73.3 63.14C71.75 63.14 70.34 62.53 69.29 61.55C69.1 61.37 68.91 61.17 68.74 60.96ZM83.53 44.75C83.02 44.06 82.65 43.25 82.49 42.37C82.42 42.01 82.38 41.64 82.38 41.27C82.38 40.08 82.73 38.98 83.32 38.06C83.62 37.59 83.98 37.16 84.4 36.8C85.02 36.25 85.74 35.83 86.55 35.59C87.08 35.42 87.65 35.33 88.25 35.33C88.81 35.33 89.35 35.41 89.87 35.57C90.67 35.8 91.41 36.2 92.03 36.74C92.47 37.12 92.86 37.56 93.17 38.06C93.76 38.98 94.11 40.08 94.11 41.27C94.11 41.64 94.07 42.01 94 42.37C93.84 43.25 93.47 44.06 92.96 44.75C92.33 45.59 91.48 46.27 90.5 46.68C89.81 46.97 89.04 47.13 88.25 47.13C87.45 47.13 86.68 46.97 85.99 46.68C85.01 46.27 84.16 45.59 83.53 44.75ZM98.57 60.96C98.01 60.28 97.61 59.47 97.41 58.58C97.31 58.16 97.26 57.72 97.26 57.27C97.26 55.56 97.99 54.01 99.14 52.93L99.29 52.93C99.28 52.89 99.27 52.85 99.26 52.82C99.87 52.27 100.6 51.85 101.4 51.6C101.95 51.43 102.52 51.34 103.12 51.34C103.72 51.34 104.29 51.43 104.83 51.6C105.64 51.84 106.36 52.26 106.98 52.81C106.97 52.85 106.96 52.89 106.95 52.93L107.1 52.93C108.26 54.01 108.99 55.56 108.99 57.27C108.99 57.72 108.93 58.16 108.84 58.58C108.63 59.47 108.23 60.28 107.68 60.96C107.51 61.17 107.32 61.37 107.12 61.55C106.08 62.53 104.67 63.14 103.12 63.14C101.58 63.14 100.17 62.53 99.12 61.55C98.92 61.37 98.74 61.17 98.57 60.96ZM116.37 35.59C116.91 35.42 117.48 35.33 118.07 35.33C120.14 35.33 121.95 36.42 123 38.06C123.59 38.98 123.94 40.08 123.94 41.27C123.94 43.7 122.45 45.8 120.33 46.68C119.63 46.97 118.87 47.13 118.07 47.13C117.27 47.13 116.51 46.97 115.82 46.68C114.83 46.27 113.99 45.59 113.36 44.75C112.85 44.06 112.48 43.25 112.31 42.37C112.25 42.01 112.21 41.64 112.21 41.27C112.21 40.08 112.55 38.98 113.15 38.06C113.45 37.59 113.81 37.16 114.23 36.8C114.84 36.25 115.57 35.83 116.37 35.59ZM113.32 34.48C112.07 35.38 111.07 36.61 110.47 38.06C110.43 38.15 110.4 38.25 110.36 38.34C110.02 39.25 109.83 40.24 109.83 41.27C109.83 42.48 110.1 43.65 110.61 44.75C110.67 44.89 110.73 45.04 110.81 45.18L110.94 45.44L110.67 45.54C109.85 45.82 109.11 46.21 108.42 46.68C107.37 47.41 106.48 48.35 105.82 49.42C104.97 49.12 104.07 48.96 103.12 48.96C102.17 48.96 101.26 49.13 100.41 49.43C99.74 48.36 98.86 47.42 97.81 46.68C97.15 46.22 96.43 45.82 95.64 45.53L95.38 45.43L95.51 45.18C95.59 45.04 95.64 44.89 95.71 44.75C96.22 43.65 96.49 42.48 96.49 41.27C96.49 40.22 96.29 39.23 95.94 38.3C95.91 38.22 95.88 38.14 95.85 38.06C95.24 36.59 94.22 35.34 92.94 34.44C93.95 32.8 95.62 31.61 97.58 31.29L97.68 31.27C99.25 32.53 101.25 33.3 103.16 33.3C105.1 33.3 106.98 32.61 108.47 31.34L108.68 31.29C110.67 31.66 112.32 32.86 113.32 34.48ZM101.62 19.33C102.11 19.2 102.63 19.12 103.16 19.12C104.52 19.12 105.77 19.59 106.77 20.38C108.14 21.47 109.02 23.16 109.02 25.05C109.02 26.58 108.44 27.96 107.48 29.01C106.41 30.18 104.87 30.92 103.16 30.92C101.45 30.92 99.91 30.18 98.84 29.01C98.56 28.7 98.31 28.37 98.1 28.01C97.68 27.29 97.4 26.49 97.32 25.63C97.3 25.44 97.29 25.25 97.29 25.05C97.29 23.23 98.11 21.59 99.4 20.5C99.45 20.46 99.5 20.42 99.55 20.38C100.16 19.9 100.86 19.54 101.62 19.33ZM88.28 2.38C91.52 2.38 94.15 5.04 94.15 8.31C94.15 11.55 91.52 14.18 88.28 14.18C85.05 14.18 82.41 11.55 82.41 8.31C82.41 5.04 85.05 2.38 88.28 2.38ZM82.7 14.55L82.81 14.53C84.37 15.79 86.37 16.56 88.28 16.56C90.22 16.56 92.11 15.86 93.59 14.6L93.8 14.55C95.93 14.94 97.68 16.3 98.64 18.1C97.74 18.7 96.95 19.48 96.34 20.38C96.06 20.79 95.82 21.23 95.62 21.69C95.17 22.72 94.91 23.86 94.91 25.05C94.91 26.07 95.1 27.06 95.46 28.01C95.58 28.33 95.72 28.65 95.89 28.97L96.03 29.23L95.75 29.32C93.63 30.06 91.9 31.52 90.81 33.37C90 33.1 89.14 32.95 88.25 32.95C87.32 32.95 86.44 33.11 85.61 33.39C84.52 31.57 82.82 30.1 80.73 29.32L80.47 29.22L80.58 29.01C80.75 28.69 80.91 28.33 81.03 28.01C81.39 27.06 81.58 26.07 81.58 25.05C81.58 23.86 81.32 22.72 80.87 21.69C80.66 21.23 80.43 20.79 80.15 20.38C79.54 19.47 78.75 18.7 77.84 18.1C78.81 16.26 80.58 14.89 82.7 14.55ZM67.47 25.05C67.47 23.16 68.35 21.47 69.73 20.38C70.72 19.59 71.97 19.12 73.33 19.12C73.86 19.12 74.37 19.19 74.86 19.33C75.63 19.54 76.33 19.9 76.94 20.38C76.98 20.42 77.03 20.45 77.08 20.49C78.37 21.58 79.2 23.22 79.2 25.05C79.2 25.25 79.19 25.44 79.17 25.63C79.08 26.49 78.81 27.29 78.39 28.01C78.18 28.37 77.93 28.7 77.65 29.01C76.58 30.18 75.04 30.92 73.33 30.92C71.62 30.92 70.08 30.18 69.01 29.01C68.05 27.96 67.47 26.58 67.47 25.05ZM67.75 31.29L67.86 31.27C69.42 32.53 71.42 33.3 73.33 33.3C75.27 33.3 77.16 32.61 78.64 31.34L78.85 31.29C80.84 31.66 82.49 32.86 83.49 34.48C82.24 35.38 81.24 36.61 80.64 38.06C80.6 38.15 80.57 38.25 80.54 38.34C80.19 39.25 80 40.24 80 41.27C80 42.48 80.27 43.65 80.78 44.75C80.85 44.89 80.9 45.04 80.98 45.18L81.11 45.44L80.84 45.54C80.03 45.82 79.28 46.21 78.6 46.68C77.54 47.41 76.66 48.35 75.99 49.42C75.14 49.12 74.24 48.96 73.3 48.96C72.34 48.96 71.43 49.13 70.58 49.43C69.91 48.36 69.03 47.42 67.98 46.68C67.32 46.22 66.6 45.82 65.82 45.53L65.55 45.43L65.68 45.18C65.76 45.04 65.82 44.89 65.88 44.75C66.39 43.65 66.66 42.48 66.66 41.27C66.66 40.22 66.46 39.23 66.11 38.3C66.08 38.22 66.06 38.14 66.02 38.06C65.41 36.59 64.39 35.34 63.11 34.44C64.13 32.8 65.79 31.61 67.75 31.29ZM52.55 41.27C52.55 40.08 52.9 38.98 53.49 38.06C54.54 36.42 56.35 35.33 58.42 35.33C58.98 35.33 59.53 35.41 60.04 35.57C60.85 35.8 61.58 36.2 62.2 36.74C62.64 37.12 63.03 37.56 63.34 38.06C63.94 38.98 64.28 40.08 64.28 41.27C64.28 41.64 64.24 42.01 64.18 42.37C64.01 43.25 63.64 44.06 63.13 44.75C62.5 45.59 61.66 46.27 60.67 46.68L56.16 46.68C54.04 45.8 52.55 43.7 52.55 41.27ZM52.83 47.5L52.94 47.48C54.51 48.75 56.51 49.51 58.42 49.51C60.36 49.51 62.24 48.82 63.73 47.56L63.93 47.5C65.86 47.86 67.46 49 68.47 50.54C67.59 51.18 66.85 51.99 66.28 52.93C65.98 53.42 65.73 53.94 65.53 54.5C65.23 55.37 65.05 56.3 65.05 57.27C65.05 58.56 65.35 59.8 65.92 60.96C65.96 61.04 65.99 61.11 66.03 61.19L66.16 61.45L65.89 61.54C63.54 62.36 61.65 64.08 60.6 66.22C59.89 66.02 59.15 65.9 58.38 65.9C57.58 65.9 56.81 66.03 56.08 66.24C55.04 64.13 53.21 62.42 50.89 61.55L50.6 61.44L50.74 61.19C50.78 61.11 50.8 61.04 50.84 60.96C51.41 59.8 51.71 58.56 51.71 57.27C51.71 56.3 51.54 55.37 51.23 54.49C51.04 53.94 50.79 53.42 50.48 52.93C49.91 51.99 49.16 51.17 48.28 50.53C49.3 48.96 50.92 47.81 52.83 47.5ZM37.6 57.27C37.6 55.56 38.33 54.01 39.49 52.93C40.53 51.94 41.93 51.34 43.47 51.34C44.06 51.34 44.64 51.43 45.18 51.6C45.98 51.84 46.71 52.26 47.32 52.81C47.31 52.85 47.3 52.89 47.3 52.93L47.45 52.93C48.61 54.01 49.33 55.56 49.33 57.27C49.33 57.72 49.28 58.16 49.18 58.58C48.98 59.47 48.58 60.28 48.02 60.96C47.85 61.17 47.67 61.37 47.47 61.55C46.42 62.53 45.02 63.14 43.47 63.14C41.92 63.14 40.52 62.53 39.47 61.55C38.32 60.48 37.6 58.96 37.6 57.27ZM28.56 80.09C27.23 80.09 26.01 79.64 25.03 78.9C23.61 77.83 22.69 76.13 22.69 74.22C22.69 72.71 23.26 71.33 24.18 70.28C25.26 69.06 26.82 68.28 28.56 68.28C29.06 68.28 29.55 68.36 30.01 68.48C30.84 68.69 31.6 69.08 32.24 69.61C32.49 69.81 32.71 70.04 32.92 70.28C33.85 71.33 34.42 72.71 34.42 74.22C34.42 74.35 34.41 74.47 34.4 74.59C34.35 75.44 34.12 76.25 33.74 76.97C33.33 77.73 32.76 78.39 32.08 78.9C31.1 79.64 29.88 80.09 28.56 80.09ZM54.66 104.26L54.66 108.54L51.21 108.54L51.21 105.48C51.21 104.83 50.68 104.29 50.02 104.29C49.36 104.29 48.83 104.83 48.83 105.48L48.83 108.54L38.03 108.54L38.03 105.48C38.03 104.83 37.5 104.29 36.84 104.29C36.19 104.29 35.65 104.83 35.65 105.48L35.65 108.54L32.2 108.54L32.2 104.26C32.2 100.91 34.64 97.99 37.88 97.46L38 97.44C39.56 98.71 41.56 99.47 43.47 99.47C45.41 99.47 47.29 98.78 48.78 97.52L48.99 97.46C52.28 98.07 54.66 100.93 54.66 104.26ZM47.45 86.88C48.61 87.96 49.33 89.51 49.33 91.23C49.33 91.33 49.32 91.43 49.32 91.54C49.27 92.39 49.05 93.2 48.68 93.92C48.37 94.51 47.96 95.05 47.47 95.51C46.42 96.49 45.02 97.09 43.47 97.09C41.92 97.09 40.52 96.49 39.47 95.51C38.98 95.05 38.57 94.51 38.26 93.92C37.89 93.2 37.66 92.39 37.62 91.54C37.61 91.43 37.6 91.33 37.6 91.23C37.6 89.51 38.33 87.96 39.49 86.88L39.72 86.88C39.71 86.81 39.7 86.75 39.7 86.68C40.34 86.14 41.11 85.73 41.95 85.5C42.43 85.37 42.94 85.29 43.47 85.29C43.97 85.29 44.45 85.36 44.91 85.48C45.74 85.69 46.5 86.08 47.15 86.61C47.14 86.7 47.14 86.79 47.13 86.88L47.45 86.88ZM45.66 83.22C44.96 83.02 44.23 82.91 43.47 82.91C42.68 82.91 41.92 83.03 41.19 83.24C40.29 81.39 38.79 79.85 36.89 78.9C36.59 78.75 36.28 78.61 35.96 78.49L35.69 78.39L35.82 78.14C36.02 77.76 36.18 77.36 36.32 76.97C36.63 76.08 36.8 75.17 36.8 74.22C36.8 72.96 36.51 71.76 36.01 70.68C35.94 70.55 35.88 70.41 35.81 70.28C35.13 69.02 34.14 67.96 32.95 67.2C33.91 65.29 35.72 63.86 37.88 63.51L38 63.49C39.56 64.75 41.56 65.52 43.47 65.52C45.41 65.52 47.29 64.83 48.78 63.56L48.99 63.51C51.19 63.92 52.97 65.35 53.91 67.24C52.75 68 51.79 69.04 51.12 70.28C51.04 70.43 50.97 70.59 50.9 70.75C50.41 71.81 50.14 72.98 50.14 74.22C50.14 75.17 50.3 76.08 50.61 76.97C50.75 77.36 50.91 77.76 51.11 78.14L51.25 78.39L50.98 78.49C50.64 78.61 50.31 78.75 50 78.9C48.08 79.82 46.57 81.36 45.66 83.22ZM58.38 80.09C57.06 80.09 55.84 79.64 54.86 78.9C54.17 78.39 53.61 77.73 53.2 76.97C52.82 76.25 52.59 75.44 52.53 74.59C52.53 74.47 52.52 74.35 52.52 74.22C52.52 72.71 53.09 71.33 54.01 70.28C54.2 70.06 54.39 69.87 54.61 69.68C55.25 69.13 56.02 68.73 56.85 68.5C57.34 68.36 57.85 68.28 58.38 68.28C58.88 68.28 59.37 68.36 59.84 68.48C60.66 68.69 61.42 69.08 62.07 69.61C62.31 69.81 62.54 70.04 62.75 70.28C63.68 71.33 64.25 72.71 64.25 74.22C64.25 74.35 64.24 74.47 64.23 74.59C64.18 75.44 63.94 76.25 63.56 76.97C63.16 77.73 62.59 78.39 61.9 78.9C60.92 79.64 59.71 80.09 58.38 80.09ZM84.49 104.26L84.49 108.54L81.04 108.54L81.04 105.48C81.04 104.83 80.5 104.29 79.85 104.29C79.19 104.29 78.66 104.83 78.66 105.48L78.66 108.54L67.86 108.54L67.86 105.48C67.86 104.83 67.33 104.29 66.67 104.29C66.01 104.29 65.48 104.83 65.48 105.48L65.48 108.54L62.03 108.54L62.03 104.26C62.03 100.91 64.47 97.99 67.71 97.46L67.82 97.44C69.38 98.71 71.38 99.47 73.3 99.47C75.24 99.47 77.12 98.78 78.61 97.52L78.81 97.46C82.1 98.07 84.49 100.93 84.49 104.26ZM77.28 86.88C78.43 87.96 79.16 89.51 79.16 91.23C79.16 91.33 79.15 91.43 79.15 91.54C79.1 92.39 78.88 93.2 78.5 93.92C78.19 94.51 77.78 95.05 77.3 95.51C76.25 96.49 74.84 97.09 73.3 97.09C71.75 97.09 70.34 96.49 69.29 95.51C68.81 95.05 68.4 94.51 68.09 93.92C67.71 93.2 67.49 92.39 67.44 91.54C67.44 91.43 67.43 91.33 67.43 91.23C67.43 89.51 68.16 87.96 69.32 86.88L69.54 86.88C69.54 86.81 69.53 86.75 69.53 86.68C70.17 86.14 70.94 85.73 71.78 85.5C72.26 85.37 72.77 85.29 73.3 85.29C73.8 85.29 74.28 85.36 74.74 85.48C75.57 85.69 76.33 86.08 76.97 86.61C76.97 86.7 76.97 86.79 76.96 86.88L77.28 86.88ZM75.49 83.22C74.79 83.02 74.06 82.91 73.3 82.91C72.51 82.91 71.74 83.03 71.02 83.24C70.12 81.39 68.61 79.85 66.71 78.9C66.41 78.75 66.1 78.61 65.78 78.49L65.51 78.39L65.65 78.14C65.85 77.76 66.01 77.36 66.15 76.97C66.46 76.08 66.63 75.17 66.63 74.22C66.63 72.96 66.34 71.76 65.84 70.68C65.77 70.55 65.71 70.41 65.64 70.28C64.96 69.02 63.97 67.96 62.78 67.2C63.74 65.29 65.54 63.86 67.71 63.51L67.82 63.49C69.38 64.75 71.38 65.52 73.3 65.52C75.24 65.52 77.12 64.83 78.61 63.56L78.81 63.51C81.02 63.92 82.8 65.35 83.74 67.24C82.58 68 81.62 69.04 80.95 70.28C80.87 70.43 80.8 70.59 80.73 70.75C80.24 71.81 79.96 72.98 79.96 74.22C79.96 75.17 80.13 76.08 80.44 76.97C80.58 77.36 80.74 77.76 80.94 78.14L81.08 78.39L80.8 78.49C80.47 78.61 80.14 78.75 79.82 78.9C77.91 79.82 76.39 81.36 75.49 83.22ZM88.21 80.09C86.89 80.09 85.67 79.64 84.68 78.9C84 78.39 83.43 77.73 83.03 76.97C82.65 76.25 82.41 75.44 82.36 74.59C82.35 74.47 82.34 74.35 82.34 74.22C82.34 72.71 82.91 71.33 83.84 70.28C84.02 70.06 84.22 69.87 84.43 69.68C85.08 69.13 85.84 68.73 86.68 68.5C87.17 68.36 87.68 68.28 88.21 68.28C88.71 68.28 89.2 68.36 89.67 68.48C90.49 68.69 91.25 69.08 91.89 69.61C92.14 69.81 92.37 70.04 92.58 70.28C93.51 71.33 94.08 72.71 94.08 74.22C94.08 74.35 94.06 74.47 94.06 74.59C94 75.44 93.77 76.25 93.39 76.97C92.99 77.73 92.41 78.39 91.73 78.9C90.75 79.64 89.53 80.09 88.21 80.09ZM114.32 104.26L114.32 108.54L110.86 108.54L110.86 105.48C110.86 104.83 110.33 104.29 109.67 104.29C109.02 104.29 108.48 104.83 108.48 105.48L108.48 108.54L97.69 108.54L97.69 105.48C97.69 104.83 97.15 104.29 96.5 104.29C95.84 104.29 95.31 104.83 95.31 105.48L95.31 108.54L91.86 108.54L91.86 104.26C91.86 100.91 94.3 97.99 97.54 97.46L97.65 97.44C99.21 98.71 101.21 99.47 103.12 99.47C105.06 99.47 106.95 98.78 108.43 97.52L108.64 97.46C111.93 98.07 114.32 100.93 114.32 104.26ZM107.1 86.88C108.26 87.96 108.99 89.51 108.99 91.23C108.99 91.33 108.98 91.43 108.97 91.54C108.93 92.39 108.7 93.2 108.33 93.92C108.02 94.51 107.61 95.05 107.12 95.51C106.08 96.49 104.67 97.09 103.12 97.09C101.58 97.09 100.17 96.49 99.12 95.51C98.63 95.05 98.22 94.51 97.91 93.92C97.54 93.2 97.32 92.39 97.27 91.54C97.27 91.43 97.26 91.33 97.26 91.23C97.26 89.51 97.99 87.96 99.14 86.88C99.21 86.81 99.28 86.75 99.35 86.68C100 86.14 100.77 85.73 101.6 85.5C102.09 85.37 102.6 85.29 103.12 85.29C103.62 85.29 104.11 85.36 104.57 85.48C105.4 85.69 106.16 86.08 106.8 86.61C106.91 86.7 107.01 86.79 107.1 86.88ZM105.32 83.22C104.62 83.02 103.88 82.91 103.12 82.91C102.33 82.91 101.57 83.03 100.85 83.24C99.95 81.39 98.44 79.85 96.54 78.9C96.24 78.75 95.93 78.61 95.61 78.49L95.34 78.39L95.48 78.14C95.68 77.76 95.84 77.36 95.98 76.97C96.29 76.08 96.46 75.17 96.46 74.22C96.46 72.96 96.16 71.76 95.66 70.68C95.6 70.55 95.54 70.41 95.47 70.28C94.79 69.02 93.8 67.96 92.6 67.2C93.57 65.29 95.37 63.86 97.54 63.51L97.65 63.49C99.21 64.75 101.21 65.52 103.12 65.52C105.06 65.52 106.95 64.83 108.43 63.56L108.64 63.51C110.84 63.92 112.62 65.35 113.57 67.24C112.41 68 111.44 69.04 110.78 70.28C110.7 70.43 110.63 70.59 110.55 70.75C110.07 71.81 109.79 72.98 109.79 74.22C109.79 75.17 109.96 76.08 110.27 76.97C110.41 77.36 110.57 77.76 110.77 78.14L110.91 78.39L110.63 78.49C110.29 78.61 109.97 78.75 109.65 78.9C107.74 79.82 106.22 81.36 105.32 83.22ZM118.04 80.09C116.71 80.09 115.5 79.64 114.51 78.9C113.83 78.39 113.26 77.73 112.86 76.97C112.47 76.25 112.24 75.44 112.19 74.59C112.18 74.47 112.17 74.35 112.17 74.22C112.17 72.71 112.74 71.33 113.67 70.28C113.85 70.06 114.05 69.87 114.26 69.68C114.91 69.13 115.67 68.73 116.51 68.5C117 68.36 117.51 68.28 118.04 68.28C118.54 68.28 119.03 68.36 119.49 68.48C120.32 68.69 121.08 69.08 121.72 69.61C121.97 69.81 122.2 70.04 122.41 70.28C123.33 71.33 123.9 72.71 123.9 74.22C123.9 74.35 123.89 74.47 123.88 74.59C123.83 75.44 123.6 76.25 123.22 76.97C122.81 77.73 122.24 78.39 121.56 78.9C120.58 79.64 119.36 80.09 118.04 80.09ZM144.14 104.26L144.14 108.54L140.69 108.54L140.69 105.48C140.69 104.83 140.16 104.29 139.5 104.29C138.85 104.29 138.31 104.83 138.31 105.48L138.31 108.54L127.52 108.54L127.52 105.48C127.52 104.83 126.98 104.29 126.33 104.29C125.67 104.29 125.14 104.83 125.14 105.48L125.14 108.54L121.68 108.54L121.68 104.26C121.68 100.91 124.13 97.99 127.37 97.46L127.48 97.44C129.04 98.71 131.04 99.47 132.95 99.47C134.89 99.47 136.78 98.78 138.26 97.52L138.47 97.46C141.76 98.07 144.14 100.93 144.14 104.26ZM136.93 86.88C138.09 87.96 138.82 89.51 138.82 91.23C138.82 91.33 138.81 91.43 138.8 91.54C138.75 92.39 138.53 93.2 138.16 93.92C137.85 94.51 137.44 95.05 136.95 95.51C135.9 96.49 134.5 97.09 132.95 97.09C131.4 97.09 130 96.49 128.95 95.51C128.46 95.05 128.05 94.51 127.74 93.92C127.37 93.2 127.14 92.39 127.1 91.54C127.09 91.43 127.08 91.33 127.08 91.23C127.08 89.51 127.81 87.96 128.97 86.88C129.04 86.81 129.11 86.75 129.18 86.68C129.83 86.14 130.59 85.73 131.43 85.5C131.92 85.37 132.42 85.29 132.95 85.29C133.45 85.29 133.93 85.36 134.4 85.48C135.22 85.69 135.98 86.08 136.63 86.61C136.73 86.7 136.83 86.79 136.93 86.88ZM135.15 83.22C134.45 83.02 133.71 82.91 132.95 82.91C132.16 82.91 131.4 83.03 130.67 83.24C129.77 81.39 128.27 79.85 126.37 78.9C126.07 78.75 125.76 78.61 125.44 78.49L125.17 78.39L125.3 78.14C125.51 77.76 125.66 77.36 125.8 76.97C126.11 76.08 126.28 75.17 126.28 74.22C126.28 72.96 125.99 71.76 125.49 70.68C125.43 70.55 125.36 70.41 125.29 70.28C124.62 69.02 123.63 67.96 122.43 67.2C123.39 65.29 125.2 63.86 127.37 63.51L127.48 63.49C129.04 64.75 131.04 65.52 132.95 65.52C134.89 65.52 136.78 64.83 138.26 63.56L138.47 63.51C140.67 63.92 142.45 65.35 143.4 67.24C142.23 68 141.27 69.04 140.61 70.28C140.53 70.43 140.45 70.59 140.38 70.75C139.9 71.81 139.62 72.98 139.62 74.22C139.62 75.17 139.78 76.08 140.1 76.97C140.24 77.36 140.39 77.76 140.6 78.14L140.73 78.39L140.46 78.49C140.12 78.61 139.8 78.75 139.48 78.9C137.56 79.82 136.05 81.36 135.15 83.22ZM147.86 80.09C146.54 80.09 145.32 79.64 144.34 78.9C143.66 78.39 143.09 77.73 142.68 76.97C142.3 76.25 142.07 75.44 142.02 74.59C142.01 74.47 142 74.35 142 74.22C142 72.71 142.57 71.33 143.49 70.28C143.68 70.06 143.88 69.87 144.09 69.68C144.73 69.13 145.5 68.73 146.33 68.5C146.82 68.36 147.33 68.28 147.86 68.28C149.6 68.28 151.16 69.06 152.23 70.28C153.16 71.33 153.73 72.71 153.73 74.22C153.73 76.13 152.81 77.83 151.39 78.9C150.41 79.64 149.19 80.09 147.86 80.09ZM157.57 93.92C157.2 93.2 156.97 92.39 156.93 91.54C156.92 91.43 156.91 91.33 156.91 91.23C156.91 89.51 157.64 87.96 158.8 86.88L159.02 86.88C159.02 86.81 159.01 86.75 159.01 86.68C159.65 86.14 160.42 85.73 161.26 85.5C161.74 85.37 162.25 85.29 162.78 85.29C166.01 85.29 168.64 87.95 168.64 91.23C168.64 94.46 166.01 97.09 162.78 97.09C161.23 97.09 159.82 96.49 158.78 95.51C158.29 95.05 157.88 94.51 157.57 93.92ZM173.97 108.54L170.52 108.54L170.52 105.48C170.52 104.83 169.99 104.29 169.33 104.29C168.67 104.29 168.14 104.83 168.14 105.48L168.14 108.54L157.34 108.54L157.34 105.48C157.34 104.83 156.81 104.29 156.15 104.29C155.5 104.29 154.96 104.83 154.96 105.48L154.96 108.54L151.51 108.54L151.51 104.26C151.51 100.91 153.95 97.99 157.19 97.46L157.3 97.44C158.87 98.71 160.87 99.47 162.78 99.47C164.72 99.47 166.6 98.78 168.09 97.52L168.3 97.46C171.58 98.07 173.97 100.93 173.97 104.26L173.97 108.54Z" fill="#00374B" fill-opacity="1.000000" fill-rule="nonzero"/>
		</g>
	</g>
	<mask id="mask1_445" mask-type="alpha" maskUnits="userSpaceOnUse" x="130.978027" y="36.812500" width="90.755859" height="90.755859">
		<g style="mix-blend-mode:normal">
			<rect id="Rectangle 78" x="130.978027" y="36.812500" width="90.755859" height="90.755859" fill="#C4C4C4" fill-opacity="1.000000"/>
		</g>
	</mask>
	<g mask="url(#mask1_445)">
		<g style="mix-blend-mode:normal">
			<path id="Tracé 524" d="M220.42 82.19C220.42 106.53 200.69 126.26 176.35 126.26C152.01 126.26 132.28 106.53 132.28 82.19C132.28 57.84 152.01 38.11 176.35 38.11C200.69 38.11 220.42 57.84 220.42 82.19Z" fill="#FFFFFF" fill-opacity="1.000000" fill-rule="nonzero"/>
		</g>
	</g>
	<g mask="url(#mask1_445)">
		<g style="mix-blend-mode:normal">
			<path id="Tracé 525" d="M176.35 127.56C164.23 127.56 152.84 122.84 144.26 114.27C135.69 105.7 130.97 94.31 130.97 82.19C130.97 70.06 135.69 58.67 144.26 50.1C152.84 41.53 164.23 36.81 176.35 36.81C188.47 36.81 199.87 41.53 208.44 50.1C217.01 58.67 221.73 70.06 221.73 82.19C221.73 94.31 217.01 105.7 208.44 114.27C199.87 122.84 188.47 127.56 176.35 127.56ZM176.35 39.42C164.93 39.42 154.19 43.87 146.11 51.94C138.03 60.02 133.58 70.76 133.58 82.19C133.58 93.61 138.03 104.35 146.11 112.43C154.19 120.51 164.93 124.95 176.35 124.95C187.78 124.95 198.52 120.51 206.59 112.43C214.67 104.35 219.12 93.61 219.12 82.19C219.12 70.76 214.67 60.02 206.59 51.94C198.52 43.87 187.78 39.42 176.35 39.42Z" fill="#00374B" fill-opacity="1.000000" fill-rule="nonzero"/>
		</g>
	</g>
	<g mask="url(#mask1_445)">
		<g style="mix-blend-mode:normal">
			<path id="Tracé 526" d="M203.12 82.01C202.32 82.01 201.78 82.55 201.78 83.35L201.78 100.75C201.78 101.55 201.25 102.09 200.44 102.09L152.26 102.09C151.46 102.09 150.92 101.55 150.92 100.75L150.92 83.35C150.92 82.55 150.39 82.01 149.59 82.01C148.78 82.01 148.25 82.55 148.25 83.35L148.25 100.75C148.25 103.02 149.99 104.76 152.26 104.76L200.44 104.76C202.72 104.76 204.46 103.02 204.46 100.75L204.46 83.35C204.46 82.55 203.92 82.01 203.12 82.01Z" fill="#00374B" fill-opacity="1.000000" fill-rule="nonzero"/>
		</g>
	</g>
	<g mask="url(#mask1_445)">
		<g style="mix-blend-mode:normal">
			<path id="Tracé 527" d="M201.78 63.27L150.92 63.27C148.65 63.27 146.91 65.01 146.91 67.29L146.91 75.86C146.91 77.73 148.25 79.33 149.99 79.74L171 84.42L171 88.7C171 89.51 171.53 90.04 172.34 90.04L180.37 90.04C181.17 90.04 181.7 89.51 181.7 88.7L181.7 84.42L202.72 79.74C204.46 79.33 205.8 77.73 205.8 75.86L205.8 67.29C205.8 65.01 204.06 63.27 201.78 63.27ZM179.03 87.36L173.68 87.36L173.68 82.01L179.03 82.01L179.03 87.36ZM203.12 75.86C203.12 76.52 202.72 77.06 202.05 77.19L181.7 81.74L181.7 80.67C181.7 79.87 181.17 79.33 180.37 79.33L172.34 79.33C171.53 79.33 171 79.87 171 80.67L171 81.74L150.66 77.19C149.99 77.06 149.59 76.52 149.59 75.86L149.59 67.29C149.59 66.49 150.12 65.95 150.92 65.95L201.78 65.95C202.58 65.95 203.12 66.49 203.12 67.29L203.12 75.86Z" fill="#00374B" fill-opacity="1.000000" fill-rule="nonzero"/>
		</g>
	</g>
	<g mask="url(#mask1_445)">
		<g style="mix-blend-mode:normal">
			<path id="Tracé 528" d="M183.04 53.91L169.66 53.91C167.38 53.91 165.65 55.65 165.65 57.92L165.65 59.26C165.65 60.06 166.18 60.6 166.98 60.6C167.79 60.6 168.32 60.06 168.32 59.26L168.32 57.92C168.32 57.12 168.86 56.58 169.66 56.58L183.04 56.58C183.85 56.58 184.38 57.12 184.38 57.92L184.38 59.26C184.38 60.06 184.92 60.6 185.72 60.6C186.52 60.6 187.06 60.06 187.06 59.26L187.06 57.92C187.06 55.65 185.32 53.91 183.04 53.91Z" fill="#00374B" fill-opacity="1.000000" fill-rule="nonzero"/>
		</g>
	</g>
</svg>
