<svg id="axe1" xmlns="http://www.w3.org/2000/svg" width="196.802" height="141.266" viewBox="0 0 196.802 141.266">
  <g id="Group_44" data-name="Group 44" transform="translate(-64.5 -55)">
    <g id="RRESS_icone_axe1" transform="translate(64.5 55)">
      <g id="Group_43" data-name="Group 43">
        <path id="Path_311" data-name="Path 311" d="M433.087,294.1a1.982,1.982,0,0,0-1.348.539,1.774,1.774,0,0,0-.539,1.258,1.632,1.632,0,0,0,.539,1.258,1.829,1.829,0,0,0,1.348.539h36.485a1.829,1.829,0,0,0,1.348-.539,1.737,1.737,0,0,0,0-2.516,1.829,1.829,0,0,0-1.348-.539Z" transform="translate(-290.293 -225.174)" fill="#0d312f"/>
        <path id="Path_312" data-name="Path 312" d="M469.156,311.355a1.774,1.774,0,0,0,.539-1.258,1.632,1.632,0,0,0-.539-1.258,2.273,2.273,0,0,0-1.348-.539H415.687a1.981,1.981,0,0,0-1.348.539,1.774,1.774,0,0,0-.539,1.258,1.824,1.824,0,0,0,1.887,1.8h52.121a1.829,1.829,0,0,0,1.348-.539" transform="translate(-288.529 -226.613)" fill="#0d312f"/>
        <path id="Path_313" data-name="Path 313" d="M433.087,322.4a1.981,1.981,0,0,0-1.348.539,1.737,1.737,0,0,0,0,2.516,1.829,1.829,0,0,0,1.348.539h36.485a1.981,1.981,0,0,0,1.348-.539,1.774,1.774,0,0,0,.539-1.258,1.632,1.632,0,0,0-.539-1.258,1.829,1.829,0,0,0-1.348-.539Z" transform="translate(-290.293 -228.043)" fill="#0d312f"/>
        <path id="Path_314" data-name="Path 314" d="M333.34,293.6H325.7a5.248,5.248,0,0,0-5.3,4.943,5.155,5.155,0,0,0,1.438,3.684,5.243,5.243,0,0,0,3.684,1.528h45.741A44.575,44.575,0,0,0,374.5,293.6H333.34Z" transform="translate(-279.063 -225.124)" fill="#0d312f"/>
        <path id="Path_315" data-name="Path 315" d="M316.238,326.732a10.234,10.234,0,0,1-1.438,5.122h28.307A48.852,48.852,0,0,0,359.822,321.7H314.8a8.9,8.9,0,0,1,1.438,5.032" transform="translate(-278.495 -227.972)" fill="#0d312f"/>
        <path id="Path_316" data-name="Path 316" d="M309.618,314.9A1.611,1.611,0,0,0,308,316.518a1.893,1.893,0,0,0,.449,1.168,1.708,1.708,0,0,0,1.168.449h52.391c.9-1.078,1.8-2.067,2.7-3.235H309.618Z" transform="translate(-277.806 -227.283)" fill="#0d312f"/>
        <path id="Path_317" data-name="Path 317" d="M313.5,297.933a10.937,10.937,0,0,0,3.325,7.908,11.649,11.649,0,0,0,8.088,3.235h42.326a30.14,30.14,0,0,0,1.887-3.235h-44.3a7.867,7.867,0,0,1-5.841-2.426,7.885,7.885,0,0,1,5.931-13.48h49.335c.18-1.078.27-2.157.359-3.235H325c-6.291.18-11.5,5.122-11.5,11.233" transform="translate(-278.363 -224.424)" fill="#0d312f"/>
        <path id="Path_318" data-name="Path 318" d="M468.172,334.942l-18.961,18.512a1,1,0,0,1-1.707-.719V337.728a4.585,4.585,0,0,1,4.583-4.493h15.367a1.01,1.01,0,0,1,.719,1.707M465.3,217.4H368.6a8.151,8.151,0,0,0-8.268,8.088v19.5a41.593,41.593,0,0,1,3.684,4.4V225.4A4.585,4.585,0,0,1,368.6,220.9H465.3a4.526,4.526,0,0,1,4.583,4.493V328.562a1,1,0,0,1-.988.989h-16.8a8.209,8.209,0,0,0-8.268,8.088v16.445a1,1,0,0,1-.988.989H398.348a6.377,6.377,0,0,1-.9,1.258,4.91,4.91,0,0,1-3.415,1.438h-79.35a15.017,15.017,0,0,1-8.807-2.7h-6.29a1.829,1.829,0,0,0-1.348.539,1.8,1.8,0,0,0,1.258,3.055H448.222a1.829,1.829,0,0,0,1.348-.539l23.455-23.005a1.774,1.774,0,0,0,.539-1.258V225.488A8.209,8.209,0,0,0,465.3,217.4" transform="translate(-276.762 -217.4)" fill="#0d312f"/>
        <path id="Path_319" data-name="Path 319" d="M361.658,250.89a43.449,43.449,0,0,0-3.684-4.4h0A48.459,48.459,0,0,0,322.567,231.3c-26.6,0-48.167,21.118-48.167,47.089,0,20.309,13.21,37.653,31.722,44.3h.989a6.963,6.963,0,0,0,0-10.245H306.3a4.412,4.412,0,0,1-3.235-1.348,4.215,4.215,0,0,1-1.348-3.145,4.585,4.585,0,0,1,4.583-4.493h6.021a9.619,9.619,0,0,1-1.438-1.258,14.017,14.017,0,0,1-4.224-9.975c0-7.728,6.56-13.929,14.558-13.929h49.695a47.2,47.2,0,0,0-9.256-27.409" transform="translate(-274.4 -218.809)" fill="#0d312f"/>
        <path id="Path_320" data-name="Path 320" d="M384.844,364.538a1.419,1.419,0,0,0-1.438-1.438h-1.168a1.438,1.438,0,1,0,0,2.876h1.168a1.624,1.624,0,0,0,1.438-1.438" transform="translate(-285.185 -232.168)" fill="#0d312f"/>
        <path id="Path_321" data-name="Path 321" d="M395.534,361.132a1.981,1.981,0,0,1-1.348.539h-79.35a12.786,12.786,0,0,1-8.986-3.595,12.086,12.086,0,0,1-3.684-8.807,12.7,12.7,0,0,1,12.851-12.4h46.909v3.774h-47a8.819,8.819,0,0,0-8.9,8.357,8.2,8.2,0,0,0,2.516,6.2,8.689,8.689,0,0,0,6.29,2.606h59.131a1.438,1.438,0,0,1,0-2.876H314.836a6.141,6.141,0,0,1-4.224-1.707,5.663,5.663,0,0,1,4.314-9.705h47v5.212a1.434,1.434,0,0,0,.719,1.258,1.626,1.626,0,0,0,1.438.09l8.088-4.134,8.088,4.134a1.667,1.667,0,0,0,.629.18,1.693,1.693,0,0,0,.719-.18,1.434,1.434,0,0,0,.719-1.258v-5.212h7.009a10.54,10.54,0,0,0,0,11.5H374.955a1.438,1.438,0,1,1,0,2.876h19.051a1.979,1.979,0,0,1,1.977,1.887,1.476,1.476,0,0,1-.449,1.258m-86.809-30.374h53.2v3.235h-53.2a1.893,1.893,0,0,1-1.168-.449,1.708,1.708,0,0,1-.449-1.168,1.611,1.611,0,0,1,1.618-1.618m56.165-4.583h14.648v20.309l-6.65-3.415a1.665,1.665,0,0,0-.629-.18,1.3,1.3,0,0,0-.629.18l-6.65,3.415V326.175Zm17.523,10.694H394.1a1.979,1.979,0,0,1,1.977,1.887,1.829,1.829,0,0,1-.539,1.348,1.982,1.982,0,0,1-1.348.539H382.5v-3.774Zm16.625,22.915a4.814,4.814,0,0,0-4.853-4.763h-.9a7.611,7.611,0,0,1-2.516-5.751,7.9,7.9,0,0,1,2.516-5.751h.9a4.91,4.91,0,0,0,3.415-1.438,4.7,4.7,0,0,0,1.438-3.325,4.814,4.814,0,0,0-4.853-4.763h-4.493a9.619,9.619,0,0,0,1.438-1.258,14.017,14.017,0,0,0,4.224-9.975c0-7.279-5.841-13.21-13.12-13.929a5.254,5.254,0,0,0,.359-1.707,4.585,4.585,0,0,0-4.583-4.493H377.2a6.963,6.963,0,0,1,0-10.245h.809a4.412,4.412,0,0,0,3.235-1.348,4.215,4.215,0,0,0,1.348-3.145,4.585,4.585,0,0,0-4.583-4.493h-4.673c0,.989,0,1.887-.09,2.876h4.763a1.611,1.611,0,0,1,1.618,1.618,1.893,1.893,0,0,1-.449,1.168,1.708,1.708,0,0,1-1.168.449h-5.122c-.09.989-.27,1.887-.449,2.876h1.078a9.983,9.983,0,0,0-1.438,5.122,10.234,10.234,0,0,0,1.438,5.122h-4.4c-.449.989-.9,1.887-1.438,2.876h10.245a1.611,1.611,0,0,1,1.618,1.618,1.893,1.893,0,0,1-.449,1.168,1.708,1.708,0,0,1-1.168.449H365.789a32.5,32.5,0,0,1-1.977,2.876h17.074a11.417,11.417,0,0,1,11.592,11.143,11.151,11.151,0,0,1-9.975,11.053v-3.145a7.918,7.918,0,0,0-1.618-15.726h-19.77c-.9.988-1.887,1.977-2.786,2.876h22.556a5.248,5.248,0,0,1,5.3,4.943,5.156,5.156,0,0,1-1.438,3.684,5.785,5.785,0,0,1-2.247,1.348v-2.965a1.419,1.419,0,0,0-1.438-1.438H352.04a1.438,1.438,0,0,0,0,2.876h9.885v1.8H341.616a48.718,48.718,0,0,1-32.98,0,4.548,4.548,0,0,0-4.4,4.493,4.215,4.215,0,0,0,1.348,3.145,8.42,8.42,0,0,0,1.078.809A15.427,15.427,0,0,0,299.2,349.36a15.163,15.163,0,0,0,4.583,10.874,21.862,21.862,0,0,0,2.247,1.8h92.56a7.124,7.124,0,0,0,.449-2.247" transform="translate(-276.914 -224.09)" fill="#0d312f"/>
        <path id="Path_322" data-name="Path 322" d="M394.947,373.4a4.91,4.91,0,0,0,3.415-1.438,4.051,4.051,0,0,0,.9-1.258H306.7a16.128,16.128,0,0,0,8.807,2.7Z" transform="translate(-277.674 -232.938)" fill="#0d312f"/>
        <path id="Path_323" data-name="Path 323" d="M422.724,255.467h-7.009a3.56,3.56,0,0,1-3.415-2.7h13.839a3.409,3.409,0,0,1-3.415,2.7m-3.684-17.793h.359c.18.27,6.2,13.3,6.47,13.749h-13.21l6.38-13.749h0m-9.885,26.061h-4.943l1.348-1.348h2.247l1.348,1.348h0m4.493,1.348a2.057,2.057,0,0,1,1.977,1.348H397.652a2.057,2.057,0,0,1,1.977-1.348Zm-6.29-28.757v24.623h-1.348V236.326h1.348m-1.438-1.438v-1.348h1.348v1.348h-1.348m-.449-6.2a1.552,1.552,0,0,1,2.157-.18l.18.18a1.56,1.56,0,0,1,.27,1.258l-.629,2.336H405.74l-.629-2.336a1.9,1.9,0,0,1,.359-1.258m-4.853,22.646h-13.21l6.47-13.749h.359l6.38,13.749h0m-3.055,4.134h-7.009a3.56,3.56,0,0,1-3.415-2.7h13.839a3.56,3.56,0,0,1-3.415,2.7m6.29-21.927h.629v1.348H398.64a8.9,8.9,0,0,0-3.774.809h0l-.18-.449a.752.752,0,0,0-1.078-.27c-.09.09-.18.18-.18.27a4.223,4.223,0,0,0-.18.449h0l-1.078-.539a.592.592,0,0,0-.809.27c-.18.359-.18.629.27.988l1.078.539h0l-6.92,14.738c0,.09-.09.18-.09.27a4.835,4.835,0,0,0,4.943,4.763h7.009a4.893,4.893,0,0,0,4.943-4.763.33.33,0,0,0-.09-.27l-6.92-14.738h0a7.753,7.753,0,0,1,3.235-.719h5.841v25.072h0l-2.426,2.336h-2.516a3.434,3.434,0,0,0-3.5,3.415.773.773,0,0,0,.719.719h19.59a.709.709,0,0,0,.719-.719,3.434,3.434,0,0,0-3.5-3.415h-2.606l-2.426-2.336h0V236.237h5.841a8.425,8.425,0,0,1,3.235.719h0l-6.92,14.738c0,.09-.09.18-.09.27a4.835,4.835,0,0,0,4.943,4.763h7.009a4.893,4.893,0,0,0,4.943-4.763.33.33,0,0,0-.09-.27h0l-6.92-14.738h0l.809-.359c.989-.359.539-1.078.539-1.078-.359-.539-1.258-.09-1.258-.09l-.719.359h0l-.18-.449a.656.656,0,0,0-.9-.359.9.9,0,0,0-.449.359l-.18.449h0a9.2,9.2,0,0,0-3.774-.809h-5.841v-1.348h.719a.7.7,0,0,0,.719-.719.612.612,0,0,0-.719-.629h-.539l.539-1.977a2.809,2.809,0,0,0-2.067-3.415,2.889,2.889,0,0,0-3.595,3.055.33.33,0,0,0,.09.27c.09.449.539,1.977.539,2.067h-.449c-.809,0-.809.629-.809.629s-.09.629.719.629" transform="translate(-285.681 -218.354)" fill="#0d312f"/>
      </g>
      <path id="Path_324" data-name="Path 324" d="M371.5,256.8" transform="translate(-284.242 -221.394)" fill="#0d312f"/>
      <path id="Path_325" data-name="Path 325" d="M371.5,256.8" transform="translate(-284.242 -221.394)" fill="#0d312f"/>
    </g>
  </g>
</svg>
