<svg xmlns="http://www.w3.org/2000/svg" width="163.2" height="138.9" viewBox="0 0 163.2 138.9">
  <g id="RRESS_icone_axe3" transform="translate(-347.1 -217.4)">
    <path id="Path_342" data-name="Path 342" d="M489.9,298.6a2.389,2.389,0,0,1-1.4.5,2.36,2.36,0,0,1-1.6-.7,2.089,2.089,0,0,1,.2-3l2.4-2.1h-18v.2a46.843,46.843,0,0,1-8.5,24.9,2.138,2.138,0,0,1-1.8.9,1.746,1.746,0,0,1-1.2-.4,2.222,2.222,0,0,1-.6-3,43.152,43.152,0,0,0,7.8-24.8,2.135,2.135,0,0,1,2.2-2.1h20.1l-2.5-2a2.089,2.089,0,0,1-.2-3,2.127,2.127,0,0,1,1.5-.7,2.353,2.353,0,0,1,1.6.5l6.7,5.8a1.99,1.99,0,0,1,.7,1.6,2.36,2.36,0,0,1-.7,1.6ZM454,259.9a2.175,2.175,0,0,1,0-3l14.2-14-3.2.2a2.138,2.138,0,0,1-2.3-2,2.456,2.456,0,0,1,.5-1.5,2.127,2.127,0,0,1,1.5-.7l8.9-.6a2.715,2.715,0,0,1,1.7.6,1.909,1.909,0,0,1,.6,1.6l-.6,8.8a2.187,2.187,0,0,1-2.2,2H473a2.138,2.138,0,0,1-2-2.3l.2-3.1-12.6,12.3-.1.1.1.1a47.118,47.118,0,0,1,11.9,23.5,2.223,2.223,0,0,1-.3,1.6,1.945,1.945,0,0,1-1.4.9h-.4a2.14,2.14,0,0,1-2.1-1.7A43.442,43.442,0,0,0,454,259.9m7.8-34.8a48.275,48.275,0,0,0-37.4,17.5v.1h.2a49.444,49.444,0,0,1,25.3,8.3,2.222,2.222,0,0,1,.6,3,2.138,2.138,0,0,1-1.8.9,1.746,1.746,0,0,1-1.2-.4,45.3,45.3,0,0,0-25.3-7.6,2.92,2.92,0,0,1-.9-.2,39.688,39.688,0,0,0-3.2,5.7c1.4-.1,2.7-.2,4.1-.2,21.8,0,39.6,17.5,39.6,38.9a38.839,38.839,0,0,1-11.6,27.6,49.974,49.974,0,0,0,11.7,1.4c26.7,0,48.4-21.3,48.4-47.5-.1-26.1-21.8-47.5-48.5-47.5" fill="#193330"/>
    <path id="Path_343" data-name="Path 343" d="M424.4,225.1l2.1,2.4a2.127,2.127,0,0,0,1.5.7,3.022,3.022,0,0,0,1.6-.5,2.089,2.089,0,0,0,.2-3l-5.9-6.6a1.99,1.99,0,0,0-1.6-.7,2.36,2.36,0,0,0-1.6.7l-5.9,6.6a2.089,2.089,0,0,0,.2,3,2.389,2.389,0,0,0,1.4.5,2.36,2.36,0,0,0,1.6-.7l2.1-2.4v19.7a1.955,1.955,0,0,0,1.3,1.9c1-1.4,2-2.8,3.1-4.2V225.1Z" fill="#193330"/>
    <path id="Path_344" data-name="Path 344" d="M359.9,352.3a2.3,2.3,0,0,0,3.1,0l27.4-26.8a2.175,2.175,0,0,0,0-3A43.837,43.837,0,0,1,378,299.6a2.159,2.159,0,0,0-.9-1.4,1.939,1.939,0,0,0-1.8-.3,2.254,2.254,0,0,0-1.5,2.6,47.729,47.729,0,0,0,11.9,23.3l.1.1-.1.1L360,349.2a2.206,2.206,0,0,0-.1,3.1" fill="#193330"/>
    <path id="Path_345" data-name="Path 345" d="M355,293.3h20a2.2,2.2,0,0,0,2.2-2.1,43.152,43.152,0,0,1,7.8-24.8,2.223,2.223,0,0,0,.3-1.6,2.159,2.159,0,0,0-.9-1.4,2.318,2.318,0,0,0-1.6-.3,1.945,1.945,0,0,0-1.4.9,48.6,48.6,0,0,0-8.5,24.9v.2h-18l2.4-2.1a2.089,2.089,0,0,0,.2-3,1.99,1.99,0,0,0-1.6-.7,2.389,2.389,0,0,0-1.4.5l-6.7,5.8a1.99,1.99,0,0,0-.7,1.6,2.36,2.36,0,0,0,.7,1.6l6.7,5.8a2.389,2.389,0,0,0,1.4.5,2.36,2.36,0,0,0,1.6-.7,1.741,1.741,0,0,0,.5-1.5,2.127,2.127,0,0,0-.7-1.5Z" fill="#193330"/>
    <path id="Path_346" data-name="Path 346" d="M371.3,251.4a2.138,2.138,0,0,0,2-2.3l-.2-3.1,14.2,14a2.2,2.2,0,0,0,1.5.6,2.035,2.035,0,0,0,1.5-.6,45.413,45.413,0,0,1,23.3-12.2,1.945,1.945,0,0,0,1.4-.9,2.223,2.223,0,0,0,.3-1.6,2.143,2.143,0,0,0-2.5-1.7,49.78,49.78,0,0,0-23.9,11.7l-.1.1-.1-.1L376.2,243l3.2.2a2.155,2.155,0,0,0,.3-4.3l-8.9-.6a2.715,2.715,0,0,0-1.7.6,1.909,1.909,0,0,0-.6,1.6l.6,8.8a2.135,2.135,0,0,0,2.2,2.1" fill="#193330"/>
    <path id="Path_347" data-name="Path 347" d="M473.1,331a2.138,2.138,0,0,0-2,2.3l.2,3.1-.4-.4-13.8-13.6a2.2,2.2,0,0,0-1.5-.6,2.035,2.035,0,0,0-1.5.6l-3.3,3a2.091,2.091,0,0,0-.3,3,2.308,2.308,0,0,0,3.1.3c.7-.5,1.3-1.1,1.9-1.6l.1-.1.1.1,12.6,12.3-3.2-.2H465a2.261,2.261,0,0,0-2.2,2,2.456,2.456,0,0,0,.5,1.5,2.127,2.127,0,0,0,1.5.7l8.9.6a2.716,2.716,0,0,0,1.7-.6,2,2,0,0,0,.6-1.7l-.6-8.8a2.129,2.129,0,0,0-2.3-1.9" fill="#193330"/>
    <path id="Path_348" data-name="Path 348" d="M435.5,338.2a2.925,2.925,0,0,1-3,2.9H411.9a2.989,2.989,0,0,1-3-2.9v-3.5h26.5v3.5Zm-5.2,8.7a5.357,5.357,0,0,1-5.4,5.3h-5.4a5.357,5.357,0,0,1-5.4-5.3v-1.5h16.2v1.5Zm9.9-25.9a9.494,9.494,0,0,0-4.8,8.2v1.2H408.8v-1.2A9.067,9.067,0,0,0,404,321a34.807,34.807,0,0,1-17.2-29.8c0-17.1,12.7-31.3,29.2-34.2.6-1.6,1.2-3.1,1.9-4.6-19.9,2-35.5,18.6-35.5,38.7a38.079,38.079,0,0,0,5.3,19.5,38.861,38.861,0,0,0,14,13.9,5.089,5.089,0,0,1,2.6,4.6v9a7.173,7.173,0,0,0,5,6.8h.1v1.8a9.711,9.711,0,0,0,9.8,9.6h5.4a9.711,9.711,0,0,0,9.8-9.6v-1.8h.1a7.173,7.173,0,0,0,5-6.8v-9a5.089,5.089,0,0,1,2.6-4.6,36.646,36.646,0,0,0,7.7-5.9c-1.6-.4-3.2-.9-4.8-1.4a20.135,20.135,0,0,1-4.8,3.8" fill="#193330"/>
    <path id="Path_349" data-name="Path 349" d="M461.8,225.1a48.275,48.275,0,0,0-37.4,17.5v.1h.2a49.444,49.444,0,0,1,25.3,8.3,2.222,2.222,0,0,1,.6,3,2.138,2.138,0,0,1-1.8.9,1.746,1.746,0,0,1-1.2-.4,45.3,45.3,0,0,0-25.3-7.6,2.92,2.92,0,0,1-.9-.2,39.688,39.688,0,0,0-3.2,5.7c1.4-.1,2.7-.2,4.1-.2,21.8,0,39.6,17.5,39.6,38.9a38.839,38.839,0,0,1-11.6,27.6,49.974,49.974,0,0,0,11.7,1.4c26.7,0,48.4-21.3,48.4-47.5-.1-26.1-21.8-47.5-48.5-47.5" fill="#fab526"/>
    <path id="Path_350" data-name="Path 350" d="M454,259.9a2.175,2.175,0,0,1,0-3l14.2-14-3.2.2a2.138,2.138,0,0,1-2.3-2,2.456,2.456,0,0,1,.5-1.5,2.127,2.127,0,0,1,1.5-.7l8.9-.6a2.715,2.715,0,0,1,1.7.6,1.909,1.909,0,0,1,.6,1.6l-.6,8.8a2.187,2.187,0,0,1-2.2,2H473a2.138,2.138,0,0,1-2-2.3l.2-3.1-12.6,12.3-.1.1.1.1a47.118,47.118,0,0,1,11.9,23.5,2.223,2.223,0,0,1-.3,1.6,1.945,1.945,0,0,1-1.4.9h-.4a2.14,2.14,0,0,1-2.1-1.7A43.442,43.442,0,0,0,454,259.9" fill="#193330"/>
    <path id="Path_351" data-name="Path 351" d="M489.9,298.6a2.389,2.389,0,0,1-1.4.5,2.36,2.36,0,0,1-1.6-.7,2.089,2.089,0,0,1,.2-3l2.4-2.1h-18v.2a46.843,46.843,0,0,1-8.5,24.9,2.138,2.138,0,0,1-1.8.9,1.746,1.746,0,0,1-1.2-.4,2.222,2.222,0,0,1-.6-3,43.152,43.152,0,0,0,7.8-24.8,2.135,2.135,0,0,1,2.2-2.1h20.1l-2.5-2a2.089,2.089,0,0,1-.2-3,2.127,2.127,0,0,1,1.5-.7,2.353,2.353,0,0,1,1.6.5l6.7,5.8a1.99,1.99,0,0,1,.7,1.6,2.36,2.36,0,0,1-.7,1.6Z" fill="#193330"/>
    <path id="Path_352" data-name="Path 352" d="M416.1,257a17.061,17.061,0,0,1,1.9-4.6c1.4-.1,2.7-.2,4.1-.2,21.8,0,39.6,17.5,39.6,38.9a38.839,38.839,0,0,1-11.6,27.6c-2.1-.5-4.8-1.4-4.8-1.4l1.3-1.2c.2-.2.4-.3.5-.5a34.365,34.365,0,0,0,10.3-24.4c0-19.1-15.8-34.7-35.3-34.7a40.475,40.475,0,0,0-6,.5" fill="#193330"/>
    <path id="Path_353" data-name="Path 353" d="M416.1,257h0" fill="#193330"/>
    <path id="Path_354" data-name="Path 354" d="M421.5,246.5a40.13,40.13,0,0,1,2.9-3.7h.2a49.444,49.444,0,0,1,25.3,8.3,2.222,2.222,0,0,1,.6,3,2.138,2.138,0,0,1-1.8.9,1.746,1.746,0,0,1-1.2-.4,45.3,45.3,0,0,0-25.3-7.6,2.92,2.92,0,0,1-.9-.2" fill="#193330"/>
    <path id="Path_355" data-name="Path 355" d="M445.3,317.3A47.1,47.1,0,0,1,416.1,257a40.475,40.475,0,0,1,6-.5c19.5,0,35.3,15.6,35.3,34.7.1,0,1.1,14.7-12.1,26.1" fill="#fab526"/>
  </g>
</svg>
