<svg xmlns="http://www.w3.org/2000/svg" width="164.223" height="156.372" viewBox="0 0 164.223 156.372">
  <g id="RRESS_icone_axe2" transform="translate(-341.5 -217.528)">
    <path id="Path_326" data-name="Path 326" d="M388,319.2a46.5,46.5,0,1,1,46.5-46.5A46.6,46.6,0,0,1,388,319.2" fill="#eb6752"/>
    <path id="Path_327" data-name="Path 327" d="M416.1,373.9a1.974,1.974,0,0,1-1.4-.6l-48.2-47.5a3.168,3.168,0,0,1-.9-2.3,3.1,3.1,0,0,1,.9-2.2l12.2-12.2a3.262,3.262,0,0,1,4.5,0L416,342a1.98,1.98,0,1,1-2.8,2.8L381,312.5l-11.1,11.1,47.7,46.9a1.933,1.933,0,0,1,0,2.8,2.2,2.2,0,0,1-1.5.6" fill="#193330"/>
    <path id="Path_328" data-name="Path 328" d="M454,346.7Zm1.4,1.5h0m.6-.6,11.1,11.1,34-34L490,313.6ZM467,363a3.1,3.1,0,0,1-2.2-.9l-12.2-12.2a3.139,3.139,0,0,1,0-4.4l35.2-35.2a3.262,3.262,0,0,1,4.5,0l12.2,12.2a3.139,3.139,0,0,1,0,4.4L469.3,362a3.255,3.255,0,0,1-2.3,1" fill="#193330"/>
    <path id="Path_329" data-name="Path 329" d="M414.6,345.3a1.974,1.974,0,0,1-1.4-.6,1.933,1.933,0,0,1,0-2.8l9-9a12.2,12.2,0,0,1,8.6-3.6h9.8a8.01,8.01,0,0,0,5.8-2.4l17.7-17.7a1.98,1.98,0,0,1,2.8,2.8l-17.7,17.7a12.2,12.2,0,0,1-8.6,3.6h-9.8a8.01,8.01,0,0,0-5.8,2.4l-9,9a1.974,1.974,0,0,1-1.4.6" fill="#193330"/>
    <path id="Path_330" data-name="Path 330" d="M465.4,312.7a1.974,1.974,0,0,1-1.4-.6,1.933,1.933,0,0,1,0-2.8l11.7-11.7a5.091,5.091,0,1,0-7.2-7.2l-9.3,9.3a1.98,1.98,0,0,1-2.8-2.8l9.3-9.3a9.051,9.051,0,1,1,12.8,12.8l-11.7,11.7a1.678,1.678,0,0,1-1.4.6" fill="#193330"/>
    <path id="Path_331" data-name="Path 331" d="M457.8,300.4a1.974,1.974,0,0,1-1.4-.6,1.933,1.933,0,0,1,0-2.8l11.4-11.4a5.091,5.091,0,0,0-7.2-7.2l-11.4,11.4a1.98,1.98,0,0,1-2.8-2.8l11.4-11.4a9.051,9.051,0,0,1,12.8,12.8l-11.4,11.4a1.974,1.974,0,0,1-1.4.6" fill="#193330"/>
    <path id="Path_332" data-name="Path 332" d="M447.8,290.4a1.974,1.974,0,0,1-1.4-.6,1.933,1.933,0,0,1,0-2.8l13.4-13.4a5.091,5.091,0,0,0-7.2-7.2l-13.4,13.4a1.98,1.98,0,0,1-2.8-2.8l13.4-13.4a9.051,9.051,0,0,1,12.8,12.8l-13.4,13.4a1.816,1.816,0,0,1-1.4.6" fill="#193330"/>
    <path id="Path_333" data-name="Path 333" d="M437.9,280.4a1.974,1.974,0,0,1-1.4-.6,1.933,1.933,0,0,1,0-2.8L453,260.5a5.01,5.01,0,0,0,0-7,4.952,4.952,0,0,0-7.1-.2l-11.3,11.3a1.98,1.98,0,0,1-2.8-2.8l11.3-11.3a8.884,8.884,0,0,1,6.5-2.5,8.787,8.787,0,0,1,6.3,2.8,8.934,8.934,0,0,1,0,12.5l-16.5,16.5a2.4,2.4,0,0,1-1.5.6" fill="#193330"/>
    <path id="Path_334" data-name="Path 334" d="M428.9,277a8.641,8.641,0,0,1-6-2.4l-13.1-13.2a8.624,8.624,0,0,1-2.5-6.1,8.8,8.8,0,0,1,2.5-6.1,8.514,8.514,0,0,1,11-.9,2.011,2.011,0,0,1-2.3,3.3,4.653,4.653,0,0,0-7.3,3.8,5.069,5.069,0,0,0,1.3,3.3l13.1,13.1a4.653,4.653,0,0,0,6.4,0,4.588,4.588,0,0,0,.1-6.5l-3.8-3.8a1.98,1.98,0,0,1,2.8-2.8l3.8,3.8a8.663,8.663,0,0,1-.2,12.2,8.335,8.335,0,0,1-5.8,2.3" fill="#193330"/>
    <path id="Path_335" data-name="Path 335" d="M404,262.2Zm4.6,0a4.706,4.706,0,0,0-3.3,1.4,4.534,4.534,0,0,0-1.4,3.3,4.706,4.706,0,0,0,1.4,3.3l10.9,10.9a4.78,4.78,0,0,0,6.5,0,4.587,4.587,0,0,0,0-6.5l-10.9-10.9a3.935,3.935,0,0,0-3.2-1.5m11,24.2a8.625,8.625,0,0,1-6.1-2.5L402.6,273a8.627,8.627,0,0,1,12.2-12.2l10.9,10.9a8.571,8.571,0,0,1,0,12.2,8.8,8.8,0,0,1-6.1,2.5" fill="#193330"/>
    <path id="Path_336" data-name="Path 336" d="M399.2,276.1a4.587,4.587,0,0,0,0,6.5l7.8,7.8a4.587,4.587,0,0,0,6.5,0,4.589,4.589,0,0,0,0-6.6l-7.8-7.8a4.68,4.68,0,0,0-6.5.1m11,19.6a8.546,8.546,0,0,1-6.1-2.5l-7.8-7.8a8.755,8.755,0,0,1,0-12.2h0a8.692,8.692,0,0,1,12.2,0l7.8,7.8a8.6,8.6,0,0,1-6.1,14.7" fill="#193330"/>
    <path id="Path_337" data-name="Path 337" d="M394.8,290.3a4.587,4.587,0,0,0,0,6.5l2.9,2.9a4.78,4.78,0,0,0,6.5,0,4.534,4.534,0,0,0,1.4-3.3,4.706,4.706,0,0,0-1.4-3.3l-2.9-2.9a4.681,4.681,0,0,0-6.5.1m6.1,14.8a8.625,8.625,0,0,1-6.1-2.5l-2.9-2.9a8.571,8.571,0,0,1,0-12.2,8.661,8.661,0,0,1,12.2,0l2.9,2.9a8.692,8.692,0,0,1,0,12.2,8.8,8.8,0,0,1-6.1,2.5" fill="#193330"/>
    <path id="Path_338" data-name="Path 338" d="M433.9,263c-3.8,0-8.4-2.6-13.9-7.7l-.2-.2a7.667,7.667,0,0,1,0-10.7,7.835,7.835,0,0,1,6.2-2.2h.2l23.5,5.6a2,2,0,0,1-.9,3.9l-23.4-5.6a3.564,3.564,0,0,0-2.8,6.1c5.2,4.9,9.8,7.4,12.3,6.6a1.944,1.944,0,0,1,2.5,1.3,1.985,1.985,0,0,1-1.3,2.5,5.087,5.087,0,0,1-2.2.4" fill="#193330"/>
    <path id="Path_339" data-name="Path 339" d="M382.9,313.6a1.974,1.974,0,0,1-1.4-.6,1.933,1.933,0,0,1,0-2.8l11.9-11.9a1.98,1.98,0,0,1,2.8,2.8L384.3,313a1.974,1.974,0,0,1-1.4.6" fill="#193330"/>
    <path id="Path_340" data-name="Path 340" d="M447.2,331.7l9.5,9.5,27-27-9.5-9.5Zm9.5,14.3a1.974,1.974,0,0,1-1.4-.6L443,333.1a1.933,1.933,0,0,1,0-2.8l29.8-29.8a2.129,2.129,0,0,1,2.8,0l12.3,12.3a1.933,1.933,0,0,1,0,2.8l-29.8,29.8a1.678,1.678,0,0,1-1.4.6" fill="#193330"/>
    <path id="Path_341" data-name="Path 341" d="M475.7,305.1a1.8,1.8,0,0,1-1.5-.7,2.029,2.029,0,0,1,.2-2.8c5.7-4.9,10.6-9.2,14.4-12.7,10-9.1,15-24.8,12.5-38.9-2.2-12-9.3-21-20.3-25.5-26.8-10.9-44.2,10.1-44.9,11a1.865,1.865,0,0,1-1.6.7,2.36,2.36,0,0,1-1.6-.7c-.7-.9-18-21.9-44.9-11-10.9,4.4-18.1,13.5-20.3,25.5-2.5,14.1,2.5,29.8,12.5,38.9,3.6,3.3,8.1,7.3,13.4,11.9a1.985,1.985,0,1,1-2.6,3c-5.3-4.6-9.9-8.6-13.5-12-11-10-16.5-27.1-13.7-42.5,2.4-13.4,10.5-23.5,22.7-28.4,24.9-10.1,42.7,5.2,47.9,10.5,5.2-5.3,23-20.6,47.9-10.5,12.2,5,20.3,15.1,22.7,28.4,2.8,15.4-2.7,32.5-13.7,42.5-3.9,3.5-8.7,7.8-14.5,12.8a1.433,1.433,0,0,1-1.1.5" fill="#193330"/>
  </g>
</svg>
