<svg xmlns="http://www.w3.org/2000/svg" width="183.856" height="152.502" viewBox="0 0 183.856 152.502">
  <g id="RRESS_icone_axe4" transform="translate(-313.7 -216.828)">
    <path id="Path_356" data-name="Path 356" d="M458.656,373.612a45.356,45.356,0,1,1,45.356-45.356,45.459,45.459,0,0,1-45.356,45.356" transform="translate(-6.456 -4.283)" fill="#839273"/>
    <path id="Path_357" data-name="Path 357" d="M475.964,261.316a4.769,4.769,0,1,1-4.769,4.769h0A4.79,4.79,0,0,1,475.964,261.316ZM423.22,251.4a1.7,1.7,0,0,0,1.4,1.309,31,31,0,0,1,9.632,4.021,1.857,1.857,0,0,0,1.964,0l6.172-3.647a40.237,40.237,0,0,1,5.985,5.985l-3.647,6.172a1.7,1.7,0,0,0,0,1.87,32.367,32.367,0,0,1,4.021,9.632,1.981,1.981,0,0,0,1.309,1.4l6.92,1.777a43.127,43.127,0,0,1,0,8.51l-6.92,1.777a1.7,1.7,0,0,0-1.309,1.4,31,31,0,0,1-4.021,9.632,1.857,1.857,0,0,0,0,1.964l3.647,6.172a36.237,36.237,0,0,1-5.985,5.985l-6.172-3.647a1.7,1.7,0,0,0-1.87,0,32.367,32.367,0,0,1-9.632,4.021,1.981,1.981,0,0,0-1.4,1.309l-1.777,6.92a43.131,43.131,0,0,1-8.51,0l-1.777-6.92a1.7,1.7,0,0,0-1.4-1.309,33.42,33.42,0,0,1-9.632-4.021,1.7,1.7,0,0,0-1.87,0l-6.172,3.647a40.236,40.236,0,0,1-5.985-5.985l3.647-6.172a1.7,1.7,0,0,0,0-1.87,32.368,32.368,0,0,1-4.021-9.632,1.981,1.981,0,0,0-1.309-1.4l-6.92-1.777a43.132,43.132,0,0,1,0-8.51l6.92-1.777a1.7,1.7,0,0,0,1.309-1.4,33.42,33.42,0,0,1,4.021-9.632,1.7,1.7,0,0,0,0-1.87l-3.647-6.172a40.237,40.237,0,0,1,5.985-5.985l6.172,3.647a1.7,1.7,0,0,0,1.87,0,32.368,32.368,0,0,1,9.632-4.021,1.981,1.981,0,0,0,1.4-1.309l1.777-6.92a43.127,43.127,0,0,1,8.51,0Zm11.97,96.23a4.769,4.769,0,1,1,4.769-4.769h0a4.79,4.79,0,0,1-4.769,4.769M353.643,302a4.769,4.769,0,1,1,4.769,4.769h0A4.673,4.673,0,0,1,353.643,302m45.637-81.454a4.769,4.769,0,1,1-4.769,4.769h0a4.79,4.79,0,0,1,4.769-4.769m68.175,45.637a8.51,8.51,0,1,0,8.51-8.51,5.333,5.333,0,0,0-1.216.094,63.245,63.245,0,0,0-57.514-36.94,1.876,1.876,0,0,0-1.87,1.87v17.955c-1.4.094-2.806.187-4.115.374a1.789,1.789,0,0,0-1.5,1.4l-1.777,7.107a41.451,41.451,0,0,0-8.7,3.554l-6.266-3.741a1.831,1.831,0,0,0-2.057.094,44.836,44.836,0,0,0-8.417,8.417,1.831,1.831,0,0,0-.094,2.057l3.741,6.266a32.131,32.131,0,0,0-3.554,8.7l-7.107,1.777a1.789,1.789,0,0,0-1.4,1.5c-.187,1.309-.281,2.712-.374,4.115H357.664a59.781,59.781,0,0,1,34.508-52.277,8.519,8.519,0,1,0-1.309-3.46,63.3,63.3,0,0,0-36.94,57.514,1.876,1.876,0,0,0,1.87,1.87h17.955c.094,1.4.187,2.806.374,4.115a1.789,1.789,0,0,0,1.4,1.5l7.107,1.777a41.452,41.452,0,0,0,3.554,8.7l-3.741,6.266a1.831,1.831,0,0,0,.094,2.057,44.836,44.836,0,0,0,8.417,8.417,1.831,1.831,0,0,0,2.057.094l6.266-3.741a32.131,32.131,0,0,0,8.7,3.554l1.777,7.107a1.789,1.789,0,0,0,1.5,1.4c1.309.187,2.712.281,4.115.374v16.085A59.781,59.781,0,0,1,363.088,309.1a8.518,8.518,0,1,0-3.46,1.309,63.3,63.3,0,0,0,57.514,36.94,1.876,1.876,0,0,0,1.87-1.87V327.527c1.4-.094,2.806-.187,4.115-.374a1.789,1.789,0,0,0,1.5-1.4l1.777-7.107a41.453,41.453,0,0,0,8.7-3.554l6.266,3.741a1.831,1.831,0,0,0,2.057-.094,44.836,44.836,0,0,0,8.417-8.417,1.831,1.831,0,0,0,.094-2.057L448.189,302a32.131,32.131,0,0,0,3.554-8.7l7.107-1.777a1.789,1.789,0,0,0,1.4-1.5c.187-1.4.281-2.712.374-4.115h16.085v.935c0,.468-.094.935-.094,1.4A59.684,59.684,0,0,1,442.2,338.188a8.518,8.518,0,1,0,1.309,3.46,63.094,63.094,0,0,0,36.753-53.305c.094-1.4.187-2.806.187-4.208a1.876,1.876,0,0,0-1.87-1.87H460.627c-.094-1.4-.187-2.806-.374-4.115a1.789,1.789,0,0,0-1.4-1.5l-7.107-1.777a41.452,41.452,0,0,0-3.554-8.7l3.741-6.266a1.831,1.831,0,0,0-.094-2.057,44.836,44.836,0,0,0-8.417-8.417,1.831,1.831,0,0,0-2.057-.094l-6.266,3.741a32.133,32.133,0,0,0-8.7-3.554l-1.777-7.107a1.789,1.789,0,0,0-1.5-1.4c-1.4-.187-2.712-.281-4.115-.374V224.564a59.781,59.781,0,0,1,52.277,34.508,8.616,8.616,0,0,0-3.834,7.107m-50.219-4.863a22.725,22.725,0,1,1-22.725,22.725,22.749,22.749,0,0,1,22.725-22.725m-26.466,22.725a26.419,26.419,0,1,0,26.466-26.372,26.481,26.481,0,0,0-26.466,26.372" transform="translate(-2.348)" fill="#193330"/>
    <path id="Path_358" data-name="Path 358" d="M370.372,290.454h-54.9a1.777,1.777,0,0,1,0-3.554h54.9a1.777,1.777,0,1,1,0,3.554" transform="translate(0 -4.542)" fill="#193330"/>
  </g>
</svg>
