<svg width="260.458008" height="88.850952" viewBox="0 0 260.458 88.851" fill="none" xmlns="http://www.w3.org/2000/svg" xmlns:xlink="http://www.w3.org/1999/xlink">
	<desc>
			Created with Pixso.
	</desc>
	<defs/>
	<g style="mix-blend-mode:normal">
		<rect id="Rectangle 106" x="26.073242" y="31.084229" width="44.560902" height="10.903198" fill="#231F20" fill-opacity="1.000000"/>
		<rect id="Rectangle 106" x="26.073242" y="31.084229" width="44.560902" height="10.903198" stroke="#707070" stroke-opacity="0" stroke-width="1.000000"/>
	</g>
	<g style="mix-blend-mode:normal">
		<rect id="Rectangle 107" x="26.073242" y="47.134277" width="44.560902" height="10.970921" fill="#231F20" fill-opacity="1.000000"/>
		<rect id="Rectangle 107" x="26.073242" y="47.134277" width="44.560902" height="10.970921" stroke="#707070" stroke-opacity="0" stroke-width="1.000000"/>
	</g>
	<g style="mix-blend-mode:normal">
		<path id="Tracé 662" d="M45.16 82.01C24.1 82.01 7.04 65.14 7.04 44.49C7.04 23.83 24.17 6.9 45.16 6.9C54.85 6.9 63.79 10.49 70.49 16.38L70.49 7.65C63.25 2.77 54.51 0 45.16 0C20.24 0 0 19.91 0 44.42C0 68.94 20.24 88.85 45.16 88.85C54.58 88.85 63.25 86 70.49 81.19L70.49 72.46C63.72 78.42 54.85 82.01 45.16 82.01Z" fill="#BAD532" fill-opacity="1.000000" fill-rule="nonzero"/>
		<path id="Tracé 662" d="M7.04 44.49C7.04 23.83 24.17 6.9 45.16 6.9C54.85 6.9 63.79 10.49 70.49 16.38L70.49 7.65C63.25 2.77 54.51 0 45.16 0C20.24 0 0 19.91 0 44.42C0 68.94 20.24 88.85 45.16 88.85C54.58 88.85 63.25 86 70.49 81.19L70.49 72.46C63.72 78.42 54.85 82.01 45.16 82.01C24.1 82.01 7.04 65.14 7.04 44.49Z" stroke="#707070" stroke-opacity="0" stroke-width="1.000000"/>
	</g>
	<g style="mix-blend-mode:normal">
		<path id="Tracé 663" d="M84.99 53.9C82.48 51.46 81.26 48.42 81.26 44.69C81.26 41.1 82.55 38.05 84.99 35.62C87.49 33.18 90.54 31.96 94.26 31.96C97.99 31.96 101.17 33.11 103.81 35.35L100.36 39.07C98.6 37.72 96.57 37.04 94.26 37.04C91.89 37.04 90.07 37.78 88.58 39.21C87.09 40.63 86.41 42.46 86.41 44.69C86.41 47.06 87.15 48.96 88.58 50.38C90 51.8 91.89 52.48 94.26 52.48C96.63 52.48 98.6 51.8 100.36 50.45L103.81 54.17C101.17 56.47 97.99 57.63 94.26 57.63C90.54 57.63 87.49 56.41 84.99 53.9Z" fill="#231F20" fill-opacity="1.000000" fill-rule="nonzero"/>
		<path id="Tracé 663" d="M81.26 44.69C81.26 41.1 82.55 38.05 84.99 35.62C87.49 33.18 90.54 31.96 94.26 31.96C97.99 31.96 101.17 33.11 103.81 35.35L100.36 39.07C98.6 37.72 96.57 37.04 94.26 37.04C91.89 37.04 90.07 37.78 88.58 39.21C87.09 40.63 86.41 42.46 86.41 44.69C86.41 47.06 87.15 48.96 88.58 50.38C90 51.8 91.89 52.48 94.26 52.48C96.63 52.48 98.6 51.8 100.36 50.45L103.81 54.17C101.17 56.47 97.99 57.63 94.26 57.63C90.54 57.63 87.49 56.41 84.99 53.9C82.48 51.46 81.26 48.42 81.26 44.69Z" stroke="#707070" stroke-opacity="0" stroke-width="1.000000"/>
	</g>
	<g style="mix-blend-mode:normal">
		<path id="Tracé 664" d="M106.12 57.63L106.12 31.96L111.33 31.96L111.33 42.25L123.52 42.25L123.52 31.96L128.73 31.96L128.73 57.63L123.52 57.63L123.52 46.99L111.33 46.99L111.33 57.63L106.12 57.63Z" fill="#231F20" fill-opacity="1.000000" fill-rule="nonzero"/>
		<path id="Tracé 664" d="M106.12 31.96L111.33 31.96L111.33 42.25L123.52 42.25L123.52 31.96L128.73 31.96L128.73 57.63L123.52 57.63L123.52 46.99L111.33 46.99L111.33 57.63L106.12 57.63L106.12 31.96Z" stroke="#707070" stroke-opacity="0" stroke-width="1.000000"/>
	</g>
	<g style="mix-blend-mode:normal">
		<path id="Tracé 665" d="M143.5 38.8L139.57 48.55L147.36 48.55L143.5 38.8ZM130.29 57.63L140.72 31.96L145.94 31.96L156.37 57.63L150.81 57.63L149.25 53.7L137.47 53.7L135.91 57.63L130.29 57.63Z" fill="#231F20" fill-opacity="1.000000" fill-rule="nonzero"/>
		<path id="Tracé 665" d="M139.57 48.55L147.36 48.55L143.5 38.8L139.57 48.55ZM140.72 31.96L145.94 31.96L156.37 57.63L150.81 57.63L149.25 53.7L137.47 53.7L135.91 57.63L130.29 57.63L140.72 31.96Z" stroke="#707070" stroke-opacity="0" stroke-width="1.000000"/>
	</g>
	<g style="mix-blend-mode:normal">
		<path id="Tracé 666" d="M157.72 57.63L157.72 31.96L159.48 31.96L175.8 48.01L175.8 31.96L181.02 31.96L181.02 57.63L179.12 57.63L162.93 41.71L162.93 57.63L157.72 57.63Z" fill="#231F20" fill-opacity="1.000000" fill-rule="nonzero"/>
		<path id="Tracé 666" d="M157.72 31.96L159.48 31.96L175.8 48.01L175.8 31.96L181.02 31.96L181.02 57.63L179.12 57.63L162.93 41.71L162.93 57.63L157.72 57.63L157.72 31.96Z" stroke="#707070" stroke-opacity="0" stroke-width="1.000000"/>
	</g>
	<g style="mix-blend-mode:normal">
		<path id="Tracé 667" d="M205.13 31.96L205.13 36.77L196.46 36.77L196.46 57.63L191.24 57.63L191.24 36.77L182.57 36.77L182.57 31.96L205.13 31.96Z" fill="#231F20" fill-opacity="1.000000" fill-rule="nonzero"/>
		<path id="Tracé 667" d="M205.13 36.77L196.46 36.77L196.46 57.63L191.24 57.63L191.24 36.77L182.57 36.77L182.57 31.96L205.13 31.96L205.13 36.77Z" stroke="#707070" stroke-opacity="0" stroke-width="1.000000"/>
	</g>
	<g style="mix-blend-mode:normal">
		<rect id="Rectangle 108" x="206.551758" y="31.964600" width="5.214573" height="25.666536" fill="#231F20" fill-opacity="1.000000"/>
		<rect id="Rectangle 108" x="206.551758" y="31.964600" width="5.214573" height="25.666536" stroke="#707070" stroke-opacity="0" stroke-width="1.000000"/>
	</g>
	<g style="mix-blend-mode:normal">
		<path id="Tracé 668" d="M215.35 57.63L215.35 31.96L234.52 31.96L234.52 36.77L220.57 36.77L220.57 42.25L230.99 42.25L230.99 46.99L220.57 46.99L220.57 52.82L234.45 52.82L234.45 57.63L215.35 57.63Z" fill="#231F20" fill-opacity="1.000000" fill-rule="nonzero"/>
		<path id="Tracé 668" d="M215.35 31.96L234.52 31.96L234.52 36.77L220.57 36.77L220.57 42.25L230.99 42.25L230.99 46.99L220.57 46.99L220.57 52.82L234.45 52.82L234.45 57.63L215.35 57.63L215.35 31.96Z" stroke="#707070" stroke-opacity="0" stroke-width="1.000000"/>
	</g>
	<g style="mix-blend-mode:normal">
		<path id="Tracé 669" d="M242.71 42.25L250.02 42.25C252.12 42.25 253.21 41.31 253.27 39.41C253.21 37.72 252.12 36.84 250.09 36.77L242.71 36.77L242.71 42.25ZM253.14 46.45L259.64 57.63L253.68 57.63L247.45 46.99L242.71 46.99L242.71 57.63L237.5 57.63L237.5 31.96L248.87 31.96C254.97 31.96 258.01 34.4 258.01 39.34C257.95 43.07 256.32 45.44 253.14 46.45Z" fill="#231F20" fill-opacity="1.000000" fill-rule="nonzero"/>
		<path id="Tracé 669" d="M250.02 42.25C252.12 42.25 253.21 41.31 253.27 39.41C253.21 37.72 252.12 36.84 250.09 36.77L242.71 36.77L242.71 42.25L250.02 42.25ZM259.64 57.63L253.68 57.63L247.45 46.99L242.71 46.99L242.71 57.63L237.5 57.63L237.5 31.96L248.87 31.96C254.97 31.96 258.01 34.4 258.01 39.34C257.95 43.07 256.32 45.44 253.14 46.45L259.64 57.63Z" stroke="#707070" stroke-opacity="0" stroke-width="1.000000"/>
	</g>
	<g style="mix-blend-mode:normal">
		<path id="Tracé 670" d="M87.83 73.34C89.73 73.34 90.67 72.25 90.67 70.15C90.67 68.06 89.73 66.97 87.83 66.97L85.87 66.97L85.87 73.27L87.83 73.34ZM83.77 75.44L83.77 64.94L87.9 64.94C91.22 64.94 92.84 66.7 92.84 70.22C92.84 73.74 91.15 75.44 87.9 75.44L83.77 75.44Z" fill="#BAD532" fill-opacity="1.000000" fill-rule="nonzero"/>
		<path id="Tracé 670" d="M90.67 70.15C90.67 68.06 89.73 66.97 87.83 66.97L85.87 66.97L85.87 73.27L87.83 73.34C89.73 73.34 90.67 72.25 90.67 70.15ZM83.77 64.94L87.9 64.94C91.22 64.94 92.84 66.7 92.84 70.22C92.84 73.74 91.15 75.44 87.9 75.44L83.77 75.44L83.77 64.94Z" stroke="#707070" stroke-opacity="0" stroke-width="1.000000"/>
	</g>
	<g style="mix-blend-mode:normal">
		<path id="Tracé 671" d="M94.33 75.44L94.33 64.94L102.12 64.94L102.12 66.9L96.43 66.9L96.43 69.14L100.7 69.14L100.7 71.1L96.43 71.1L96.43 73.47L102.12 73.47L102.12 75.44L94.33 75.44Z" fill="#BAD532" fill-opacity="1.000000" fill-rule="nonzero"/>
		<path id="Tracé 671" d="M94.33 64.94L102.12 64.94L102.12 66.9L96.43 66.9L96.43 69.14L100.7 69.14L100.7 71.1L96.43 71.1L96.43 73.47L102.12 73.47L102.12 75.44L94.33 75.44L94.33 64.94Z" stroke="#707070" stroke-opacity="0" stroke-width="1.000000"/>
	</g>
	<g style="mix-blend-mode:normal">
		<path id="Tracé 672" d="M110.38 64.94L110.38 73.47L116.07 73.47L116.07 75.44L108.28 75.44L108.28 64.94L110.38 64.94Z" fill="#BAD532" fill-opacity="1.000000" fill-rule="nonzero"/>
		<path id="Tracé 672" d="M110.38 73.47L116.07 73.47L116.07 75.44L108.28 75.44L108.28 64.94L110.38 64.94L110.38 73.47Z" stroke="#707070" stroke-opacity="0" stroke-width="1.000000"/>
	</g>
	<g style="mix-blend-mode:normal">
		<path id="Tracé 673" d="M115.53 66.29C115.19 66.29 114.85 66.23 114.65 66.02C114.44 65.82 114.38 65.62 114.38 65.35C114.38 65.08 114.44 64.8 114.65 64.67C114.85 64.47 115.12 64.4 115.39 64.4C115.73 64.4 116 64.47 116.21 64.67C116.41 64.87 116.48 65.08 116.48 65.35C116.48 66.5 116 67.31 115.05 67.78L114.72 67.17C115.12 66.97 115.39 66.7 115.53 66.29Z" fill="#BAD532" fill-opacity="1.000000" fill-rule="nonzero"/>
		<path id="Tracé 673" d="M114.65 66.02C114.44 65.82 114.38 65.62 114.38 65.35C114.38 65.08 114.44 64.8 114.65 64.67C114.85 64.47 115.12 64.4 115.39 64.4C115.73 64.4 116 64.47 116.21 64.67C116.41 64.87 116.48 65.08 116.48 65.35C116.48 66.5 116 67.31 115.05 67.78L114.72 67.17C115.12 66.97 115.39 66.7 115.53 66.29C115.19 66.29 114.85 66.23 114.65 66.02Z" stroke="#707070" stroke-opacity="0" stroke-width="1.000000"/>
	</g>
	<g style="mix-blend-mode:normal">
		<path id="Tracé 674" d="M118.24 75.44L118.24 64.94L126.03 64.94L126.03 66.9L120.34 66.9L120.34 69.14L124.6 69.14L124.6 71.1L120.34 71.1L120.34 73.47L126.03 73.47L126.03 75.44L118.24 75.44Z" fill="#BAD532" fill-opacity="1.000000" fill-rule="nonzero"/>
		<path id="Tracé 674" d="M118.24 64.94L126.03 64.94L126.03 66.9L120.34 66.9L120.34 69.14L124.6 69.14L124.6 71.1L120.34 71.1L120.34 73.47L126.03 73.47L126.03 75.44L118.24 75.44L118.24 64.94Z" stroke="#707070" stroke-opacity="0" stroke-width="1.000000"/>
	</g>
	<g style="mix-blend-mode:normal">
		<path id="Tracé 675" d="M128.13 73.95C127.11 72.93 126.57 71.71 126.57 70.15C126.57 68.66 127.11 67.45 128.13 66.43C129.14 65.41 130.43 64.94 131.92 64.94C133.41 64.94 134.76 65.41 135.85 66.36L134.42 67.92C133.68 67.38 132.87 67.11 131.92 67.11C130.97 67.11 130.16 67.38 129.62 67.99C129 68.6 128.73 69.34 128.73 70.22C128.73 71.17 129 71.98 129.62 72.52C130.22 73.07 130.97 73.41 131.92 73.41C132.87 73.41 133.68 73.13 134.42 72.59L135.85 74.15C134.76 75.1 133.47 75.57 131.92 75.57C130.36 75.44 129.14 74.9 128.13 73.95Z" fill="#BAD532" fill-opacity="1.000000" fill-rule="nonzero"/>
		<path id="Tracé 675" d="M126.57 70.15C126.57 68.66 127.11 67.45 128.13 66.43C129.14 65.41 130.43 64.94 131.92 64.94C133.41 64.94 134.76 65.41 135.85 66.36L134.42 67.92C133.68 67.38 132.87 67.11 131.92 67.11C130.97 67.11 130.16 67.38 129.62 67.99C129 68.6 128.73 69.34 128.73 70.22C128.73 71.17 129 71.98 129.62 72.52C130.22 73.07 130.97 73.41 131.92 73.41C132.87 73.41 133.68 73.13 134.42 72.59L135.85 74.15C134.76 75.1 133.47 75.57 131.92 75.57C130.36 75.44 129.14 74.9 128.13 73.95C127.11 72.93 126.57 71.71 126.57 70.15Z" stroke="#707070" stroke-opacity="0" stroke-width="1.000000"/>
	</g>
	<g style="mix-blend-mode:normal">
		<path id="Tracé 676" d="M141.47 73.47C142.41 73.47 143.16 73.13 143.77 72.52C144.38 71.92 144.65 71.1 144.65 70.15C144.65 69.21 144.38 68.46 143.77 67.78C143.16 67.17 142.41 66.84 141.47 66.84C140.52 66.84 139.77 67.17 139.16 67.78C138.55 68.39 138.28 69.21 138.28 70.15C138.28 71.1 138.55 71.85 139.16 72.52C139.77 73.13 140.52 73.47 141.47 73.47ZM137.67 73.95C136.66 72.93 136.12 71.71 136.12 70.22C136.12 68.73 136.66 67.51 137.67 66.5C138.69 65.48 139.98 65.01 141.47 65.01C142.96 65.01 144.24 65.48 145.26 66.5C146.27 67.51 146.82 68.73 146.82 70.22C146.82 71.71 146.27 72.93 145.26 73.95C144.24 74.96 142.96 75.44 141.47 75.44C139.98 75.44 138.69 74.9 137.67 73.95Z" fill="#BAD532" fill-opacity="1.000000" fill-rule="nonzero"/>
		<path id="Tracé 676" d="M143.77 72.52C144.38 71.92 144.65 71.1 144.65 70.15C144.65 69.21 144.38 68.46 143.77 67.78C143.16 67.17 142.41 66.84 141.47 66.84C140.52 66.84 139.77 67.17 139.16 67.78C138.55 68.39 138.28 69.21 138.28 70.15C138.28 71.1 138.55 71.85 139.16 72.52C139.77 73.13 140.52 73.47 141.47 73.47C142.41 73.47 143.16 73.13 143.77 72.52ZM136.12 70.22C136.12 68.73 136.66 67.51 137.67 66.5C138.69 65.48 139.98 65.01 141.47 65.01C142.96 65.01 144.24 65.48 145.26 66.5C146.27 67.51 146.82 68.73 146.82 70.22C146.82 71.71 146.27 72.93 145.26 73.95C144.24 74.96 142.96 75.44 141.47 75.44C139.98 75.44 138.69 74.9 137.67 73.95C136.66 72.93 136.12 71.71 136.12 70.22Z" stroke="#707070" stroke-opacity="0" stroke-width="1.000000"/>
	</g>
	<g style="mix-blend-mode:normal">
		<path id="Tracé 677" d="M147.83 75.44L147.83 64.94L148.58 64.94L155.28 71.51L155.28 64.94L157.38 64.94L157.38 75.44L156.64 75.44L150 68.94L150 75.44L147.83 75.44Z" fill="#BAD532" fill-opacity="1.000000" fill-rule="nonzero"/>
		<path id="Tracé 677" d="M147.83 64.94L148.58 64.94L155.28 71.51L155.28 64.94L157.38 64.94L157.38 75.44L156.64 75.44L150 68.94L150 75.44L147.83 75.44L147.83 64.94Z" stroke="#707070" stroke-opacity="0" stroke-width="1.000000"/>
	</g>
	<g style="mix-blend-mode:normal">
		<path id="Tracé 678" d="M163.81 73.47C164.76 73.47 165.51 73.13 166.12 72.53C166.73 71.92 167 71.1 167 70.15C167 69.21 166.73 68.46 166.12 67.78C165.51 67.18 164.76 66.84 163.81 66.84C162.87 66.84 162.12 67.18 161.51 67.78C160.9 68.39 160.63 69.21 160.63 70.15C160.63 71.1 160.9 71.85 161.51 72.53C162.05 73.13 162.87 73.47 163.81 73.47ZM160.02 73.95C159.01 72.93 158.46 71.71 158.46 70.22C158.46 68.73 159.01 67.51 160.02 66.5C161.04 65.48 162.32 65.01 163.81 65.01C165.3 65.01 166.59 65.48 167.61 66.5C168.62 67.51 169.16 68.73 169.16 70.22C169.16 71.71 168.62 72.93 167.61 73.95C166.59 74.96 165.3 75.44 163.81 75.44C162.32 75.44 161.04 74.9 160.02 73.95Z" fill="#BAD532" fill-opacity="1.000000" fill-rule="nonzero"/>
		<path id="Tracé 678" d="M166.12 72.53C166.73 71.92 167 71.1 167 70.15C167 69.21 166.73 68.46 166.12 67.78C165.51 67.18 164.76 66.84 163.81 66.84C162.87 66.84 162.12 67.18 161.51 67.78C160.9 68.39 160.63 69.21 160.63 70.15C160.63 71.1 160.9 71.85 161.51 72.53C162.05 73.13 162.87 73.47 163.81 73.47C164.76 73.47 165.51 73.13 166.12 72.53ZM158.46 70.22C158.46 68.73 159.01 67.51 160.02 66.5C161.04 65.48 162.32 65.01 163.81 65.01C165.3 65.01 166.59 65.48 167.61 66.5C168.62 67.51 169.16 68.73 169.16 70.22C169.16 71.71 168.62 72.93 167.61 73.95C166.59 74.96 165.3 75.44 163.81 75.44C162.32 75.44 161.04 74.9 160.02 73.95C159.01 72.93 158.46 71.71 158.46 70.22Z" stroke="#707070" stroke-opacity="0" stroke-width="1.000000"/>
	</g>
	<g style="mix-blend-mode:normal">
		<path id="Tracé 679" d="M170.18 75.44L170.18 64.94L170.93 64.94L175.53 70.09L180.14 64.94L180.88 64.94L180.88 75.44L178.71 75.44L178.71 69.34L175.53 72.86L172.35 69.34L172.35 75.44L170.18 75.44Z" fill="#BAD532" fill-opacity="1.000000" fill-rule="nonzero"/>
		<path id="Tracé 679" d="M170.18 64.94L170.93 64.94L175.53 70.09L180.14 64.94L180.88 64.94L180.88 75.44L178.71 75.44L178.71 69.34L175.53 72.86L172.35 69.34L172.35 75.44L170.18 75.44L170.18 64.94Z" stroke="#707070" stroke-opacity="0" stroke-width="1.000000"/>
	</g>
	<g style="mix-blend-mode:normal">
		<rect id="Rectangle 109" x="182.509766" y="64.944946" width="2.099374" height="10.496868" fill="#BAD532" fill-opacity="1.000000"/>
		<rect id="Rectangle 109" x="182.509766" y="64.944946" width="2.099374" height="10.496868" stroke="#707070" stroke-opacity="0" stroke-width="1.000000"/>
	</g>
	<g style="mix-blend-mode:normal">
		<path id="Tracé 680" d="M186.23 75.44L186.23 64.94L194.09 64.94L194.09 66.9L188.4 66.9L188.4 69.14L192.66 69.14L192.66 71.1L188.4 71.1L188.4 73.47L194.09 73.47L194.09 75.44L186.23 75.44Z" fill="#BAD532" fill-opacity="1.000000" fill-rule="nonzero"/>
		<path id="Tracé 680" d="M186.23 64.94L194.09 64.94L194.09 66.9L188.4 66.9L188.4 69.14L192.66 69.14L192.66 71.1L188.4 71.1L188.4 73.47L194.09 73.47L194.09 75.44L186.23 75.44L186.23 64.94Z" stroke="#707070" stroke-opacity="0" stroke-width="1.000000"/>
	</g>
	<g style="mix-blend-mode:normal">
		<path id="Tracé 681" d="M205.94 65.28C206.48 65.48 207.02 65.89 207.5 66.36L206.07 67.78C205.6 67.24 204.92 66.97 204.11 66.97C203.3 66.97 202.69 67.17 202.48 67.58C202.21 67.99 202.21 68.33 202.48 68.6C202.75 68.87 203.3 69.07 204.11 69.21C204.99 69.27 205.8 69.61 206.55 70.09C207.29 70.56 207.63 71.37 207.63 72.46C207.63 73.27 207.22 74.01 206.48 74.62C205.67 75.23 204.79 75.5 203.77 75.5C202.75 75.5 201.94 75.37 201.27 75.1C200.59 74.83 200.05 74.42 199.57 73.95L200.99 72.52C201.47 73.07 202.28 73.41 203.43 73.47C204.38 73.47 204.99 73.27 205.19 72.86C205.4 72.46 205.4 72.05 205.19 71.64C204.99 71.24 204.38 71.04 203.43 70.9C202.55 70.83 201.81 70.56 201.06 70.15C200.32 69.75 199.98 69 199.98 67.99C199.98 67.04 200.38 66.29 201.2 65.75C202.01 65.21 202.82 64.94 203.7 64.94C204.65 64.94 205.4 65.08 205.94 65.28Z" fill="#BAD532" fill-opacity="1.000000" fill-rule="nonzero"/>
		<path id="Tracé 681" d="M207.5 66.36L206.07 67.78C205.6 67.24 204.92 66.97 204.11 66.97C203.3 66.97 202.69 67.17 202.48 67.58C202.21 67.99 202.21 68.33 202.48 68.6C202.75 68.87 203.3 69.07 204.11 69.21C204.99 69.27 205.8 69.61 206.55 70.09C207.29 70.56 207.63 71.37 207.63 72.46C207.63 73.27 207.22 74.01 206.48 74.62C205.67 75.23 204.79 75.5 203.77 75.5C202.75 75.5 201.94 75.37 201.27 75.1C200.59 74.83 200.05 74.42 199.57 73.95L200.99 72.52C201.47 73.07 202.28 73.41 203.43 73.47C204.38 73.47 204.99 73.27 205.19 72.86C205.4 72.46 205.4 72.05 205.19 71.64C204.99 71.24 204.38 71.04 203.43 70.9C202.55 70.83 201.81 70.56 201.06 70.15C200.32 69.75 199.98 69 199.98 67.99C199.98 67.04 200.38 66.29 201.2 65.75C202.01 65.21 202.82 64.94 203.7 64.94C204.65 64.94 205.4 65.08 205.94 65.28C206.48 65.48 207.02 65.89 207.5 66.36Z" stroke="#707070" stroke-opacity="0" stroke-width="1.000000"/>
	</g>
	<g style="mix-blend-mode:normal">
		<path id="Tracé 682" d="M213.52 73.47C214.47 73.47 215.22 73.13 215.82 72.53C216.43 71.92 216.71 71.1 216.71 70.15C216.71 69.21 216.43 68.46 215.82 67.78C215.22 67.17 214.47 66.84 213.52 66.84C212.57 66.84 211.83 67.17 211.22 67.78C210.61 68.39 210.34 69.21 210.34 70.15C210.34 71.1 210.61 71.85 211.22 72.53C211.76 73.13 212.57 73.47 213.52 73.47ZM209.73 73.95C208.71 72.93 208.17 71.71 208.17 70.22C208.17 68.73 208.71 67.51 209.73 66.5C210.75 65.48 212.03 65.01 213.52 65.01C215.01 65.01 216.3 65.48 217.31 66.5C218.33 67.51 218.87 68.73 218.87 70.22C218.87 71.71 218.33 72.93 217.31 73.95C216.3 74.96 215.01 75.44 213.52 75.44C212.03 75.44 210.75 74.9 209.73 73.95Z" fill="#BAD532" fill-opacity="1.000000" fill-rule="nonzero"/>
		<path id="Tracé 682" d="M215.82 72.53C216.43 71.92 216.71 71.1 216.71 70.15C216.71 69.21 216.43 68.46 215.82 67.78C215.22 67.17 214.47 66.84 213.52 66.84C212.57 66.84 211.83 67.17 211.22 67.78C210.61 68.39 210.34 69.21 210.34 70.15C210.34 71.1 210.61 71.85 211.22 72.53C211.76 73.13 212.57 73.47 213.52 73.47C214.47 73.47 215.22 73.13 215.82 72.53ZM208.17 70.22C208.17 68.73 208.71 67.51 209.73 66.5C210.75 65.48 212.03 65.01 213.52 65.01C215.01 65.01 216.3 65.48 217.31 66.5C218.33 67.51 218.87 68.73 218.87 70.22C218.87 71.71 218.33 72.93 217.31 73.95C216.3 74.96 215.01 75.44 213.52 75.44C212.03 75.44 210.75 74.9 209.73 73.95C208.71 72.93 208.17 71.71 208.17 70.22Z" stroke="#707070" stroke-opacity="0" stroke-width="1.000000"/>
	</g>
	<g style="mix-blend-mode:normal">
		<path id="Tracé 683" d="M220.84 73.95C219.82 72.93 219.28 71.71 219.28 70.15C219.28 68.66 219.82 67.45 220.84 66.43C221.85 65.41 223.14 64.94 224.63 64.94C226.12 64.94 227.47 65.41 228.56 66.36L227.13 67.92C226.39 67.38 225.58 67.11 224.63 67.11C223.68 67.11 222.87 67.38 222.33 67.99C221.72 68.6 221.45 69.34 221.45 70.22C221.45 71.17 221.72 71.98 222.33 72.52C222.94 73.07 223.68 73.41 224.63 73.41C225.58 73.41 226.39 73.13 227.13 72.59L228.56 74.15C227.47 75.1 226.19 75.57 224.63 75.57C223.14 75.44 221.85 74.9 220.84 73.95Z" fill="#BAD532" fill-opacity="1.000000" fill-rule="nonzero"/>
		<path id="Tracé 683" d="M219.28 70.15C219.28 68.66 219.82 67.45 220.84 66.43C221.85 65.41 223.14 64.94 224.63 64.94C226.12 64.94 227.47 65.41 228.56 66.36L227.13 67.92C226.39 67.38 225.58 67.11 224.63 67.11C223.68 67.11 222.87 67.38 222.33 67.99C221.72 68.6 221.45 69.34 221.45 70.22C221.45 71.17 221.72 71.98 222.33 72.52C222.94 73.07 223.68 73.41 224.63 73.41C225.58 73.41 226.39 73.13 227.13 72.59L228.56 74.15C227.47 75.1 226.19 75.57 224.63 75.57C223.14 75.44 221.85 74.9 220.84 73.95C219.82 72.93 219.28 71.71 219.28 70.15Z" stroke="#707070" stroke-opacity="0" stroke-width="1.000000"/>
	</g>
	<g style="mix-blend-mode:normal">
		<rect id="Rectangle 110" x="229.711914" y="64.944946" width="2.099374" height="10.496868" fill="#BAD532" fill-opacity="1.000000"/>
		<rect id="Rectangle 110" x="229.711914" y="64.944946" width="2.099374" height="10.496868" stroke="#707070" stroke-opacity="0" stroke-width="1.000000"/>
	</g>
	<g style="mix-blend-mode:normal">
		<path id="Tracé 684" d="M237.97 67.72L236.34 71.71L239.53 71.71L237.97 67.72ZM232.55 75.44L236.82 64.94L238.92 64.94L243.18 75.44L240.95 75.44L240.34 73.81L235.53 73.81L234.92 75.44L232.55 75.44Z" fill="#BAD532" fill-opacity="1.000000" fill-rule="nonzero"/>
		<path id="Tracé 684" d="M236.34 71.71L239.53 71.71L237.97 67.72L236.34 71.71ZM236.82 64.94L238.92 64.94L243.18 75.44L240.95 75.44L240.34 73.81L235.53 73.81L234.92 75.44L232.55 75.44L236.82 64.94Z" stroke="#707070" stroke-opacity="0" stroke-width="1.000000"/>
	</g>
	<g style="mix-blend-mode:normal">
		<path id="Tracé 685" d="M246.1 64.94L246.1 73.47L251.78 73.47L251.78 75.44L243.93 75.44L243.93 64.94L246.1 64.94Z" fill="#BAD532" fill-opacity="1.000000" fill-rule="nonzero"/>
		<path id="Tracé 685" d="M246.1 73.47L251.78 73.47L251.78 75.44L243.93 75.44L243.93 64.94L246.1 64.94L246.1 73.47Z" stroke="#707070" stroke-opacity="0" stroke-width="1.000000"/>
	</g>
	<g style="mix-blend-mode:normal">
		<path id="Tracé 686" d="M252.6 64.94L252.6 75.44L260.39 75.44L260.39 73.47L254.7 73.47L254.7 71.1L258.96 71.1L258.96 69.14L254.7 69.14L254.7 66.9L260.45 66.9L260.45 64.94L252.6 64.94Z" fill="#BAD532" fill-opacity="1.000000" fill-rule="nonzero"/>
		<path id="Tracé 686" d="M252.6 75.44L260.39 75.44L260.39 73.47L254.7 73.47L254.7 71.1L258.96 71.1L258.96 69.14L254.7 69.14L254.7 66.9L260.45 66.9L260.45 64.94L252.6 64.94L252.6 75.44Z" stroke="#707070" stroke-opacity="0" stroke-width="1.000000"/>
	</g>
	<g style="mix-blend-mode:normal">
		<rect id="Rectangle 111" x="119.393555" y="62.574829" width="5.485460" height="1.083548" fill="#BAD532" fill-opacity="1.000000"/>
		<rect id="Rectangle 111" x="119.393555" y="62.574829" width="5.485460" height="1.083548" stroke="#707070" stroke-opacity="0" stroke-width="1.000000"/>
	</g>
</svg>
