<svg width="188.694336" height="152.706055" viewBox="0 0 188.694 152.706" fill="none" xmlns="http://www.w3.org/2000/svg" xmlns:xlink="http://www.w3.org/1999/xlink">
	<desc>
			Created with Pixso.
	</desc>
	<defs/>
	<g style="mix-blend-mode:normal">
		<path id="Tracé 610" d="M141.24 16.75L142.96 16.62C150.64 15.96 158.19 17.42 164.88 20.46C165.41 18.08 167.13 16.03 169.58 15.1C173.49 13.64 177.86 15.63 179.38 19.54C180.64 22.85 179.45 26.42 176.67 28.34C181.37 32.78 185.14 38.28 187.59 44.57L188.19 46.16L179.65 49.47L179.05 47.88C173.56 33.57 159.78 21.39 143.56 22.18L141.84 22.32L141.24 16.75Z" fill="#27488A" fill-opacity="1.000000" fill-rule="nonzero"/>
		<path id="Tracé 610" d="M142.96 16.62C150.64 15.96 158.19 17.42 164.88 20.46C165.41 18.08 167.13 16.03 169.58 15.1C173.49 13.64 177.86 15.63 179.38 19.54C180.64 22.85 179.45 26.42 176.67 28.34C181.37 32.78 185.14 38.28 187.59 44.57L188.19 46.16L179.65 49.47L179.05 47.88C173.56 33.57 159.78 21.39 143.56 22.18L141.84 22.32L141.24 16.75L142.96 16.62Z" stroke="#707070" stroke-opacity="0" stroke-width="1.000000"/>
	</g>
	<g style="mix-blend-mode:normal">
		<path id="Tracé 611" d="M106.74 66.95L105.75 65.56C101.31 59.27 98.79 51.98 98.13 44.63C95.81 45.29 93.16 44.9 91.18 43.24C87.93 40.59 87.47 35.83 90.12 32.58C92.37 29.87 96.08 29.07 99.12 30.46C100.58 24.17 103.43 18.14 107.67 12.91L108.73 11.59L115.88 17.35L114.82 18.67C105.15 30.59 101.51 48.61 110.32 62.25L111.31 63.64L106.74 66.95Z" fill="#27488A" fill-opacity="1.000000" fill-rule="nonzero"/>
		<path id="Tracé 611" d="M105.75 65.56C101.31 59.27 98.79 51.98 98.13 44.63C95.81 45.29 93.16 44.9 91.18 43.24C87.93 40.59 87.47 35.83 90.12 32.58C92.37 29.87 96.08 29.07 99.12 30.46C100.58 24.17 103.43 18.14 107.67 12.91L108.73 11.59L115.88 17.35L114.82 18.67C105.15 30.59 101.51 48.61 110.32 62.25L111.31 63.64L106.74 66.95L105.75 65.56Z" stroke="#707070" stroke-opacity="0" stroke-width="1.000000"/>
	</g>
	<g style="mix-blend-mode:normal">
		<path id="Tracé 612" d="M167.46 71.78L166.73 73.37C163.49 80.32 158.46 86.15 152.43 90.46C154.22 92.11 155.15 94.63 154.68 97.21C154.02 101.32 150.11 104.16 145.94 103.43C142.5 102.84 139.98 100.06 139.65 96.68C133.49 98.53 126.81 99.06 120.18 98.07L118.46 97.81L119.92 88.73L121.64 89C136.8 91.38 154.22 85.56 161.64 71.12L162.36 69.6L167.46 71.78Z" fill="#27488A" fill-opacity="1.000000" fill-rule="nonzero"/>
		<path id="Tracé 612" d="M166.73 73.37C163.49 80.32 158.46 86.15 152.43 90.46C154.22 92.11 155.15 94.63 154.68 97.21C154.02 101.32 150.11 104.16 145.94 103.43C142.5 102.84 139.98 100.06 139.65 96.68C133.49 98.53 126.81 99.06 120.18 98.07L118.46 97.81L119.92 88.73L121.64 89C136.8 91.38 154.22 85.56 161.64 71.12L162.36 69.6L167.46 71.78L166.73 73.37Z" stroke="#707070" stroke-opacity="0" stroke-width="1.000000"/>
	</g>
	<g style="mix-blend-mode:normal">
		<path id="Tracé 613" d="M125.22 1.46C123.56 2.65 122.43 4.44 122.1 6.49C122.04 6.89 121.97 7.35 121.97 7.75C121.97 9.8 122.77 11.79 124.29 13.24C118.13 17.62 113.23 23.51 110.05 30.26L109.26 31.98L114.69 34.43L115.48 32.71C123.36 17.42 141.64 12.78 155.28 14.9L157.13 15.23L158.66 5.83L156.8 5.5C150.38 4.5 143.69 4.97 137.47 6.82C137.07 3.44 134.42 0.66 131.04 0.13C128.99 -0.26 126.94 0.2 125.22 1.46Z" fill="#78A12F" fill-opacity="1.000000" fill-rule="nonzero"/>
		<path id="Tracé 613" d="M122.1 6.49C122.04 6.89 121.97 7.35 121.97 7.75C121.97 9.8 122.77 11.79 124.29 13.24C118.13 17.62 113.23 23.51 110.05 30.26L109.26 31.98L114.69 34.43L115.48 32.71C123.36 17.42 141.64 12.78 155.28 14.9L157.13 15.23L158.66 5.83L156.8 5.5C150.38 4.5 143.69 4.97 137.47 6.82C137.07 3.44 134.42 0.66 131.04 0.13C128.99 -0.26 126.94 0.2 125.22 1.46C123.56 2.65 122.43 4.44 122.1 6.49Z" stroke="#707070" stroke-opacity="0" stroke-width="1.000000"/>
	</g>
	<g style="mix-blend-mode:normal">
		<path id="Tracé 614" d="M97.27 53.97L88.53 57.35L89.19 59.13C91.58 65.29 95.22 70.72 99.99 75.23C98 76.75 96.87 79 96.87 81.38C96.87 82.31 97.01 83.24 97.4 84.1C98.93 88.14 103.43 90.12 107.4 88.6C109.79 87.74 111.51 85.75 112.17 83.3C119.06 86.42 126.54 87.74 134.02 87.08L135.94 86.88L135.35 80.92L133.43 81.05C116.21 81.91 103.1 68.4 98.13 55.49L97.47 53.7L97.27 53.97Z" fill="#78A12F" fill-opacity="1.000000" fill-rule="nonzero"/>
		<path id="Tracé 614" d="M88.53 57.35L89.19 59.13C91.58 65.29 95.22 70.72 99.99 75.23C98 76.75 96.87 79 96.87 81.38C96.87 82.31 97.01 83.24 97.4 84.1C98.93 88.14 103.43 90.12 107.4 88.6C109.79 87.74 111.51 85.75 112.17 83.3C119.06 86.42 126.54 87.74 134.02 87.08L135.94 86.88L135.35 80.92L133.43 81.05C116.21 81.91 103.1 68.4 98.13 55.49L97.47 53.7L97.27 53.97L88.53 57.35Z" stroke="#707070" stroke-opacity="0" stroke-width="1.000000"/>
	</g>
	<g style="mix-blend-mode:normal">
		<path id="Tracé 615" d="M170.11 36.55L165.41 39.93L166.47 41.52C175.81 55.96 170.71 74.17 161.97 84.89L160.77 86.35L168.19 92.38L169.38 90.92C173.56 85.82 176.4 79.93 177.93 73.5C181.1 74.83 184.75 73.97 186.93 71.32C188.26 69.73 188.85 67.68 188.65 65.62C188.45 63.57 187.46 61.72 185.87 60.39C183.95 58.8 181.37 58.27 178.92 58.94C178.19 51.45 175.54 44.23 171.3 38.14L170.11 36.55Z" fill="#78A12F" fill-opacity="1.000000" fill-rule="nonzero"/>
		<path id="Tracé 615" d="M165.41 39.93L166.47 41.52C175.81 55.96 170.71 74.17 161.97 84.89L160.77 86.35L168.19 92.38L169.38 90.92C173.56 85.82 176.4 79.93 177.93 73.5C181.1 74.83 184.75 73.97 186.93 71.32C188.26 69.73 188.85 67.68 188.65 65.62C188.45 63.57 187.46 61.72 185.87 60.39C183.95 58.8 181.37 58.27 178.92 58.94C178.19 51.45 175.54 44.23 171.3 38.14L170.11 36.55L165.41 39.93Z" stroke="#707070" stroke-opacity="0" stroke-width="1.000000"/>
	</g>
	<g style="mix-blend-mode:normal">
		<path id="Tracé 616" d="M12.51 71.05C11.98 68.67 9.93 67.35 7.61 67.35C3.37 67.35 1.58 70.72 1.58 74.1C1.58 77.48 3.37 80.85 7.61 80.85C10.59 80.85 12.44 78.67 12.78 75.89L14.3 75.89C13.9 79.66 11.38 82.05 7.61 82.05C2.58 82.05 0.06 78.21 0.06 74.03C0.06 69.86 2.58 66.02 7.61 66.02C10.66 66.02 13.64 67.74 14.03 70.99L12.51 71.05Z" fill="#27488A" fill-opacity="1.000000" fill-rule="nonzero"/>
		<path id="Tracé 616" d="M7.61 67.35C3.37 67.35 1.58 70.72 1.58 74.1C1.58 77.48 3.37 80.85 7.61 80.85C10.59 80.85 12.44 78.67 12.78 75.89L14.3 75.89C13.9 79.66 11.38 82.05 7.61 82.05C2.58 82.05 0.06 78.21 0.06 74.03C0.06 69.86 2.58 66.02 7.61 66.02C10.66 66.02 13.64 67.74 14.03 70.99L12.51 71.05C11.98 68.67 9.93 67.35 7.61 67.35Z" stroke="#707070" stroke-opacity="0" stroke-width="1.000000"/>
	</g>
	<g style="mix-blend-mode:normal">
		<path id="Tracé 617" d="M26.48 76.22C26.48 79.4 24.56 82.11 20.99 82.11C17.48 82.11 15.49 79.4 15.49 76.22C15.49 73.04 17.41 70.33 20.99 70.33C24.56 70.33 26.48 73.04 26.48 76.22ZM16.95 76.22C16.95 78.6 18.27 80.99 20.99 80.99C23.7 80.99 25.03 78.6 25.03 76.22C25.03 73.83 23.7 71.45 20.99 71.45C18.27 71.52 16.95 73.9 16.95 76.22Z" fill="#27488A" fill-opacity="1.000000" fill-rule="nonzero"/>
		<path id="Tracé 617" d="M20.99 82.11C17.48 82.11 15.49 79.4 15.49 76.22C15.49 73.04 17.41 70.33 20.99 70.33C24.56 70.33 26.48 73.04 26.48 76.22C26.48 79.4 24.56 82.11 20.99 82.11ZM20.99 80.99C23.7 80.99 25.03 78.6 25.03 76.22C25.03 73.83 23.7 71.45 20.99 71.45C18.27 71.52 16.95 73.9 16.95 76.22C16.95 78.6 18.27 80.99 20.99 80.99Z" stroke="#707070" stroke-opacity="0" stroke-width="1.000000"/>
	</g>
	<g style="mix-blend-mode:normal">
		<path id="Tracé 618" d="M28.34 70.66L29.73 70.66L29.73 72.58C30.26 71.25 31.85 70.33 33.5 70.33C36.75 70.33 37.74 71.98 37.74 74.63L37.74 81.78L36.35 81.78L36.35 74.83C36.35 72.91 35.69 71.45 33.44 71.45C31.18 71.45 29.86 73.11 29.79 75.29L29.79 81.78L28.4 81.78L28.34 70.66Z" fill="#27488A" fill-opacity="1.000000" fill-rule="nonzero"/>
		<path id="Tracé 618" d="M29.73 70.66L29.73 72.58C30.26 71.25 31.85 70.33 33.5 70.33C36.75 70.33 37.74 71.98 37.74 74.63L37.74 81.78L36.35 81.78L36.35 74.83C36.35 72.91 35.69 71.45 33.44 71.45C31.18 71.45 29.86 73.11 29.79 75.29L29.79 81.78L28.4 81.78L28.34 70.66L29.73 70.66Z" stroke="#707070" stroke-opacity="0" stroke-width="1.000000"/>
	</g>
	<g style="mix-blend-mode:normal">
		<path id="Tracé 619" d="M47.08 73.9C47.01 72.25 45.69 71.45 44.03 71.45C42.77 71.45 41.32 71.91 41.32 73.37C41.32 74.56 42.77 75.03 43.7 75.23L45.55 75.62C47.14 75.89 48.87 76.75 48.87 78.73C48.87 81.12 46.35 82.05 44.23 82.05C41.51 82.05 39.73 80.85 39.46 78.14L40.85 78.14C40.99 79.99 42.38 80.92 44.23 80.92C45.55 80.92 47.41 80.39 47.41 78.8C47.41 77.48 46.15 77.08 44.89 76.75L43.1 76.35C41.25 75.89 39.86 75.29 39.86 73.37C39.86 71.12 42.18 70.26 44.23 70.26C46.55 70.26 48.4 71.45 48.47 73.83L47.08 73.9Z" fill="#27488A" fill-opacity="1.000000" fill-rule="nonzero"/>
		<path id="Tracé 619" d="M44.03 71.45C42.77 71.45 41.32 71.91 41.32 73.37C41.32 74.56 42.77 75.03 43.7 75.23L45.55 75.62C47.14 75.89 48.87 76.75 48.87 78.73C48.87 81.12 46.35 82.05 44.23 82.05C41.51 82.05 39.73 80.85 39.46 78.14L40.85 78.14C40.99 79.99 42.38 80.92 44.23 80.92C45.55 80.92 47.41 80.39 47.41 78.8C47.41 77.48 46.15 77.08 44.89 76.75L43.1 76.35C41.25 75.89 39.86 75.29 39.86 73.37C39.86 71.12 42.18 70.26 44.23 70.26C46.55 70.26 48.4 71.45 48.47 73.83L47.08 73.9C47.01 72.25 45.69 71.45 44.03 71.45Z" stroke="#707070" stroke-opacity="0" stroke-width="1.000000"/>
	</g>
	<g style="mix-blend-mode:normal">
		<path id="Tracé 620" d="M51.58 76.62C51.58 78.6 52.71 80.99 55.42 80.99C57.47 80.99 58.6 79.79 59.06 78.14L60.45 78.14C59.86 80.66 58.33 82.11 55.42 82.11C51.71 82.11 50.19 79.4 50.19 76.22C50.19 73.3 51.71 70.33 55.42 70.33C59.13 70.33 60.65 73.44 60.52 76.55L51.58 76.62ZM59.06 75.49C59 73.44 57.67 71.52 55.35 71.52C53.04 71.52 51.78 73.44 51.51 75.49L59.06 75.49Z" fill="#27488A" fill-opacity="1.000000" fill-rule="nonzero"/>
		<path id="Tracé 620" d="M55.42 80.99C57.47 80.99 58.6 79.79 59.06 78.14L60.45 78.14C59.86 80.66 58.33 82.11 55.42 82.11C51.71 82.11 50.19 79.4 50.19 76.22C50.19 73.3 51.71 70.33 55.42 70.33C59.13 70.33 60.65 73.44 60.52 76.55L51.58 76.62C51.58 78.6 52.71 80.99 55.42 80.99ZM55.35 71.52C53.04 71.52 51.78 73.44 51.51 75.49L59.06 75.49C59 73.44 57.67 71.52 55.35 71.52Z" stroke="#707070" stroke-opacity="0" stroke-width="1.000000"/>
	</g>
	<g style="mix-blend-mode:normal">
		<path id="Tracé 621" d="M62.17 66.42L63.57 66.42L63.57 68.6L62.17 68.6L62.17 66.42ZM62.17 70.66L63.57 70.66L63.57 81.78L62.17 81.78L62.17 70.66Z" fill="#27488A" fill-opacity="1.000000" fill-rule="nonzero"/>
		<path id="Tracé 621" d="M63.57 66.42L63.57 68.6L62.17 68.6L62.17 66.42L63.57 66.42ZM63.57 70.66L63.57 81.78L62.17 81.78L62.17 70.66L63.57 70.66Z" stroke="#707070" stroke-opacity="0" stroke-width="1.000000"/>
	</g>
	<g style="mix-blend-mode:normal">
		<path id="Tracé 622" d="M66.08 66.42L67.47 66.42L67.47 81.78L66.08 81.78L66.08 66.42Z" fill="#27488A" fill-opacity="1.000000" fill-rule="nonzero"/>
		<path id="Tracé 622" d="M67.47 66.42L67.47 81.78L66.08 81.78L66.08 66.42L67.47 66.42Z" stroke="#707070" stroke-opacity="0" stroke-width="1.000000"/>
	</g>
	<g style="mix-blend-mode:normal">
		<path id="Tracé 623" d="M10.72 109.46L9.33 109.46L9.33 103.24C8.74 104.83 6.95 105.69 5.23 105.69C1.72 105.69 0 102.97 0 99.79C0 96.61 1.65 93.9 5.23 93.9C6.88 93.9 8.74 94.89 9.33 96.35L9.4 94.23L10.72 94.23L10.72 109.46ZM5.23 104.49C8.21 104.49 9.27 102.04 9.27 99.73C9.27 97.41 8.21 94.96 5.23 94.96C2.51 94.96 1.45 97.41 1.45 99.73C1.45 102.04 2.58 104.49 5.23 104.49Z" fill="#27488A" fill-opacity="1.000000" fill-rule="nonzero"/>
		<path id="Tracé 623" d="M9.33 109.46L9.33 103.24C8.74 104.83 6.95 105.69 5.23 105.69C1.72 105.69 0 102.97 0 99.79C0 96.61 1.65 93.9 5.23 93.9C6.88 93.9 8.74 94.89 9.33 96.35L9.4 94.23L10.72 94.23L10.72 109.46L9.33 109.46ZM9.27 99.73C9.27 97.41 8.21 94.96 5.23 94.96C2.51 94.96 1.45 97.41 1.45 99.73C1.45 102.04 2.58 104.49 5.23 104.49C8.21 104.49 9.27 102.04 9.27 99.73Z" stroke="#707070" stroke-opacity="0" stroke-width="1.000000"/>
	</g>
	<g style="mix-blend-mode:normal">
		<path id="Tracé 624" d="M22.58 105.36L21.25 105.36L21.25 103.37C20.52 104.83 18.93 105.69 17.21 105.69C14.3 105.69 13.17 104.03 13.17 101.45L13.17 94.23L14.56 94.23L14.56 101.45C14.63 103.43 15.42 104.49 17.68 104.49C20.13 104.49 21.12 102.31 21.12 100.06L21.12 94.23L22.51 94.23L22.58 105.36Z" fill="#27488A" fill-opacity="1.000000" fill-rule="nonzero"/>
		<path id="Tracé 624" d="M21.25 105.36L21.25 103.37C20.52 104.83 18.93 105.69 17.21 105.69C14.3 105.69 13.17 104.03 13.17 101.45L13.17 94.23L14.56 94.23L14.56 101.45C14.63 103.43 15.42 104.49 17.68 104.49C20.13 104.49 21.12 102.31 21.12 100.06L21.12 94.23L22.51 94.23L22.58 105.36L21.25 105.36Z" stroke="#707070" stroke-opacity="0" stroke-width="1.000000"/>
	</g>
	<g style="mix-blend-mode:normal">
		<path id="Tracé 625" d="M25.82 100.12C25.82 102.11 26.95 104.49 29.66 104.49C31.71 104.49 32.84 103.3 33.3 101.65L34.69 101.65C34.1 104.16 32.58 105.62 29.66 105.62C25.95 105.62 24.43 102.91 24.43 99.73C24.43 96.81 25.95 93.83 29.66 93.83C33.37 93.83 34.89 96.95 34.76 100.06L25.82 100.12ZM33.3 99C33.24 96.95 31.91 95.02 29.6 95.02C27.28 95.02 26.02 96.95 25.75 99L33.3 99ZM29.26 92.64L28.14 92.64L30.52 89.59L32.24 89.59L29.26 92.64Z" fill="#27488A" fill-opacity="1.000000" fill-rule="nonzero"/>
		<path id="Tracé 625" d="M29.66 104.49C31.71 104.49 32.84 103.3 33.3 101.65L34.69 101.65C34.1 104.16 32.58 105.62 29.66 105.62C25.95 105.62 24.43 102.91 24.43 99.73C24.43 96.81 25.95 93.83 29.66 93.83C33.37 93.83 34.89 96.95 34.76 100.06L25.82 100.12C25.82 102.11 26.95 104.49 29.66 104.49ZM29.6 95.02C27.28 95.02 26.02 96.95 25.75 99L33.3 99C33.24 96.95 31.91 95.02 29.6 95.02ZM28.14 92.64L30.52 89.59L32.24 89.59L29.26 92.64L28.14 92.64Z" stroke="#707070" stroke-opacity="0" stroke-width="1.000000"/>
	</g>
	<g style="mix-blend-mode:normal">
		<path id="Tracé 626" d="M36.42 89.93L37.81 89.93L37.81 96.28C38.4 94.69 40.19 93.83 41.91 93.83C45.42 93.83 47.14 96.55 47.14 99.73C47.14 102.91 45.49 105.62 41.91 105.62C40.06 105.62 38.47 104.69 37.81 103.17L37.74 105.29L36.42 105.29L36.42 89.93ZM41.91 95.02C38.93 95.02 37.87 97.47 37.87 99.79C37.87 102.11 38.93 104.56 41.91 104.56C44.63 104.56 45.69 102.11 45.69 99.79C45.69 97.47 44.56 95.02 41.91 95.02Z" fill="#27488A" fill-opacity="1.000000" fill-rule="nonzero"/>
		<path id="Tracé 626" d="M37.81 89.93L37.81 96.28C38.4 94.69 40.19 93.83 41.91 93.83C45.42 93.83 47.14 96.55 47.14 99.73C47.14 102.91 45.49 105.62 41.91 105.62C40.06 105.62 38.47 104.69 37.81 103.17L37.74 105.29L36.42 105.29L36.42 89.93L37.81 89.93ZM37.87 99.79C37.87 102.11 38.93 104.56 41.91 104.56C44.63 104.56 45.69 102.11 45.69 99.79C45.69 97.47 44.56 95.02 41.91 95.02C38.93 95.02 37.87 97.47 37.87 99.79Z" stroke="#707070" stroke-opacity="0" stroke-width="1.000000"/>
	</g>
	<g style="mix-blend-mode:normal">
		<path id="Tracé 627" d="M49.92 100.12C49.92 102.11 51.05 104.49 53.77 104.49C55.82 104.49 56.94 103.3 57.41 101.65L58.8 101.65C58.2 104.16 56.68 105.62 53.77 105.62C50.06 105.62 48.53 102.91 48.53 99.73C48.53 96.81 50.06 93.83 53.77 93.83C57.47 93.83 59 96.95 58.86 100.06L49.92 100.12ZM57.41 99C57.34 96.95 56.02 95.02 53.7 95.02C51.38 95.02 50.12 96.95 49.86 99L57.41 99ZM53.37 92.64L52.24 92.64L54.63 89.59L56.35 89.59L53.37 92.64Z" fill="#27488A" fill-opacity="1.000000" fill-rule="nonzero"/>
		<path id="Tracé 627" d="M53.77 104.49C55.82 104.49 56.94 103.3 57.41 101.65L58.8 101.65C58.2 104.16 56.68 105.62 53.77 105.62C50.06 105.62 48.53 102.91 48.53 99.73C48.53 96.81 50.06 93.83 53.77 93.83C57.47 93.83 59 96.95 58.86 100.06L49.92 100.12C49.92 102.11 51.05 104.49 53.77 104.49ZM53.7 95.02C51.38 95.02 50.12 96.95 49.86 99L57.41 99C57.34 96.95 56.02 95.02 53.7 95.02ZM52.24 92.64L54.63 89.59L56.35 89.59L53.37 92.64L52.24 92.64Z" stroke="#707070" stroke-opacity="0" stroke-width="1.000000"/>
	</g>
	<g style="mix-blend-mode:normal">
		<path id="Tracé 628" d="M68.66 97.67C68.27 96.02 67.21 95.02 65.42 95.02C62.71 95.02 61.38 97.41 61.38 99.79C61.38 102.18 62.71 104.56 65.42 104.56C67.14 104.56 68.6 103.24 68.8 101.38L70.19 101.38C69.79 104.03 68 105.69 65.42 105.69C61.91 105.69 59.92 102.97 59.92 99.79C59.92 96.61 61.84 93.9 65.42 93.9C67.87 93.9 69.79 95.16 70.12 97.74L68.66 97.67Z" fill="#27488A" fill-opacity="1.000000" fill-rule="nonzero"/>
		<path id="Tracé 628" d="M65.42 95.02C62.71 95.02 61.38 97.41 61.38 99.79C61.38 102.18 62.71 104.56 65.42 104.56C67.14 104.56 68.6 103.24 68.8 101.38L70.19 101.38C69.79 104.03 68 105.69 65.42 105.69C61.91 105.69 59.92 102.97 59.92 99.79C59.92 96.61 61.84 93.9 65.42 93.9C67.87 93.9 69.79 95.16 70.12 97.74L68.66 97.67C68.27 96.02 67.21 95.02 65.42 95.02Z" stroke="#707070" stroke-opacity="0" stroke-width="1.000000"/>
	</g>
	<g style="mix-blend-mode:normal">
		<path id="Tracé 629" d="M82.24 99.73C82.24 102.9 80.32 105.62 76.74 105.62C73.23 105.62 71.25 102.9 71.25 99.73C71.25 96.55 73.17 93.83 76.74 93.83C80.32 93.9 82.24 96.55 82.24 99.73ZM72.7 99.73C72.7 102.11 74.03 104.49 76.74 104.49C79.46 104.49 80.78 102.11 80.78 99.73C80.78 97.34 79.46 94.96 76.74 94.96C74.09 95.02 72.7 97.41 72.7 99.73Z" fill="#27488A" fill-opacity="1.000000" fill-rule="nonzero"/>
		<path id="Tracé 629" d="M76.74 105.62C73.23 105.62 71.25 102.9 71.25 99.73C71.25 96.55 73.17 93.83 76.74 93.83C80.32 93.9 82.24 96.55 82.24 99.73C82.24 102.9 80.32 105.62 76.74 105.62ZM76.74 104.49C79.46 104.49 80.78 102.11 80.78 99.73C80.78 97.34 79.46 94.96 76.74 94.96C74.09 95.02 72.7 97.41 72.7 99.73C72.7 102.11 74.03 104.49 76.74 104.49Z" stroke="#707070" stroke-opacity="0" stroke-width="1.000000"/>
	</g>
	<g style="mix-blend-mode:normal">
		<path id="Tracé 630" d="M84.16 89.93L85.55 89.93L85.55 92.11L84.16 92.11L84.16 89.93ZM84.16 94.16L85.55 94.16L85.55 105.29L84.16 105.29L84.16 94.16Z" fill="#27488A" fill-opacity="1.000000" fill-rule="nonzero"/>
		<path id="Tracé 630" d="M85.55 89.93L85.55 92.11L84.16 92.11L84.16 89.93L85.55 89.93ZM85.55 94.16L85.55 105.29L84.16 105.29L84.16 94.16L85.55 94.16Z" stroke="#707070" stroke-opacity="0" stroke-width="1.000000"/>
	</g>
	<g style="mix-blend-mode:normal">
		<path id="Tracé 631" d="M94.95 97.47C94.89 95.82 93.56 95.02 91.91 95.02C90.65 95.02 89.19 95.49 89.19 96.94C89.19 98.14 90.65 98.6 91.58 98.8L93.43 99.2C95.02 99.46 96.74 100.32 96.74 102.31C96.74 104.69 94.22 105.62 92.11 105.62C89.39 105.62 87.6 104.43 87.34 101.71L88.73 101.71C88.86 103.57 90.25 104.49 92.11 104.49C93.43 104.49 95.28 103.96 95.28 102.38C95.28 101.05 94.03 100.65 92.77 100.32L90.98 99.92C89.13 99.46 87.74 98.87 87.74 96.94C87.74 94.69 90.05 93.83 92.11 93.83C94.42 93.83 96.28 95.02 96.34 97.41L94.95 97.47Z" fill="#27488A" fill-opacity="1.000000" fill-rule="nonzero"/>
		<path id="Tracé 631" d="M91.91 95.02C90.65 95.02 89.19 95.49 89.19 96.94C89.19 98.14 90.65 98.6 91.58 98.8L93.43 99.2C95.02 99.46 96.74 100.32 96.74 102.31C96.74 104.69 94.22 105.62 92.11 105.62C89.39 105.62 87.6 104.43 87.34 101.71L88.73 101.71C88.86 103.57 90.25 104.49 92.11 104.49C93.43 104.49 95.28 103.96 95.28 102.38C95.28 101.05 94.03 100.65 92.77 100.32L90.98 99.92C89.13 99.46 87.74 98.87 87.74 96.94C87.74 94.69 90.05 93.83 92.11 93.83C94.42 93.83 96.28 95.02 96.34 97.41L94.95 97.47C94.89 95.82 93.56 95.02 91.91 95.02Z" stroke="#707070" stroke-opacity="0" stroke-width="1.000000"/>
	</g>
	<g style="mix-blend-mode:normal">
		<path id="Tracé 632" d="M10.72 128.86L9.4 128.86L9.4 126.74C8.8 128.2 6.88 129.19 5.23 129.19C1.72 129.19 0 126.48 0 123.3C0 120.12 1.65 117.41 5.23 117.41C6.95 117.41 8.6 118.27 9.27 119.86L9.33 113.5L10.72 113.5L10.72 128.86ZM5.23 128C8.21 128 9.27 125.55 9.27 123.23C9.27 120.92 8.21 118.47 5.23 118.47C2.51 118.47 1.45 120.92 1.45 123.23C1.45 125.62 2.58 128 5.23 128Z" fill="#27488A" fill-opacity="1.000000" fill-rule="nonzero"/>
		<path id="Tracé 632" d="M9.4 128.86L9.4 126.74C8.8 128.2 6.88 129.19 5.23 129.19C1.72 129.19 0 126.48 0 123.3C0 120.12 1.65 117.41 5.23 117.41C6.95 117.41 8.6 118.27 9.27 119.86L9.33 113.5L10.72 113.5L10.72 128.86L9.4 128.86ZM9.27 123.23C9.27 120.92 8.21 118.47 5.23 118.47C2.51 118.47 1.45 120.92 1.45 123.23C1.45 125.62 2.58 128 5.23 128C8.21 128 9.27 125.55 9.27 123.23Z" stroke="#707070" stroke-opacity="0" stroke-width="1.000000"/>
	</g>
	<g style="mix-blend-mode:normal">
		<path id="Tracé 633" d="M13.57 123.63C13.57 125.62 14.7 128 17.41 128C19.46 128 20.59 126.81 21.05 125.15L22.44 125.15C21.85 127.67 20.32 129.13 17.41 129.13C13.7 129.13 12.18 126.41 12.18 123.23C12.18 120.32 13.7 117.34 17.41 117.34C21.12 117.34 22.64 120.45 22.51 123.57L13.57 123.63ZM21.05 122.51C20.99 120.45 19.66 118.53 17.34 118.53C15.03 118.53 13.77 120.45 13.5 122.51L21.05 122.51Z" fill="#27488A" fill-opacity="1.000000" fill-rule="nonzero"/>
		<path id="Tracé 633" d="M17.41 128C19.46 128 20.59 126.81 21.05 125.15L22.44 125.15C21.85 127.67 20.32 129.13 17.41 129.13C13.7 129.13 12.18 126.41 12.18 123.23C12.18 120.32 13.7 117.34 17.41 117.34C21.12 117.34 22.64 120.45 22.51 123.57L13.57 123.63C13.57 125.62 14.7 128 17.41 128ZM17.34 118.53C15.03 118.53 13.77 120.45 13.5 122.51L21.05 122.51C20.99 120.45 19.66 118.53 17.34 118.53Z" stroke="#707070" stroke-opacity="0" stroke-width="1.000000"/>
	</g>
	<g style="mix-blend-mode:normal">
		<path id="Tracé 634" d="M29.26 113.43L30.66 113.43L30.66 128.86L29.26 128.86L29.26 113.43Z" fill="#27488A" fill-opacity="1.000000" fill-rule="nonzero"/>
		<path id="Tracé 634" d="M30.66 113.43L30.66 128.86L29.26 128.86L29.26 113.43L30.66 113.43Z" stroke="#707070" stroke-opacity="0" stroke-width="1.000000"/>
	</g>
	<g style="mix-blend-mode:normal">
		<path id="Tracé 635" d="M32.58 121.12C32.71 118.53 34.63 117.41 37.28 117.41C39.33 117.41 41.52 118 41.52 120.98L41.52 126.88C41.52 127.41 41.78 127.67 42.38 127.67C42.51 127.67 42.71 127.6 42.84 127.6L42.84 128.73C42.51 128.8 42.31 128.8 41.91 128.8C40.46 128.8 40.26 128 40.26 126.88C39.26 128.33 38.2 129.13 35.95 129.13C33.83 129.13 32.05 128.13 32.05 125.88C32.05 122.77 35.22 122.64 38.27 122.31C39.46 122.17 40.06 122.04 40.06 120.78C40.06 118.93 38.67 118.47 37.01 118.47C35.29 118.47 33.97 119.26 33.9 121.05L32.58 121.12ZM40.12 122.77C39.93 123.1 39.26 123.23 38.87 123.23C36.48 123.63 33.5 123.63 33.5 125.82C33.5 127.21 34.76 128 36.08 128C38.2 128 40.12 126.68 40.12 124.49L40.12 122.77Z" fill="#27488A" fill-opacity="1.000000" fill-rule="nonzero"/>
		<path id="Tracé 635" d="M37.28 117.41C39.33 117.41 41.52 118 41.52 120.98L41.52 126.88C41.52 127.41 41.78 127.67 42.38 127.67C42.51 127.67 42.71 127.6 42.84 127.6L42.84 128.73C42.51 128.8 42.31 128.8 41.91 128.8C40.46 128.8 40.26 128 40.26 126.88C39.26 128.33 38.2 129.13 35.95 129.13C33.83 129.13 32.05 128.13 32.05 125.88C32.05 122.77 35.22 122.64 38.27 122.31C39.46 122.17 40.06 122.04 40.06 120.78C40.06 118.93 38.67 118.47 37.01 118.47C35.29 118.47 33.97 119.26 33.9 121.05L32.58 121.12C32.71 118.53 34.63 117.41 37.28 117.41ZM38.87 123.23C36.48 123.63 33.5 123.63 33.5 125.82C33.5 127.21 34.76 128 36.08 128C38.2 128 40.12 126.68 40.12 124.49L40.12 122.77C39.93 123.1 39.26 123.23 38.87 123.23Z" stroke="#707070" stroke-opacity="0" stroke-width="1.000000"/>
	</g>
	<g style="mix-blend-mode:normal">
		<path id="Tracé 636" d="M56.55 121.78C56.55 120.85 55.62 120.19 54.69 120.19C52.57 120.19 52.24 121.91 52.24 123.5C52.24 124.96 52.9 126.41 54.49 126.41C55.82 126.41 56.48 125.68 56.68 124.49L60.39 124.49C60.06 127.47 57.61 129.19 54.56 129.19C51.05 129.19 48.47 126.88 48.47 123.43C48.47 119.86 50.85 117.34 54.56 117.34C57.47 117.34 60.06 118.8 60.32 121.78L56.55 121.78Z" fill="#27488A" fill-opacity="1.000000" fill-rule="nonzero"/>
		<path id="Tracé 636" d="M54.69 120.19C52.57 120.19 52.24 121.91 52.24 123.5C52.24 124.96 52.9 126.41 54.49 126.41C55.82 126.41 56.48 125.68 56.68 124.49L60.39 124.49C60.06 127.47 57.61 129.19 54.56 129.19C51.05 129.19 48.47 126.88 48.47 123.43C48.47 119.86 50.85 117.34 54.56 117.34C57.47 117.34 60.06 118.8 60.32 121.78L56.55 121.78C56.55 120.85 55.62 120.19 54.69 120.19Z" stroke="#707070" stroke-opacity="0" stroke-width="1.000000"/>
	</g>
	<g style="mix-blend-mode:normal">
		<path id="Tracé 637" d="M67.14 117.34C70.78 117.34 73.3 119.92 73.3 123.3C73.3 126.68 70.78 129.19 67.14 129.19C63.5 129.19 61.05 126.68 61.05 123.3C61.05 119.92 63.57 117.34 67.14 117.34ZM67.14 126.35C68.93 126.35 69.46 124.69 69.46 123.23C69.46 121.84 68.93 120.12 67.14 120.12C65.35 120.12 64.82 121.84 64.82 123.23C64.89 124.69 65.42 126.35 67.14 126.35Z" fill="#27488A" fill-opacity="1.000000" fill-rule="nonzero"/>
		<path id="Tracé 637" d="M73.3 123.3C73.3 126.68 70.78 129.19 67.14 129.19C63.5 129.19 61.05 126.68 61.05 123.3C61.05 119.92 63.57 117.34 67.14 117.34C70.78 117.34 73.3 119.92 73.3 123.3ZM69.46 123.23C69.46 121.84 68.93 120.12 67.14 120.12C65.35 120.12 64.82 121.84 64.82 123.23C64.89 124.69 65.42 126.35 67.14 126.35C68.93 126.35 69.46 124.69 69.46 123.23Z" stroke="#707070" stroke-opacity="0" stroke-width="1.000000"/>
	</g>
	<g style="mix-blend-mode:normal">
		<path id="Tracé 638" d="M79.52 117.34C83.17 117.34 85.68 119.92 85.68 123.3C85.68 126.68 83.17 129.19 79.52 129.19C75.88 129.19 73.43 126.68 73.43 123.3C73.43 119.92 75.88 117.34 79.52 117.34ZM79.52 126.35C81.31 126.35 81.84 124.69 81.84 123.23C81.84 121.84 81.31 120.12 79.52 120.12C77.74 120.12 77.21 121.84 77.21 123.23C77.21 124.69 77.74 126.35 79.52 126.35Z" fill="#27488A" fill-opacity="1.000000" fill-rule="nonzero"/>
		<path id="Tracé 638" d="M85.68 123.3C85.68 126.68 83.17 129.19 79.52 129.19C75.88 129.19 73.43 126.68 73.43 123.3C73.43 119.92 75.88 117.34 79.52 117.34C83.17 117.34 85.68 119.92 85.68 123.3ZM81.84 123.23C81.84 121.84 81.31 120.12 79.52 120.12C77.74 120.12 77.21 121.84 77.21 123.23C77.21 124.69 77.74 126.35 79.52 126.35C81.31 126.35 81.84 124.69 81.84 123.23Z" stroke="#707070" stroke-opacity="0" stroke-width="1.000000"/>
	</g>
	<g style="mix-blend-mode:normal">
		<path id="Tracé 639" d="M87.01 117.67L90.65 117.67L90.65 119C91.38 117.94 92.57 117.41 93.89 117.41C97.54 117.41 99.12 120.45 99.12 123.57C99.12 126.48 97.54 129.26 94.22 129.26C92.77 129.26 91.71 128.73 90.91 127.74L90.78 127.74L90.78 132.7L86.94 132.7L87.01 117.67ZM90.65 123.1C90.65 125.09 91.25 126.35 92.97 126.35C94.69 126.35 95.28 124.62 95.28 123.1C95.28 121.71 94.69 120.12 93.03 120.12C91.97 120.12 90.65 120.85 90.65 123.1Z" fill="#27488A" fill-opacity="1.000000" fill-rule="nonzero"/>
		<path id="Tracé 639" d="M90.65 117.67L90.65 119C91.38 117.94 92.57 117.41 93.89 117.41C97.54 117.41 99.12 120.45 99.12 123.57C99.12 126.48 97.54 129.26 94.22 129.26C92.77 129.26 91.71 128.73 90.91 127.74L90.78 127.74L90.78 132.7L86.94 132.7L87.01 117.67L90.65 117.67ZM92.97 126.35C94.69 126.35 95.28 124.62 95.28 123.1C95.28 121.71 94.69 120.12 93.03 120.12C91.97 120.12 90.65 120.85 90.65 123.1C90.65 125.09 91.25 126.35 92.97 126.35Z" stroke="#707070" stroke-opacity="0" stroke-width="1.000000"/>
	</g>
	<g style="mix-blend-mode:normal">
		<path id="Tracé 640" d="M103.69 124.16C103.76 125.68 104.69 126.68 106.28 126.68C107.2 126.68 108.06 126.28 108.46 125.42L112.04 125.42C111.31 128 108.86 129.13 106.28 129.13C102.5 129.13 99.92 126.94 99.92 123.17C99.92 119.72 102.77 117.27 106.21 117.27C110.38 117.27 112.44 120.32 112.3 124.1L103.69 124.16ZM108.4 122.11C108.33 120.85 107.4 119.79 106.14 119.79C104.82 119.79 103.89 120.72 103.69 122.11L108.4 122.11ZM109.92 113.24L106.41 116.48L103.69 116.48L105.88 113.24L109.92 113.24Z" fill="#27488A" fill-opacity="1.000000" fill-rule="nonzero"/>
		<path id="Tracé 640" d="M106.28 126.68C107.2 126.68 108.06 126.28 108.46 125.42L112.04 125.42C111.31 128 108.86 129.13 106.28 129.13C102.5 129.13 99.92 126.94 99.92 123.17C99.92 119.72 102.77 117.27 106.21 117.27C110.38 117.27 112.44 120.32 112.3 124.1L103.69 124.16C103.76 125.68 104.69 126.68 106.28 126.68ZM106.14 119.79C104.82 119.79 103.89 120.72 103.69 122.11L108.4 122.11C108.33 120.85 107.4 119.79 106.14 119.79ZM106.41 116.48L103.69 116.48L105.88 113.24L109.92 113.24L106.41 116.48Z" stroke="#707070" stroke-opacity="0" stroke-width="1.000000"/>
	</g>
	<g style="mix-blend-mode:normal">
		<path id="Tracé 641" d="M113.63 117.67L117.34 117.67L117.34 119.66C117.87 118.2 119.26 117.47 120.91 117.47C121.18 117.47 121.51 117.47 121.84 117.54L121.84 120.85C121.38 120.72 120.91 120.65 120.38 120.65C118.53 120.65 117.53 121.91 117.53 123.3L117.53 128.86L113.69 128.86L113.63 117.67Z" fill="#27488A" fill-opacity="1.000000" fill-rule="nonzero"/>
		<path id="Tracé 641" d="M117.34 117.67L117.34 119.66C117.87 118.2 119.26 117.47 120.91 117.47C121.18 117.47 121.51 117.47 121.84 117.54L121.84 120.85C121.38 120.72 120.91 120.65 120.38 120.65C118.53 120.65 117.53 121.91 117.53 123.3L117.53 128.86L113.69 128.86L113.63 117.67L117.34 117.67Z" stroke="#707070" stroke-opacity="0" stroke-width="1.000000"/>
	</g>
	<g style="mix-blend-mode:normal">
		<path id="Tracé 642" d="M122.17 121.12C122.24 119.66 122.96 118.73 123.96 118.14C125.02 117.61 126.34 117.34 127.67 117.34C130.45 117.34 133.1 117.94 133.1 121.12L133.1 126.02C133.1 126.94 133.1 128 133.56 128.86L129.72 128.86C129.59 128.53 129.52 128.2 129.52 127.8C128.53 128.8 127.07 129.19 125.68 129.19C123.43 129.19 121.71 128.13 121.71 125.82C121.71 122.17 125.81 122.44 128.46 121.91C129.12 121.78 129.45 121.58 129.45 120.85C129.45 119.99 128.39 119.66 127.6 119.66C126.54 119.66 125.88 120.12 125.68 121.05L122.17 121.12ZM127.14 126.88C128.92 126.88 129.59 125.88 129.45 123.57C128.92 123.9 127.93 123.96 127.07 124.16C126.21 124.36 125.48 124.69 125.48 125.55C125.55 126.55 126.28 126.88 127.14 126.88Z" fill="#27488A" fill-opacity="1.000000" fill-rule="nonzero"/>
		<path id="Tracé 642" d="M123.96 118.14C125.02 117.61 126.34 117.34 127.67 117.34C130.45 117.34 133.1 117.94 133.1 121.12L133.1 126.02C133.1 126.94 133.1 128 133.56 128.86L129.72 128.86C129.59 128.53 129.52 128.2 129.52 127.8C128.53 128.8 127.07 129.19 125.68 129.19C123.43 129.19 121.71 128.13 121.71 125.82C121.71 122.17 125.81 122.44 128.46 121.91C129.12 121.78 129.45 121.58 129.45 120.85C129.45 119.99 128.39 119.66 127.6 119.66C126.54 119.66 125.88 120.12 125.68 121.05L122.17 121.12C122.24 119.66 122.96 118.73 123.96 118.14ZM129.45 123.57C128.92 123.9 127.93 123.96 127.07 124.16C126.21 124.36 125.48 124.69 125.48 125.55C125.55 126.55 126.28 126.88 127.14 126.88C128.92 126.88 129.59 125.88 129.45 123.57Z" stroke="#707070" stroke-opacity="0" stroke-width="1.000000"/>
	</g>
	<g style="mix-blend-mode:normal">
		<path id="Tracé 643" d="M141.97 120.06L139.58 120.06L139.58 125.15C139.58 126.02 140.11 126.21 140.97 126.21C141.31 126.21 141.64 126.15 141.97 126.15L141.97 128.86C141.31 128.86 140.58 129 139.92 129C136.67 129 135.81 128.07 135.81 125.02L135.81 120.06L133.89 120.06L133.89 117.67L135.81 117.67L135.81 114.29L139.65 114.29L139.65 117.67L142.03 117.67L141.97 120.06Z" fill="#27488A" fill-opacity="1.000000" fill-rule="nonzero"/>
		<path id="Tracé 643" d="M139.58 120.06L139.58 125.15C139.58 126.02 140.11 126.21 140.97 126.21C141.31 126.21 141.64 126.15 141.97 126.15L141.97 128.86C141.31 128.86 140.58 129 139.92 129C136.67 129 135.81 128.07 135.81 125.02L135.81 120.06L133.89 120.06L133.89 117.67L135.81 117.67L135.81 114.29L139.65 114.29L139.65 117.67L142.03 117.67L141.97 120.06L139.58 120.06Z" stroke="#707070" stroke-opacity="0" stroke-width="1.000000"/>
	</g>
	<g style="mix-blend-mode:normal">
		<path id="Tracé 644" d="M147 116.28L143.16 116.28L143.16 113.5L147 113.5L147 116.28ZM143.16 117.67L147 117.67L147 128.86L143.16 128.86L143.16 117.67Z" fill="#27488A" fill-opacity="1.000000" fill-rule="nonzero"/>
		<path id="Tracé 644" d="M143.16 116.28L143.16 113.5L147 113.5L147 116.28L143.16 116.28ZM147 117.67L147 128.86L143.16 128.86L143.16 117.67L147 117.67Z" stroke="#707070" stroke-opacity="0" stroke-width="1.000000"/>
	</g>
	<g style="mix-blend-mode:normal">
		<path id="Tracé 645" d="M154.55 117.34C158.19 117.34 160.71 119.92 160.71 123.3C160.71 126.68 158.19 129.19 154.55 129.19C150.91 129.19 148.46 126.68 148.46 123.3C148.46 119.92 150.91 117.34 154.55 117.34ZM154.55 126.35C156.34 126.35 156.87 124.69 156.87 123.23C156.87 121.84 156.34 120.12 154.55 120.12C152.76 120.12 152.23 121.84 152.23 123.23C152.23 124.69 152.76 126.35 154.55 126.35Z" fill="#27488A" fill-opacity="1.000000" fill-rule="nonzero"/>
		<path id="Tracé 645" d="M160.71 123.3C160.71 126.68 158.19 129.19 154.55 129.19C150.91 129.19 148.46 126.68 148.46 123.3C148.46 119.92 150.91 117.34 154.55 117.34C158.19 117.34 160.71 119.92 160.71 123.3ZM156.87 123.23C156.87 121.84 156.34 120.12 154.55 120.12C152.76 120.12 152.23 121.84 152.23 123.23C152.23 124.69 152.76 126.35 154.55 126.35C156.34 126.35 156.87 124.69 156.87 123.23Z" stroke="#707070" stroke-opacity="0" stroke-width="1.000000"/>
	</g>
	<g style="mix-blend-mode:normal">
		<path id="Tracé 646" d="M162.03 117.67L165.74 117.67L165.74 119.19C166.4 118.07 168.06 117.34 169.45 117.34C173.36 117.34 173.62 120.06 173.62 121.64L173.62 128.86L169.78 128.86L169.78 123.43C169.78 121.91 169.98 120.32 167.86 120.32C166.4 120.32 165.81 121.51 165.81 122.7L165.81 128.8L161.97 128.8L162.03 117.67Z" fill="#27488A" fill-opacity="1.000000" fill-rule="nonzero"/>
		<path id="Tracé 646" d="M165.74 117.67L165.74 119.19C166.4 118.07 168.06 117.34 169.45 117.34C173.36 117.34 173.62 120.06 173.62 121.64L173.62 128.86L169.78 128.86L169.78 123.43C169.78 121.91 169.98 120.32 167.86 120.32C166.4 120.32 165.81 121.51 165.81 122.7L165.81 128.8L161.97 128.8L162.03 117.67L165.74 117.67Z" stroke="#707070" stroke-opacity="0" stroke-width="1.000000"/>
	</g>
	<g style="mix-blend-mode:normal">
		<path id="Tracé 647" d="M1.39 147.14C1.39 149.13 2.51 151.51 5.23 151.51C7.28 151.51 8.41 150.32 8.87 148.66L10.26 148.66C9.66 151.18 8.14 152.64 5.23 152.64C1.52 152.64 0 149.92 0 146.74C0 143.83 1.52 140.85 5.23 140.85C8.93 140.85 10.46 143.96 10.33 147.07L1.39 147.14ZM8.87 146.01C8.8 143.96 7.48 142.04 5.16 142.04C2.84 142.04 1.58 143.96 1.32 146.01L8.87 146.01Z" fill="#27488A" fill-opacity="1.000000" fill-rule="nonzero"/>
		<path id="Tracé 647" d="M5.23 151.51C7.28 151.51 8.41 150.32 8.87 148.66L10.26 148.66C9.66 151.18 8.14 152.64 5.23 152.64C1.52 152.64 0 149.92 0 146.74C0 143.83 1.52 140.85 5.23 140.85C8.93 140.85 10.46 143.96 10.33 147.07L1.39 147.14C1.39 149.13 2.51 151.51 5.23 151.51ZM5.16 142.04C2.84 142.04 1.58 143.96 1.32 146.01L8.87 146.01C8.8 143.96 7.48 142.04 5.16 142.04Z" stroke="#707070" stroke-opacity="0" stroke-width="1.000000"/>
	</g>
	<g style="mix-blend-mode:normal">
		<path id="Tracé 648" d="M13.9 141.25L16.29 141.25L16.29 142.37L13.9 142.37L13.9 149.85C13.9 150.71 14.03 151.24 15.03 151.31C15.42 151.31 15.82 151.31 16.22 151.24L16.22 152.44C15.82 152.44 15.36 152.5 14.96 152.5C13.11 152.5 12.44 151.91 12.44 149.99L12.44 142.37L10.46 142.37L10.46 141.25L12.44 141.25L12.44 137.93L13.83 137.93L13.9 141.25Z" fill="#27488A" fill-opacity="1.000000" fill-rule="nonzero"/>
		<path id="Tracé 648" d="M16.29 141.25L16.29 142.37L13.9 142.37L13.9 149.85C13.9 150.71 14.03 151.24 15.03 151.31C15.42 151.31 15.82 151.31 16.22 151.24L16.22 152.44C15.82 152.44 15.36 152.5 14.96 152.5C13.11 152.5 12.44 151.91 12.44 149.99L12.44 142.37L10.46 142.37L10.46 141.25L12.44 141.25L12.44 137.93L13.83 137.93L13.9 141.25L16.29 141.25Z" stroke="#707070" stroke-opacity="0" stroke-width="1.000000"/>
	</g>
	<g style="mix-blend-mode:normal">
		<path id="Tracé 649" d="M33.7 152.37L32.38 152.37L32.38 150.25C31.78 151.71 29.86 152.7 28.21 152.7C24.7 152.7 22.97 149.99 22.97 146.81C22.97 143.63 24.63 140.91 28.21 140.91C29.93 140.91 31.58 141.78 32.24 143.36L32.31 137.01L33.7 137.01L33.7 152.37ZM28.21 151.58C31.18 151.58 32.24 149.13 32.24 146.81C32.24 144.49 31.18 142.04 28.21 142.04C25.49 142.04 24.43 144.49 24.43 146.81C24.43 149.13 25.49 151.58 28.21 151.58Z" fill="#27488A" fill-opacity="1.000000" fill-rule="nonzero"/>
		<path id="Tracé 649" d="M32.38 152.37L32.38 150.25C31.78 151.71 29.86 152.7 28.21 152.7C24.7 152.7 22.97 149.99 22.97 146.81C22.97 143.63 24.63 140.91 28.21 140.91C29.93 140.91 31.58 141.78 32.24 143.36L32.31 137.01L33.7 137.01L33.7 152.37L32.38 152.37ZM32.24 146.81C32.24 144.49 31.18 142.04 28.21 142.04C25.49 142.04 24.43 144.49 24.43 146.81C24.43 149.13 25.49 151.58 28.21 151.58C31.18 151.58 32.24 149.13 32.24 146.81Z" stroke="#707070" stroke-opacity="0" stroke-width="1.000000"/>
	</g>
	<g style="mix-blend-mode:normal">
		<path id="Tracé 650" d="M36.68 147.14C36.68 149.13 37.81 151.51 40.52 151.51C42.57 151.51 43.7 150.32 44.16 148.66L45.55 148.66C44.96 151.18 43.43 152.64 40.52 152.64C36.81 152.64 35.29 149.92 35.29 146.74C35.29 143.83 36.81 140.85 40.52 140.85C44.23 140.85 45.75 143.96 45.62 147.07L36.68 147.14ZM44.16 146.01C44.1 143.96 42.77 142.04 40.46 142.04C38.14 142.04 36.88 143.96 36.61 146.01L44.16 146.01Z" fill="#27488A" fill-opacity="1.000000" fill-rule="nonzero"/>
		<path id="Tracé 650" d="M40.52 151.51C42.57 151.51 43.7 150.32 44.16 148.66L45.55 148.66C44.96 151.18 43.43 152.64 40.52 152.64C36.81 152.64 35.29 149.92 35.29 146.74C35.29 143.83 36.81 140.85 40.52 140.85C44.23 140.85 45.75 143.96 45.62 147.07L36.68 147.14C36.68 149.13 37.81 151.51 40.52 151.51ZM40.46 142.04C38.14 142.04 36.88 143.96 36.61 146.01L44.16 146.01C44.1 143.96 42.77 142.04 40.46 142.04Z" stroke="#707070" stroke-opacity="0" stroke-width="1.000000"/>
	</g>
	<g style="mix-blend-mode:normal">
		<path id="Tracé 651" d="M52.71 136.94L54.1 136.94L54.1 152.3L52.71 152.3L52.71 136.94Z" fill="#27488A" fill-opacity="1.000000" fill-rule="nonzero"/>
		<path id="Tracé 651" d="M54.1 136.94L54.1 152.3L52.71 152.3L52.71 136.94L54.1 136.94Z" stroke="#707070" stroke-opacity="0" stroke-width="1.000000"/>
	</g>
	<g style="mix-blend-mode:normal">
		<path id="Tracé 652" d="M56.21 144.62C56.35 142.04 58.27 140.91 60.92 140.91C62.97 140.91 65.16 141.51 65.16 144.49L65.16 150.38C65.16 150.91 65.42 151.18 66.02 151.18C66.15 151.18 66.35 151.11 66.48 151.11L66.48 152.24C66.15 152.3 65.95 152.3 65.55 152.3C64.1 152.3 63.9 151.51 63.9 150.38C62.9 151.84 61.84 152.64 59.59 152.64C57.47 152.64 55.69 151.64 55.69 149.39C55.69 146.28 58.86 146.14 61.91 145.81C63.1 145.68 63.7 145.55 63.7 144.29C63.7 142.44 62.31 141.97 60.65 141.97C58.93 141.97 57.61 142.77 57.54 144.56L56.21 144.62ZM63.7 146.28C63.5 146.61 62.84 146.74 62.44 146.81C60.06 147.21 57.08 147.21 57.08 149.39C57.08 150.78 58.33 151.58 59.66 151.58C61.84 151.58 63.7 150.25 63.7 148.07L63.7 146.28Z" fill="#27488A" fill-opacity="1.000000" fill-rule="nonzero"/>
		<path id="Tracé 652" d="M60.92 140.91C62.97 140.91 65.16 141.51 65.16 144.49L65.16 150.38C65.16 150.91 65.42 151.18 66.02 151.18C66.15 151.18 66.35 151.11 66.48 151.11L66.48 152.24C66.15 152.3 65.95 152.3 65.55 152.3C64.1 152.3 63.9 151.51 63.9 150.38C62.9 151.84 61.84 152.64 59.59 152.64C57.47 152.64 55.69 151.64 55.69 149.39C55.69 146.28 58.86 146.14 61.91 145.81C63.1 145.68 63.7 145.55 63.7 144.29C63.7 142.44 62.31 141.97 60.65 141.97C58.93 141.97 57.61 142.77 57.54 144.56L56.21 144.62C56.35 142.04 58.27 140.91 60.92 140.91ZM62.44 146.81C60.06 147.21 57.08 147.21 57.08 149.39C57.08 150.78 58.33 151.58 59.66 151.58C61.84 151.58 63.7 150.25 63.7 148.07L63.7 146.28C63.5 146.61 62.84 146.74 62.44 146.81Z" stroke="#707070" stroke-opacity="0" stroke-width="1.000000"/>
	</g>
	<g style="mix-blend-mode:normal">
		<path id="Tracé 653" d="M72.9 141.18L76.61 141.18L76.61 142.7C77.34 141.58 78.6 140.85 79.99 140.85C81.44 140.85 82.77 141.31 83.37 142.64C84.29 141.44 85.42 140.85 87.01 140.85C90.71 140.85 91.11 143.56 91.11 145.68L91.11 152.37L87.27 152.37L87.27 145.81C87.27 144.62 86.68 143.89 85.68 143.89C84.03 143.89 83.89 145.09 83.89 146.94L83.89 152.44L80.05 152.44L80.05 146.08C80.05 144.75 79.66 143.96 78.6 143.96C77.21 143.96 76.68 144.69 76.68 147.01L76.68 152.44L72.9 152.44L72.9 141.18Z" fill="#27488A" fill-opacity="1.000000" fill-rule="nonzero"/>
		<path id="Tracé 653" d="M76.61 141.18L76.61 142.7C77.34 141.58 78.6 140.85 79.99 140.85C81.44 140.85 82.77 141.31 83.37 142.64C84.29 141.44 85.42 140.85 87.01 140.85C90.71 140.85 91.11 143.56 91.11 145.68L91.11 152.37L87.27 152.37L87.27 145.81C87.27 144.62 86.68 143.89 85.68 143.89C84.03 143.89 83.89 145.09 83.89 146.94L83.89 152.44L80.05 152.44L80.05 146.08C80.05 144.75 79.66 143.96 78.6 143.96C77.21 143.96 76.68 144.69 76.68 147.01L76.68 152.44L72.9 152.44L72.9 141.18L76.61 141.18Z" stroke="#707070" stroke-opacity="0" stroke-width="1.000000"/>
	</g>
	<g style="mix-blend-mode:normal">
		<path id="Tracé 654" d="M104.69 152.37L100.98 152.37L100.98 150.85C100.25 151.97 98.73 152.7 97.4 152.7C94.09 152.7 93.1 150.85 93.1 147.93L93.1 141.18L96.94 141.18L96.94 147.67C96.94 149.13 97.6 149.66 98.79 149.66C99.65 149.66 100.85 149.13 100.85 147.14L100.85 141.11L104.69 141.11L104.69 152.37Z" fill="#27488A" fill-opacity="1.000000" fill-rule="nonzero"/>
		<path id="Tracé 654" d="M100.98 152.37L100.98 150.85C100.25 151.97 98.73 152.7 97.4 152.7C94.09 152.7 93.1 150.85 93.1 147.93L93.1 141.18L96.94 141.18L96.94 147.67C96.94 149.13 97.6 149.66 98.79 149.66C99.65 149.66 100.85 149.13 100.85 147.14L100.85 141.11L104.69 141.11L104.69 152.37L100.98 152.37Z" stroke="#707070" stroke-opacity="0" stroke-width="1.000000"/>
	</g>
	<g style="mix-blend-mode:normal">
		<path id="Tracé 655" d="M113.76 143.56L111.38 143.56L111.38 148.66C111.38 149.52 111.91 149.72 112.77 149.72C113.1 149.72 113.43 149.66 113.76 149.66L113.76 152.37C113.03 152.37 112.37 152.5 111.71 152.5C108.46 152.5 107.6 151.58 107.6 148.53L107.6 143.56L105.68 143.56L105.68 141.18L107.6 141.18L107.6 137.8L111.44 137.8L111.44 141.18L113.83 141.18L113.76 143.56Z" fill="#27488A" fill-opacity="1.000000" fill-rule="nonzero"/>
		<path id="Tracé 655" d="M111.38 143.56L111.38 148.66C111.38 149.52 111.91 149.72 112.77 149.72C113.1 149.72 113.43 149.66 113.76 149.66L113.76 152.37C113.03 152.37 112.37 152.5 111.71 152.5C108.46 152.5 107.6 151.58 107.6 148.53L107.6 143.56L105.68 143.56L105.68 141.18L107.6 141.18L107.6 137.8L111.44 137.8L111.44 141.18L113.83 141.18L113.76 143.56L111.38 143.56Z" stroke="#707070" stroke-opacity="0" stroke-width="1.000000"/>
	</g>
	<g style="mix-blend-mode:normal">
		<path id="Tracé 656" d="M126.54 152.37L122.83 152.37L122.83 150.85C122.1 151.97 120.58 152.7 119.26 152.7C115.94 152.7 114.95 150.85 114.95 147.93L114.95 141.18L118.79 141.18L118.79 147.67C118.79 149.13 119.45 149.66 120.65 149.66C121.51 149.66 122.77 149.13 122.77 147.14L122.77 141.11L126.61 141.11L126.54 152.37Z" fill="#27488A" fill-opacity="1.000000" fill-rule="nonzero"/>
		<path id="Tracé 656" d="M122.83 152.37L122.83 150.85C122.1 151.97 120.58 152.7 119.26 152.7C115.94 152.7 114.95 150.85 114.95 147.93L114.95 141.18L118.79 141.18L118.79 147.67C118.79 149.13 119.45 149.66 120.65 149.66C121.51 149.66 122.77 149.13 122.77 147.14L122.77 141.11L126.61 141.11L126.54 152.37L122.83 152.37Z" stroke="#707070" stroke-opacity="0" stroke-width="1.000000"/>
	</g>
	<g style="mix-blend-mode:normal">
		<path id="Tracé 657" d="M128.39 144.62C128.46 143.17 129.19 142.24 130.18 141.64C131.24 141.11 132.57 140.85 133.89 140.85C136.67 140.85 139.32 141.44 139.32 144.62L139.32 149.52C139.32 150.45 139.32 151.51 139.78 152.37L135.94 152.37C135.81 152.04 135.74 151.71 135.74 151.31C134.75 152.3 133.29 152.7 131.9 152.7C129.65 152.7 127.93 151.64 127.93 149.32C127.93 145.68 132.03 145.95 134.68 145.42C135.35 145.28 135.68 145.09 135.68 144.36C135.68 143.5 134.62 143.17 133.82 143.17C132.76 143.17 132.1 143.63 131.9 144.56L128.39 144.62ZM133.36 150.45C135.15 150.45 135.81 149.46 135.68 147.14C135.15 147.47 134.15 147.54 133.29 147.74C132.43 147.93 131.7 148.26 131.7 149.13C131.77 150.05 132.5 150.45 133.36 150.45Z" fill="#27488A" fill-opacity="1.000000" fill-rule="nonzero"/>
		<path id="Tracé 657" d="M130.18 141.64C131.24 141.11 132.57 140.85 133.89 140.85C136.67 140.85 139.32 141.44 139.32 144.62L139.32 149.52C139.32 150.45 139.32 151.51 139.78 152.37L135.94 152.37C135.81 152.04 135.74 151.71 135.74 151.31C134.75 152.3 133.29 152.7 131.9 152.7C129.65 152.7 127.93 151.64 127.93 149.32C127.93 145.68 132.03 145.95 134.68 145.42C135.35 145.28 135.68 145.09 135.68 144.36C135.68 143.5 134.62 143.17 133.82 143.17C132.76 143.17 132.1 143.63 131.9 144.56L128.39 144.62C128.46 143.17 129.19 142.24 130.18 141.64ZM135.68 147.14C135.15 147.47 134.15 147.54 133.29 147.74C132.43 147.93 131.7 148.26 131.7 149.13C131.77 150.05 132.5 150.45 133.36 150.45C135.15 150.45 135.81 149.46 135.68 147.14Z" stroke="#707070" stroke-opacity="0" stroke-width="1.000000"/>
	</g>
	<g style="mix-blend-mode:normal">
		<path id="Tracé 658" d="M141.44 136.94L145.28 136.94L145.28 152.3L141.44 152.3L141.44 136.94Z" fill="#27488A" fill-opacity="1.000000" fill-rule="nonzero"/>
		<path id="Tracé 658" d="M145.28 136.94L145.28 152.3L141.44 152.3L141.44 136.94L145.28 136.94Z" stroke="#707070" stroke-opacity="0" stroke-width="1.000000"/>
	</g>
	<g style="mix-blend-mode:normal">
		<path id="Tracé 659" d="M151.37 139.79L147.53 139.79L147.53 137.01L151.37 137.01L151.37 139.79ZM147.6 141.18L151.44 141.18L151.44 152.37L147.6 152.37L147.6 141.18Z" fill="#27488A" fill-opacity="1.000000" fill-rule="nonzero"/>
		<path id="Tracé 659" d="M147.53 139.79L147.53 137.01L151.37 137.01L151.37 139.79L147.53 139.79ZM151.44 141.18L151.44 152.37L147.6 152.37L147.6 141.18L151.44 141.18Z" stroke="#707070" stroke-opacity="0" stroke-width="1.000000"/>
	</g>
	<g style="mix-blend-mode:normal">
		<path id="Tracé 660" d="M160.58 143.56L158.19 143.56L158.19 148.66C158.19 149.52 158.72 149.72 159.58 149.72C159.91 149.72 160.25 149.66 160.58 149.66L160.58 152.37C159.85 152.37 159.19 152.5 158.52 152.5C155.28 152.5 154.42 151.58 154.42 148.53L154.42 143.56L152.5 143.56L152.5 141.18L154.42 141.18L154.42 137.8L158.26 137.8L158.26 141.18L160.64 141.18L160.58 143.56Z" fill="#27488A" fill-opacity="1.000000" fill-rule="nonzero"/>
		<path id="Tracé 660" d="M158.19 143.56L158.19 148.66C158.19 149.52 158.72 149.72 159.58 149.72C159.91 149.72 160.25 149.66 160.58 149.66L160.58 152.37C159.85 152.37 159.19 152.5 158.52 152.5C155.28 152.5 154.42 151.58 154.42 148.53L154.42 143.56L152.5 143.56L152.5 141.18L154.42 141.18L154.42 137.8L158.26 137.8L158.26 141.18L160.64 141.18L160.58 143.56L158.19 143.56Z" stroke="#707070" stroke-opacity="0" stroke-width="1.000000"/>
	</g>
	<g style="mix-blend-mode:normal">
		<path id="Tracé 661" d="M165.01 147.67C165.08 149.19 166.01 150.19 167.6 150.19C168.52 150.19 169.38 149.79 169.78 148.93L173.36 148.93C172.63 151.51 170.18 152.64 167.6 152.64C163.82 152.64 161.24 150.45 161.24 146.67C161.24 143.23 164.09 140.78 167.53 140.78C171.7 140.78 173.75 143.83 173.62 147.6L165.01 147.67ZM169.78 145.62C169.71 144.36 168.79 143.3 167.53 143.3C166.21 143.3 165.28 144.23 165.08 145.62L169.78 145.62ZM171.24 136.74L167.73 139.99L165.01 139.99L167.2 136.74L171.24 136.74Z" fill="#27488A" fill-opacity="1.000000" fill-rule="nonzero"/>
		<path id="Tracé 661" d="M167.6 150.19C168.52 150.19 169.38 149.79 169.78 148.93L173.36 148.93C172.63 151.51 170.18 152.64 167.6 152.64C163.82 152.64 161.24 150.45 161.24 146.67C161.24 143.23 164.09 140.78 167.53 140.78C171.7 140.78 173.75 143.83 173.62 147.6L165.01 147.67C165.08 149.19 166.01 150.19 167.6 150.19ZM167.53 143.3C166.21 143.3 165.28 144.23 165.08 145.62L169.78 145.62C169.71 144.36 168.79 143.3 167.53 143.3ZM167.73 139.99L165.01 139.99L167.2 136.74L171.24 136.74L167.73 139.99Z" stroke="#707070" stroke-opacity="0" stroke-width="1.000000"/>
	</g>
</svg>
