<svg xmlns="http://www.w3.org/2000/svg" width="218.985" height="136.153" viewBox="0 0 218.985 136.153">
  <g id="RRESS_logotype_cmyk" transform="translate(-134.2 -283.7)">
    <g id="Group_38" data-name="Group 38" transform="translate(151.369 283.7)">
      <path id="Path_258" data-name="Path 258" d="M166.639,294.178a5.239,5.239,0,1,1,5.239-5.239A5.226,5.226,0,0,1,166.639,294.178Z" transform="translate(-161.4 -283.7)" fill="#698b73"/>
    </g>
    <g id="Group_39" data-name="Group 39" transform="translate(183.435 283.7)">
      <path id="Path_259" data-name="Path 259" d="M217.439,294.178a5.239,5.239,0,1,1,5.239-5.239A5.226,5.226,0,0,1,217.439,294.178Z" transform="translate(-212.2 -283.7)" fill="#fab526"/>
    </g>
    <g id="Group_40" data-name="Group 40" transform="translate(267.45 340.446)">
      <path id="Path_260" data-name="Path 260" d="M350.539,384.078a5.239,5.239,0,1,1,5.239-5.239A5.226,5.226,0,0,1,350.539,384.078Z" transform="translate(-345.3 -373.6)" fill="#193330"/>
    </g>
    <g id="Group_41" data-name="Group 41" transform="translate(238.477 340.446)">
      <path id="Path_261" data-name="Path 261" d="M304.639,384.078a5.239,5.239,0,1,1,5.239-5.239A5.226,5.226,0,0,1,304.639,384.078Z" transform="translate(-299.4 -373.6)" fill="#eb6752"/>
    </g>
    <path id="Path_262" data-name="Path 262" d="M245.7,328.12V341.5a2.128,2.128,0,0,0,2.146,2.146h17.485a2.047,2.047,0,0,0,2.083-2.083,1.958,1.958,0,0,0-.631-1.515,2.2,2.2,0,0,0-1.515-.631h-15.4V329.066H262.49a2.155,2.155,0,0,0,2.146-2.146,2.047,2.047,0,0,0-2.083-2.083H249.929V311.266h15.4a2.047,2.047,0,0,0,2.083-2.083,2,2,0,0,0-.568-1.452,1.958,1.958,0,0,0-1.515-.631H247.846a2.051,2.051,0,0,0-1.515.631c-.5.5-.631,1.136-.631,3.409v14.455" transform="translate(-41.12 -8.63)" fill="#698b73"/>
    <path id="Path_263" data-name="Path 263" d="M163.173,328.373l7.575,13.7a1.261,1.261,0,0,1,.126.947,1.056,1.056,0,0,1-.568.694,1.164,1.164,0,0,1-1.641-.442l-8.206-14.9h-4.229a1.266,1.266,0,0,1-1.262-1.262h0a1.266,1.266,0,0,1,1.262-1.262h4.608a7.1,7.1,0,0,0,3.787-1.01,7.461,7.461,0,0,0,2.714-2.714,7.606,7.606,0,0,0,0-7.575,7.977,7.977,0,0,0-2.714-2.714,7.1,7.1,0,0,0-3.787-1.01H149.791v31.939a1.018,1.018,0,0,1-.379.821,1.146,1.146,0,0,1-.884.379,1.246,1.246,0,0,1-.884-.379,1.111,1.111,0,0,1-.379-.821V328.436h-11.8a1.294,1.294,0,0,1-1.262-1.262,1.059,1.059,0,0,1,.379-.884,1.246,1.246,0,0,1,.884-.379h11.8V309.563a1.294,1.294,0,0,1,1.262-1.262h12.246a9.36,9.36,0,0,1,5.05,1.389,10.7,10.7,0,0,1,3.661,3.661,9.883,9.883,0,0,1,.379,9.405,11.207,11.207,0,0,1-2.462,3.219h10.983a10.41,10.41,0,0,1-2.462-3.219,9.658,9.658,0,0,1-1.01-4.418,9.147,9.147,0,0,1,1.389-4.987,10.7,10.7,0,0,1,3.661-3.661,9.945,9.945,0,0,1,5.05-1.389H197.2a1.294,1.294,0,0,1,1.262,1.262v16.348h9.153a1.266,1.266,0,0,1,1.262,1.262h0a1.266,1.266,0,0,1-1.262,1.262h-9.153v14.329a1.018,1.018,0,0,1-.379.821,1.246,1.246,0,0,1-.884.379,1.059,1.059,0,0,1-.884-.379,1.111,1.111,0,0,1-.379-.821V328.436h0v-2.525h0V310.825H184.887a7.1,7.1,0,0,0-3.787,1.01,7.461,7.461,0,0,0-2.714,2.714,7.606,7.606,0,0,0,0,7.575,7.461,7.461,0,0,0,2.714,2.714,7.1,7.1,0,0,0,3.787,1.01h4.734a1.266,1.266,0,0,1,1.262,1.262h0a1.266,1.266,0,0,1-1.262,1.262h-4.355l-8.206,14.9a1.164,1.164,0,0,1-1.641.442,1.543,1.543,0,0,1-.568-.694,1.03,1.03,0,0,1,.126-.947l7.575-13.761-15.023.063Z" transform="translate(0 -9.072)" fill="#193330"/>
    <path id="Path_264" data-name="Path 264" d="M308.234,326.251c-2.083-1.767-5.428-3.03-9.784-3.661a10.334,10.334,0,0,1-5.555-2.209,6.416,6.416,0,0,1,.189-8.774,8.382,8.382,0,0,1,5.492-1.641,12.582,12.582,0,0,1,4.355.821,15.2,15.2,0,0,1,4.229,2.272,2.1,2.1,0,0,0,1.515.5,2.126,2.126,0,0,0,1.389-.884,1.924,1.924,0,0,0-.379-2.967,21.182,21.182,0,0,0-5.428-2.84,17.016,17.016,0,0,0-5.681-1.073c-3.535,0-6.375.884-8.458,2.714a9.58,9.58,0,0,0-3.156,7.575,9.716,9.716,0,0,0,2.714,7.322c1.767,1.7,4.482,2.9,8.079,3.472,3.345.5,5.807,1.389,7.385,2.588a5.336,5.336,0,0,1,2.146,4.482,4.781,4.781,0,0,1-2.02,4.1,10.31,10.31,0,0,1-6.186,1.578,14.4,14.4,0,0,1-5.492-1.01,11.533,11.533,0,0,1-4.166-2.651,1.968,1.968,0,0,0-2.9-.126,2.064,2.064,0,0,0-.821,1.578,1.887,1.887,0,0,0,.694,1.452,14.849,14.849,0,0,0,5.618,3.724,19.106,19.106,0,0,0,7.133,1.326c3.85,0,6.88-.884,9.089-2.588a8.912,8.912,0,0,0,3.345-7.322A9.821,9.821,0,0,0,308.234,326.251Z" transform="translate(-55.871 -8.15)" fill="#698b73"/>
    <path id="Path_265" data-name="Path 265" d="M354.634,326.251c-2.083-1.767-5.428-3.03-9.784-3.661a10.334,10.334,0,0,1-5.555-2.209,6.416,6.416,0,0,1,.189-8.774,8.382,8.382,0,0,1,5.492-1.641,12.583,12.583,0,0,1,4.355.821,15.2,15.2,0,0,1,4.229,2.272,2.1,2.1,0,0,0,1.515.5,2.126,2.126,0,0,0,1.389-.884,1.924,1.924,0,0,0-.379-2.967,21.184,21.184,0,0,0-5.428-2.84,17.016,17.016,0,0,0-5.681-1.073c-3.535,0-6.375.884-8.458,2.714a9.58,9.58,0,0,0-3.156,7.575,9.716,9.716,0,0,0,2.714,7.322c1.767,1.7,4.482,2.9,8.08,3.472,3.345.5,5.807,1.389,7.385,2.588a5.336,5.336,0,0,1,2.146,4.482,4.781,4.781,0,0,1-2.02,4.1,10.31,10.31,0,0,1-6.186,1.578,14.4,14.4,0,0,1-5.492-1.01,11.532,11.532,0,0,1-4.166-2.651,1.971,1.971,0,0,0-2.9-.126,2.064,2.064,0,0,0-.821,1.578,1.887,1.887,0,0,0,.694,1.452,14.85,14.85,0,0,0,5.618,3.724,19.106,19.106,0,0,0,7.133,1.326c3.85,0,6.88-.884,9.089-2.588a8.912,8.912,0,0,0,3.345-7.322A9.821,9.821,0,0,0,354.634,326.251Z" transform="translate(-72.982 -8.15)" fill="#698b73"/>
    <g id="Group_42" data-name="Group 42" transform="translate(174.977 363.864)">
      <path id="Path_266" data-name="Path 266" d="M200.4,425.246V413h5.239a4.3,4.3,0,0,1,1.957.5,3.667,3.667,0,0,1,1.389,1.389,3.569,3.569,0,0,1,.5,2.02,3.621,3.621,0,0,1-.5,1.831,4.851,4.851,0,0,1-1.389,1.389,4.1,4.1,0,0,1-1.957.5h-3.345v4.608Zm1.894-6.438h3.535a1.449,1.449,0,0,0,.884-.252,1.679,1.679,0,0,0,.631-.694,2.647,2.647,0,0,0,.252-1.01,2.128,2.128,0,0,0-.316-1.073,1.919,1.919,0,0,0-.821-.757,2.311,2.311,0,0,0-1.136-.253h-3.03v4.04Zm5.365,6.438-3.093-5.555,1.957-.442,3.472,6Z" transform="translate(-199.39 -411.548)" fill="#193330"/>
      <path id="Path_267" data-name="Path 267" d="M222.36,424.587a4.844,4.844,0,0,1-2.525-.631,3.9,3.9,0,0,1-1.7-1.641,4.4,4.4,0,0,1-.631-2.4,4.917,4.917,0,0,1,.379-1.957,6.548,6.548,0,0,1,.947-1.578,4.255,4.255,0,0,1,1.515-1.01,4.612,4.612,0,0,1,1.894-.379,4.742,4.742,0,0,1,1.641.316,5.055,5.055,0,0,1,1.326.947,4.011,4.011,0,0,1,.884,1.389,5.476,5.476,0,0,1,.316,1.767v.757h-7.511l-.379-1.452h6.375l-.252.316v-.442a2.411,2.411,0,0,0-.379-1.01,2.108,2.108,0,0,0-.821-.694,2.162,2.162,0,0,0-1.136-.253,3.075,3.075,0,0,0-1.578.379,2.384,2.384,0,0,0-1.01,1.073,3.433,3.433,0,0,0-.316,1.7,3.758,3.758,0,0,0,.379,1.7,2.348,2.348,0,0,0,1.136,1.073,3.758,3.758,0,0,0,1.7.379,2.826,2.826,0,0,0,1.262-.252,4.258,4.258,0,0,0,1.262-.821l.884,1.262a7.005,7.005,0,0,1-1.01.757,7.526,7.526,0,0,1-1.262.5A5.257,5.257,0,0,1,222.36,424.587Zm-1.389-10.794-.568-.884,2.525-2.209,1.136,1.452Z" transform="translate(-205.696 -410.7)" fill="#193330"/>
      <path id="Path_268" data-name="Path 268" d="M237.5,427.058a5.559,5.559,0,0,1-2.083-.379,3.574,3.574,0,0,1-1.515-1.2l1.2-1.073a4.631,4.631,0,0,0,1.136.884,3.4,3.4,0,0,0,1.389.252,1.748,1.748,0,0,0,.568-.063,1.89,1.89,0,0,0,.5-.253,1.675,1.675,0,0,0,.316-.379,1.189,1.189,0,0,0,.126-.5,1.045,1.045,0,0,0-.316-.757,2.469,2.469,0,0,0-.568-.252c-.252-.063-.568-.189-.947-.316a9.594,9.594,0,0,1-1.641-.568,4.658,4.658,0,0,1-1.01-.757,1.72,1.72,0,0,1-.379-.757,3.724,3.724,0,0,1-.126-.884,2.075,2.075,0,0,1,.252-1.073,2.2,2.2,0,0,1,.694-.821,2.909,2.909,0,0,1,1.073-.568,4.374,4.374,0,0,1,1.262-.189,4.071,4.071,0,0,1,1.262.189,6.846,6.846,0,0,1,1.2.5,2.791,2.791,0,0,1,.884.821l-1.01,1.136a2.176,2.176,0,0,0-.757-.568,1.957,1.957,0,0,0-.821-.379,3.169,3.169,0,0,0-.757-.126,2.59,2.59,0,0,0-.694.063,4.351,4.351,0,0,0-.5.189.646.646,0,0,0-.316.379,1.189,1.189,0,0,0-.126.5,1.171,1.171,0,0,0,.126.442.63.63,0,0,0,.252.316c.126.063.316.189.568.316a6.508,6.508,0,0,0,1.01.316,6.451,6.451,0,0,1,1.452.5,2.45,2.45,0,0,1,.884.631,2.64,2.64,0,0,1,.5.757,4.9,4.9,0,0,1,.126,1.01,2.151,2.151,0,0,1-.442,1.389,2.526,2.526,0,0,1-1.2.947A3.9,3.9,0,0,1,237.5,427.058Z" transform="translate(-211.744 -413.171)" fill="#193330"/>
      <path id="Path_269" data-name="Path 269" d="M251.96,427.095a4.844,4.844,0,0,1-2.525-.631,3.9,3.9,0,0,1-1.7-1.641,4.4,4.4,0,0,1-.631-2.4,4.917,4.917,0,0,1,.379-1.957,6.547,6.547,0,0,1,.947-1.578,4.254,4.254,0,0,1,1.515-1.01,4.612,4.612,0,0,1,1.894-.379,4.741,4.741,0,0,1,1.641.316,5.054,5.054,0,0,1,1.326.947,4.012,4.012,0,0,1,.884,1.389,5.477,5.477,0,0,1,.316,1.767v.758h-7.511l-.379-1.452h6.375l-.252.316V421.1a2.41,2.41,0,0,0-.379-1.01,2.108,2.108,0,0,0-.821-.694,2.162,2.162,0,0,0-1.136-.252,3.075,3.075,0,0,0-1.578.379,2.385,2.385,0,0,0-1.01,1.073,3.433,3.433,0,0,0-.316,1.7,3.758,3.758,0,0,0,.379,1.7,2.348,2.348,0,0,0,1.136,1.073,3.757,3.757,0,0,0,1.7.379,2.826,2.826,0,0,0,1.262-.253,4.259,4.259,0,0,0,1.262-.821l.884,1.262a7,7,0,0,1-1.01.757,7.518,7.518,0,0,1-1.262.505A5.258,5.258,0,0,1,251.96,427.095Z" transform="translate(-216.612 -413.208)" fill="#193330"/>
      <path id="Path_270" data-name="Path 270" d="M267.466,427.095a3.523,3.523,0,0,1-2.083-.631,4.929,4.929,0,0,1-1.515-1.7,5.618,5.618,0,0,1,0-4.923,4.929,4.929,0,0,1,1.515-1.7,3.778,3.778,0,0,1,2.209-.631,4.2,4.2,0,0,1,1.326.189,3.51,3.51,0,0,1,1.073.568,3.322,3.322,0,0,1,.757.884,3.107,3.107,0,0,1,.379,1.073l-.379-.126v-2.4h1.831v9.216h-1.894V424.7l.442-.126a2.145,2.145,0,0,1-.442.947,3.374,3.374,0,0,1-.821.821,3.2,3.2,0,0,1-1.136.568A4.374,4.374,0,0,1,267.466,427.095Zm.5-1.641a2.767,2.767,0,0,0,1.452-.379,2.546,2.546,0,0,0,1.01-1.136,3.5,3.5,0,0,0,.379-1.641,3.242,3.242,0,0,0-.379-1.578,3.458,3.458,0,0,0-1.01-1.136,2.972,2.972,0,0,0-2.9,0,2.546,2.546,0,0,0-1.01,1.136,3.242,3.242,0,0,0-.379,1.578,3.5,3.5,0,0,0,.379,1.641,2.931,2.931,0,0,0,1.01,1.136A3.524,3.524,0,0,0,267.971,425.453Z" transform="translate(-222.587 -413.208)" fill="#193330"/>
      <path id="Path_271" data-name="Path 271" d="M284.819,427.242a3,3,0,0,1-2.84-1.7,4.706,4.706,0,0,1-.379-1.957V417.9h1.831v5.176a3.038,3.038,0,0,0,.253,1.389,2.1,2.1,0,0,0,.757.884,2.18,2.18,0,0,0,1.136.316,2.534,2.534,0,0,0,.947-.189,4.712,4.712,0,0,0,.757-.442,2.8,2.8,0,0,0,.5-.694,2.016,2.016,0,0,0,.189-.884V417.9h1.831v9.216h-1.831v-1.957l.316-.189a3.31,3.31,0,0,1-.694,1.2,3.136,3.136,0,0,1-1.2.821A6.851,6.851,0,0,1,284.819,427.242Z" transform="translate(-229.335 -413.355)" fill="#193330"/>
      <path id="Path_272" data-name="Path 272" d="M309.719,424.956a4.121,4.121,0,0,1-2.272-.631,5.272,5.272,0,0,1-1.578-6.628,4.536,4.536,0,0,1,1.578-1.7,3.778,3.778,0,0,1,2.209-.631,4.807,4.807,0,0,1,1.326.189,3.2,3.2,0,0,1,1.136.568,3.375,3.375,0,0,1,.821.821,1.88,1.88,0,0,1,.316.884l-.5.063V411.7h1.831v13h-1.894v-2.209h.379a1.388,1.388,0,0,1-.253.821,4.285,4.285,0,0,1-.757.757,3.508,3.508,0,0,1-1.073.568A2.347,2.347,0,0,1,309.719,424.956Zm.253-1.578a2.33,2.33,0,0,0,1.452-.442,3.459,3.459,0,0,0,1.01-1.136,3.5,3.5,0,0,0,.379-1.641,3.321,3.321,0,0,0-.379-1.641,2.546,2.546,0,0,0-1.01-1.136,2.809,2.809,0,0,0-1.452-.442,2.329,2.329,0,0,0-1.452.442,2.931,2.931,0,0,0-1.01,1.136,3.5,3.5,0,0,0-.379,1.641,3.321,3.321,0,0,0,.379,1.641,2.931,2.931,0,0,0,1.01,1.136A2.809,2.809,0,0,0,309.971,423.378Z" transform="translate(-238.076 -411.069)" fill="#193330"/>
      <path id="Path_273" data-name="Path 273" d="M327.76,427.095a4.844,4.844,0,0,1-2.525-.631,3.9,3.9,0,0,1-1.7-1.641,4.4,4.4,0,0,1-.631-2.4,4.918,4.918,0,0,1,.379-1.957,6.548,6.548,0,0,1,.947-1.578,4.255,4.255,0,0,1,1.515-1.01,4.83,4.83,0,0,1,1.894-.379,4.742,4.742,0,0,1,1.641.316,5.054,5.054,0,0,1,1.326.947,4.011,4.011,0,0,1,.884,1.389,5.475,5.475,0,0,1,.316,1.767v.758h-7.511l-.379-1.452h6.375l-.253.316V421.1a2.41,2.41,0,0,0-.379-1.01,2.107,2.107,0,0,0-.821-.694,2.162,2.162,0,0,0-1.136-.252,3.075,3.075,0,0,0-1.578.379,2.384,2.384,0,0,0-1.01,1.073,3.433,3.433,0,0,0-.316,1.7,3.759,3.759,0,0,0,.379,1.7,2.348,2.348,0,0,0,1.136,1.073,3.757,3.757,0,0,0,1.7.379,2.826,2.826,0,0,0,1.262-.253,4.259,4.259,0,0,0,1.262-.821l.884,1.262a7,7,0,0,1-1.01.757,7.52,7.52,0,0,1-1.262.505A5.633,5.633,0,0,1,327.76,427.095Z" transform="translate(-244.566 -413.208)" fill="#193330"/>
      <path id="Path_274" data-name="Path 274" d="M347.9,426.905v-9.216h1.831v2.9l-.189-.694a4.365,4.365,0,0,1,.631-1.2,4.706,4.706,0,0,1,1.073-.884,2.873,2.873,0,0,1,1.262-.316,1.746,1.746,0,0,1,.568.063,4.022,4.022,0,0,1,.442.126l-.5,1.957a1.171,1.171,0,0,0-.442-.126,1.389,1.389,0,0,0-.5-.063,2.016,2.016,0,0,0-.884.189,2.321,2.321,0,0,0-1.262,1.262,2.307,2.307,0,0,0-.189.947v5.113H347.9Z" transform="translate(-253.786 -413.208)" fill="#193330"/>
      <path id="Path_275" data-name="Path 275" d="M362.46,427.095a4.844,4.844,0,0,1-2.525-.631,3.9,3.9,0,0,1-1.7-1.641,4.4,4.4,0,0,1-.631-2.4,4.917,4.917,0,0,1,.379-1.957,6.547,6.547,0,0,1,.947-1.578,4.255,4.255,0,0,1,1.515-1.01,4.831,4.831,0,0,1,1.894-.379,4.741,4.741,0,0,1,1.641.316,5.054,5.054,0,0,1,1.326.947,4.012,4.012,0,0,1,.884,1.389,5.478,5.478,0,0,1,.316,1.767v.758h-7.511l-.379-1.452h6.375l-.252.316V421.1a2.41,2.41,0,0,0-.379-1.01,2.108,2.108,0,0,0-.821-.694,2.162,2.162,0,0,0-1.136-.252,3.075,3.075,0,0,0-1.578.379,2.384,2.384,0,0,0-1.01,1.073,3.433,3.433,0,0,0-.316,1.7,3.759,3.759,0,0,0,.379,1.7,2.348,2.348,0,0,0,1.136,1.073,3.758,3.758,0,0,0,1.7.379,2.826,2.826,0,0,0,1.262-.253,4.259,4.259,0,0,0,1.262-.821l.884,1.262a7,7,0,0,1-1.01.757,7.519,7.519,0,0,1-1.262.505A5.633,5.633,0,0,1,362.46,427.095Z" transform="translate(-257.363 -413.208)" fill="#193330"/>
      <path id="Path_276" data-name="Path 276" d="M378.419,427.095a3.845,3.845,0,0,1-2.272-.631A4.714,4.714,0,0,1,374,422.3a5.242,5.242,0,0,1,.568-2.462,4.288,4.288,0,0,1,3.85-2.336,4.951,4.951,0,0,1,2.209.505,2.971,2.971,0,0,1,1.515,1.389l-1.01,1.2a7.563,7.563,0,0,0-.694-.757,3.459,3.459,0,0,0-.947-.505,2.673,2.673,0,0,0-2.462.253,3.113,3.113,0,0,0-1.073,1.136,3.5,3.5,0,0,0-.379,1.641,3.242,3.242,0,0,0,.379,1.578,3.091,3.091,0,0,0,1.073,1.136,3,3,0,0,0,1.452.442,4.873,4.873,0,0,0,.947-.126,2.121,2.121,0,0,0,.884-.5,2.88,2.88,0,0,0,.758-.757l1.01,1.2a4.766,4.766,0,0,1-1.578,1.326A5.58,5.58,0,0,1,378.419,427.095Z" transform="translate(-263.411 -413.208)" fill="#193330"/>
      <path id="Path_277" data-name="Path 277" d="M389.6,424.8v-13h1.831v5.681l-.316.189a2.769,2.769,0,0,1,.694-1.136,4.043,4.043,0,0,1,1.2-.821,3.744,3.744,0,0,1,1.452-.316,3.2,3.2,0,0,1,1.767.442A2.683,2.683,0,0,1,397.3,417.1a5.23,5.23,0,0,1,.379,2.146v5.618h-1.831v-5.492a4.2,4.2,0,0,0-.189-1.326,1.856,1.856,0,0,0-.631-.757,1.931,1.931,0,0,0-1.073-.189,2.108,2.108,0,0,0-.947.189,2.182,2.182,0,0,0-.757.442,2.8,2.8,0,0,0-.505.694,1.944,1.944,0,0,0-.189.821V424.8H389.6Z" transform="translate(-269.164 -411.106)" fill="#193330"/>
      <path id="Path_278" data-name="Path 278" d="M410.16,427.095a4.844,4.844,0,0,1-2.525-.631,3.9,3.9,0,0,1-1.7-1.641,4.4,4.4,0,0,1-.631-2.4,4.917,4.917,0,0,1,.379-1.957,6.55,6.55,0,0,1,.947-1.578,4.255,4.255,0,0,1,1.515-1.01,4.83,4.83,0,0,1,1.894-.379,4.741,4.741,0,0,1,1.641.316,5.054,5.054,0,0,1,1.326.947,4.011,4.011,0,0,1,.884,1.389,5.476,5.476,0,0,1,.316,1.767v.758h-7.511l-.379-1.452h6.375l-.252.316V421.1a2.411,2.411,0,0,0-.379-1.01,2.108,2.108,0,0,0-.821-.694,2.162,2.162,0,0,0-1.136-.252,3.075,3.075,0,0,0-1.578.379,2.384,2.384,0,0,0-1.01,1.073,3.433,3.433,0,0,0-.316,1.7,3.758,3.758,0,0,0,.379,1.7,2.348,2.348,0,0,0,1.136,1.073,3.758,3.758,0,0,0,1.7.379,2.826,2.826,0,0,0,1.262-.253,4.259,4.259,0,0,0,1.262-.821l.884,1.262a7,7,0,0,1-1.01.757,7.519,7.519,0,0,1-1.262.505A5.633,5.633,0,0,1,410.16,427.095Z" transform="translate(-274.954 -413.208)" fill="#193330"/>
      <path id="Path_279" data-name="Path 279" d="M422.5,426.905v-9.216h1.831v2.9l-.189-.694a4.364,4.364,0,0,1,.631-1.2,4.707,4.707,0,0,1,1.073-.884,2.873,2.873,0,0,1,1.262-.316,1.746,1.746,0,0,1,.568.063,4.026,4.026,0,0,1,.442.126l-.5,1.957a1.171,1.171,0,0,0-.442-.126,1.389,1.389,0,0,0-.5-.063,2.016,2.016,0,0,0-.884.189,2.321,2.321,0,0,0-1.262,1.262,2.306,2.306,0,0,0-.189.947v5.113H422.5Z" transform="translate(-281.297 -413.208)" fill="#193330"/>
      <path id="Path_280" data-name="Path 280" d="M436.619,427.095a3.845,3.845,0,0,1-2.272-.631A4.715,4.715,0,0,1,432.2,422.3a5.242,5.242,0,0,1,.568-2.462,4.288,4.288,0,0,1,3.85-2.336,4.951,4.951,0,0,1,2.209.505,2.971,2.971,0,0,1,1.515,1.389l-1.01,1.2a7.571,7.571,0,0,0-.694-.757,3.46,3.46,0,0,0-.947-.505,2.673,2.673,0,0,0-2.462.253,3.113,3.113,0,0,0-1.073,1.136,3.494,3.494,0,0,0-.379,1.641,3.241,3.241,0,0,0,.379,1.578,3.091,3.091,0,0,0,1.073,1.136,3,3,0,0,0,1.452.442,4.873,4.873,0,0,0,.947-.126,2.122,2.122,0,0,0,.884-.5,2.88,2.88,0,0,0,.758-.757l1.01,1.2a4.767,4.767,0,0,1-1.578,1.326A5.322,5.322,0,0,1,436.619,427.095Z" transform="translate(-284.874 -413.208)" fill="#193330"/>
      <path id="Path_281" data-name="Path 281" d="M447.9,424.8v-13h1.831v5.681l-.316.189a2.769,2.769,0,0,1,.694-1.136,4.043,4.043,0,0,1,1.2-.821,3.744,3.744,0,0,1,1.452-.316,3.2,3.2,0,0,1,1.767.442A2.682,2.682,0,0,1,455.6,417.1a5.231,5.231,0,0,1,.379,2.146v5.618h-1.831v-5.492a4.2,4.2,0,0,0-.189-1.326,1.856,1.856,0,0,0-.631-.757,1.931,1.931,0,0,0-1.073-.189,2.108,2.108,0,0,0-.947.189,2.182,2.182,0,0,0-.757.442,2.8,2.8,0,0,0-.505.694,1.944,1.944,0,0,0-.189.821V424.8H447.9Z" transform="translate(-290.664 -411.106)" fill="#193330"/>
      <path id="Path_282" data-name="Path 282" d="M468.46,427.095a4.844,4.844,0,0,1-2.525-.631,3.9,3.9,0,0,1-1.7-1.641,4.4,4.4,0,0,1-.631-2.4,4.918,4.918,0,0,1,.379-1.957,6.547,6.547,0,0,1,.947-1.578,4.254,4.254,0,0,1,1.515-1.01,4.83,4.83,0,0,1,1.894-.379,4.741,4.741,0,0,1,1.641.316,5.055,5.055,0,0,1,1.326.947,4.012,4.012,0,0,1,.884,1.389,5.477,5.477,0,0,1,.316,1.767v.758h-7.511l-.379-1.452h6.375l-.252.316V421.1a2.41,2.41,0,0,0-.379-1.01,2.108,2.108,0,0,0-.821-.694,2.161,2.161,0,0,0-1.136-.252,3.075,3.075,0,0,0-1.578.379,2.384,2.384,0,0,0-1.01,1.073,3.433,3.433,0,0,0-.316,1.7,3.758,3.758,0,0,0,.379,1.7,2.348,2.348,0,0,0,1.136,1.073,3.758,3.758,0,0,0,1.7.379,2.826,2.826,0,0,0,1.262-.253,4.259,4.259,0,0,0,1.262-.821l.884,1.262a7,7,0,0,1-1.01.757,7.52,7.52,0,0,1-1.262.505A6.525,6.525,0,0,1,468.46,427.095Z" transform="translate(-296.454 -413.208)" fill="#193330"/>
      <path id="Path_283" data-name="Path 283" d="M203.66,460.394a4.844,4.844,0,0,1-2.525-.631,3.9,3.9,0,0,1-1.7-1.641,4.4,4.4,0,0,1-.631-2.4,4.917,4.917,0,0,1,.379-1.957,6.547,6.547,0,0,1,.947-1.578,4.255,4.255,0,0,1,1.515-1.01,4.611,4.611,0,0,1,1.894-.379,4.741,4.741,0,0,1,1.641.316,5.056,5.056,0,0,1,1.326.947,4.012,4.012,0,0,1,.884,1.389,5.475,5.475,0,0,1,.316,1.767v.757h-7.511l-.379-1.452h6.375l-.252.316V454.4a2.41,2.41,0,0,0-.379-1.01,2.107,2.107,0,0,0-.821-.694,2.161,2.161,0,0,0-1.136-.252,3.075,3.075,0,0,0-1.578.379,2.384,2.384,0,0,0-1.01,1.073,3.433,3.433,0,0,0-.316,1.7,3.758,3.758,0,0,0,.379,1.7,2.348,2.348,0,0,0,1.136,1.073,3.758,3.758,0,0,0,1.7.379,2.826,2.826,0,0,0,1.262-.253,4.257,4.257,0,0,0,1.262-.821l.884,1.262a7,7,0,0,1-1.01.757,7.513,7.513,0,0,1-1.262.5A5.257,5.257,0,0,1,203.66,460.394Z" transform="translate(-198.8 -425.488)" fill="#193330"/>
      <path id="Path_284" data-name="Path 284" d="M215.9,460.305v-9.216h1.831v1.894l-.316.189a2.769,2.769,0,0,1,.694-1.136,4.042,4.042,0,0,1,1.2-.821,3.744,3.744,0,0,1,1.452-.316,3.2,3.2,0,0,1,1.767.442A2.682,2.682,0,0,1,223.6,452.6a5.23,5.23,0,0,1,.379,2.146v5.618h-1.831v-5.492a4.2,4.2,0,0,0-.189-1.326,1.855,1.855,0,0,0-.631-.757,1.931,1.931,0,0,0-1.073-.189,2.108,2.108,0,0,0-.947.189,2.182,2.182,0,0,0-.757.442,2.8,2.8,0,0,0-.5.694,1.944,1.944,0,0,0-.189.821v5.555H215.9Z" transform="translate(-205.106 -425.525)" fill="#193330"/>
      <path id="Path_285" data-name="Path 285" d="M244.313,457.7a5.555,5.555,0,0,1-2.714-.631,5.087,5.087,0,0,1-1.767-1.7,4.472,4.472,0,0,1-.631-2.462,4.917,4.917,0,0,1,.379-1.957,5.185,5.185,0,0,1,1.01-1.578,4.9,4.9,0,0,1,1.515-1.01,4.612,4.612,0,0,1,1.894-.379,4.032,4.032,0,0,1,1.767.379,3.764,3.764,0,0,1,1.389,1.01,4.555,4.555,0,0,1,.884,1.515,4.6,4.6,0,0,1,.252,1.894v.757h-7.448l-.379-1.578h5.555l-.316.316V451.9a1.354,1.354,0,0,0-.252-.758,1.26,1.26,0,0,0-.631-.5,2.016,2.016,0,0,0-.884-.189,2.162,2.162,0,0,0-1.136.252,1.918,1.918,0,0,0-.757.821,2.5,2.5,0,0,0-.252,1.262,2.934,2.934,0,0,0,.316,1.326,1.856,1.856,0,0,0,.947.884,3.506,3.506,0,0,0,1.452.316,2.949,2.949,0,0,0,1.073-.189,5.644,5.644,0,0,0,1.01-.568l1.326,1.831a5.929,5.929,0,0,1-1.136.757,4.285,4.285,0,0,1-1.262.442A8.622,8.622,0,0,1,244.313,457.7Zm-1.767-10.478-.821-1.262,3.156-2.462,1.262,1.831Z" transform="translate(-213.699 -422.796)" fill="#193330"/>
      <path id="Path_286" data-name="Path 286" d="M260.234,460.394a4.4,4.4,0,0,1-2.4-.631,5.491,5.491,0,0,1-1.7-1.7,4.773,4.773,0,0,1-.631-2.462,4.473,4.473,0,0,1,.631-2.462,4.685,4.685,0,0,1,4.1-2.336,5.41,5.41,0,0,1,2.272.442,4.114,4.114,0,0,1,1.641,1.2l-1.515,1.831a4.085,4.085,0,0,0-.568-.505,1.721,1.721,0,0,0-.758-.379,3.691,3.691,0,0,0-.821-.126,2.612,2.612,0,0,0-1.2.316,2.548,2.548,0,0,0-.821.821,2.658,2.658,0,0,0-.252,1.262,2.611,2.611,0,0,0,.316,1.2,2.19,2.19,0,0,0,1.957,1.2,3.2,3.2,0,0,0,.821-.126,2.333,2.333,0,0,0,.694-.316,2.567,2.567,0,0,0,.631-.568l1.515,1.831a4.115,4.115,0,0,1-1.641,1.2A8.59,8.59,0,0,1,260.234,460.394Z" transform="translate(-219.71 -425.488)" fill="#193330"/>
      <path id="Path_287" data-name="Path 287" d="M275.687,460.394a4.9,4.9,0,0,1-4.355-2.335,4.619,4.619,0,0,1-.631-2.462,4.472,4.472,0,0,1,.631-2.462,4.586,4.586,0,0,1,1.767-1.7,5.15,5.15,0,0,1,6.943,1.7,4.619,4.619,0,0,1,.631,2.462,4.473,4.473,0,0,1-.631,2.462,4.587,4.587,0,0,1-1.767,1.7A5.6,5.6,0,0,1,275.687,460.394Zm0-2.4a2.18,2.18,0,0,0,1.136-.316,2.1,2.1,0,0,0,.757-.884,2.658,2.658,0,0,0,.252-1.262,2.826,2.826,0,0,0-.252-1.262,2.569,2.569,0,0,0-.757-.884,2.2,2.2,0,0,0-2.272,0,2.1,2.1,0,0,0-.757.884,2.658,2.658,0,0,0-.252,1.262,2.826,2.826,0,0,0,.252,1.262,2.57,2.57,0,0,0,.757.884A2.363,2.363,0,0,0,275.687,458Z" transform="translate(-225.316 -425.488)" fill="#193330"/>
      <path id="Path_288" data-name="Path 288" d="M289.5,460.231v-9.342h2.651l.063,1.894-.568.189a2.642,2.642,0,0,1,.694-1.136,4.042,4.042,0,0,1,1.2-.821,3.745,3.745,0,0,1,1.452-.316,3.2,3.2,0,0,1,1.767.442,2.638,2.638,0,0,1,1.073,1.262,5.119,5.119,0,0,1,.379,2.083v5.744h-2.84V454.74a3.82,3.82,0,0,0-.126-.947,1.114,1.114,0,0,0-.5-.568,1.579,1.579,0,0,0-.821-.189,2.27,2.27,0,0,0-.694.126,2.561,2.561,0,0,0-.568.316,3.5,3.5,0,0,0-.379.5,1.866,1.866,0,0,0-.126.631v5.555h-2.209C289.753,460.168,289.626,460.231,289.5,460.231Z" transform="translate(-232.249 -425.451)" fill="#193330"/>
      <path id="Path_289" data-name="Path 289" d="M311.187,460.394a4.9,4.9,0,0,1-4.355-2.335,4.619,4.619,0,0,1-.631-2.462,4.472,4.472,0,0,1,.631-2.462,4.586,4.586,0,0,1,1.767-1.7,5.15,5.15,0,0,1,6.943,1.7,4.619,4.619,0,0,1,.631,2.462,4.472,4.472,0,0,1-.631,2.462,4.587,4.587,0,0,1-1.767,1.7A5.076,5.076,0,0,1,311.187,460.394Zm0-2.4a2.18,2.18,0,0,0,1.136-.316,2.1,2.1,0,0,0,.757-.884,2.658,2.658,0,0,0,.253-1.262,2.826,2.826,0,0,0-.253-1.262,2.57,2.57,0,0,0-.757-.884,2.2,2.2,0,0,0-2.272,0,2.1,2.1,0,0,0-.757.884,2.659,2.659,0,0,0-.252,1.262,2.826,2.826,0,0,0,.252,1.262,2.57,2.57,0,0,0,.757.884A2.18,2.18,0,0,0,311.187,458Z" transform="translate(-238.407 -425.488)" fill="#193330"/>
      <path id="Path_290" data-name="Path 290" d="M324.9,460.231v-9.342h2.651l.063,1.7h-.379a3.58,3.58,0,0,1,.5-.821,1.724,1.724,0,0,1,.757-.568c.253-.126.568-.252.884-.379a4.259,4.259,0,0,1,.884-.126,4.07,4.07,0,0,1,1.262.189,2.644,2.644,0,0,1,1.01.694,4.725,4.725,0,0,1,.694,1.262l-.442-.063.126-.252a5.928,5.928,0,0,1,.568-.757,2.4,2.4,0,0,1,.821-.568c.316-.126.568-.253.884-.379a4.95,4.95,0,0,1,.884-.126,3.283,3.283,0,0,1,1.831.442,2.763,2.763,0,0,1,1.136,1.262,5.118,5.118,0,0,1,.379,2.083v5.681h-2.84V454.74a3.819,3.819,0,0,0-.126-.947,1.375,1.375,0,0,0-.442-.568,1.346,1.346,0,0,0-.757-.189,2.685,2.685,0,0,0-.694.126,1.324,1.324,0,0,0-.821.821,1.868,1.868,0,0,0-.126.631v5.555h-2.84v-5.492a3.289,3.289,0,0,0-.126-.884,1.114,1.114,0,0,0-.5-.568,1.346,1.346,0,0,0-.758-.189,2.685,2.685,0,0,0-.694.126,1.324,1.324,0,0,0-.821.821,1.867,1.867,0,0,0-.126.631v5.555H324.9Z" transform="translate(-245.304 -425.451)" fill="#193330"/>
      <path id="Path_291" data-name="Path 291" d="M353.2,446.44a2,2,0,0,1-1.262-.379,1.3,1.3,0,0,1-.442-1.073,1.177,1.177,0,0,1,.442-1.01,1.82,1.82,0,0,1,1.2-.379,1.709,1.709,0,0,1,1.2.379,1.523,1.523,0,0,1,.442,1.073,1.385,1.385,0,0,1-.442,1.073A1.875,1.875,0,0,1,353.2,446.44Zm-1.452,11.172v-9.342h2.777v9.342Z" transform="translate(-255.113 -422.833)" fill="#193330"/>
      <path id="Path_292" data-name="Path 292" d="M364.613,460.321a5.555,5.555,0,0,1-2.714-.631,5.087,5.087,0,0,1-1.767-1.7,4.473,4.473,0,0,1-.631-2.462,4.918,4.918,0,0,1,.379-1.957,5.184,5.184,0,0,1,1.01-1.578,4.9,4.9,0,0,1,1.515-1.01,4.612,4.612,0,0,1,1.894-.379,4.032,4.032,0,0,1,1.767.379,3.764,3.764,0,0,1,1.389,1.01,4.663,4.663,0,0,1,1.136,3.409v.757h-7.448l-.379-1.578h5.555l-.316.316v-.379a1.354,1.354,0,0,0-.253-.757,1.718,1.718,0,0,0-.631-.5,2.016,2.016,0,0,0-.884-.189,2.162,2.162,0,0,0-1.136.252,1.919,1.919,0,0,0-.757.821,2.5,2.5,0,0,0-.253,1.262,2.934,2.934,0,0,0,.316,1.326,1.856,1.856,0,0,0,.947.884,3.506,3.506,0,0,0,1.452.316,2.948,2.948,0,0,0,1.073-.189,5.644,5.644,0,0,0,1.01-.568L368.211,459a5.929,5.929,0,0,1-1.136.757,4.287,4.287,0,0,1-1.262.442A3.886,3.886,0,0,1,364.613,460.321Z" transform="translate(-258.064 -425.415)" fill="#193330"/>
      <path id="Path_293" data-name="Path 293" d="M388.34,460.358a5.808,5.808,0,0,1-2.4-.442,4.114,4.114,0,0,1-1.641-1.2l1.7-1.452a3.7,3.7,0,0,0,1.2.821,3.3,3.3,0,0,0,1.326.252.937.937,0,0,0,.442-.063c.126-.063.252-.063.316-.126a.871.871,0,0,0,.189-.252.473.473,0,0,0,.063-.316.663.663,0,0,0-.316-.568,2.136,2.136,0,0,0-.5-.189,9.741,9.741,0,0,0-.947-.252,7.793,7.793,0,0,1-1.452-.505,4.068,4.068,0,0,1-1.01-.694,2.4,2.4,0,0,1-.568-.821,2.583,2.583,0,0,1,.126-2.209,2.75,2.75,0,0,1,.821-.884,3.519,3.519,0,0,1,1.2-.568,4.922,4.922,0,0,1,1.389-.189,5.38,5.38,0,0,1,1.452.189,5.7,5.7,0,0,1,1.326.5,4.147,4.147,0,0,1,1.073.757l-1.452,1.641a2.8,2.8,0,0,0-.694-.505c-.253-.126-.5-.252-.821-.379a3.778,3.778,0,0,0-.758-.126.936.936,0,0,0-.442.063.482.482,0,0,0-.316.126c-.063.063-.189.126-.189.252a.473.473,0,0,0-.063.316.482.482,0,0,0,.126.316.493.493,0,0,0,.252.252c.126.063.316.126.568.253.253.063.631.189,1.073.316a7.8,7.8,0,0,1,1.452.505,2.184,2.184,0,0,1,.947.694,2.606,2.606,0,0,1,.442.694,1.864,1.864,0,0,1,.126.821,2.762,2.762,0,0,1-.5,1.578,3.427,3.427,0,0,1-1.389,1.073A8.406,8.406,0,0,1,388.34,460.358Z" transform="translate(-267.21 -425.451)" fill="#193330"/>
      <path id="Path_294" data-name="Path 294" d="M403.487,460.394a4.9,4.9,0,0,1-4.355-2.335,4.619,4.619,0,0,1-.631-2.462,4.472,4.472,0,0,1,.631-2.462,4.586,4.586,0,0,1,1.767-1.7,5.15,5.15,0,0,1,6.943,1.7,4.619,4.619,0,0,1,.631,2.462,4.472,4.472,0,0,1-.631,2.462,4.587,4.587,0,0,1-1.767,1.7A4.921,4.921,0,0,1,403.487,460.394Zm0-2.4a2.18,2.18,0,0,0,1.136-.316,2.1,2.1,0,0,0,.757-.884,2.659,2.659,0,0,0,.252-1.262,2.827,2.827,0,0,0-.252-1.262,2.57,2.57,0,0,0-.757-.884,2.2,2.2,0,0,0-2.272,0,2.1,2.1,0,0,0-.757.884,2.659,2.659,0,0,0-.253,1.262,2.827,2.827,0,0,0,.253,1.262,2.011,2.011,0,0,0,1.894,1.2Z" transform="translate(-272.446 -425.488)" fill="#193330"/>
      <path id="Path_295" data-name="Path 295" d="M421.034,460.394a4.4,4.4,0,0,1-2.4-.631,5.49,5.49,0,0,1-1.7-1.7,4.773,4.773,0,0,1-.631-2.462,4.472,4.472,0,0,1,.631-2.462,4.418,4.418,0,0,1,1.7-1.7,5.022,5.022,0,0,1,2.4-.631,5.41,5.41,0,0,1,2.272.442,4.114,4.114,0,0,1,1.641,1.2l-1.515,1.831a4.081,4.081,0,0,0-.568-.505,1.721,1.721,0,0,0-.757-.379,3.691,3.691,0,0,0-.821-.126,2.611,2.611,0,0,0-1.2.316,1.58,1.58,0,0,0-.757.821,2.659,2.659,0,0,0-.252,1.262,2.61,2.61,0,0,0,.316,1.2,2.19,2.19,0,0,0,1.957,1.2,3.2,3.2,0,0,0,.821-.126,2.333,2.333,0,0,0,.694-.316,2.567,2.567,0,0,0,.631-.568l1.515,1.831a4.114,4.114,0,0,1-1.641,1.2A5.823,5.823,0,0,1,421.034,460.394Z" transform="translate(-279.011 -425.488)" fill="#193330"/>
      <path id="Path_296" data-name="Path 296" d="M433.9,446.44a2,2,0,0,1-1.262-.379,1.3,1.3,0,0,1-.442-1.073,1.177,1.177,0,0,1,.442-1.01,1.82,1.82,0,0,1,1.2-.379,1.709,1.709,0,0,1,1.2.379,1.523,1.523,0,0,1,.442,1.073,1.385,1.385,0,0,1-.442,1.073A1.744,1.744,0,0,1,433.9,446.44Zm-1.389,11.172v-9.342h2.777v9.342Z" transform="translate(-284.874 -422.833)" fill="#193330"/>
      <path id="Path_297" data-name="Path 297" d="M444.3,460.358a3.523,3.523,0,0,1-2.083-.631,4.761,4.761,0,0,1-1.452-1.7,5.427,5.427,0,0,1-.568-2.462,5.5,5.5,0,0,1,.568-2.525,4.012,4.012,0,0,1,1.515-1.7,3.583,3.583,0,0,1,2.146-.631,3.675,3.675,0,0,1,1.2.189,3.344,3.344,0,0,1,.947.5,7.567,7.567,0,0,1,.694.757,6.371,6.371,0,0,1,.442.947l-.568-.063v-2.146h2.777v9.342h-2.84v-2.272h.631a3.2,3.2,0,0,1-.442.947,2.176,2.176,0,0,1-.757.757,3.038,3.038,0,0,1-1.01.5A3.676,3.676,0,0,1,444.3,460.358Zm.821-2.336a2.18,2.18,0,0,0,1.136-.316,2.363,2.363,0,0,0,.757-.821,3.605,3.605,0,0,0,0-2.651,2.569,2.569,0,0,0-.757-.884,2.18,2.18,0,0,0-1.136-.316,1.956,1.956,0,0,0-1.073.316,2.1,2.1,0,0,0-.757.884,3.605,3.605,0,0,0,0,2.651,1.918,1.918,0,0,0,.757.821A1.806,1.806,0,0,0,445.124,458.022Z" transform="translate(-287.825 -425.451)" fill="#193330"/>
      <path id="Path_298" data-name="Path 298" d="M459.6,458.2v-13h2.777v13Z" transform="translate(-294.979 -423.423)" fill="#193330"/>
      <path id="Path_299" data-name="Path 299" d="M471.813,460.321a5.555,5.555,0,0,1-2.714-.631,5.087,5.087,0,0,1-1.767-1.7,4.473,4.473,0,0,1-.631-2.462,4.918,4.918,0,0,1,.379-1.957,5.186,5.186,0,0,1,1.01-1.578,4.9,4.9,0,0,1,1.515-1.01,4.612,4.612,0,0,1,1.894-.379,4.032,4.032,0,0,1,1.767.379,3.764,3.764,0,0,1,1.389,1.01,4.663,4.663,0,0,1,1.136,3.409v.757h-7.448l-.379-1.578h5.555l-.316.316v-.379a1.354,1.354,0,0,0-.253-.757,1.718,1.718,0,0,0-.631-.5,2.016,2.016,0,0,0-.884-.189,2.162,2.162,0,0,0-1.136.252,1.919,1.919,0,0,0-.758.821,2.5,2.5,0,0,0-.252,1.262,2.935,2.935,0,0,0,.316,1.326,1.856,1.856,0,0,0,.947.884,3.506,3.506,0,0,0,1.452.316,2.948,2.948,0,0,0,1.073-.189,5.641,5.641,0,0,0,1.01-.568L475.411,459a5.932,5.932,0,0,1-1.136.757,4.287,4.287,0,0,1-1.262.442A3.5,3.5,0,0,1,471.813,460.321Z" transform="translate(-297.597 -425.415)" fill="#193330"/>
      <path id="Path_300" data-name="Path 300" d="M203.66,493.794a4.844,4.844,0,0,1-2.525-.631,3.9,3.9,0,0,1-1.7-1.641,4.4,4.4,0,0,1-.631-2.4,4.918,4.918,0,0,1,.379-1.957,6.548,6.548,0,0,1,.947-1.578,4.256,4.256,0,0,1,1.515-1.01,4.613,4.613,0,0,1,1.894-.379,4.742,4.742,0,0,1,1.641.316,5.056,5.056,0,0,1,1.326.947,4.013,4.013,0,0,1,.884,1.389,5.476,5.476,0,0,1,.316,1.767v.758h-7.511l-.379-1.452h6.375l-.252.316v-.379a2.41,2.41,0,0,0-.379-1.01,2.108,2.108,0,0,0-.821-.694,2.162,2.162,0,0,0-1.136-.252,3.075,3.075,0,0,0-1.578.379,2.384,2.384,0,0,0-1.01,1.073,3.433,3.433,0,0,0-.316,1.7,3.758,3.758,0,0,0,.379,1.7,2.348,2.348,0,0,0,1.136,1.073,3.758,3.758,0,0,0,1.7.379,2.826,2.826,0,0,0,1.262-.253,4.259,4.259,0,0,0,1.262-.821l.884,1.262a7,7,0,0,1-1.01.758,7.524,7.524,0,0,1-1.262.5A5.179,5.179,0,0,1,203.66,493.794Z" transform="translate(-198.8 -437.806)" fill="#193330"/>
      <path id="Path_301" data-name="Path 301" d="M214.7,484.9v-1.767h5.87V484.9Zm1.957,7.448V480.8h1.831v11.551Z" transform="translate(-204.664 -436.552)" fill="#193330"/>
      <path id="Path_302" data-name="Path 302" d="M236.94,493.758a5.808,5.808,0,0,1-2.4-.442,4.114,4.114,0,0,1-1.641-1.2l1.7-1.452a3.7,3.7,0,0,0,1.2.821,3.3,3.3,0,0,0,1.326.253.935.935,0,0,0,.442-.063c.126-.063.252-.063.316-.126a.872.872,0,0,0,.189-.252.473.473,0,0,0,.063-.316.663.663,0,0,0-.316-.568,2.137,2.137,0,0,0-.5-.189,9.766,9.766,0,0,0-.947-.252,7.791,7.791,0,0,1-1.452-.505,3.155,3.155,0,0,1-1.01-.694,2.4,2.4,0,0,1-.568-.821,2.583,2.583,0,0,1,.126-2.209,2.75,2.75,0,0,1,.821-.884,3.518,3.518,0,0,1,1.2-.568,4.924,4.924,0,0,1,1.389-.189,5.381,5.381,0,0,1,1.452.189,5.7,5.7,0,0,1,1.326.5,4.145,4.145,0,0,1,1.073.757l-1.452,1.641a2.8,2.8,0,0,0-.694-.5c-.253-.126-.5-.253-.821-.379a3.779,3.779,0,0,0-.757-.126.936.936,0,0,0-.442.063c-.126.063-.252.063-.316.126s-.189.126-.189.253a.473.473,0,0,0-.063.316.482.482,0,0,0,.126.316.493.493,0,0,0,.253.253c.126.063.316.126.568.253a7.7,7.7,0,0,0,1.073.316,7.8,7.8,0,0,1,1.452.505,2.636,2.636,0,0,1,.947.694,2.605,2.605,0,0,1,.442.694,3.7,3.7,0,0,1,.126.821,2.762,2.762,0,0,1-.5,1.578,3.427,3.427,0,0,1-1.389,1.073A5.692,5.692,0,0,1,236.94,493.758Z" transform="translate(-211.376 -437.769)" fill="#193330"/>
      <path id="Path_303" data-name="Path 303" d="M252.187,493.794a4.9,4.9,0,0,1-4.355-2.335A4.619,4.619,0,0,1,247.2,489a4.473,4.473,0,0,1,.631-2.462,4.587,4.587,0,0,1,1.767-1.7,5.15,5.15,0,0,1,6.943,1.7,4.619,4.619,0,0,1,.631,2.462,4.473,4.473,0,0,1-.631,2.462,4.587,4.587,0,0,1-1.767,1.7A5.8,5.8,0,0,1,252.187,493.794Zm0-2.4a2.18,2.18,0,0,0,1.136-.316,2.1,2.1,0,0,0,.757-.884,2.658,2.658,0,0,0,.252-1.262,2.826,2.826,0,0,0-.252-1.262,2.569,2.569,0,0,0-.757-.884,2.2,2.2,0,0,0-2.272,0,2.1,2.1,0,0,0-.757.884,2.658,2.658,0,0,0-.252,1.262,2.826,2.826,0,0,0,.252,1.262,2.57,2.57,0,0,0,.757.884A2.18,2.18,0,0,0,252.187,491.4Z" transform="translate(-216.649 -437.806)" fill="#193330"/>
      <path id="Path_304" data-name="Path 304" d="M266,491.5v-13h2.777v13Z" transform="translate(-223.582 -435.704)" fill="#193330"/>
      <path id="Path_305" data-name="Path 305" d="M275.9,479.74a2,2,0,0,1-1.262-.379,1.3,1.3,0,0,1-.442-1.073,1.177,1.177,0,0,1,.442-1.01,1.82,1.82,0,0,1,1.2-.379,1.709,1.709,0,0,1,1.2.379,1.3,1.3,0,0,1,.442,1.073,1.384,1.384,0,0,1-.442,1.073A1.874,1.874,0,0,1,275.9,479.74Zm-1.452,11.173v-9.342h2.777v9.342Z" transform="translate(-226.606 -435.114)" fill="#193330"/>
      <path id="Path_306" data-name="Path 306" d="M286.366,491.656a3.583,3.583,0,0,1-2.146-.631,4.211,4.211,0,0,1-1.452-1.7,5.895,5.895,0,0,1,0-5.05,4.013,4.013,0,0,1,1.515-1.7,4.078,4.078,0,0,1,2.146-.631,3.676,3.676,0,0,1,1.2.189,5.6,5.6,0,0,1,1.073.5,4.286,4.286,0,0,1,.757.758,2.213,2.213,0,0,1,.379.884l-.694.126v-6h2.84v13H289.4l-.126-2.146.568.063a1.86,1.86,0,0,1-.316.821,2.69,2.69,0,0,1-.757.694,4.238,4.238,0,0,1-1.073.5A2.563,2.563,0,0,1,286.366,491.656Zm.757-2.336A2.18,2.18,0,0,0,288.26,489a2.1,2.1,0,0,0,.758-.884,3.606,3.606,0,0,0,0-2.651,2.1,2.1,0,0,0-.758-.884,2.2,2.2,0,0,0-2.272,0,2.1,2.1,0,0,0-.757.884,3.606,3.606,0,0,0,0,2.651,2.1,2.1,0,0,0,.757.884A1.723,1.723,0,0,0,287.123,489.32Z" transform="translate(-229.557 -435.667)" fill="#193330"/>
      <path id="Path_307" data-name="Path 307" d="M304.5,493.758a3.522,3.522,0,0,1-2.083-.631,4.76,4.76,0,0,1-1.452-1.7,5.428,5.428,0,0,1-.568-2.462,5.5,5.5,0,0,1,.568-2.525,4.423,4.423,0,0,1,1.515-1.7,3.583,3.583,0,0,1,2.146-.631,3.674,3.674,0,0,1,1.2.189,3.344,3.344,0,0,1,.947.5,3.962,3.962,0,0,1,.694.757,6.369,6.369,0,0,1,.442.947l-.568-.063v-2.209h2.777v9.342h-2.84V491.3h.631a3.2,3.2,0,0,1-.442.947,2.175,2.175,0,0,1-.757.757,3.036,3.036,0,0,1-1.01.505A2.735,2.735,0,0,1,304.5,493.758Zm.757-2.4a2.179,2.179,0,0,0,1.136-.316,2.363,2.363,0,0,0,.757-.821,3.606,3.606,0,0,0,0-2.651,2.57,2.57,0,0,0-.757-.884,1.723,1.723,0,0,0-1.136-.316,1.956,1.956,0,0,0-1.073.316,2.1,2.1,0,0,0-.757.884,3.606,3.606,0,0,0,0,2.651,1.918,1.918,0,0,0,.757.821A1.551,1.551,0,0,0,305.26,491.359Z" transform="translate(-236.269 -437.769)" fill="#193330"/>
      <path id="Path_308" data-name="Path 308" d="M321.2,479.74a2,2,0,0,1-1.262-.379,1.3,1.3,0,0,1-.442-1.073,1.177,1.177,0,0,1,.442-1.01,1.82,1.82,0,0,1,1.2-.379,1.709,1.709,0,0,1,1.2.379,1.523,1.523,0,0,1,.442,1.073,1.384,1.384,0,0,1-.442,1.073A1.744,1.744,0,0,1,321.2,479.74Zm-1.389,11.173v-9.342h2.777v9.342Z" transform="translate(-243.312 -435.114)" fill="#193330"/>
      <path id="Path_309" data-name="Path 309" d="M328.6,493.531v-9.342h2.651l.126,3.03-.5-.568a3.339,3.339,0,0,1,.694-1.326,4.132,4.132,0,0,1,1.136-.947,2.7,2.7,0,0,1,1.389-.379,1.746,1.746,0,0,1,.568.063c.189.063.379.063.505.126l-.757,3.093a4.329,4.329,0,0,0-.505-.189,2.365,2.365,0,0,0-.694-.063,2.271,2.271,0,0,0-.694.126,1.136,1.136,0,0,0-.568.379l-.379.568a3.166,3.166,0,0,0-.126.757v4.671Z" transform="translate(-246.668 -437.732)" fill="#193330"/>
      <path id="Path_310" data-name="Path 310" d="M344.713,493.721A5.556,5.556,0,0,1,342,493.09a5.087,5.087,0,0,1-1.767-1.7,4.473,4.473,0,0,1-.631-2.462,4.918,4.918,0,0,1,.379-1.957,5.185,5.185,0,0,1,1.01-1.578,4.9,4.9,0,0,1,1.515-1.01A4.611,4.611,0,0,1,344.4,484a4.032,4.032,0,0,1,1.767.379,3.762,3.762,0,0,1,1.389,1.01,4.555,4.555,0,0,1,.884,1.515,4.6,4.6,0,0,1,.253,1.894v.757h-7.448l-.379-1.578h5.555l-.316.316v-.379a1.353,1.353,0,0,0-.253-.757,1.718,1.718,0,0,0-.631-.505,2.017,2.017,0,0,0-.884-.189,2.162,2.162,0,0,0-1.136.252,1.919,1.919,0,0,0-.758.821,2.5,2.5,0,0,0-.252,1.262,2.934,2.934,0,0,0,.316,1.326,1.856,1.856,0,0,0,.947.884,3.507,3.507,0,0,0,1.452.316,2.948,2.948,0,0,0,1.073-.189,5.643,5.643,0,0,0,1.01-.568l1.326,1.831a5.928,5.928,0,0,1-1.136.757,4.285,4.285,0,0,1-1.262.442A7.729,7.729,0,0,1,344.713,493.721Z" transform="translate(-250.725 -437.732)" fill="#193330"/>
    </g>
  </g>
</svg>
