<svg id="Group_86" data-name="Group 86" xmlns="http://www.w3.org/2000/svg" width="428.452" height="123.148" viewBox="0 0 428.452 123.148">
  <g id="Group_73" data-name="Group 73" transform="translate(84.212 60.181)">
    <g id="Group_72" data-name="Group 72">
      <path id="Path_482" data-name="Path 482" d="M120.179,84.407V57.5h-.205c-1.027.822-4.519,1.027-5.956,1.027h-2.67v.205c3.081,1.849,2.67,4.519,2.67,8.01v11.3c0,5.751-5.546,9.654-10.064,9.654-5.956,0-8.421-4.313-8.421-11.091V57.5h-.205c-1.027.822-4.519,1.027-5.956,1.027H86.7v.205c3.081,1.849,2.67,4.519,2.67,8.01v11.3c0,10.475,4.519,15.4,12.529,15.4,4.724,0,9.654-1.643,12.118-5.751v4.929h8.832v-.205C119.768,90.568,120.179,87.9,120.179,84.407Z" transform="translate(-33.298 -40.863)"/>
      <path id="Path_483" data-name="Path 483" d="M113.5,69.924a8.674,8.674,0,0,1,8.832-7.6c4.929,0,8.01,2.465,8.832,7.6Zm24.853,4.313c.205-9.448-6.162-16.637-15.4-16.637-10.27,0-17.048,7.394-17.048,17.664s8.01,18.28,19.512,18.28a21.014,21.014,0,0,0,9.448-1.849l3.492-6.983h-.205a17.189,17.189,0,0,1-11.3,3.9c-7.8,0-13.556-5.34-13.761-14.378Z" transform="translate(-13.062 -40.758)"/>
      <path id="Path_484" data-name="Path 484" d="M125.67,50.427c1.643,0,4.929,0,5.956-1.027h.205V96.024a25.856,25.856,0,0,0,5.546.822c7.394,0,11.707-5.135,11.707-12.529,0-7.189-3.286-12.734-10.27-12.734a11.042,11.042,0,0,0-5.751,1.643l3.7-6.367a13.478,13.478,0,0,1,4.724-.822c7.8,0,14.378,6.778,14.378,16.842,0,11.5-7.8,19.1-20.129,19.1a95.829,95.829,0,0,1-12.324-1.232v-.205c2.259-1.027,2.054-3.492,2.054-5.956V60.7c0-3.492.411-8.216-2.465-10.064v-.205Z" transform="translate(4.961 -49.4)"/>
      <path id="Path_485" data-name="Path 485" d="M149,69.924a8.673,8.673,0,0,1,8.832-7.6c4.929,0,8.01,2.465,8.832,7.6Zm24.853,4.313c.205-9.448-6.162-16.637-15.4-16.637-10.27,0-17.048,7.394-17.048,17.664s8.01,18.28,19.512,18.28a21.014,21.014,0,0,0,9.448-1.849l3.492-6.983h-.205a17.189,17.189,0,0,1-11.3,3.9c-7.8,0-13.556-5.34-13.761-14.378Z" transform="translate(24.353 -40.758)"/>
      <path id="Path_486" data-name="Path 486" d="M185.907,66.127h0a11.823,11.823,0,0,0-8.627-3.7c-6.573,0-11.5,4.929-11.5,12.118A13.94,13.94,0,0,0,179.95,88.72a16.39,16.39,0,0,0,10.064-3.7h.205l-3.492,6.983a22.577,22.577,0,0,1-9.037,1.438C167.216,93.444,159,86.05,159,76.4c0-12.734,9.243-18.9,19.512-18.9a30.24,30.24,0,0,1,7.394.822Z" transform="translate(42.903 -40.863)"/>
      <path id="Path_487" data-name="Path 487" d="M123.5,58.394V51A32.364,32.364,0,0,0,112,60.448v2.876A30.181,30.181,0,0,1,123.5,58.394Z" transform="translate(-6.633 -47.714)" fill-rule="evenodd"/>
      <path id="Path_488" data-name="Path 488" d="M85.963,96.319c-10.27,0-17.459-11.707-17.459-21.566V73.726c.205-9.654,6.367-18.485,17.253-18.485,11.3,0,17.253,10.68,17.459,20.95v1.027C103.011,88.1,96.233,96.319,85.963,96.319Zm35.328,11.5c-7.6,1.232-14.994-1.232-22.8-10.064,7.6-3.7,12.118-13.145,12.118-21.977V74.753C110.405,59.759,99.314,49.9,85.963,49.9A24.979,24.979,0,0,0,60.7,75.163V76.19c0,14.583,10.886,25.469,24.237,25.469a17.3,17.3,0,0,0,5.546-.822c8.627,8.216,16.432,11.707,23.21,10.886,3.286-.411,6.573-1.643,8.627-4.313Z" transform="translate(-60.7 -48.873)"/>
    </g>
  </g>
  <g id="Group_75" data-name="Group 75">
    <g id="Group_74" data-name="Group 74">
      <path id="Path_489" data-name="Path 489" d="M24.013,20.1H37.364l-.822,3.7h-8.01L27.5,28.11h7.8l-.822,3.7h-7.8L25.04,40.023H19.7Z" transform="translate(-19.7 -20.1)"/>
      <path id="Path_490" data-name="Path 490" d="M37.448,22.4a9.347,9.347,0,0,1,5.546,1.643,6.809,6.809,0,0,1,2.259,5.34,7.824,7.824,0,0,1-2.876,6.367A10.772,10.772,0,0,1,35.6,38.01a8.284,8.284,0,0,1-5.34-1.643A6.377,6.377,0,0,1,28,31.232a8.1,8.1,0,0,1,2.67-6.573A9.98,9.98,0,0,1,37.448,22.4Zm2.465,6.778a3.69,3.69,0,0,0-.616-2.259,2.528,2.528,0,0,0-2.054-1.027,3.621,3.621,0,0,0-3.081,1.849,6.924,6.924,0,0,0-1.027,3.492,3.089,3.089,0,0,0,.822,2.259,2.852,2.852,0,0,0,2.054,1.027,3.1,3.1,0,0,0,2.876-1.849A5.048,5.048,0,0,0,39.913,29.178Z" transform="translate(-10.952 -17.676)"/>
      <path id="Path_491" data-name="Path 491" d="M52.815,37.7H47.681a29.146,29.146,0,0,0,1.027-4.519,23,23,0,0,0,.616-4.519c0-1.438-.616-2.259-1.849-2.259-2.054,0-3.492,1.643-4.108,4.929L42.135,37.7H37l3.081-14.994H44.8l-.616,2.67A7.5,7.5,0,0,1,49.94,22.5a4.394,4.394,0,0,1,3.7,1.438,5.922,5.922,0,0,1,1.232,3.9,26.477,26.477,0,0,1-.616,5.135A10.675,10.675,0,0,0,52.815,37.7Z" transform="translate(-1.467 -17.571)"/>
      <path id="Path_492" data-name="Path 492" d="M61.078,20.1h5.135L61.9,40.229H57.175l.616-2.465a6.738,6.738,0,0,1-5.34,2.876,5.3,5.3,0,0,1-4.313-1.849A6.848,6.848,0,0,1,46.7,34.067,9.5,9.5,0,0,1,48.754,27.7a7.134,7.134,0,0,1,5.956-2.67A5.31,5.31,0,0,1,59.64,27.9Zm-2.67,11.707a2.808,2.808,0,0,0-2.876-2.876,3.317,3.317,0,0,0-2.876,1.849,6.027,6.027,0,0,0-.822,3.286,3.47,3.47,0,0,0,.616,2.054,2,2,0,0,0,1.849.822A3.539,3.539,0,0,0,57.175,35.3,6.027,6.027,0,0,0,58.407,31.807Z" transform="translate(8.756 -20.1)"/>
      <path id="Path_493" data-name="Path 493" d="M69.867,23.222,68.84,26.508a11.935,11.935,0,0,0-3.9-.822c-1.643,0-2.259.411-2.259,1.438,0,.411.616,1.027,1.643,1.438A15.141,15.141,0,0,1,67.2,29.794,3.278,3.278,0,0,1,68.84,32.67a4.5,4.5,0,0,1-2.259,4.108,8.508,8.508,0,0,1-4.724,1.232A19.083,19.083,0,0,1,55.9,36.983l1.027-3.492a10.1,10.1,0,0,0,4.108,1.027c1.643,0,2.67-.411,2.67-1.232,0-.616-.411-1.027-1.438-1.438a8.73,8.73,0,0,1-2.876-1.438,3.7,3.7,0,0,1-1.438-3.081,4.443,4.443,0,0,1,2.465-3.9A10.71,10.71,0,0,1,65.143,22.4,32.589,32.589,0,0,1,69.867,23.222Z" transform="translate(18.453 -17.676)"/>
      <path id="Path_494" data-name="Path 494" d="M34.478,34.2h5.135L35.3,54.329H30.575l.616-2.465a6.738,6.738,0,0,1-5.34,2.876,5.3,5.3,0,0,1-4.313-1.849A6.848,6.848,0,0,1,20.1,48.167,9.5,9.5,0,0,1,22.154,41.8a7.134,7.134,0,0,1,5.956-2.67A5.31,5.31,0,0,1,33.04,42Zm-2.67,11.707a2.808,2.808,0,0,0-2.876-2.876,3.317,3.317,0,0,0-2.876,1.849,6.027,6.027,0,0,0-.822,3.286,3.47,3.47,0,0,0,.616,2.054,2,2,0,0,0,1.849.822A3.539,3.539,0,0,0,30.575,49.4,4.88,4.88,0,0,0,31.807,45.907Z" transform="translate(-19.278 -5.239)"/>
      <path id="Path_495" data-name="Path 495" d="M45.1,45.848H34.424c.205,2.054,1.438,3.286,3.9,3.286a16.28,16.28,0,0,0,5.135-1.027L42.64,51.6a17.3,17.3,0,0,1-5.546.822,7.339,7.339,0,0,1-5.34-1.849A6.518,6.518,0,0,1,29.7,45.437a8.38,8.38,0,0,1,2.67-6.573A8.991,8.991,0,0,1,38.943,36.4a6.57,6.57,0,0,1,4.724,1.643,6.57,6.57,0,0,1,1.643,4.724A15.546,15.546,0,0,1,45.1,45.848ZM41,42.973v-.616a3.47,3.47,0,0,0-.616-2.054,2.6,2.6,0,0,0-1.849-.822,3.3,3.3,0,0,0-2.259,1.027,4.9,4.9,0,0,0-1.232,2.259H41Z" transform="translate(-9.161 -2.921)"/>
      <path id="Path_496" data-name="Path 496" d="M56.472,36.911,55.24,41.224a13.411,13.411,0,0,0-2.259-.411A3.108,3.108,0,0,0,50.1,42.251a11.731,11.731,0,0,0-1.232,3.081L47.435,51.7H42.3l3.081-14.994H50.1l-.616,2.876Q51.645,36.5,54.418,36.5A9.039,9.039,0,0,1,56.472,36.911Z" transform="translate(4.119 -2.815)"/>
      <path id="Path_497" data-name="Path 497" d="M64.3,45.743H53.619c.205,2.054,1.438,3.286,3.9,3.286A16.28,16.28,0,0,0,62.656,48l-.616,3.7a17.3,17.3,0,0,1-5.546.822,7.339,7.339,0,0,1-5.34-1.849A6.518,6.518,0,0,1,49.1,45.537a8.38,8.38,0,0,1,2.67-6.573A8.991,8.991,0,0,1,58.343,36.5a6.57,6.57,0,0,1,4.724,1.643,6.57,6.57,0,0,1,1.643,4.724A16.112,16.112,0,0,1,64.3,45.743Zm-3.9-2.876v-.616A3.47,3.47,0,0,0,59.78,40.2a2.6,2.6,0,0,0-1.849-.822A3.3,3.3,0,0,0,55.673,40.4a4.9,4.9,0,0,0-1.232,2.259H60.4Z" transform="translate(11.286 -2.815)"/>
      <path id="Path_498" data-name="Path 498" d="M71.772,37.527l-1.027,3.492a6.307,6.307,0,0,0-3.081-.822,4.665,4.665,0,0,0-3.286,1.232,4.18,4.18,0,0,0-1.232,3.081,3.548,3.548,0,0,0,1.027,2.67,4.063,4.063,0,0,0,2.876,1.027,7.249,7.249,0,0,0,2.876-.616l-.616,3.9a18.1,18.1,0,0,1-4.313.616,7.679,7.679,0,0,1-5.34-1.849A6.245,6.245,0,0,1,57.6,45.127a7.95,7.95,0,0,1,2.67-6.367A9.98,9.98,0,0,1,67.048,36.5,9.362,9.362,0,0,1,71.772,37.527Z" transform="translate(20.244 -2.815)"/>
      <path id="Path_499" data-name="Path 499" d="M68.508,34.2h5.135L72.2,41.183a6.9,6.9,0,0,1,4.929-2.259,4.394,4.394,0,0,1,3.7,1.438,5.922,5.922,0,0,1,1.232,3.9,26.476,26.476,0,0,1-.616,5.135l-1.232,4.929H75.08a35.774,35.774,0,0,0,1.027-4.519,23,23,0,0,0,.616-4.519c0-1.438-.616-2.259-1.849-2.259-2.054,0-3.492,1.643-4.108,4.929l-1.232,6.367H64.4Z" transform="translate(27.411 -5.239)"/>
      <path id="Path_500" data-name="Path 500" d="M89.4,45.743H78.719c.205,2.054,1.438,3.286,3.9,3.286A16.28,16.28,0,0,0,87.756,48l-.616,3.7a17.3,17.3,0,0,1-5.546.822,7.339,7.339,0,0,1-5.34-1.849A6.518,6.518,0,0,1,74.2,45.537a8.38,8.38,0,0,1,2.67-6.573A8.991,8.991,0,0,1,83.443,36.5a6.57,6.57,0,0,1,4.724,1.643,6.57,6.57,0,0,1,1.643,4.724C89.6,43.689,89.6,44.716,89.4,45.743Zm-4.108-2.876v-.616a3.47,3.47,0,0,0-.616-2.054,2.6,2.6,0,0,0-1.849-.822A3.3,3.3,0,0,0,80.567,40.4a4.9,4.9,0,0,0-1.232,2.259h5.956Z" transform="translate(37.74 -2.815)"/>
      <path id="Path_501" data-name="Path 501" d="M96.472,36.911,95.24,41.224a13.411,13.411,0,0,0-2.259-.411A3.108,3.108,0,0,0,90.1,42.251a11.732,11.732,0,0,0-1.232,3.081L87.435,51.7H82.3l3.081-14.994H90.1l-.411,2.876Q91.851,36.5,94.624,36.5A6,6,0,0,1,96.472,36.911Z" transform="translate(46.277 -2.815)"/>
      <path id="Path_502" data-name="Path 502" d="M103.378,37.527l-1.232,3.492a6.307,6.307,0,0,0-3.081-.822,4.665,4.665,0,0,0-3.286,1.232,4.18,4.18,0,0,0-1.232,3.081,3.548,3.548,0,0,0,1.027,2.67,4.063,4.063,0,0,0,2.876,1.027,7.249,7.249,0,0,0,2.876-.616l-.616,3.9a18.1,18.1,0,0,1-4.313.616,7.679,7.679,0,0,1-5.34-1.849A6.245,6.245,0,0,1,89,45.127a7.95,7.95,0,0,1,2.67-6.367A9.98,9.98,0,0,1,98.448,36.5,10.652,10.652,0,0,1,103.378,37.527Z" transform="translate(53.338 -2.815)"/>
      <path id="Path_503" data-name="Path 503" d="M99.908,34.2h5.135L103.6,41.183a6.9,6.9,0,0,1,4.929-2.259,4.394,4.394,0,0,1,3.7,1.438,5.922,5.922,0,0,1,1.232,3.9,26.476,26.476,0,0,1-.616,5.135l-1.232,4.929H106.48a35.772,35.772,0,0,0,1.027-4.519,23,23,0,0,0,.616-4.519c0-1.438-.616-2.259-1.849-2.259-2.054,0-3.492,1.643-4.108,4.929l-1.232,6.367H95.8Z" transform="translate(60.505 -5.239)"/>
      <path id="Path_504" data-name="Path 504" d="M120.8,45.743h-10.68c.205,2.054,1.438,3.286,3.9,3.286A16.28,16.28,0,0,0,119.156,48l-.616,3.7a17.3,17.3,0,0,1-5.546.822,7.339,7.339,0,0,1-5.34-1.849,6.518,6.518,0,0,1-2.054-5.135,8.38,8.38,0,0,1,2.67-6.573,8.991,8.991,0,0,1,6.573-2.465,6.571,6.571,0,0,1,4.724,1.643,6.57,6.57,0,0,1,1.643,4.724A16.115,16.115,0,0,1,120.8,45.743Zm-3.9-2.876v-.616a3.47,3.47,0,0,0-.616-2.054,2.6,2.6,0,0,0-1.849-.822,3.3,3.3,0,0,0-2.259,1.027,4.9,4.9,0,0,0-1.232,2.259H116.9Z" transform="translate(70.834 -2.815)"/>
    </g>
  </g>
  <g id="Group_80" data-name="Group 80" transform="translate(333.56 48.884)">
    <g id="Group_77" data-name="Group 77">
      <g id="Group_76" data-name="Group 76">
        <rect id="Rectangle_53" data-name="Rectangle 53" width="41.49" height="25.469" fill="#0063af"/>
      </g>
    </g>
    <path id="Path_505" data-name="Path 505" d="M197.473,44.6a20.544,20.544,0,0,1-2.054,2.876,5.2,5.2,0,0,0-.411,5.135,18.326,18.326,0,0,1,1.438,3.9,14.248,14.248,0,0,1,.205,3.9h-1.232c0-2.876-.822-5.34-3.081-6.573-3.081-1.643-5.956,1.232-4.929,4.313.411,1.643,1.438,2.054,1.643,2.054a2.794,2.794,0,0,1,.822-2.67,2.288,2.288,0,0,1,3.286.616,7.364,7.364,0,0,1,.822,2.259h-2.259v1.438h4.313a2.222,2.222,0,0,1-2.465,2.054s.205,1.849,2.465.822a3.153,3.153,0,0,0,1.438,2.876h0a3.815,3.815,0,0,0,1.438-2.876c2.259,1.027,2.465-.822,2.465-.822a2.075,2.075,0,0,1-2.465-2.054h4.313V60.21h-2.259a7.365,7.365,0,0,1,.822-2.259,2.288,2.288,0,0,1,3.286-.616c1.232.822.822,2.67.822,2.67.205,0,1.027-.616,1.643-2.054a3.483,3.483,0,0,0-4.929-4.313c-2.054,1.232-3.081,3.9-3.081,6.573h-1.232a14.254,14.254,0,0,1,.205-3.9c.411-1.232.822-2.465,1.438-3.9a5.2,5.2,0,0,0-.411-5.135C198.5,45.832,197.678,45.011,197.473,44.6Z" transform="translate(-176.728 -43.162)" fill="#fff" fill-rule="evenodd"/>
    <g id="Group_79" data-name="Group 79" transform="translate(53.402)">
      <g id="Group_78" data-name="Group 78">
        <rect id="Rectangle_54" data-name="Rectangle 54" width="41.49" height="25.469" fill="#0063af"/>
      </g>
    </g>
    <path id="Path_506" data-name="Path 506" d="M223.473,44.6c-.411.616-1.027,1.438-2.054,2.876a5.2,5.2,0,0,0-.411,5.135c.616,1.438,1.027,2.67,1.438,3.9a14.247,14.247,0,0,1,.205,3.9h-1.232c0-2.876-.822-5.34-3.081-6.573-3.081-1.643-5.956,1.232-4.929,4.313.411,1.643,1.438,2.054,1.643,2.054a2.794,2.794,0,0,1,.822-2.67,2.288,2.288,0,0,1,3.286.616,7.365,7.365,0,0,1,.822,2.259h-2.259v1.438h4.313a2.222,2.222,0,0,1-2.465,2.054s.205,1.849,2.465.822a3.154,3.154,0,0,0,1.438,2.876h0a3.815,3.815,0,0,0,1.438-2.876c2.259,1.027,2.465-.822,2.465-.822a2.075,2.075,0,0,1-2.465-2.054h4.313V60.21H227.17a7.365,7.365,0,0,1,.822-2.259,2.288,2.288,0,0,1,3.286-.616c1.232.822.822,2.67.822,2.67.205,0,1.027-.616,1.643-2.054a3.483,3.483,0,0,0-4.929-4.313c-2.054,1.232-3.081,3.9-3.081,6.573H224.5a14.254,14.254,0,0,1,.205-3.9c.411-1.232.822-2.465,1.438-3.9a5.2,5.2,0,0,0-.411-5.135C224.5,45.832,223.884,45.011,223.473,44.6Z" transform="translate(-149.326 -43.162)" fill="#fff" fill-rule="evenodd"/>
  </g>
  <g id="Group_85" data-name="Group 85" transform="translate(333.56 86.471)">
    <g id="Group_82" data-name="Group 82" transform="translate(0 0)">
      <g id="Group_81" data-name="Group 81">
        <rect id="Rectangle_55" data-name="Rectangle 55" width="41.49" height="25.469" fill="#0063af"/>
      </g>
    </g>
    <path id="Path_507" data-name="Path 507" d="M197.473,62.8a20.544,20.544,0,0,1-2.054,2.876,5.2,5.2,0,0,0-.411,5.135,18.325,18.325,0,0,1,1.438,3.9,12.787,12.787,0,0,1,.205,3.7h-1.232c0-2.876-.822-5.34-3.081-6.573-3.081-1.643-5.956,1.232-4.929,4.313.411,1.643,1.438,2.054,1.643,2.054a2.794,2.794,0,0,1,.822-2.67,2.288,2.288,0,0,1,3.286.616,7.364,7.364,0,0,1,.822,2.259h-2.259v1.643h4.313a2.222,2.222,0,0,1-2.465,2.054s.205,1.849,2.465.822a3.153,3.153,0,0,0,1.438,2.876h0a3.815,3.815,0,0,0,1.438-2.876c2.259,1.027,2.465-.822,2.465-.822a2.075,2.075,0,0,1-2.465-2.054h4.313V78.41h-2.259a7.365,7.365,0,0,1,.822-2.259,2.288,2.288,0,0,1,3.286-.616c1.232.822.822,2.67.822,2.67.205,0,1.027-.616,1.643-2.054a3.483,3.483,0,0,0-4.929-4.313c-2.054,1.232-3.081,3.9-3.081,6.573h-1.232a12.806,12.806,0,0,1,.205-3.7c.411-1.232.822-2.465,1.438-3.9a5.2,5.2,0,0,0-.411-5.135A20.541,20.541,0,0,1,197.473,62.8Z" transform="translate(-176.728 -61.568)" fill="#fff" fill-rule="evenodd"/>
    <g id="Group_84" data-name="Group 84" transform="translate(53.402 0)">
      <g id="Group_83" data-name="Group 83">
        <rect id="Rectangle_56" data-name="Rectangle 56" width="41.49" height="25.469" fill="#0063af"/>
      </g>
    </g>
    <path id="Path_508" data-name="Path 508" d="M223.473,62.8c-.411.616-1.027,1.438-2.054,2.876a5.2,5.2,0,0,0-.411,5.135c.616,1.438,1.027,2.67,1.438,3.9a12.786,12.786,0,0,1,.205,3.7h-1.232c0-2.876-.822-5.34-3.081-6.573-3.081-1.643-5.956,1.232-4.929,4.313.411,1.643,1.438,2.054,1.643,2.054a2.794,2.794,0,0,1,.822-2.67,2.288,2.288,0,0,1,3.286.616,7.365,7.365,0,0,1,.822,2.259h-2.259v1.643h4.313a2.222,2.222,0,0,1-2.465,2.054s.205,1.849,2.465.822a3.154,3.154,0,0,0,1.438,2.876h0a3.815,3.815,0,0,0,1.438-2.876c2.259,1.027,2.465-.822,2.465-.822a2.075,2.075,0,0,1-2.465-2.054h4.313V78.41H227.17a7.365,7.365,0,0,1,.822-2.259,2.288,2.288,0,0,1,3.286-.616c1.232.822.822,2.67.822,2.67.205,0,1.027-.616,1.643-2.054a3.483,3.483,0,0,0-4.929-4.313c-2.054,1.232-3.081,3.9-3.081,6.573H224.5a12.805,12.805,0,0,1,.205-3.7c.411-1.232.822-2.465,1.438-3.9a5.2,5.2,0,0,0-.411-5.135A30.429,30.429,0,0,1,223.473,62.8Z" transform="translate(-149.326 -61.568)" fill="#fff" fill-rule="evenodd"/>
  </g>
</svg>
