<svg width="127.645752" height="127.500000" viewBox="0 0 127.646 127.5" fill="none" xmlns="http://www.w3.org/2000/svg" xmlns:xlink="http://www.w3.org/1999/xlink">
	<desc>
			Created with Pixso.
	</desc>
	<defs/>
	<g style="mix-blend-mode:normal">
		<path id="secteur_activite" d="M33.95 59.59C35.84 46.48 46.33 35.99 59.45 34.09L60.9 33.95L60.9 0.14L59.15 0.29C43.85 1.31 29.43 8.01 18.65 18.79C7.72 29.72 1.16 44 0.14 59.3L0 61.05L33.8 61.05L33.95 59.59ZM3.49 57.55C6.41 29.14 29.14 6.41 57.55 3.49L57.55 30.74C44.15 33.22 33.36 44 30.89 57.41L3.49 57.55ZM45.17 87.28C39.05 82.47 35.11 75.62 33.95 67.9L33.8 66.44L0 66.44L0.14 68.19C0.87 78.1 3.78 87.28 8.74 95.88C13.55 104.04 20.25 111.18 27.97 116.42L29.43 117.44L46.33 88.15L45.17 87.28ZM28.26 112.63C14.13 102.43 5.24 86.99 3.49 69.79L30.74 69.79C32.2 77.22 35.99 84.07 41.82 89.03L28.26 112.63ZM91.36 75.62C86.55 86.7 75.77 93.84 63.67 93.84C59.74 93.84 56.1 93.11 52.45 91.65L51.14 91.07L34.24 120.36L35.84 121.08C44.58 125.31 53.91 127.5 63.67 127.5C90.78 127.5 115.11 110.3 124 84.65L124.58 82.91L91.94 74.16L91.36 75.62ZM120.21 85.24C111.32 108.55 88.88 124.14 63.67 124.14C55.08 124.14 46.77 122.4 38.9 118.9L52.6 95.29C56.1 96.6 59.88 97.19 63.67 97.19C76.64 97.19 88.3 89.76 93.84 78.24L120.21 85.24ZM110.3 20.25C99.23 8.45 84.36 1.31 68.34 0.14L66.59 0L66.59 33.8L68.04 33.95C82.76 35.99 93.84 48.81 93.84 63.67C93.84 64.84 93.84 66.15 93.69 67.32L93.54 68.77L126.18 77.51L126.48 75.77C127.2 71.83 127.64 67.75 127.64 63.67C127.5 47.5 121.38 32.05 110.3 20.25ZM123.42 73.43L97.04 66.3C97.04 65.42 97.19 64.55 97.19 63.67C97.19 55.51 94.27 47.79 88.88 41.67C83.93 35.99 77.22 32.2 69.94 30.89L69.94 3.64C100.54 6.7 124.29 32.78 124.29 63.82C124.14 67.02 123.85 70.23 123.42 73.43Z" fill="#00374B" fill-opacity="1.000000" fill-rule="nonzero"/>
		<path id="secteur_activite" d="M59.45 34.09L60.9 33.95L60.9 0.14L59.15 0.29C43.85 1.31 29.43 8.01 18.65 18.79C7.72 29.72 1.16 44 0.14 59.3L0 61.05L33.8 61.05L33.95 59.59C35.84 46.48 46.33 35.99 59.45 34.09ZM57.55 3.49L57.55 30.74C44.15 33.22 33.36 44 30.89 57.41L3.49 57.55C6.41 29.14 29.14 6.41 57.55 3.49ZM33.95 67.9L33.8 66.44L0 66.44L0.14 68.19C0.87 78.1 3.78 87.28 8.74 95.88C13.55 104.04 20.25 111.18 27.97 116.42L29.43 117.44L46.33 88.15L45.17 87.28C39.05 82.47 35.11 75.62 33.95 67.9ZM3.49 69.79L30.74 69.79C32.2 77.22 35.99 84.07 41.82 89.03L28.26 112.63C14.13 102.43 5.24 86.99 3.49 69.79ZM63.67 93.84C59.74 93.84 56.1 93.11 52.45 91.65L51.14 91.07L34.24 120.36L35.84 121.08C44.58 125.31 53.91 127.5 63.67 127.5C90.78 127.5 115.11 110.3 124 84.65L124.58 82.91L91.94 74.16L91.36 75.62C86.55 86.7 75.77 93.84 63.67 93.84ZM63.67 124.14C55.08 124.14 46.77 122.4 38.9 118.9L52.6 95.29C56.1 96.6 59.88 97.19 63.67 97.19C76.64 97.19 88.3 89.76 93.84 78.24L120.21 85.24C111.32 108.55 88.88 124.14 63.67 124.14ZM68.34 0.14L66.59 0L66.59 33.8L68.04 33.95C82.76 35.99 93.84 48.81 93.84 63.67C93.84 64.84 93.84 66.15 93.69 67.32L93.54 68.77L126.18 77.51L126.48 75.77C127.2 71.83 127.64 67.75 127.64 63.67C127.5 47.5 121.38 32.05 110.3 20.25C99.23 8.45 84.36 1.31 68.34 0.14ZM97.04 66.3C97.04 65.42 97.19 64.55 97.19 63.67C97.19 55.51 94.27 47.79 88.88 41.67C83.93 35.99 77.22 32.2 69.94 30.89L69.94 3.64C100.54 6.7 124.29 32.78 124.29 63.82C124.14 67.02 123.85 70.23 123.42 73.43L97.04 66.3Z" stroke="#707070" stroke-opacity="0" stroke-width="1.000000"/>
	</g>
</svg>
