<svg width="205.000000" height="114.800049" viewBox="0 0 205 114.8" fill="none" xmlns="http://www.w3.org/2000/svg" xmlns:xlink="http://www.w3.org/1999/xlink">
	<desc>
			Created with Pixso.
	</desc>
	<defs/>
	<g style="mix-blend-mode:normal">
		<path id="Tracé 687" d="M64.8 88.03L62.75 88.03L62.75 87.69L67.42 87.69L67.42 88.03L65.25 88.03L65.25 94.07L64.8 94.07L64.8 88.03Z" fill="#000000" fill-opacity="1.000000" fill-rule="nonzero"/>
		<path id="Tracé 687" d="M62.75 88.03L62.75 87.69L67.42 87.69L67.42 88.03L65.25 88.03L65.25 94.07L64.8 94.07L64.8 88.03L62.75 88.03Z" stroke="#707070" stroke-opacity="0" stroke-width="1.000000"/>
	</g>
	<g style="mix-blend-mode:normal">
		<path id="Tracé 688" d="M71.06 90.88L68.44 90.88L68.44 93.73L71.4 93.73L71.4 94.07L67.99 94.07L67.99 87.69L71.17 87.69L71.17 88.03L68.44 88.03L68.44 90.54L71.06 90.54L71.06 90.88Z" fill="#000000" fill-opacity="1.000000" fill-rule="nonzero"/>
		<path id="Tracé 688" d="M68.44 90.88L68.44 93.73L71.4 93.73L71.4 94.07L67.99 94.07L67.99 87.69L71.17 87.69L71.17 88.03L68.44 88.03L68.44 90.54L71.06 90.54L71.06 90.88L68.44 90.88Z" stroke="#707070" stroke-opacity="0" stroke-width="1.000000"/>
	</g>
	<g style="mix-blend-mode:normal">
		<path id="Tracé 689" d="M72.43 87.8C72.77 87.69 73.34 87.69 73.79 87.69C74.59 87.69 75.16 87.92 75.5 88.26C75.73 88.49 75.96 88.94 75.96 89.4C75.96 90.31 75.39 90.76 74.71 91.11C75.28 91.22 75.5 91.79 75.73 92.47C75.96 93.5 76.07 93.95 76.19 94.18L75.73 94.18C75.62 93.95 75.5 93.38 75.28 92.59C75.05 91.68 74.71 91.22 73.79 91.22L72.77 91.22L72.77 94.18L72.31 94.18L72.31 87.8L72.43 87.8ZM72.88 90.76L73.91 90.76C74.93 90.76 75.5 90.2 75.5 89.4C75.5 88.37 74.82 88.03 73.79 88.03C73.34 88.03 73 88.03 72.88 88.15L72.88 90.76Z" fill="#000000" fill-opacity="1.000000" fill-rule="nonzero"/>
		<path id="Tracé 689" d="M73.79 87.69C74.59 87.69 75.16 87.92 75.5 88.26C75.73 88.49 75.96 88.94 75.96 89.4C75.96 90.31 75.39 90.76 74.71 91.11C75.28 91.22 75.5 91.79 75.73 92.47C75.96 93.5 76.07 93.95 76.19 94.18L75.73 94.18C75.62 93.95 75.5 93.38 75.28 92.59C75.05 91.68 74.71 91.22 73.79 91.22L72.77 91.22L72.77 94.18L72.31 94.18L72.31 87.8L72.43 87.8C72.77 87.69 73.34 87.69 73.79 87.69ZM73.91 90.76C74.93 90.76 75.5 90.2 75.5 89.4C75.5 88.37 74.82 88.03 73.79 88.03C73.34 88.03 73 88.03 72.88 88.15L72.88 90.76L73.91 90.76Z" stroke="#707070" stroke-opacity="0" stroke-width="1.000000"/>
	</g>
	<g style="mix-blend-mode:normal">
		<path id="Tracé 690" d="M77.33 87.8C77.78 87.69 78.24 87.69 78.69 87.69C79.49 87.69 80.06 87.92 80.4 88.26C80.63 88.49 80.86 88.94 80.86 89.4C80.86 90.31 80.29 90.76 79.6 91.11C80.17 91.22 80.4 91.79 80.63 92.47C80.86 93.5 80.97 93.95 81.08 94.18L80.63 94.18C80.51 93.95 80.4 93.38 80.17 92.59C79.95 91.68 79.6 91.22 78.69 91.22L77.67 91.22L77.67 94.18L77.21 94.18L77.21 87.8L77.33 87.8ZM77.78 90.76L78.81 90.76C79.83 90.76 80.4 90.2 80.4 89.4C80.4 88.37 79.72 88.03 78.69 88.03C78.24 88.03 77.9 88.03 77.78 88.15L77.78 90.76Z" fill="#000000" fill-opacity="1.000000" fill-rule="nonzero"/>
		<path id="Tracé 690" d="M78.69 87.69C79.49 87.69 80.06 87.92 80.4 88.26C80.63 88.49 80.86 88.94 80.86 89.4C80.86 90.31 80.29 90.76 79.6 91.11C80.17 91.22 80.4 91.79 80.63 92.47C80.86 93.5 80.97 93.95 81.08 94.18L80.63 94.18C80.51 93.95 80.4 93.38 80.17 92.59C79.95 91.68 79.6 91.22 78.69 91.22L77.67 91.22L77.67 94.18L77.21 94.18L77.21 87.8L77.33 87.8C77.78 87.69 78.24 87.69 78.69 87.69ZM78.81 90.76C79.83 90.76 80.4 90.2 80.4 89.4C80.4 88.37 79.72 88.03 78.69 88.03C78.24 88.03 77.9 88.03 77.78 88.15L77.78 90.76L78.81 90.76Z" stroke="#707070" stroke-opacity="0" stroke-width="1.000000"/>
	</g>
	<g style="mix-blend-mode:normal">
		<rect id="Rectangle 112" x="82.114258" y="87.694336" width="0.455556" height="6.377778" fill="#000000" fill-opacity="1.000000"/>
		<rect id="Rectangle 112" x="82.114258" y="87.694336" width="0.455556" height="6.377778" stroke="#707070" stroke-opacity="0" stroke-width="1.000000"/>
	</g>
	<g style="mix-blend-mode:normal">
		<path id="Tracé 691" d="M85.3 88.03L83.25 88.03L83.25 87.69L87.8 87.69L87.8 88.03L85.75 88.03L85.75 94.07L85.3 94.07L85.3 88.03Z" fill="#000000" fill-opacity="1.000000" fill-rule="nonzero"/>
		<path id="Tracé 691" d="M83.25 88.03L83.25 87.69L87.8 87.69L87.8 88.03L85.75 88.03L85.75 94.07L85.3 94.07L85.3 88.03L83.25 88.03Z" stroke="#707070" stroke-opacity="0" stroke-width="1.000000"/>
	</g>
	<g style="mix-blend-mode:normal">
		<path id="Tracé 692" d="M90.65 94.18C89.06 94.18 87.8 92.93 87.8 90.99C87.8 88.94 89.06 87.58 90.65 87.58C92.25 87.58 93.5 88.83 93.5 90.76C93.5 93.04 92.13 94.18 90.65 94.18ZM90.65 93.84C92.13 93.84 93.04 92.47 93.04 90.88C93.04 89.51 92.25 88.03 90.65 88.03C89.06 88.03 88.26 89.51 88.26 90.99C88.37 92.36 89.17 93.84 90.65 93.84Z" fill="#000000" fill-opacity="1.000000" fill-rule="nonzero"/>
		<path id="Tracé 692" d="M87.8 90.99C87.8 88.94 89.06 87.58 90.65 87.58C92.25 87.58 93.5 88.83 93.5 90.76C93.5 93.04 92.13 94.18 90.65 94.18C89.06 94.18 87.8 92.93 87.8 90.99ZM93.04 90.88C93.04 89.51 92.25 88.03 90.65 88.03C89.06 88.03 88.26 89.51 88.26 90.99C88.37 92.36 89.17 93.84 90.65 93.84C92.13 93.84 93.04 92.47 93.04 90.88Z" stroke="#707070" stroke-opacity="0" stroke-width="1.000000"/>
	</g>
	<g style="mix-blend-mode:normal">
		<rect id="Rectangle 113" x="94.641602" y="87.694336" width="0.455556" height="6.377778" fill="#000000" fill-opacity="1.000000"/>
		<rect id="Rectangle 113" x="94.641602" y="87.694336" width="0.455556" height="6.377778" stroke="#707070" stroke-opacity="0" stroke-width="1.000000"/>
	</g>
	<g style="mix-blend-mode:normal">
		<path id="Tracé 693" d="M96.69 87.8C97.14 87.69 97.6 87.69 98.05 87.69C98.85 87.69 99.42 87.92 99.76 88.26C99.99 88.49 100.22 88.94 100.22 89.4C100.22 90.31 99.65 90.76 98.96 91.11C99.53 91.22 99.76 91.79 99.99 92.47C100.22 93.5 100.33 93.95 100.45 94.18L99.99 94.18C99.88 93.95 99.76 93.38 99.53 92.59C99.31 91.68 98.96 91.22 98.05 91.22L97.03 91.22L97.03 94.18L96.57 94.18L96.57 87.8L96.69 87.8ZM97.14 90.76L98.17 90.76C99.19 90.76 99.76 90.2 99.76 89.4C99.76 88.37 99.08 88.03 98.05 88.03C97.6 88.03 97.26 88.03 97.14 88.15L97.14 90.76Z" fill="#000000" fill-opacity="1.000000" fill-rule="nonzero"/>
		<path id="Tracé 693" d="M98.05 87.69C98.85 87.69 99.42 87.92 99.76 88.26C99.99 88.49 100.22 88.94 100.22 89.4C100.22 90.31 99.65 90.76 98.96 91.11C99.53 91.22 99.76 91.79 99.99 92.47C100.22 93.5 100.33 93.95 100.45 94.18L99.99 94.18C99.88 93.95 99.76 93.38 99.53 92.59C99.31 91.68 98.96 91.22 98.05 91.22L97.03 91.22L97.03 94.18L96.57 94.18L96.57 87.8L96.69 87.8C97.14 87.69 97.6 87.69 98.05 87.69ZM98.17 90.76C99.19 90.76 99.76 90.2 99.76 89.4C99.76 88.37 99.08 88.03 98.05 88.03C97.6 88.03 97.26 88.03 97.14 88.15L97.14 90.76L98.17 90.76Z" stroke="#707070" stroke-opacity="0" stroke-width="1.000000"/>
	</g>
	<g style="mix-blend-mode:normal">
		<path id="Tracé 694" d="M104.43 90.88L101.93 90.88L101.93 93.73L104.77 93.73L104.77 94.07L101.47 94.07L101.47 87.69L104.66 87.69L104.66 88.03L101.93 88.03L101.93 90.54L104.43 90.54L104.43 90.88Z" fill="#000000" fill-opacity="1.000000" fill-rule="nonzero"/>
		<path id="Tracé 694" d="M101.93 90.88L101.93 93.73L104.77 93.73L104.77 94.07L101.47 94.07L101.47 87.69L104.66 87.69L104.66 88.03L101.93 88.03L101.93 90.54L104.43 90.54L104.43 90.88L101.93 90.88Z" stroke="#707070" stroke-opacity="0" stroke-width="1.000000"/>
	</g>
	<g style="mix-blend-mode:normal">
		<path id="Tracé 695" d="M105.68 93.38C106.03 93.61 106.6 93.84 107.05 93.84C107.96 93.84 108.65 93.27 108.65 92.47C108.65 91.79 108.3 91.33 107.39 90.99C106.37 90.65 105.8 90.08 105.8 89.17C105.8 88.26 106.6 87.58 107.62 87.58C108.19 87.58 108.65 87.69 108.87 87.92L108.65 88.26C108.42 88.15 108.08 87.92 107.51 87.92C106.48 87.92 106.14 88.6 106.14 89.06C106.14 89.74 106.6 90.08 107.51 90.54C108.53 90.99 109.1 91.45 109.1 92.36C109.1 93.27 108.42 94.07 107.05 94.07C106.48 94.07 105.8 93.84 105.57 93.61L105.68 93.38Z" fill="#000000" fill-opacity="1.000000" fill-rule="nonzero"/>
		<path id="Tracé 695" d="M107.05 93.84C107.96 93.84 108.65 93.27 108.65 92.47C108.65 91.79 108.3 91.33 107.39 90.99C106.37 90.65 105.8 90.08 105.8 89.17C105.8 88.26 106.6 87.58 107.62 87.58C108.19 87.58 108.65 87.69 108.87 87.92L108.65 88.26C108.42 88.15 108.08 87.92 107.51 87.92C106.48 87.92 106.14 88.6 106.14 89.06C106.14 89.74 106.6 90.08 107.51 90.54C108.53 90.99 109.1 91.45 109.1 92.36C109.1 93.27 108.42 94.07 107.05 94.07C106.48 94.07 105.8 93.84 105.57 93.61L105.68 93.38C106.03 93.61 106.6 93.84 107.05 93.84Z" stroke="#707070" stroke-opacity="0" stroke-width="1.000000"/>
	</g>
	<g style="mix-blend-mode:normal">
		<rect id="Rectangle 114" x="112.408203" y="87.694336" width="0.455556" height="6.377778" fill="#000000" fill-opacity="1.000000"/>
		<rect id="Rectangle 114" x="112.408203" y="87.694336" width="0.455556" height="6.377778" stroke="#707070" stroke-opacity="0" stroke-width="1.000000"/>
	</g>
	<g style="mix-blend-mode:normal">
		<path id="Tracé 696" d="M114.45 94.07L114.45 87.69L114.91 87.69L117.41 91.45C117.98 92.25 118.33 92.81 118.67 93.5C118.55 92.59 118.55 91.9 118.55 90.88L118.55 87.69L119.01 87.69L119.01 94.07L118.55 94.07L116.16 90.31C115.71 89.63 115.25 88.94 114.91 88.26C114.91 89.06 114.91 89.74 114.91 90.76L114.91 93.95L114.45 93.95L114.45 94.07Z" fill="#000000" fill-opacity="1.000000" fill-rule="nonzero"/>
		<path id="Tracé 696" d="M114.45 87.69L114.91 87.69L117.41 91.45C117.98 92.25 118.33 92.81 118.67 93.5C118.55 92.59 118.55 91.9 118.55 90.88L118.55 87.69L119.01 87.69L119.01 94.07L118.55 94.07L116.16 90.31C115.71 89.63 115.25 88.94 114.91 88.26C114.91 89.06 114.91 89.74 114.91 90.76L114.91 93.95L114.45 93.95L114.45 94.07L114.45 87.69Z" stroke="#707070" stroke-opacity="0" stroke-width="1.000000"/>
	</g>
	<g style="mix-blend-mode:normal">
		<path id="Tracé 697" d="M120.49 94.07L120.49 87.69L120.94 87.69L123.45 91.45C124.02 92.25 124.36 92.81 124.7 93.5C124.59 92.59 124.59 91.9 124.59 90.88L124.59 87.69L125.05 87.69L125.05 94.07L124.59 94.07L122.2 90.31C121.74 89.63 121.29 88.94 120.94 88.26C120.94 89.06 121.06 89.74 121.06 90.76L121.06 93.95L120.49 93.95L120.49 94.07Z" fill="#000000" fill-opacity="1.000000" fill-rule="nonzero"/>
		<path id="Tracé 697" d="M120.49 87.69L120.94 87.69L123.45 91.45C124.02 92.25 124.36 92.81 124.7 93.5C124.59 92.59 124.59 91.9 124.59 90.88L124.59 87.69L125.05 87.69L125.05 94.07L124.59 94.07L122.2 90.31C121.74 89.63 121.29 88.94 120.94 88.26C120.94 89.06 121.06 89.74 121.06 90.76L121.06 93.95L120.49 93.95L120.49 94.07L120.49 87.69Z" stroke="#707070" stroke-opacity="0" stroke-width="1.000000"/>
	</g>
	<g style="mix-blend-mode:normal">
		<path id="Tracé 698" d="M128.92 94.18C127.32 94.18 126.07 92.93 126.07 90.99C126.07 88.94 127.32 87.58 128.92 87.58C130.51 87.58 131.77 88.83 131.77 90.76C131.77 93.04 130.4 94.18 128.92 94.18ZM128.92 93.84C130.4 93.84 131.31 92.47 131.31 90.88C131.31 89.51 130.51 88.03 128.92 88.03C127.32 88.03 126.53 89.51 126.53 90.99C126.64 92.36 127.44 93.84 128.92 93.84Z" fill="#000000" fill-opacity="1.000000" fill-rule="nonzero"/>
		<path id="Tracé 698" d="M126.07 90.99C126.07 88.94 127.32 87.58 128.92 87.58C130.51 87.58 131.77 88.83 131.77 90.76C131.77 93.04 130.4 94.18 128.92 94.18C127.32 94.18 126.07 92.93 126.07 90.99ZM131.31 90.88C131.31 89.51 130.51 88.03 128.92 88.03C127.32 88.03 126.53 89.51 126.53 90.99C126.64 92.36 127.44 93.84 128.92 93.84C130.4 93.84 131.31 92.47 131.31 90.88Z" stroke="#707070" stroke-opacity="0" stroke-width="1.000000"/>
	</g>
	<g style="mix-blend-mode:normal">
		<path id="Tracé 699" d="M134.38 94.07L132.22 87.69L132.67 87.69L133.81 91.11C134.16 92.02 134.38 92.81 134.61 93.61C134.84 92.93 135.07 92.02 135.41 91.11L136.66 87.69L137.12 87.69L134.73 94.07L134.38 94.07Z" fill="#000000" fill-opacity="1.000000" fill-rule="nonzero"/>
		<path id="Tracé 699" d="M132.22 87.69L132.67 87.69L133.81 91.11C134.16 92.02 134.38 92.81 134.61 93.61C134.84 92.93 135.07 92.02 135.41 91.11L136.66 87.69L137.12 87.69L134.73 94.07L134.38 94.07L132.22 87.69Z" stroke="#707070" stroke-opacity="0" stroke-width="1.000000"/>
	</g>
	<g style="mix-blend-mode:normal">
		<path id="Tracé 700" d="M138.03 91.79L137.23 94.07L136.78 94.07L139.05 87.69L139.51 87.69L141.79 94.07L141.44 94.07L140.65 91.79L138.03 91.79ZM140.42 91.45L139.62 89.28C139.51 88.83 139.39 88.49 139.28 88.15C139.17 88.49 139.05 88.83 138.94 89.28L138.14 91.45L140.42 91.45Z" fill="#000000" fill-opacity="1.000000" fill-rule="nonzero"/>
		<path id="Tracé 700" d="M137.23 94.07L136.78 94.07L139.05 87.69L139.51 87.69L141.79 94.07L141.44 94.07L140.65 91.79L138.03 91.79L137.23 94.07ZM139.62 89.28C139.51 88.83 139.39 88.49 139.28 88.15C139.17 88.49 139.05 88.83 138.94 89.28L138.14 91.45L140.42 91.45L139.62 89.28Z" stroke="#707070" stroke-opacity="0" stroke-width="1.000000"/>
	</g>
	<g style="mix-blend-mode:normal">
		<path id="Tracé 701" d="M142.81 94.07L142.81 87.69L143.27 87.69L145.77 91.45C146.34 92.25 146.68 92.81 147.03 93.5C146.91 92.59 146.91 91.9 146.91 90.88L146.91 87.69L147.37 87.69L147.37 94.07L146.91 94.07L144.52 90.31C144.06 89.63 143.61 88.94 143.27 88.26C143.27 89.06 143.38 89.74 143.38 90.76L143.38 93.95L142.81 93.95L142.81 94.07Z" fill="#000000" fill-opacity="1.000000" fill-rule="nonzero"/>
		<path id="Tracé 701" d="M142.81 87.69L143.27 87.69L145.77 91.45C146.34 92.25 146.68 92.81 147.03 93.5C146.91 92.59 146.91 91.9 146.91 90.88L146.91 87.69L147.37 87.69L147.37 94.07L146.91 94.07L144.52 90.31C144.06 89.63 143.61 88.94 143.27 88.26C143.27 89.06 143.38 89.74 143.38 90.76L143.38 93.95L142.81 93.95L142.81 94.07L142.81 87.69Z" stroke="#707070" stroke-opacity="0" stroke-width="1.000000"/>
	</g>
	<g style="mix-blend-mode:normal">
		<path id="Tracé 702" d="M150.1 88.03L148.05 88.03L148.05 87.69L152.72 87.69L152.72 88.03L150.56 88.03L150.56 94.07L150.1 94.07L150.1 88.03Z" fill="#000000" fill-opacity="1.000000" fill-rule="nonzero"/>
		<path id="Tracé 702" d="M148.05 88.03L148.05 87.69L152.72 87.69L152.72 88.03L150.56 88.03L150.56 94.07L150.1 94.07L150.1 88.03L148.05 88.03Z" stroke="#707070" stroke-opacity="0" stroke-width="1.000000"/>
	</g>
	<g style="mix-blend-mode:normal">
		<path id="Tracé 703" d="M153.06 93.38C153.4 93.61 153.97 93.84 154.43 93.84C155.34 93.84 156.02 93.27 156.02 92.47C156.02 91.79 155.68 91.33 154.77 90.99C153.75 90.65 153.18 90.08 153.18 89.17C153.18 88.26 153.97 87.58 155 87.58C155.57 87.58 156.02 87.69 156.25 87.92L156.14 88.26C155.91 88.15 155.57 87.92 155 87.92C153.97 87.92 153.63 88.6 153.63 89.06C153.63 89.74 154.09 90.08 155 90.54C156.02 90.99 156.59 91.45 156.59 92.36C156.59 93.27 155.91 94.07 154.54 94.07C153.97 94.07 153.29 93.84 153.06 93.61L153.06 93.38Z" fill="#000000" fill-opacity="1.000000" fill-rule="nonzero"/>
		<path id="Tracé 703" d="M154.43 93.84C155.34 93.84 156.02 93.27 156.02 92.47C156.02 91.79 155.68 91.33 154.77 90.99C153.75 90.65 153.18 90.08 153.18 89.17C153.18 88.26 153.97 87.58 155 87.58C155.57 87.58 156.02 87.69 156.25 87.92L156.14 88.26C155.91 88.15 155.57 87.92 155 87.92C153.97 87.92 153.63 88.6 153.63 89.06C153.63 89.74 154.09 90.08 155 90.54C156.02 90.99 156.59 91.45 156.59 92.36C156.59 93.27 155.91 94.07 154.54 94.07C153.97 94.07 153.29 93.84 153.06 93.61L153.06 93.38C153.4 93.61 153.97 93.84 154.43 93.84Z" stroke="#707070" stroke-opacity="0" stroke-width="1.000000"/>
	</g>
	<g style="mix-blend-mode:normal">
		<path id="Tracé 704" d="M66.51 101.24L64 101.24L64 104.09L66.85 104.09L66.85 104.43L63.54 104.43L63.54 98.05L66.62 98.05L66.62 98.4L64 98.4L64 100.9L66.51 100.9L66.51 101.24Z" fill="#000000" fill-opacity="1.000000" fill-rule="nonzero"/>
		<path id="Tracé 704" d="M64 101.24L64 104.09L66.85 104.09L66.85 104.43L63.54 104.43L63.54 98.05L66.62 98.05L66.62 98.4L64 98.4L64 100.9L66.51 100.9L66.51 101.24L64 101.24Z" stroke="#707070" stroke-opacity="0" stroke-width="1.000000"/>
	</g>
	<g style="mix-blend-mode:normal">
		<path id="Tracé 705" d="M67.99 104.43L67.99 98.05L68.44 98.05L70.95 101.81C71.52 102.61 71.86 103.18 72.2 103.86C72.09 102.95 72.09 102.27 72.09 101.24L72.09 98.05L72.54 98.05L72.54 104.43L72.09 104.43L69.7 100.67C69.24 99.99 68.78 99.31 68.44 98.62C68.44 99.42 68.56 100.1 68.56 101.13L68.56 104.32L67.99 104.32L67.99 104.43Z" fill="#000000" fill-opacity="1.000000" fill-rule="nonzero"/>
		<path id="Tracé 705" d="M67.99 98.05L68.44 98.05L70.95 101.81C71.52 102.61 71.86 103.18 72.2 103.86C72.09 102.95 72.09 102.27 72.09 101.24L72.09 98.05L72.54 98.05L72.54 104.43L72.09 104.43L69.7 100.67C69.24 99.99 68.78 99.31 68.44 98.62C68.44 99.42 68.56 100.1 68.56 101.13L68.56 104.32L67.99 104.32L67.99 104.43L67.99 98.05Z" stroke="#707070" stroke-opacity="0" stroke-width="1.000000"/>
	</g>
	<g style="mix-blend-mode:normal">
		<path id="Tracé 706" d="M79.03 101.13L76.53 101.13L76.53 103.98L79.38 103.98L79.38 104.32L76.07 104.32L76.07 97.94L79.26 97.94L79.26 98.28L76.53 98.28L76.53 100.79L79.03 100.79L79.03 101.13ZM78.92 96.46L77.67 97.6L77.33 97.6L78.24 96.57L78.92 96.57L78.92 96.46Z" fill="#000000" fill-opacity="1.000000" fill-rule="nonzero"/>
		<path id="Tracé 706" d="M76.53 101.13L76.53 103.98L79.38 103.98L79.38 104.32L76.07 104.32L76.07 97.94L79.26 97.94L79.26 98.28L76.53 98.28L76.53 100.79L79.03 100.79L79.03 101.13L76.53 101.13ZM77.67 97.6L77.33 97.6L78.24 96.57L78.92 96.57L78.92 96.46L77.67 97.6Z" stroke="#707070" stroke-opacity="0" stroke-width="1.000000"/>
	</g>
	<g style="mix-blend-mode:normal">
		<path id="Tracé 707" d="M84.84 104.09C84.5 104.2 83.93 104.43 83.13 104.43C81.54 104.43 80.06 103.41 80.06 101.13C80.06 99.19 81.31 97.83 83.36 97.83C84.16 97.83 84.61 98.05 84.84 98.05L84.73 98.4C84.39 98.28 83.93 98.17 83.36 98.17C81.65 98.17 80.63 99.31 80.63 101.13C80.63 102.84 81.65 103.98 83.36 103.98C83.93 103.98 84.39 103.86 84.84 103.63L84.84 104.09Z" fill="#000000" fill-opacity="1.000000" fill-rule="nonzero"/>
		<path id="Tracé 707" d="M83.13 104.43C81.54 104.43 80.06 103.41 80.06 101.13C80.06 99.19 81.31 97.83 83.36 97.83C84.16 97.83 84.61 98.05 84.84 98.05L84.73 98.4C84.39 98.28 83.93 98.17 83.36 98.17C81.65 98.17 80.63 99.31 80.63 101.13C80.63 102.84 81.65 103.98 83.36 103.98C83.93 103.98 84.39 103.86 84.84 103.63L84.84 104.09C84.5 104.2 83.93 104.43 83.13 104.43Z" stroke="#707070" stroke-opacity="0" stroke-width="1.000000"/>
	</g>
	<g style="mix-blend-mode:normal">
		<path id="Tracé 708" d="M88.15 104.43C86.55 104.43 85.3 103.18 85.3 101.24C85.3 99.19 86.55 97.83 88.15 97.83C89.74 97.83 90.99 99.08 90.99 101.01C90.99 103.29 89.63 104.43 88.15 104.43ZM88.15 104.09C89.63 104.09 90.54 102.72 90.54 101.13C90.54 99.76 89.74 98.28 88.15 98.28C86.55 98.28 85.75 99.76 85.75 101.24C85.87 102.61 86.66 104.09 88.15 104.09Z" fill="#000000" fill-opacity="1.000000" fill-rule="nonzero"/>
		<path id="Tracé 708" d="M85.3 101.24C85.3 99.19 86.55 97.83 88.15 97.83C89.74 97.83 90.99 99.08 90.99 101.01C90.99 103.29 89.63 104.43 88.15 104.43C86.55 104.43 85.3 103.18 85.3 101.24ZM90.54 101.13C90.54 99.76 89.74 98.28 88.15 98.28C86.55 98.28 85.75 99.76 85.75 101.24C85.87 102.61 86.66 104.09 88.15 104.09C89.63 104.09 90.54 102.72 90.54 101.13Z" stroke="#707070" stroke-opacity="0" stroke-width="1.000000"/>
	</g>
	<g style="mix-blend-mode:normal">
		<path id="Tracé 709" d="M92.13 104.32L92.13 97.94L92.59 97.94L95.09 101.7C95.66 102.5 96 103.06 96.34 103.75C96.23 102.84 96.23 102.15 96.23 101.13L96.23 97.94L96.69 97.94L96.69 104.32L96.23 104.32L93.84 100.56C93.38 99.88 92.93 99.19 92.59 98.51C92.59 99.31 92.7 99.99 92.7 101.02L92.7 104.2L92.13 104.2L92.13 104.32Z" fill="#000000" fill-opacity="1.000000" fill-rule="nonzero"/>
		<path id="Tracé 709" d="M92.13 97.94L92.59 97.94L95.09 101.7C95.66 102.5 96 103.06 96.34 103.75C96.23 102.84 96.23 102.15 96.23 101.13L96.23 97.94L96.69 97.94L96.69 104.32L96.23 104.32L93.84 100.56C93.38 99.88 92.93 99.19 92.59 98.51C92.59 99.31 92.7 99.99 92.7 101.02L92.7 104.2L92.13 104.2L92.13 104.32L92.13 97.94Z" stroke="#707070" stroke-opacity="0" stroke-width="1.000000"/>
	</g>
	<g style="mix-blend-mode:normal">
		<path id="Tracé 710" d="M100.56 104.43C98.96 104.43 97.71 103.18 97.71 101.24C97.71 99.19 98.96 97.83 100.56 97.83C102.15 97.83 103.41 99.08 103.41 101.01C103.52 103.29 102.04 104.43 100.56 104.43ZM100.67 104.09C102.15 104.09 103.06 102.72 103.06 101.13C103.06 99.76 102.27 98.28 100.67 98.28C99.08 98.28 98.28 99.76 98.28 101.24C98.28 102.61 99.08 104.09 100.67 104.09Z" fill="#000000" fill-opacity="1.000000" fill-rule="nonzero"/>
		<path id="Tracé 710" d="M97.71 101.24C97.71 99.19 98.96 97.83 100.56 97.83C102.15 97.83 103.41 99.08 103.41 101.01C103.52 103.29 102.04 104.43 100.56 104.43C98.96 104.43 97.71 103.18 97.71 101.24ZM103.06 101.13C103.06 99.76 102.27 98.28 100.67 98.28C99.08 98.28 98.28 99.76 98.28 101.24C98.28 102.61 99.08 104.09 100.67 104.09C102.15 104.09 103.06 102.72 103.06 101.13Z" stroke="#707070" stroke-opacity="0" stroke-width="1.000000"/>
	</g>
	<g style="mix-blend-mode:normal">
		<path id="Tracé 711" d="M110.01 101.24C110.01 100.33 109.9 99.08 109.9 98.39C109.67 99.08 109.44 99.88 108.99 100.79L107.62 104.32L107.28 104.32L106.03 100.9C105.68 99.88 105.34 99.08 105.23 98.39C105.23 99.19 105.11 100.22 105.11 101.36L104.89 104.32L104.43 104.32L104.89 97.94L105.46 97.94L106.82 101.58C107.16 102.38 107.39 103.06 107.51 103.63C107.62 103.06 107.85 102.38 108.19 101.58L109.67 97.94L110.24 97.94L110.69 104.32L110.24 104.32L110.01 101.24Z" fill="#000000" fill-opacity="1.000000" fill-rule="nonzero"/>
		<path id="Tracé 711" d="M109.9 98.39C109.67 99.08 109.44 99.88 108.99 100.79L107.62 104.32L107.28 104.32L106.03 100.9C105.68 99.88 105.34 99.08 105.23 98.39C105.23 99.19 105.11 100.22 105.11 101.36L104.89 104.32L104.43 104.32L104.89 97.94L105.46 97.94L106.82 101.58C107.16 102.38 107.39 103.06 107.51 103.63C107.62 103.06 107.85 102.38 108.19 101.58L109.67 97.94L110.24 97.94L110.69 104.32L110.24 104.32L110.01 101.24C110.01 100.33 109.9 99.08 109.9 98.39Z" stroke="#707070" stroke-opacity="0" stroke-width="1.000000"/>
	</g>
	<g style="mix-blend-mode:normal">
		<rect id="Rectangle 115" x="111.953125" y="97.944336" width="0.455556" height="6.377778" fill="#000000" fill-opacity="1.000000"/>
		<rect id="Rectangle 115" x="111.953125" y="97.944336" width="0.455556" height="6.377778" stroke="#707070" stroke-opacity="0" stroke-width="1.000000"/>
	</g>
	<g style="mix-blend-mode:normal">
		<path id="Tracé 712" d="M117.07 101.13L114.45 101.13L114.45 103.98L117.3 103.98L117.3 104.32L114 104.32L114 97.94L117.19 97.94L117.19 98.28L114.45 98.28L114.45 100.79L117.07 100.79L117.07 101.13Z" fill="#000000" fill-opacity="1.000000" fill-rule="nonzero"/>
		<path id="Tracé 712" d="M114.45 101.13L114.45 103.98L117.3 103.98L117.3 104.32L114 104.32L114 97.94L117.19 97.94L117.19 98.28L114.45 98.28L114.45 100.79L117.07 100.79L117.07 101.13L114.45 101.13Z" stroke="#707070" stroke-opacity="0" stroke-width="1.000000"/>
	</g>
	<g style="mix-blend-mode:normal">
		<path id="Tracé 713" d="M120.38 103.63C120.72 103.86 121.29 104.09 121.74 104.09C122.65 104.09 123.34 103.52 123.34 102.72C123.34 102.04 123 101.58 122.08 101.24C121.06 100.9 120.49 100.33 120.49 99.42C120.49 98.51 121.29 97.83 122.31 97.83C122.88 97.83 123.34 97.94 123.56 98.17L123.34 98.51C123.11 98.39 122.77 98.17 122.2 98.17C121.17 98.17 120.83 98.85 120.83 99.31C120.83 99.99 121.29 100.33 122.2 100.79C123.22 101.24 123.79 101.7 123.79 102.61C123.79 103.52 123.11 104.32 121.74 104.32C121.17 104.32 120.49 104.09 120.26 103.86L120.38 103.63Z" fill="#000000" fill-opacity="1.000000" fill-rule="nonzero"/>
		<path id="Tracé 713" d="M121.74 104.09C122.65 104.09 123.34 103.52 123.34 102.72C123.34 102.04 123 101.58 122.08 101.24C121.06 100.9 120.49 100.33 120.49 99.42C120.49 98.51 121.29 97.83 122.31 97.83C122.88 97.83 123.34 97.94 123.56 98.17L123.34 98.51C123.11 98.39 122.77 98.17 122.2 98.17C121.17 98.17 120.83 98.85 120.83 99.31C120.83 99.99 121.29 100.33 122.2 100.79C123.22 101.24 123.79 101.7 123.79 102.61C123.79 103.52 123.11 104.32 121.74 104.32C121.17 104.32 120.49 104.09 120.26 103.86L120.38 103.63C120.72 103.86 121.29 104.09 121.74 104.09Z" stroke="#707070" stroke-opacity="0" stroke-width="1.000000"/>
	</g>
	<g style="mix-blend-mode:normal">
		<path id="Tracé 714" d="M127.32 104.43C125.73 104.43 124.48 103.18 124.48 101.24C124.48 99.19 125.73 97.83 127.32 97.83C128.92 97.83 130.17 99.08 130.17 101.01C130.17 103.29 128.8 104.43 127.32 104.43ZM127.32 104.09C128.8 104.09 129.72 102.72 129.72 101.13C129.72 99.76 128.92 98.28 127.32 98.28C125.73 98.28 124.93 99.76 124.93 101.24C125.05 102.61 125.84 104.09 127.32 104.09Z" fill="#000000" fill-opacity="1.000000" fill-rule="nonzero"/>
		<path id="Tracé 714" d="M124.48 101.24C124.48 99.19 125.73 97.83 127.32 97.83C128.92 97.83 130.17 99.08 130.17 101.01C130.17 103.29 128.8 104.43 127.32 104.43C125.73 104.43 124.48 103.18 124.48 101.24ZM129.72 101.13C129.72 99.76 128.92 98.28 127.32 98.28C125.73 98.28 124.93 99.76 124.93 101.24C125.05 102.61 125.84 104.09 127.32 104.09C128.8 104.09 129.72 102.72 129.72 101.13Z" stroke="#707070" stroke-opacity="0" stroke-width="1.000000"/>
	</g>
	<g style="mix-blend-mode:normal">
		<path id="Tracé 715" d="M135.64 104.09C135.3 104.2 134.73 104.43 133.93 104.43C132.33 104.43 130.85 103.41 130.85 101.13C130.85 99.19 132.11 97.83 134.16 97.83C134.95 97.83 135.41 98.05 135.64 98.05L135.52 98.4C135.18 98.28 134.73 98.17 134.16 98.17C132.45 98.17 131.42 99.31 131.42 101.13C131.42 102.84 132.45 103.98 134.16 103.98C134.73 103.98 135.18 103.86 135.64 103.63L135.64 104.09Z" fill="#000000" fill-opacity="1.000000" fill-rule="nonzero"/>
		<path id="Tracé 715" d="M133.93 104.43C132.33 104.43 130.85 103.41 130.85 101.13C130.85 99.19 132.11 97.83 134.16 97.83C134.95 97.83 135.41 98.05 135.64 98.05L135.52 98.4C135.18 98.28 134.73 98.17 134.16 98.17C132.45 98.17 131.42 99.31 131.42 101.13C131.42 102.84 132.45 103.98 134.16 103.98C134.73 103.98 135.18 103.86 135.64 103.63L135.64 104.09C135.3 104.2 134.73 104.43 133.93 104.43Z" stroke="#707070" stroke-opacity="0" stroke-width="1.000000"/>
	</g>
	<g style="mix-blend-mode:normal">
		<rect id="Rectangle 116" x="136.780273" y="97.944336" width="0.455556" height="6.377778" fill="#000000" fill-opacity="1.000000"/>
		<rect id="Rectangle 116" x="136.780273" y="97.944336" width="0.455556" height="6.377778" stroke="#707070" stroke-opacity="0" stroke-width="1.000000"/>
	</g>
	<g style="mix-blend-mode:normal">
		<path id="Tracé 716" d="M139.51 102.04L138.71 104.32L138.26 104.32L140.53 97.94L140.99 97.94L143.27 104.32L142.81 104.32L142.02 102.04L139.51 102.04ZM141.9 101.7L141.1 99.53C140.99 99.08 140.88 98.74 140.76 98.4C140.65 98.74 140.53 99.08 140.42 99.53L139.62 101.7L141.9 101.7Z" fill="#000000" fill-opacity="1.000000" fill-rule="nonzero"/>
		<path id="Tracé 716" d="M138.71 104.32L138.26 104.32L140.53 97.94L140.99 97.94L143.27 104.32L142.81 104.32L142.02 102.04L139.51 102.04L138.71 104.32ZM141.1 99.53C140.99 99.08 140.88 98.74 140.76 98.4C140.65 98.74 140.53 99.08 140.42 99.53L139.62 101.7L141.9 101.7L141.1 99.53Z" stroke="#707070" stroke-opacity="0" stroke-width="1.000000"/>
	</g>
	<g style="mix-blend-mode:normal">
		<path id="Tracé 717" d="M144.29 97.94L144.75 97.94L144.75 103.98L147.6 103.98L147.6 104.32L144.29 104.32L144.29 97.94Z" fill="#000000" fill-opacity="1.000000" fill-rule="nonzero"/>
		<path id="Tracé 717" d="M144.75 97.94L144.75 103.98L147.6 103.98L147.6 104.32L144.29 104.32L144.29 97.94L144.75 97.94Z" stroke="#707070" stroke-opacity="0" stroke-width="1.000000"/>
	</g>
	<g style="mix-blend-mode:normal">
		<path id="Tracé 718" d="M151.58 101.13L149.08 101.13L149.08 103.98L151.92 103.98L151.92 104.32L148.62 104.32L148.62 97.94L151.7 97.94L151.7 98.28L149.08 98.28L149.08 100.79L151.58 100.79L151.58 101.13Z" fill="#000000" fill-opacity="1.000000" fill-rule="nonzero"/>
		<path id="Tracé 718" d="M149.08 101.13L149.08 103.98L151.92 103.98L151.92 104.32L148.62 104.32L148.62 97.94L151.7 97.94L151.7 98.28L149.08 98.28L149.08 100.79L151.58 100.79L151.58 101.13L149.08 101.13Z" stroke="#707070" stroke-opacity="0" stroke-width="1.000000"/>
	</g>
	<g style="mix-blend-mode:normal">
		<path id="Tracé 719" d="M158.07 101.13L155.57 101.13L155.57 103.98L158.42 103.98L158.42 104.32L155.11 104.32L155.11 97.94L158.3 97.94L158.3 98.28L155.57 98.28L155.57 100.79L158.07 100.79L158.07 101.13Z" fill="#000000" fill-opacity="1.000000" fill-rule="nonzero"/>
		<path id="Tracé 719" d="M155.57 101.13L155.57 103.98L158.42 103.98L158.42 104.32L155.11 104.32L155.11 97.94L158.3 97.94L158.3 98.28L155.57 98.28L155.57 100.79L158.07 100.79L158.07 101.13L155.57 101.13Z" stroke="#707070" stroke-opacity="0" stroke-width="1.000000"/>
	</g>
	<g style="mix-blend-mode:normal">
		<path id="Tracé 720" d="M160.92 98.28L158.87 98.28L158.87 97.94L163.54 97.94L163.54 98.28L161.38 98.28L161.38 104.32L160.92 104.32L160.92 98.28Z" fill="#000000" fill-opacity="1.000000" fill-rule="nonzero"/>
		<path id="Tracé 720" d="M158.87 98.28L158.87 97.94L163.54 97.94L163.54 98.28L161.38 98.28L161.38 104.32L160.92 104.32L160.92 98.28L158.87 98.28Z" stroke="#707070" stroke-opacity="0" stroke-width="1.000000"/>
	</g>
	<g style="mix-blend-mode:normal">
		<path id="Tracé 721" d="M166.05 103.63C166.39 103.86 166.96 104.09 167.41 104.09C168.32 104.09 169.01 103.52 169.01 102.72C169.01 102.04 168.66 101.58 167.75 101.24C166.73 100.9 166.16 100.33 166.16 99.42C166.16 98.51 166.96 97.83 167.98 97.83C168.55 97.83 169.01 97.94 169.23 98.17L169.12 98.51C168.89 98.39 168.55 98.17 167.98 98.17C166.96 98.17 166.61 98.85 166.61 99.31C166.61 99.99 167.07 100.33 167.98 100.79C169.01 101.24 169.58 101.7 169.58 102.61C169.58 103.52 168.89 104.32 167.53 104.32C166.96 104.32 166.27 104.09 166.05 103.86L166.05 103.63Z" fill="#000000" fill-opacity="1.000000" fill-rule="nonzero"/>
		<path id="Tracé 721" d="M167.41 104.09C168.32 104.09 169.01 103.52 169.01 102.72C169.01 102.04 168.66 101.58 167.75 101.24C166.73 100.9 166.16 100.33 166.16 99.42C166.16 98.51 166.96 97.83 167.98 97.83C168.55 97.83 169.01 97.94 169.23 98.17L169.12 98.51C168.89 98.39 168.55 98.17 167.98 98.17C166.96 98.17 166.61 98.85 166.61 99.31C166.61 99.99 167.07 100.33 167.98 100.79C169.01 101.24 169.58 101.7 169.58 102.61C169.58 103.52 168.89 104.32 167.53 104.32C166.96 104.32 166.27 104.09 166.05 103.86L166.05 103.63C166.39 103.86 166.96 104.09 167.41 104.09Z" stroke="#707070" stroke-opacity="0" stroke-width="1.000000"/>
	</g>
	<g style="mix-blend-mode:normal">
		<path id="Tracé 722" d="M172.99 104.43C171.4 104.43 170.15 103.18 170.15 101.24C170.15 99.19 171.4 97.83 172.99 97.83C174.59 97.83 175.84 99.08 175.84 101.01C175.95 103.29 174.47 104.43 172.99 104.43ZM173.11 104.09C174.59 104.09 175.5 102.72 175.5 101.13C175.5 99.76 174.82 98.28 173.11 98.28C171.51 98.28 170.72 99.76 170.72 101.24C170.72 102.61 171.51 104.09 173.11 104.09Z" fill="#000000" fill-opacity="1.000000" fill-rule="nonzero"/>
		<path id="Tracé 722" d="M170.15 101.24C170.15 99.19 171.4 97.83 172.99 97.83C174.59 97.83 175.84 99.08 175.84 101.01C175.95 103.29 174.47 104.43 172.99 104.43C171.4 104.43 170.15 103.18 170.15 101.24ZM175.5 101.13C175.5 99.76 174.82 98.28 173.11 98.28C171.51 98.28 170.72 99.76 170.72 101.24C170.72 102.61 171.51 104.09 173.11 104.09C174.59 104.09 175.5 102.72 175.5 101.13Z" stroke="#707070" stroke-opacity="0" stroke-width="1.000000"/>
	</g>
	<g style="mix-blend-mode:normal">
		<path id="Tracé 723" d="M177.09 97.94L177.55 97.94L177.55 103.98L180.4 103.98L180.4 104.32L177.09 104.32L177.09 97.94Z" fill="#000000" fill-opacity="1.000000" fill-rule="nonzero"/>
		<path id="Tracé 723" d="M177.55 97.94L177.55 103.98L180.4 103.98L180.4 104.32L177.09 104.32L177.09 97.94L177.55 97.94Z" stroke="#707070" stroke-opacity="0" stroke-width="1.000000"/>
	</g>
	<g style="mix-blend-mode:normal">
		<rect id="Rectangle 117" x="181.311523" y="97.944336" width="0.455556" height="6.377778" fill="#000000" fill-opacity="1.000000"/>
		<rect id="Rectangle 117" x="181.311523" y="97.944336" width="0.455556" height="6.377778" stroke="#707070" stroke-opacity="0" stroke-width="1.000000"/>
	</g>
	<g style="mix-blend-mode:normal">
		<path id="Tracé 724" d="M183.36 98.05C183.81 97.94 184.38 97.94 184.95 97.94C186.09 97.94 187 98.28 187.57 98.85C188.14 99.42 188.37 100.1 188.37 101.13C188.37 102.04 188.14 102.95 187.57 103.52C187 104.09 186.09 104.55 184.84 104.55C184.38 104.55 183.93 104.55 183.36 104.55L183.36 98.05ZM183.81 103.98C184.04 103.98 184.5 103.98 184.84 103.98C186.89 103.98 187.91 102.84 187.91 101.01C187.91 99.42 187 98.28 184.95 98.28C184.5 98.28 184.04 98.28 183.81 98.4L183.81 103.98Z" fill="#000000" fill-opacity="1.000000" fill-rule="nonzero"/>
		<path id="Tracé 724" d="M184.95 97.94C186.09 97.94 187 98.28 187.57 98.85C188.14 99.42 188.37 100.1 188.37 101.13C188.37 102.04 188.14 102.95 187.57 103.52C187 104.09 186.09 104.55 184.84 104.55C184.38 104.55 183.93 104.55 183.36 104.55L183.36 98.05C183.81 97.94 184.38 97.94 184.95 97.94ZM184.84 103.98C186.89 103.98 187.91 102.84 187.91 101.01C187.91 99.42 187 98.28 184.95 98.28C184.5 98.28 184.04 98.28 183.81 98.4L183.81 103.98C184.04 103.98 184.5 103.98 184.84 103.98Z" stroke="#707070" stroke-opacity="0" stroke-width="1.000000"/>
	</g>
	<g style="mix-blend-mode:normal">
		<path id="Tracé 725" d="M190.08 102.04L189.28 104.32L188.82 104.32L191.1 97.94L191.56 97.94L193.83 104.32L193.38 104.32L192.58 102.04L190.08 102.04ZM192.47 101.7L191.67 99.53C191.56 99.08 191.44 98.74 191.33 98.4C191.22 98.74 191.1 99.08 190.99 99.53L190.19 101.7L192.47 101.7Z" fill="#000000" fill-opacity="1.000000" fill-rule="nonzero"/>
		<path id="Tracé 725" d="M189.28 104.32L188.82 104.32L191.1 97.94L191.56 97.94L193.83 104.32L193.38 104.32L192.58 102.04L190.08 102.04L189.28 104.32ZM191.67 99.53C191.56 99.08 191.44 98.74 191.33 98.4C191.22 98.74 191.1 99.08 190.99 99.53L190.19 101.7L192.47 101.7L191.67 99.53Z" stroke="#707070" stroke-opacity="0" stroke-width="1.000000"/>
	</g>
	<g style="mix-blend-mode:normal">
		<rect id="Rectangle 118" x="194.864258" y="97.944336" width="0.455556" height="6.377778" fill="#000000" fill-opacity="1.000000"/>
		<rect id="Rectangle 118" x="194.864258" y="97.944336" width="0.455556" height="6.377778" stroke="#707070" stroke-opacity="0" stroke-width="1.000000"/>
	</g>
	<g style="mix-blend-mode:normal">
		<path id="Tracé 726" d="M196.91 98.05C197.25 97.94 197.82 97.94 198.28 97.94C199.07 97.94 199.64 98.17 199.98 98.51C200.21 98.74 200.44 99.19 200.44 99.65C200.44 100.56 199.87 101.01 199.19 101.36C199.76 101.47 199.98 102.04 200.21 102.72C200.44 103.75 200.55 104.2 200.67 104.43L200.21 104.43C200.1 104.2 199.98 103.63 199.76 102.84C199.53 101.93 199.19 101.47 198.28 101.47L197.25 101.47L197.25 104.43L196.8 104.43L196.8 98.05L196.91 98.05ZM197.36 101.01L198.39 101.01C199.41 101.01 199.98 100.45 199.98 99.65C199.98 98.62 199.3 98.28 198.28 98.28C197.82 98.28 197.48 98.28 197.36 98.39L197.36 101.01Z" fill="#000000" fill-opacity="1.000000" fill-rule="nonzero"/>
		<path id="Tracé 726" d="M198.28 97.94C199.07 97.94 199.64 98.17 199.98 98.51C200.21 98.74 200.44 99.19 200.44 99.65C200.44 100.56 199.87 101.01 199.19 101.36C199.76 101.47 199.98 102.04 200.21 102.72C200.44 103.75 200.55 104.2 200.67 104.43L200.21 104.43C200.1 104.2 199.98 103.63 199.76 102.84C199.53 101.93 199.19 101.47 198.28 101.47L197.25 101.47L197.25 104.43L196.8 104.43L196.8 98.05L196.91 98.05C197.25 97.94 197.82 97.94 198.28 97.94ZM198.39 101.01C199.41 101.01 199.98 100.45 199.98 99.65C199.98 98.62 199.3 98.28 198.28 98.28C197.82 98.28 197.48 98.28 197.36 98.39L197.36 101.01L198.39 101.01Z" stroke="#707070" stroke-opacity="0" stroke-width="1.000000"/>
	</g>
	<g style="mix-blend-mode:normal">
		<path id="Tracé 727" d="M204.77 101.13L202.15 101.13L202.15 103.98L205 103.98L205 104.32L201.69 104.32L201.69 97.94L204.88 97.94L204.88 98.28L202.15 98.28L202.15 100.79L204.77 100.79L204.77 101.13Z" fill="#000000" fill-opacity="1.000000" fill-rule="nonzero"/>
		<path id="Tracé 727" d="M202.15 101.13L202.15 103.98L205 103.98L205 104.32L201.69 104.32L201.69 97.94L204.88 97.94L204.88 98.28L202.15 98.28L202.15 100.79L204.77 100.79L204.77 101.13L202.15 101.13Z" stroke="#707070" stroke-opacity="0" stroke-width="1.000000"/>
	</g>
	<g style="mix-blend-mode:normal">
		<path id="Tracé 728" d="M63.77 108.3L65.25 108.3L65.25 113.43L67.87 113.43L67.87 114.68L63.77 114.68L63.77 108.3Z" fill="#39A8DB" fill-opacity="1.000000" fill-rule="nonzero"/>
		<path id="Tracé 728" d="M65.25 108.3L65.25 113.43L67.87 113.43L67.87 114.68L63.77 114.68L63.77 108.3L65.25 108.3Z" stroke="#707070" stroke-opacity="0" stroke-width="1.000000"/>
	</g>
	<g style="mix-blend-mode:normal">
		<rect id="Rectangle 119" x="68.674805" y="108.308350" width="1.480556" height="6.377778" fill="#39A8DB" fill-opacity="1.000000"/>
		<rect id="Rectangle 119" x="68.674805" y="108.308350" width="1.480556" height="6.377778" stroke="#707070" stroke-opacity="0" stroke-width="1.000000"/>
	</g>
	<g style="mix-blend-mode:normal">
		<path id="Tracé 729" d="M72.88 113.09L72.43 114.68L70.95 114.68L72.88 108.3L74.82 108.3L76.87 114.68L75.28 114.68L74.82 113.09L72.88 113.09ZM74.48 111.95L74.02 110.58C73.91 110.24 73.8 109.67 73.68 109.33C73.57 109.67 73.45 110.24 73.34 110.58L73 111.95L74.48 111.95Z" fill="#39A8DB" fill-opacity="1.000000" fill-rule="nonzero"/>
		<path id="Tracé 729" d="M72.43 114.68L70.95 114.68L72.88 108.3L74.82 108.3L76.87 114.68L75.28 114.68L74.82 113.09L72.88 113.09L72.43 114.68ZM74.02 110.58C73.91 110.24 73.8 109.67 73.68 109.33C73.57 109.67 73.45 110.24 73.34 110.58L73 111.95L74.48 111.95L74.02 110.58Z" stroke="#707070" stroke-opacity="0" stroke-width="1.000000"/>
	</g>
	<g style="mix-blend-mode:normal">
		<rect id="Rectangle 120" x="77.671875" y="108.308350" width="1.480556" height="6.377778" fill="#39A8DB" fill-opacity="1.000000"/>
		<rect id="Rectangle 120" x="77.671875" y="108.308350" width="1.480556" height="6.377778" stroke="#707070" stroke-opacity="0" stroke-width="1.000000"/>
	</g>
	<g style="mix-blend-mode:normal">
		<path id="Tracé 730" d="M80.4 113.2C80.74 113.43 81.43 113.66 82 113.66C82.68 113.66 83.02 113.43 83.02 112.97C83.02 112.52 82.68 112.29 82 112.06C80.97 111.72 80.17 111.04 80.17 110.13C80.17 108.99 81.08 108.19 82.56 108.19C83.25 108.19 83.82 108.3 84.16 108.53L83.82 109.67C83.59 109.56 83.13 109.33 82.45 109.33C81.77 109.33 81.54 109.67 81.54 109.9C81.54 110.35 81.88 110.47 82.68 110.81C83.82 111.26 84.39 111.83 84.39 112.75C84.39 113.77 83.59 114.68 81.77 114.68C81.08 114.68 80.29 114.45 79.95 114.23L80.4 113.2Z" fill="#39A8DB" fill-opacity="1.000000" fill-rule="nonzero"/>
		<path id="Tracé 730" d="M82 113.66C82.68 113.66 83.02 113.43 83.02 112.97C83.02 112.52 82.68 112.29 82 112.06C80.97 111.72 80.17 111.04 80.17 110.13C80.17 108.99 81.08 108.19 82.56 108.19C83.25 108.19 83.82 108.3 84.16 108.53L83.82 109.67C83.59 109.56 83.13 109.33 82.45 109.33C81.77 109.33 81.54 109.67 81.54 109.9C81.54 110.35 81.88 110.47 82.68 110.81C83.82 111.26 84.39 111.83 84.39 112.75C84.39 113.77 83.59 114.68 81.77 114.68C81.08 114.68 80.29 114.45 79.95 114.23L80.4 113.2C80.74 113.43 81.43 113.66 82 113.66Z" stroke="#707070" stroke-opacity="0" stroke-width="1.000000"/>
	</g>
	<g style="mix-blend-mode:normal">
		<path id="Tracé 731" d="M88.26 114.8C86.32 114.8 85.3 113.31 85.3 111.49C85.3 109.56 86.55 108.19 88.37 108.19C90.31 108.19 91.45 109.67 91.45 111.38C91.33 113.54 90.08 114.8 88.26 114.8ZM88.26 113.66C89.28 113.66 89.85 112.75 89.85 111.49C89.85 110.35 89.28 109.33 88.26 109.33C87.23 109.33 86.66 110.24 86.66 111.49C86.66 112.75 87.35 113.66 88.26 113.66Z" fill="#39A8DB" fill-opacity="1.000000" fill-rule="nonzero"/>
		<path id="Tracé 731" d="M85.3 111.49C85.3 109.56 86.55 108.19 88.37 108.19C90.31 108.19 91.45 109.67 91.45 111.38C91.33 113.54 90.08 114.8 88.26 114.8C86.32 114.8 85.3 113.31 85.3 111.49ZM89.85 111.49C89.85 110.35 89.28 109.33 88.26 109.33C87.23 109.33 86.66 110.24 86.66 111.49C86.66 112.75 87.35 113.66 88.26 113.66C89.28 113.66 89.85 112.75 89.85 111.49Z" stroke="#707070" stroke-opacity="0" stroke-width="1.000000"/>
	</g>
	<g style="mix-blend-mode:normal">
		<path id="Tracé 732" d="M92.36 114.68L92.36 108.3L94.07 108.3L95.43 110.7C95.78 111.38 96.23 112.18 96.46 112.86C96.35 112.06 96.35 111.15 96.35 110.13L96.35 108.3L97.71 108.3L97.71 114.68L96.23 114.68L94.87 112.18C94.52 111.49 94.07 110.7 93.73 109.9C93.73 110.81 93.84 111.61 93.84 112.75L93.84 114.68L92.36 114.68Z" fill="#39A8DB" fill-opacity="1.000000" fill-rule="nonzero"/>
		<path id="Tracé 732" d="M92.36 108.3L94.07 108.3L95.43 110.7C95.78 111.38 96.23 112.18 96.46 112.86C96.35 112.06 96.35 111.15 96.35 110.13L96.35 108.3L97.71 108.3L97.71 114.68L96.23 114.68L94.87 112.18C94.52 111.49 94.07 110.7 93.73 109.9C93.73 110.81 93.84 111.61 93.84 112.75L93.84 114.68L92.36 114.68L92.36 108.3Z" stroke="#707070" stroke-opacity="0" stroke-width="1.000000"/>
	</g>
	<g style="mix-blend-mode:normal">
		<path id="Tracé 733" d="M104.66 111.95L102.27 111.95L102.27 113.54L104.89 113.54L104.89 114.68L100.79 114.68L100.79 108.3L104.77 108.3L104.77 109.44L102.27 109.44L102.27 110.81L104.66 110.81L104.66 111.95Z" fill="#39A8DB" fill-opacity="1.000000" fill-rule="nonzero"/>
		<path id="Tracé 733" d="M102.27 111.95L102.27 113.54L104.89 113.54L104.89 114.68L100.79 114.68L100.79 108.3L104.77 108.3L104.77 109.44L102.27 109.44L102.27 110.81L104.66 110.81L104.66 111.95L102.27 111.95Z" stroke="#707070" stroke-opacity="0" stroke-width="1.000000"/>
	</g>
	<g style="mix-blend-mode:normal">
		<path id="Tracé 734" d="M107.16 109.44L105.46 109.44L105.46 108.3L110.35 108.3L110.35 109.44L108.64 109.44L108.64 114.68L107.16 114.68L107.16 109.44Z" fill="#39A8DB" fill-opacity="1.000000" fill-rule="nonzero"/>
		<path id="Tracé 734" d="M105.46 109.44L105.46 108.3L110.35 108.3L110.35 109.44L108.64 109.44L108.64 114.68L107.16 114.68L107.16 109.44L105.46 109.44Z" stroke="#707070" stroke-opacity="0" stroke-width="1.000000"/>
	</g>
	<g style="mix-blend-mode:normal">
		<path id="Tracé 735" d="M113.88 109.44L112.18 109.44L112.18 108.3L117.07 108.3L117.07 109.44L115.36 109.44L115.36 114.68L113.88 114.68L113.88 109.44Z" fill="#39A8DB" fill-opacity="1.000000" fill-rule="nonzero"/>
		<path id="Tracé 735" d="M112.18 109.44L112.18 108.3L117.07 108.3L117.07 109.44L115.36 109.44L115.36 114.68L113.88 114.68L113.88 109.44L112.18 109.44Z" stroke="#707070" stroke-opacity="0" stroke-width="1.000000"/>
	</g>
	<g style="mix-blend-mode:normal">
		<path id="Tracé 736" d="M117.87 108.42C118.33 108.3 119.01 108.3 119.81 108.3C120.72 108.3 121.4 108.42 121.86 108.76C122.2 109.1 122.43 109.56 122.43 110.13C122.43 110.92 121.86 111.49 121.29 111.72C121.74 111.95 121.97 112.29 122.2 112.86C122.43 113.54 122.54 114.45 122.77 114.68L121.29 114.68C121.17 114.45 121.06 114 120.83 113.2C120.6 112.4 120.38 112.18 119.81 112.18L119.35 112.18L119.35 114.68L117.87 114.68L117.87 108.42ZM119.35 111.15L119.92 111.15C120.6 111.15 121.06 110.81 121.06 110.24C121.06 109.67 120.6 109.33 120.03 109.33C119.69 109.33 119.47 109.33 119.35 109.33L119.35 111.15Z" fill="#39A8DB" fill-opacity="1.000000" fill-rule="nonzero"/>
		<path id="Tracé 736" d="M119.81 108.3C120.72 108.3 121.4 108.42 121.86 108.76C122.2 109.1 122.43 109.56 122.43 110.13C122.43 110.92 121.86 111.49 121.29 111.72C121.74 111.95 121.97 112.29 122.2 112.86C122.43 113.54 122.54 114.45 122.77 114.68L121.29 114.68C121.17 114.45 121.06 114 120.83 113.2C120.6 112.4 120.38 112.18 119.81 112.18L119.35 112.18L119.35 114.68L117.87 114.68L117.87 108.42C118.33 108.3 119.01 108.3 119.81 108.3ZM119.92 111.15C120.6 111.15 121.06 110.81 121.06 110.24C121.06 109.67 120.6 109.33 120.03 109.33C119.69 109.33 119.47 109.33 119.35 109.33L119.35 111.15L119.92 111.15Z" stroke="#707070" stroke-opacity="0" stroke-width="1.000000"/>
	</g>
	<g style="mix-blend-mode:normal">
		<path id="Tracé 737" d="M125.16 113.09L124.7 114.68L123.22 114.68L125.16 108.3L127.1 108.3L129.14 114.68L127.55 114.68L127.1 113.09L125.16 113.09ZM126.75 111.95L126.3 110.58C126.18 110.24 126.07 109.67 125.96 109.33C125.84 109.67 125.73 110.24 125.61 110.58L125.27 111.95L126.75 111.95Z" fill="#39A8DB" fill-opacity="1.000000" fill-rule="nonzero"/>
		<path id="Tracé 737" d="M124.7 114.68L123.22 114.68L125.16 108.3L127.1 108.3L129.14 114.68L127.55 114.68L127.1 113.09L125.16 113.09L124.7 114.68ZM126.3 110.58C126.18 110.24 126.07 109.67 125.96 109.33C125.84 109.67 125.73 110.24 125.61 110.58L125.27 111.95L126.75 111.95L126.3 110.58Z" stroke="#707070" stroke-opacity="0" stroke-width="1.000000"/>
	</g>
	<g style="mix-blend-mode:normal">
		<path id="Tracé 738" d="M129.83 114.68L129.83 108.3L131.54 108.3L132.9 110.7C133.25 111.38 133.7 112.18 133.93 112.86C133.81 112.06 133.81 111.15 133.81 110.13L133.81 108.3L135.18 108.3L135.18 114.68L133.7 114.68L132.33 112.18C131.99 111.49 131.54 110.7 131.19 109.9C131.19 110.81 131.31 111.61 131.31 112.75L131.31 114.68L129.83 114.68Z" fill="#39A8DB" fill-opacity="1.000000" fill-rule="nonzero"/>
		<path id="Tracé 738" d="M129.83 108.3L131.54 108.3L132.9 110.7C133.25 111.38 133.7 112.18 133.93 112.86C133.81 112.06 133.81 111.15 133.81 110.13L133.81 108.3L135.18 108.3L135.18 114.68L133.7 114.68L132.33 112.18C131.99 111.49 131.54 110.7 131.19 109.9C131.19 110.81 131.31 111.61 131.31 112.75L131.31 114.68L129.83 114.68L129.83 108.3Z" stroke="#707070" stroke-opacity="0" stroke-width="1.000000"/>
	</g>
	<g style="mix-blend-mode:normal">
		<path id="Tracé 739" d="M136.43 113.2C136.78 113.43 137.46 113.66 138.03 113.66C138.71 113.66 139.05 113.43 139.05 112.97C139.05 112.52 138.71 112.29 138.03 112.06C137 111.72 136.21 111.04 136.21 110.13C136.21 108.99 137.12 108.19 138.6 108.19C139.28 108.19 139.85 108.3 140.19 108.53L139.85 109.67C139.62 109.56 139.17 109.33 138.48 109.33C137.8 109.33 137.57 109.67 137.57 109.9C137.57 110.35 137.92 110.47 138.71 110.81C139.85 111.26 140.42 111.83 140.42 112.75C140.42 113.77 139.62 114.68 137.8 114.68C137.12 114.68 136.32 114.45 135.98 114.23L136.43 113.2Z" fill="#39A8DB" fill-opacity="1.000000" fill-rule="nonzero"/>
		<path id="Tracé 739" d="M138.03 113.66C138.71 113.66 139.05 113.43 139.05 112.97C139.05 112.52 138.71 112.29 138.03 112.06C137 111.72 136.21 111.04 136.21 110.13C136.21 108.99 137.12 108.19 138.6 108.19C139.28 108.19 139.85 108.3 140.19 108.53L139.85 109.67C139.62 109.56 139.17 109.33 138.48 109.33C137.8 109.33 137.57 109.67 137.57 109.9C137.57 110.35 137.92 110.47 138.71 110.81C139.85 111.26 140.42 111.83 140.42 112.75C140.42 113.77 139.62 114.68 137.8 114.68C137.12 114.68 136.32 114.45 135.98 114.23L136.43 113.2C136.78 113.43 137.46 113.66 138.03 113.66Z" stroke="#707070" stroke-opacity="0" stroke-width="1.000000"/>
	</g>
	<g style="mix-blend-mode:normal">
		<path id="Tracé 740" d="M141.56 108.3L145.43 108.3L145.43 109.44L143.04 109.44L143.04 110.92L145.32 110.92L145.32 112.06L143.04 112.06L143.04 114.68L141.56 114.68L141.56 108.3Z" fill="#39A8DB" fill-opacity="1.000000" fill-rule="nonzero"/>
		<path id="Tracé 740" d="M145.43 108.3L145.43 109.44L143.04 109.44L143.04 110.92L145.32 110.92L145.32 112.06L143.04 112.06L143.04 114.68L141.56 114.68L141.56 108.3L145.43 108.3Z" stroke="#707070" stroke-opacity="0" stroke-width="1.000000"/>
	</g>
	<g style="mix-blend-mode:normal">
		<path id="Tracé 741" d="M150.44 111.95L148.05 111.95L148.05 113.54L150.67 113.54L150.67 114.68L146.57 114.68L146.57 108.3L150.56 108.3L150.56 109.44L148.05 109.44L148.05 110.81L150.44 110.81L150.44 111.95Z" fill="#39A8DB" fill-opacity="1.000000" fill-rule="nonzero"/>
		<path id="Tracé 741" d="M148.05 111.95L148.05 113.54L150.67 113.54L150.67 114.68L146.57 114.68L146.57 108.3L150.56 108.3L150.56 109.44L148.05 109.44L148.05 110.81L150.44 110.81L150.44 111.95L148.05 111.95Z" stroke="#707070" stroke-opacity="0" stroke-width="1.000000"/>
	</g>
	<g style="mix-blend-mode:normal">
		<path id="Tracé 742" d="M151.7 108.42C152.15 108.3 152.83 108.3 153.63 108.3C154.54 108.3 155.23 108.42 155.68 108.76C156.02 109.1 156.25 109.56 156.25 110.13C156.25 110.92 155.68 111.49 155.11 111.72C155.57 111.95 155.8 112.29 156.02 112.86C156.25 113.54 156.36 114.45 156.59 114.68L155.11 114.68C155 114.45 154.88 114 154.66 113.2C154.43 112.4 154.2 112.18 153.63 112.18L153.18 112.18L153.18 114.68L151.7 114.68L151.7 108.42ZM153.06 111.15L153.63 111.15C154.31 111.15 154.77 110.81 154.77 110.24C154.77 109.67 154.31 109.33 153.75 109.33C153.4 109.33 153.18 109.33 153.06 109.33L153.06 111.15Z" fill="#39A8DB" fill-opacity="1.000000" fill-rule="nonzero"/>
		<path id="Tracé 742" d="M153.63 108.3C154.54 108.3 155.23 108.42 155.68 108.76C156.02 109.1 156.25 109.56 156.25 110.13C156.25 110.92 155.68 111.49 155.11 111.72C155.57 111.95 155.8 112.29 156.02 112.86C156.25 113.54 156.36 114.45 156.59 114.68L155.11 114.68C155 114.45 154.88 114 154.66 113.2C154.43 112.4 154.2 112.18 153.63 112.18L153.18 112.18L153.18 114.68L151.7 114.68L151.7 108.42C152.15 108.3 152.83 108.3 153.63 108.3ZM153.63 111.15C154.31 111.15 154.77 110.81 154.77 110.24C154.77 109.67 154.31 109.33 153.75 109.33C153.4 109.33 153.18 109.33 153.06 109.33L153.06 111.15L153.63 111.15Z" stroke="#707070" stroke-opacity="0" stroke-width="1.000000"/>
	</g>
	<g style="mix-blend-mode:normal">
		<path id="Tracé 743" d="M158.53 109.44L156.82 109.44L156.82 108.3L161.72 108.3L161.72 109.44L160.01 109.44L160.01 114.68L158.53 114.68L158.53 109.44Z" fill="#39A8DB" fill-opacity="1.000000" fill-rule="nonzero"/>
		<path id="Tracé 743" d="M156.82 109.44L156.82 108.3L161.72 108.3L161.72 109.44L160.01 109.44L160.01 114.68L158.53 114.68L158.53 109.44L156.82 109.44Z" stroke="#707070" stroke-opacity="0" stroke-width="1.000000"/>
	</g>
	<g style="mix-blend-mode:normal">
		<path id="Tracé 744" d="M26.42 61.27C25.85 58.76 25.51 56.26 25.51 53.64C25.51 46.01 28.12 39.06 32.34 33.36C32.11 32.34 31.77 31.31 31.43 30.4C30.86 28.58 30.06 26.76 29.15 25.16C21.98 32.57 17.65 42.59 17.65 53.64C17.65 58.53 18.56 63.2 20.04 67.53C21.41 66.51 22.54 65.48 23.8 64.23C24.71 63.32 25.62 62.29 26.42 61.27Z" fill="#61C4EB" fill-opacity="1.000000" fill-rule="nonzero"/>
		<path id="Tracé 744" d="M25.51 53.64C25.51 46.01 28.12 39.06 32.34 33.36C32.11 32.34 31.77 31.31 31.43 30.4C30.86 28.58 30.06 26.76 29.15 25.16C21.98 32.57 17.65 42.59 17.65 53.64C17.65 58.53 18.56 63.2 20.04 67.53C21.41 66.51 22.54 65.48 23.8 64.23C24.71 63.32 25.62 62.29 26.42 61.27C25.85 58.76 25.51 56.26 25.51 53.64Z" stroke="#707070" stroke-opacity="0" stroke-width="1.000000"/>
	</g>
	<g style="mix-blend-mode:normal">
		<path id="Tracé 745" d="M27.44 71.63C26.19 72.77 24.94 73.8 23.57 74.71C23.91 75.28 24.25 75.73 24.6 76.3C32 87.35 44.53 94.64 58.88 94.64L58.88 86.78C47.15 86.78 36.9 80.74 30.97 71.63C30.52 70.95 30.06 70.26 29.72 69.47C28.92 70.26 28.24 70.95 27.44 71.63Z" fill="#61C4EB" fill-opacity="1.000000" fill-rule="nonzero"/>
		<path id="Tracé 745" d="M23.57 74.71C23.91 75.28 24.25 75.73 24.6 76.3C32 87.35 44.53 94.64 58.88 94.64L58.88 86.78C47.15 86.78 36.9 80.74 30.97 71.63C30.52 70.95 30.06 70.26 29.72 69.47C28.92 70.26 28.24 70.95 27.44 71.63C26.19 72.77 24.94 73.8 23.57 74.71Z" stroke="#707070" stroke-opacity="0" stroke-width="1.000000"/>
	</g>
	<g style="mix-blend-mode:normal">
		<path id="Tracé 746" d="M37.69 18.33C36.9 18.79 36.1 19.36 35.3 19.93C36.33 21.63 37.24 23.34 38.03 25.28C38.26 25.85 38.49 26.53 38.72 27.21C39.63 26.53 40.54 25.96 41.45 25.28C46.46 22.2 52.5 20.38 58.76 20.38L58.76 12.52C51.13 12.52 43.84 14.69 37.69 18.33Z" fill="#61C4EB" fill-opacity="1.000000" fill-rule="nonzero"/>
		<path id="Tracé 746" d="M35.3 19.93C36.33 21.63 37.24 23.34 38.03 25.28C38.26 25.85 38.49 26.53 38.72 27.21C39.63 26.53 40.54 25.96 41.45 25.28C46.46 22.2 52.5 20.38 58.76 20.38L58.76 12.52C51.13 12.52 43.84 14.69 37.69 18.33C36.9 18.79 36.1 19.36 35.3 19.93Z" stroke="#707070" stroke-opacity="0" stroke-width="1.000000"/>
	</g>
	<g style="mix-blend-mode:normal">
		<path id="Tracé 747" d="M31.43 23C32.68 21.86 33.93 20.84 35.3 19.93C34.96 19.36 34.62 18.9 34.28 18.33C26.87 7.28 14.34 0 0 0L0 7.85C11.73 7.85 21.98 13.89 27.9 23C28.35 23.68 28.81 24.37 29.15 25.16C29.95 24.37 30.63 23.68 31.43 23Z" fill="#0881C1" fill-opacity="1.000000" fill-rule="nonzero"/>
		<path id="Tracé 747" d="M35.3 19.93C34.96 19.36 34.62 18.9 34.28 18.33C26.87 7.28 14.34 0 0 0L0 7.85C11.73 7.85 21.98 13.89 27.9 23C28.35 23.68 28.81 24.37 29.15 25.16C29.95 24.37 30.63 23.68 31.43 23C32.68 21.86 33.93 20.84 35.3 19.93Z" stroke="#707070" stroke-opacity="0" stroke-width="1.000000"/>
	</g>
	<g style="mix-blend-mode:normal">
		<path id="Tracé 748" d="M20.15 67.53C19.24 68.21 18.33 68.78 17.42 69.47C12.41 72.54 6.37 74.36 0 74.36L0 82.22C7.74 82.22 14.91 80.06 21.06 76.41C21.86 75.96 22.66 75.39 23.46 74.82C22.43 73.11 21.52 71.4 20.72 69.47C20.61 68.78 20.38 68.21 20.15 67.53Z" fill="#0881C1" fill-opacity="1.000000" fill-rule="nonzero"/>
		<path id="Tracé 748" d="M17.42 69.47C12.41 72.54 6.37 74.36 0 74.36L0 82.22C7.74 82.22 14.91 80.06 21.06 76.41C21.86 75.96 22.66 75.39 23.46 74.82C22.43 73.11 21.52 71.4 20.72 69.47C20.61 68.78 20.38 68.21 20.15 67.53C19.24 68.21 18.33 68.78 17.42 69.47Z" stroke="#707070" stroke-opacity="0" stroke-width="1.000000"/>
	</g>
	<g style="mix-blend-mode:normal">
		<path id="Tracé 749" d="M32.45 33.36C33.02 35.87 33.36 38.38 33.36 41C33.36 48.63 30.75 55.57 26.53 61.27C26.76 62.29 27.1 63.32 27.44 64.23C28.01 66.05 28.81 67.87 29.72 69.47C36.9 62.06 41.22 52.04 41.22 41C41.22 36.1 40.31 31.43 38.83 27.1C37.46 28.13 36.33 29.15 35.07 30.4C34.05 31.31 33.25 32.34 32.45 33.36Z" fill="#0881C1" fill-opacity="1.000000" fill-rule="nonzero"/>
		<path id="Tracé 749" d="M33.36 41C33.36 48.63 30.75 55.57 26.53 61.27C26.76 62.29 27.1 63.32 27.44 64.23C28.01 66.05 28.81 67.87 29.72 69.47C36.9 62.06 41.22 52.04 41.22 41C41.22 36.1 40.31 31.43 38.83 27.1C37.46 28.13 36.33 29.15 35.07 30.4C34.05 31.31 33.25 32.34 32.45 33.36C33.02 35.87 33.36 38.38 33.36 41Z" stroke="#707070" stroke-opacity="0" stroke-width="1.000000"/>
	</g>
	<g style="mix-blend-mode:normal">
		<path id="Tracé 750" d="M26.42 61.27C25.62 62.29 24.71 63.32 23.8 64.23C22.66 65.37 21.41 66.51 20.04 67.53C20.27 68.21 20.49 68.78 20.72 69.47C21.52 71.29 22.43 73.11 23.46 74.82C24.82 73.91 26.08 72.88 27.33 71.75C28.12 71.06 28.81 70.38 29.49 69.58C28.58 67.87 27.78 66.16 27.21 64.34C26.99 63.32 26.64 62.29 26.42 61.27Z" fill="#0661A2" fill-opacity="1.000000" fill-rule="nonzero"/>
		<path id="Tracé 750" d="M23.8 64.23C22.66 65.37 21.41 66.51 20.04 67.53C20.27 68.21 20.49 68.78 20.72 69.47C21.52 71.29 22.43 73.11 23.46 74.82C24.82 73.91 26.08 72.88 27.33 71.75C28.12 71.06 28.81 70.38 29.49 69.58C28.58 67.87 27.78 66.16 27.21 64.34C26.99 63.32 26.64 62.29 26.42 61.27C25.62 62.29 24.71 63.32 23.8 64.23Z" stroke="#707070" stroke-opacity="0" stroke-width="1.000000"/>
	</g>
	<g style="mix-blend-mode:normal">
		<path id="Tracé 751" d="M35.3 19.93C33.93 20.84 32.68 21.86 31.43 23C30.63 23.68 29.95 24.37 29.26 25.16C30.18 26.87 30.97 28.58 31.54 30.4C31.88 31.43 32.11 32.34 32.45 33.36C33.25 32.34 34.16 31.31 35.07 30.4C36.21 29.26 37.46 28.13 38.83 27.1C38.6 26.42 38.38 25.85 38.15 25.16C37.24 23.34 36.33 21.63 35.3 19.93Z" fill="#0661A2" fill-opacity="1.000000" fill-rule="nonzero"/>
		<path id="Tracé 751" d="M31.43 23C30.63 23.68 29.95 24.37 29.26 25.16C30.18 26.87 30.97 28.58 31.54 30.4C31.88 31.43 32.11 32.34 32.45 33.36C33.25 32.34 34.16 31.31 35.07 30.4C36.21 29.26 37.46 28.13 38.83 27.1C38.6 26.42 38.38 25.85 38.15 25.16C37.24 23.34 36.33 21.63 35.3 19.93C33.93 20.84 32.68 21.86 31.43 23Z" stroke="#707070" stroke-opacity="0" stroke-width="1.000000"/>
	</g>
	<g style="mix-blend-mode:normal">
		<path id="Tracé 752" d="M92.93 33.25C92.93 36.33 90.42 38.95 87.23 38.95C84.16 38.95 81.54 36.44 81.54 33.25C81.54 30.18 84.05 27.56 87.23 27.56C90.42 27.56 92.93 30.06 92.93 33.25Z" fill="#59585A" fill-opacity="1.000000" fill-rule="nonzero"/>
		<path id="Tracé 752" d="M87.23 38.95C84.16 38.95 81.54 36.44 81.54 33.25C81.54 30.18 84.05 27.56 87.23 27.56C90.42 27.56 92.93 30.06 92.93 33.25C92.93 36.33 90.42 38.95 87.23 38.95Z" stroke="#707070" stroke-opacity="0" stroke-width="1.000000"/>
	</g>
	<g style="mix-blend-mode:normal">
		<path id="Tracé 753" d="M92.25 80.97L92.25 45.89C92.25 42.13 90.65 40.54 86.89 40.54L68.56 40.54L68.56 29.49L58.76 29.49L58.76 40.54L53.29 40.54L53.29 48.51L58.53 48.51L58.53 66.05C58.53 79.6 69.7 81.31 75.39 81.31C77.21 81.31 78.46 81.08 78.46 81.08L78.46 72.31C78.46 72.31 77.78 72.43 76.64 72.43C73.91 72.43 68.67 71.52 68.67 64.8L68.67 49.08L80.74 49.08C81.88 49.08 82.45 49.65 82.45 50.79L82.45 80.86L92.25 80.86L92.25 80.97Z" fill="#59585A" fill-opacity="1.000000" fill-rule="nonzero"/>
		<path id="Tracé 753" d="M92.25 45.89C92.25 42.13 90.65 40.54 86.89 40.54L68.56 40.54L68.56 29.49L58.76 29.49L58.76 40.54L53.29 40.54L53.29 48.51L58.53 48.51L58.53 66.05C58.53 79.6 69.7 81.31 75.39 81.31C77.21 81.31 78.46 81.08 78.46 81.08L78.46 72.31C78.46 72.31 77.78 72.43 76.64 72.43C73.91 72.43 68.67 71.52 68.67 64.8L68.67 49.08L80.74 49.08C81.88 49.08 82.45 49.65 82.45 50.79L82.45 80.86L92.25 80.86L92.25 80.97L92.25 45.89Z" stroke="#707070" stroke-opacity="0" stroke-width="1.000000"/>
	</g>
	<g style="mix-blend-mode:normal">
		<path id="Tracé 754" d="M137.23 50.79C137.23 48.4 139.74 47.14 143.27 47.14C145.55 47.14 148.39 48.06 148.39 49.99L148.39 52.04L157.39 52.04L157.39 47.83C157.39 41.22 148.62 39.4 143.04 39.4C134.61 39.4 127.21 43.16 127.21 51.36C127.21 64.57 148.73 64.46 148.73 70.26C148.73 73 146.34 74.25 143.27 74.25C139.74 74.25 135.64 71.63 133.47 70.04L129.14 77.1C131.99 79.03 137.35 82.11 143.38 82.11C152.27 82.11 159.1 77.33 159.1 69.58C158.87 55.91 137.23 57.17 137.23 50.79Z" fill="#59585A" fill-opacity="1.000000" fill-rule="nonzero"/>
		<path id="Tracé 754" d="M143.27 47.14C145.55 47.14 148.39 48.06 148.39 49.99L148.39 52.04L157.39 52.04L157.39 47.83C157.39 41.22 148.62 39.4 143.04 39.4C134.61 39.4 127.21 43.16 127.21 51.36C127.21 64.57 148.73 64.46 148.73 70.26C148.73 73 146.34 74.25 143.27 74.25C139.74 74.25 135.64 71.63 133.47 70.04L129.14 77.1C131.99 79.03 137.35 82.11 143.38 82.11C152.27 82.11 159.1 77.33 159.1 69.58C158.87 55.91 137.23 57.17 137.23 50.79C137.23 48.4 139.74 47.14 143.27 47.14Z" stroke="#707070" stroke-opacity="0" stroke-width="1.000000"/>
	</g>
	<g style="mix-blend-mode:normal">
		<path id="Tracé 755" d="M164.34 50.79C164.34 48.4 166.84 47.14 170.37 47.14C172.65 47.14 175.5 48.06 175.5 49.99L175.5 52.04L184.5 52.04L184.5 47.83C184.5 41.22 175.73 39.4 170.14 39.4C161.72 39.4 154.31 43.16 154.31 51.36C154.31 64.57 175.84 64.46 175.84 70.26C175.84 73 173.45 74.14 170.37 74.25C165.25 74.36 162.4 72.66 160.24 71.18C160.01 73.79 158.98 76.19 157.28 78.24C160.12 80.17 163.08 82.11 170.37 82.22C179.26 82.34 186.09 77.44 186.09 69.69C185.98 55.91 164.34 57.17 164.34 50.79Z" fill="#59585A" fill-opacity="1.000000" fill-rule="nonzero"/>
		<path id="Tracé 755" d="M170.37 47.14C172.65 47.14 175.5 48.06 175.5 49.99L175.5 52.04L184.5 52.04L184.5 47.83C184.5 41.22 175.73 39.4 170.14 39.4C161.72 39.4 154.31 43.16 154.31 51.36C154.31 64.57 175.84 64.46 175.84 70.26C175.84 73 173.45 74.14 170.37 74.25C165.25 74.36 162.4 72.66 160.24 71.18C160.01 73.79 158.98 76.19 157.28 78.24C160.12 80.17 163.08 82.11 170.37 82.22C179.26 82.34 186.09 77.44 186.09 69.69C185.98 55.91 164.34 57.17 164.34 50.79C164.34 48.4 166.84 47.14 170.37 47.14Z" stroke="#707070" stroke-opacity="0" stroke-width="1.000000"/>
	</g>
	<g style="mix-blend-mode:normal">
		<path id="Tracé 756" d="M123.45 69.81C121.4 71.06 117.42 73.34 114.34 73.34C108.19 73.34 102.95 69.58 102.15 62.41L130.28 62.41C130.28 62.41 130.51 59.9 130.51 58.65C130.51 47.83 124.13 39.29 112.4 39.29C100.22 39.29 91.68 48.06 91.68 60.58C91.68 72.2 100.1 81.88 113.54 81.88C119.35 81.88 124.93 78.69 127.67 76.76L123.45 69.81ZM112.52 47.15C116.73 47.15 120.03 50.45 120.15 55.35L102.5 55.35C103.63 50.22 107.28 47.15 112.52 47.15Z" fill="#59585A" fill-opacity="1.000000" fill-rule="nonzero"/>
		<path id="Tracé 756" d="M114.34 73.34C108.19 73.34 102.95 69.58 102.15 62.41L130.28 62.41C130.28 62.41 130.51 59.9 130.51 58.65C130.51 47.83 124.13 39.29 112.4 39.29C100.22 39.29 91.68 48.06 91.68 60.58C91.68 72.2 100.1 81.88 113.54 81.88C119.35 81.88 124.93 78.69 127.67 76.76L123.45 69.81C121.4 71.06 117.42 73.34 114.34 73.34ZM120.15 55.35L102.5 55.35C103.63 50.22 107.28 47.15 112.52 47.15C116.73 47.15 120.03 50.45 120.15 55.35Z" stroke="#707070" stroke-opacity="0" stroke-width="1.000000"/>
	</g>
</svg>
