<svg xmlns="http://www.w3.org/2000/svg" width="283.617" height="264.236" viewBox="0 0 283.617 264.236">
  <g id="UdeS" transform="translate(-103.6 -207.8)">
    <g id="Group_60" data-name="Group 60" transform="translate(103.6 207.8)">
      <g id="Group_59" data-name="Group 59">
        <rect id="Rectangle_50" data-name="Rectangle 50" width="283.617" height="264.236" fill="none"/>
      </g>
    </g>
    <g id="Group_63" data-name="Group 63" transform="translate(145.17 369.305)">
      <g id="Group_62" data-name="Group 62" transform="translate(0 0)">
        <path id="Path_456" data-name="Path 456" d="M167.364,463.94c-1.545-1.755-2.247-4.424-2.247-8.145V443.507l-2.317-.421V441.4h8.707v1.685l-2.809.421v12.569c0,3.019.562,5.2,1.615,6.53a5.525,5.525,0,0,0,4.564,2.036,5.043,5.043,0,0,0,4.424-2.107,10.856,10.856,0,0,0,1.475-6.179v-12.78l-2.739-.421V441.47h7.584v1.685l-2.387.421v12.639c0,3.441-.772,6.039-2.387,7.794a8.508,8.508,0,0,1-6.46,2.6C171.226,466.539,168.909,465.7,167.364,463.94Z" transform="translate(-162.8 -438.872)" fill="#231f20"/>
        <path id="Path_457" data-name="Path 457" d="M198.187,452.79l-2.387-.632v-1.826l4.775-.632h.07l.7.632v2.177a12.92,12.92,0,0,1,3.16-1.966,9.785,9.785,0,0,1,3.792-.843,5.927,5.927,0,0,1,3.23.772,4.133,4.133,0,0,1,1.615,2.458,18.349,18.349,0,0,1,.492,4.424v9.339l2.317.211v1.685h-7.935v-1.615l2.036-.281v-9.409a12.149,12.149,0,0,0-.281-3.09,2.856,2.856,0,0,0-.983-1.685,3.582,3.582,0,0,0-2.107-.562,6.378,6.378,0,0,0-2.6.632,11.825,11.825,0,0,0-2.458,1.4v12.639l2.247.281v1.615h-7.865V466.9l2.107-.281V452.79Z" transform="translate(-172.628 -441.344)" fill="#231f20"/>
        <path id="Path_458" data-name="Path 458" d="M230.168,449.663l-2.528-.632v-1.755l5.2-.632h.07l.772.632v16.431l2.668.281V465.6H227.5v-1.615l2.739-.281V449.663Zm-.281-6.46a2.313,2.313,0,0,1-.562-1.545,2.448,2.448,0,0,1,.632-1.755,2.229,2.229,0,0,1,1.755-.7,2.074,2.074,0,0,1,1.685.632,2.314,2.314,0,0,1,.562,1.545,2.625,2.625,0,0,1-.632,1.826,2.543,2.543,0,0,1-1.826.7h0A3.135,3.135,0,0,1,229.887,443.2Z" transform="translate(-182.068 -438.217)" fill="#231f20"/>
        <path id="Path_459" data-name="Path 459" d="M239.3,450.5h7.724v1.545l-2.387.421,3.371,9.62,1.4,4.213,1.194-4.073,3.371-9.761-2.247-.421V450.5h6.811v1.545l-1.755.421-6.46,16.782h-2.809l-6.741-16.782-1.475-.421Z" transform="translate(-185.582 -441.582)" fill="#231f20"/>
        <path id="Path_460" data-name="Path 460" d="M268.507,466.482a12.545,12.545,0,0,1-.983-12.148,8.154,8.154,0,0,1,3.09-3.441,8.767,8.767,0,0,1,4.494-1.194,6.527,6.527,0,0,1,4.845,1.755,7.1,7.1,0,0,1,1.826,4.915,17.106,17.106,0,0,1-.211,3.09H270.051A9.418,9.418,0,0,0,271.6,464.8a4.906,4.906,0,0,0,4.143,2.036,8.174,8.174,0,0,0,2.809-.491,8.334,8.334,0,0,0,2.247-1.124l.632,1.475a7.478,7.478,0,0,1-2.879,1.755,10.443,10.443,0,0,1-3.862.7A7.434,7.434,0,0,1,268.507,466.482Zm9.55-8.777a9.414,9.414,0,0,0,.07-1.4,6.068,6.068,0,0,0-.913-3.441,3.177,3.177,0,0,0-2.809-1.264,3.905,3.905,0,0,0-3.09,1.4c-.772.913-1.194,2.528-1.334,4.7Z" transform="translate(-193.653 -441.344)" fill="#231f20"/>
        <path id="Path_461" data-name="Path 461" d="M290.6,467.085l2.528-.211V452.76l-2.387-.632V450.3l4.634-.632h.07l.7.632v.632l-.07,2.6h.07a12.114,12.114,0,0,1,1.194-1.475,9.866,9.866,0,0,1,2.247-1.685,6.157,6.157,0,0,1,2.949-.772,4.884,4.884,0,0,1,1.124.14v3.722a2.691,2.691,0,0,0-.772-.351,5.456,5.456,0,0,0-1.124-.14,8.618,8.618,0,0,0-5.126,1.685v12.008l4.213.281v1.615H290.6v-1.475Z" transform="translate(-200.859 -441.314)" fill="#231f20"/>
        <path id="Path_462" data-name="Path 462" d="M314.779,466.191a2.847,2.847,0,0,0,1.4.913,6.185,6.185,0,0,0,2.317.421,4.483,4.483,0,0,0,2.809-.7,2.439,2.439,0,0,0,.913-2.036,2.314,2.314,0,0,0-.562-1.545,5.079,5.079,0,0,0-1.615-1.194q-1.053-.527-2.949-1.264a9.732,9.732,0,0,1-3.792-2.317,5.372,5.372,0,0,1-1.194-3.581,3.92,3.92,0,0,1,.913-2.6,5.989,5.989,0,0,1,2.458-1.755,9.093,9.093,0,0,1,3.441-.632,14.681,14.681,0,0,1,2.668.211,7.4,7.4,0,0,1,1.826.492,8.975,8.975,0,0,0,.913.281v4.143h-2.036l-.7-2.458a1.825,1.825,0,0,0-1.053-.7,5.539,5.539,0,0,0-1.966-.281,3.586,3.586,0,0,0-2.387.7,2.058,2.058,0,0,0-.913,1.826,2.663,2.663,0,0,0,.492,1.685,4.3,4.3,0,0,0,1.194,1.053,15.061,15.061,0,0,0,2.036.913l.7.281a25.457,25.457,0,0,1,3.019,1.4,6.685,6.685,0,0,1,1.966,1.755,4.609,4.609,0,0,1,.772,2.668,4.761,4.761,0,0,1-1.9,3.932,8.387,8.387,0,0,1-5.266,1.475,14.862,14.862,0,0,1-3.441-.421,25.273,25.273,0,0,1-2.949-.913v-4.283h2.177Z" transform="translate(-207.203 -441.403)" fill="#231f20"/>
        <path id="Path_463" data-name="Path 463" d="M336.668,449.663l-2.528-.632v-1.755l5.2-.632h.07l.772.632v16.431l2.668.281V465.6H334v-1.615l2.739-.281V449.663Zm-.281-6.46a2.314,2.314,0,0,1-.562-1.545,2.448,2.448,0,0,1,.632-1.755,2.494,2.494,0,0,1,1.755-.7,2.073,2.073,0,0,1,1.685.632,2.313,2.313,0,0,1,.562,1.545,2.625,2.625,0,0,1-.632,1.826,2.543,2.543,0,0,1-1.826.7h0A3.135,3.135,0,0,1,336.387,443.2Z" transform="translate(-213.784 -438.217)" fill="#231f20"/>
        <path id="Path_464" data-name="Path 464" d="M350.7,466.451a3.808,3.808,0,0,1-.913-2.949v-12.85H347.4v-1.475a4.615,4.615,0,0,0,.913-.211c.492-.14.843-.281,1.053-.351a2.279,2.279,0,0,0,.843-1.194,10.147,10.147,0,0,0,.632-2.036c.211-.913.421-1.475.421-1.685h1.966l.07,4.775h5.547v2.177H353.3V460.9a20.525,20.525,0,0,0,.14,2.668c.07.492.211.843.492.983a3.079,3.079,0,0,0,1.334.211,9.876,9.876,0,0,0,1.966-.211,12.913,12.913,0,0,0,1.685-.492l.492,1.475a10.144,10.144,0,0,1-2.6,1.194,11.581,11.581,0,0,1-3.23.562A4.148,4.148,0,0,1,350.7,466.451Z" transform="translate(-217.775 -439.557)" fill="#231f20"/>
        <path id="Path_465" data-name="Path 465" d="M367.907,465.321a12.545,12.545,0,0,1-.983-12.148,8.154,8.154,0,0,1,3.09-3.441,8.767,8.767,0,0,1,4.494-1.194,6.527,6.527,0,0,1,4.845,1.755,7.1,7.1,0,0,1,1.826,4.915,17.1,17.1,0,0,1-.211,3.09H369.451A9.418,9.418,0,0,0,371,463.636a4.906,4.906,0,0,0,4.143,2.036,8.175,8.175,0,0,0,2.809-.492,8.335,8.335,0,0,0,2.247-1.124l.632,1.475a7.477,7.477,0,0,1-2.879,1.756,10.445,10.445,0,0,1-3.862.7A7.527,7.527,0,0,1,367.907,465.321Zm9.55-8.777a9.414,9.414,0,0,0,.07-1.4,6.068,6.068,0,0,0-.913-3.441,3.177,3.177,0,0,0-2.809-1.264,3.9,3.9,0,0,0-3.09,1.4c-.772.913-1.194,2.528-1.334,4.7h8.075ZM372.822,445.8" transform="translate(-223.254 -440.182)" fill="#231f20"/>
        <path id="Path_466" data-name="Path 466" d="M404.341,464.624a7.019,7.019,0,0,1-2.528-3.09,12.4,12.4,0,0,1-.913-5.126,11.51,11.51,0,0,1,1.124-5.2,9.245,9.245,0,0,1,3.23-3.722,8.98,8.98,0,0,1,4.986-1.334,13.2,13.2,0,0,1,3.019.351v-6.25l-3.3-.421v-1.4l5.758-.632h.07l.7.562V463.5h1.9v1.545c-.7.14-1.264.281-1.756.351a11.52,11.52,0,0,1-1.615.14,1.756,1.756,0,0,1-1.194-.281,1.808,1.808,0,0,1-.351-1.264v-1.053a7.146,7.146,0,0,1-2.387,1.9,7,7,0,0,1-3.16.772A6.849,6.849,0,0,1,404.341,464.624Zm7.162-1.966a5.286,5.286,0,0,0,1.615-1.334V449.105c-.14-.281-.562-.492-1.194-.7a6.523,6.523,0,0,0-2.036-.351,4.681,4.681,0,0,0-4,1.966q-1.475,2-1.475,6.109c0,2.387.421,4.213,1.334,5.337a4.292,4.292,0,0,0,3.441,1.755A5.132,5.132,0,0,0,411.5,462.658Z" transform="translate(-233.707 -437.8)" fill="#231f20"/>
        <path id="Path_467" data-name="Path 467" d="M429.336,466.482a11.277,11.277,0,0,1-2.036-7.022,11.724,11.724,0,0,1,1.053-5.126,7.721,7.721,0,0,1,7.3-4.634,6.035,6.035,0,0,1,4.634,1.755,7.071,7.071,0,0,1,1.755,4.915,17.1,17.1,0,0,1-.211,3.09H430.811a9.992,9.992,0,0,0,1.475,5.337,4.571,4.571,0,0,0,4,2.036,7.431,7.431,0,0,0,2.668-.491,7.789,7.789,0,0,0,2.177-1.124l.632,1.475a7.382,7.382,0,0,1-2.739,1.755,9.73,9.73,0,0,1-3.722.7A7.019,7.019,0,0,1,429.336,466.482Zm9.2-8.777a9.418,9.418,0,0,0,.07-1.4,6.068,6.068,0,0,0-.913-3.441,3,3,0,0,0-2.668-1.264,3.535,3.535,0,0,0-2.949,1.4c-.772.913-1.194,2.528-1.264,4.7Z" transform="translate(-241.569 -441.344)" fill="#231f20"/>
        <g id="Group_61" data-name="Group 61" transform="translate(1.334 33.635)">
          <path id="Path_468" data-name="Path 468" d="M164.7,512.032c.351.07.913.211,1.615.421q1.791.527,3.371.843h0a16.746,16.746,0,0,0,3.441.351,13.124,13.124,0,0,0,5.477-1.124,8.709,8.709,0,0,0,3.371-2.949,7.4,7.4,0,0,0,1.124-3.722,5.531,5.531,0,0,0-1.124-3.511,9.336,9.336,0,0,0-2.6-2.387,38.975,38.975,0,0,0-3.932-2.036c-1.756-.773-3.019-1.475-3.792-1.9a9.641,9.641,0,0,1-2.036-1.685,3.665,3.665,0,0,1-.843-2.528,3.9,3.9,0,0,1,1.334-3.16,6.391,6.391,0,0,1,3.932-1.053,10.1,10.1,0,0,1,2.6.351,5.12,5.12,0,0,1,1.615.7h0l.772,4.424H181.2l.211-6.039a5.834,5.834,0,0,1-1.264-.351c-1.124-.281-2.107-.492-3.019-.7a19.224,19.224,0,0,0-3.019-.281,11.7,11.7,0,0,0-4.845.913,7.646,7.646,0,0,0-3.16,2.458,6.368,6.368,0,0,0-1.124,3.581,6.214,6.214,0,0,0,1.124,3.792,10.068,10.068,0,0,0,2.668,2.528,34.792,34.792,0,0,0,3.651,1.9,36.692,36.692,0,0,1,3.651,1.755,7.949,7.949,0,0,1,2.177,1.756,3.864,3.864,0,0,1,.843,2.458,4.409,4.409,0,0,1-1.475,3.511,6.571,6.571,0,0,1-4.354,1.264,9.048,9.048,0,0,1-3.16-.492A4.884,4.884,0,0,1,168,510.066h0l-.632-4.7h-2.317Z" transform="translate(-164.7 -485.7)" fill="#231f20"/>
        </g>
        <path id="Path_469" data-name="Path 469" d="M194.879,488.588,192,488.236v-1.4l5.547-.632h.07l.772.492v7.724l-.14,2.809a11.794,11.794,0,0,1,3.019-1.826,9.343,9.343,0,0,1,3.862-.843,6.648,6.648,0,0,1,3.371.772,4.562,4.562,0,0,1,1.685,2.458,15.375,15.375,0,0,1,.492,4.424v9.339l2.387.281v1.615H204.92V511.83l2.247-.281V502.21a12.149,12.149,0,0,0-.281-3.09,2.615,2.615,0,0,0-1.053-1.685,3.915,3.915,0,0,0-2.247-.562,6.128,6.128,0,0,0-2.6.632,11.829,11.829,0,0,0-2.458,1.4v12.64l2.387.281v1.615h-7.935V511.83l2.036-.281V488.588Z" transform="translate(-171.496 -452.214)" fill="#231f20"/>
        <path id="Path_470" data-name="Path 470" d="M226.777,514.682a10.506,10.506,0,0,1-2.177-7.022,10.818,10.818,0,0,1,1.124-5.126,8.8,8.8,0,0,1,3.16-3.441,9.1,9.1,0,0,1,4.635-1.194,6.482,6.482,0,0,1,4.915,1.755,6.829,6.829,0,0,1,1.9,4.915,17.1,17.1,0,0,1-.211,3.09H228.392A9.418,9.418,0,0,0,229.937,513a5.076,5.076,0,0,0,4.283,2.036,8.56,8.56,0,0,0,2.879-.492,8.91,8.91,0,0,0,2.317-1.123l.632,1.475a7.287,7.287,0,0,1-2.949,1.755,10.812,10.812,0,0,1-3.932.7A7.866,7.866,0,0,1,226.777,514.682Zm9.831-8.777a9.413,9.413,0,0,0,.07-1.4,6.068,6.068,0,0,0-.913-3.441,3.31,3.31,0,0,0-2.879-1.264,3.948,3.948,0,0,0-3.16,1.4,7.82,7.82,0,0,0-1.334,4.7h8.216Z" transform="translate(-181.204 -455.698)" fill="#231f20"/>
        <path id="Path_471" data-name="Path 471" d="M250.8,515.285l2.528-.211V500.96l-2.458-.632V498.5l4.7-.632h.07l.772.632v.632l-.07,2.6h.07a8.871,8.871,0,0,1,1.264-1.475A8.988,8.988,0,0,1,260,498.572a6.432,6.432,0,0,1,3.019-.772,4.882,4.882,0,0,1,1.124.141v3.722a2.691,2.691,0,0,0-.772-.351,6.186,6.186,0,0,0-1.194-.14,9.035,9.035,0,0,0-5.266,1.685v12.008l4.354.281v1.615H250.8Z" transform="translate(-189.007 -455.668)" fill="#231f20"/>
        <path id="Path_472" data-name="Path 472" d="M270.2,486.732l5.477-.632h.07l.772.492v10.041a8.782,8.782,0,0,1,2.458-1.615,7.466,7.466,0,0,1,3.16-.632,7.553,7.553,0,0,1,3.722.983,6.3,6.3,0,0,1,2.668,3.019,11.134,11.134,0,0,1,.983,5.126,11.546,11.546,0,0,1-1.194,5.2,9.226,9.226,0,0,1-8.637,5.056,20.135,20.135,0,0,1-4.283-.421,6.11,6.11,0,0,1-2.388-.843V488.487l-2.809-.351v-1.4Zm8.145,10.673a7.675,7.675,0,0,0-1.826,1.334v12.288a2.053,2.053,0,0,0,1.194.772,7.109,7.109,0,0,0,2.177.281,5.126,5.126,0,0,0,4.213-2.036,9.823,9.823,0,0,0,1.615-6.039,8.65,8.65,0,0,0-1.4-5.337,4.307,4.307,0,0,0-3.651-1.755A3.421,3.421,0,0,0,278.345,497.405Z" transform="translate(-194.784 -452.184)" fill="#231f20"/>
        <path id="Path_473" data-name="Path 473" d="M301,515.285l2.528-.211V500.96l-2.458-.632V498.5l4.7-.632h.07l.772.632v.632l-.07,2.6h.07a8.874,8.874,0,0,1,1.264-1.475,8.987,8.987,0,0,1,2.317-1.685,6.431,6.431,0,0,1,3.019-.772,4.882,4.882,0,0,1,1.124.141v3.722a2.692,2.692,0,0,0-.772-.351,6.187,6.187,0,0,0-1.194-.14,9.035,9.035,0,0,0-5.266,1.685v12.008l4.354.281v1.615H301Z" transform="translate(-203.957 -455.668)" fill="#231f20"/>
        <path id="Path_474" data-name="Path 474" d="M323.864,502.494A8.587,8.587,0,0,1,331.588,498c2.879,0,5.056.913,6.46,2.668a10.632,10.632,0,0,1,2.177,7.022,10.442,10.442,0,0,1-1.264,5.267,8.588,8.588,0,0,1-7.724,4.494c-2.879,0-5.056-.913-6.46-2.668a10.632,10.632,0,0,1-2.177-7.022A10.261,10.261,0,0,1,323.864,502.494ZM335.1,513.589a10.237,10.237,0,0,0,1.264-5.617,12.733,12.733,0,0,0-1.194-5.9,3.9,3.9,0,0,0-3.722-2.177,4.175,4.175,0,0,0-3.651,1.9,10.238,10.238,0,0,0-1.264,5.618,12.733,12.733,0,0,0,1.194,5.9,3.9,3.9,0,0,0,3.722,2.177A4.094,4.094,0,0,0,335.1,513.589Z" transform="translate(-210.389 -455.728)" fill="#231f20"/>
        <path id="Path_475" data-name="Path 475" d="M353.264,502.494A8.587,8.587,0,0,1,360.988,498c2.879,0,5.056.913,6.46,2.668a10.633,10.633,0,0,1,2.177,7.022,10.442,10.442,0,0,1-1.264,5.267,8.588,8.588,0,0,1-7.724,4.494c-2.879,0-5.056-.913-6.46-2.668A10.632,10.632,0,0,1,352,507.76,10.262,10.262,0,0,1,353.264,502.494ZM364.5,513.589a10.237,10.237,0,0,0,1.264-5.617,12.733,12.733,0,0,0-1.194-5.9,3.9,3.9,0,0,0-3.722-2.177,4.175,4.175,0,0,0-3.651,1.9,10.238,10.238,0,0,0-1.264,5.618,12.733,12.733,0,0,0,1.194,5.9,3.9,3.9,0,0,0,3.722,2.177A4.094,4.094,0,0,0,364.5,513.589Z" transform="translate(-219.145 -455.728)" fill="#231f20"/>
        <path id="Path_476" data-name="Path 476" d="M382.268,488.588l-2.668-.351v-1.4l5.407-.632h0l.772.492v16.361l-.07,1.966,7.865-8.005-2.528-.492v-1.545h8.286v1.545l-2.668.492-5.056,4.775,6.46,9.831,2.107.281v1.615h-8.286V511.9l2.177-.281L389.22,503.9l-3.511,3.441.07,1.685v2.668l2.458.281v1.615h-8.145v-1.615l2.177-.281Z" transform="translate(-227.364 -452.214)" fill="#231f20"/>
        <path id="Path_477" data-name="Path 477" d="M411.877,514.682a10.505,10.505,0,0,1-2.177-7.022,10.817,10.817,0,0,1,1.124-5.126,8.8,8.8,0,0,1,3.16-3.441,9.1,9.1,0,0,1,4.634-1.194,6.482,6.482,0,0,1,4.915,1.755,6.829,6.829,0,0,1,1.9,4.915,17.1,17.1,0,0,1-.211,3.09h-11.8A9.418,9.418,0,0,0,414.966,513a5.076,5.076,0,0,0,4.283,2.036,8.561,8.561,0,0,0,2.879-.492,8.911,8.911,0,0,0,2.317-1.123l.632,1.475a7.287,7.287,0,0,1-2.949,1.755,10.812,10.812,0,0,1-3.932.7A7.815,7.815,0,0,1,411.877,514.682Zm9.831-8.777a9.411,9.411,0,0,0,.07-1.4,6.068,6.068,0,0,0-.913-3.441,3.31,3.31,0,0,0-2.879-1.264,3.948,3.948,0,0,0-3.16,1.4,7.82,7.82,0,0,0-1.334,4.7h8.216Z" transform="translate(-236.328 -455.698)" fill="#231f20"/>
        <path id="Path_478" data-name="Path 478" d="M375.6,443.083l2.949-4.283h3.581l.07.14-4.283,4.143H375.6Z" transform="translate(-226.173 -438.098)" fill="#231f20"/>
      </g>
    </g>
    <g id="Group_69" data-name="Group 69" transform="translate(144.959 249.159)">
      <g id="Group_66" data-name="Group 66" transform="translate(0)">
        <g id="Group_65" data-name="Group 65">
          <g id="Group_64" data-name="Group 64">
            <rect id="Rectangle_51" data-name="Rectangle 51" width="200.898" height="102.872" fill="#0ca551"/>
          </g>
        </g>
      </g>
      <g id="Group_68" data-name="Group 68" transform="translate(21.487 17.906)">
        <path id="Path_479" data-name="Path 479" d="M205.459,352.125c-4.073-4.564-6.109-11.727-6.109-21.417v-28.65a4.3,4.3,0,0,0-3.581-4.213l-2.668-.421V293h21.557v4.424l-2.317.492a3.988,3.988,0,0,0-3.23,3.932v29.843c0,7.935,1.4,13.693,4.283,17.2,2.809,3.511,6.952,5.267,12.288,5.267s9.339-1.9,12.008-5.618,4-9.2,4-16.361V301.988a4.283,4.283,0,0,0-3.441-4.213l-2.107-.421V293h18.608v4.424l-2.668.421a4.382,4.382,0,0,0-3.722,4.354v29.562c0,9.129-2.177,15.94-6.53,20.5-4.354,4.494-10.112,6.741-17.344,6.741C215.921,359.006,209.531,356.689,205.459,352.125Z" transform="translate(-193.1 -292.438)" fill="#fff"/>
        <path id="Path_480" data-name="Path 480" d="M367.867,358.417c-2.387-.562-4.986-1.334-7.935-2.107-1.826-.492-3.932-1.053-3.932-1.053l.7-15.94h5.618s.14,9.69,1.475,11.446c.7.913,2.6,1.755,4.845,2.528a24.713,24.713,0,0,0,7.443,1.124c4.424,0,7.865-.983,10.182-3.019,2.317-1.966,3.441-4.775,3.441-8.286a9.417,9.417,0,0,0-1.9-5.9A17.442,17.442,0,0,0,382.824,333c-2.107-1.194-4.915-2.528-8.567-4.143a68.648,68.648,0,0,1-8.567-4.494,21.773,21.773,0,0,1-6.32-6.109,15.8,15.8,0,0,1-2.668-9.2,14.749,14.749,0,0,1,2.6-8.637,17.834,17.834,0,0,1,7.443-6.039,27.181,27.181,0,0,1,11.376-2.177,36.715,36.715,0,0,1,7.162.632c2.107.421,4.424.983,7.092,1.685,1.194.351,3.02.772,3.02.772l-.562,14.746h-5.337s.07-8.988-1.755-10.814a9.3,9.3,0,0,0-3.651-1.685,20.621,20.621,0,0,0-6.039-.772c-4.073,0-7.092.843-9.2,2.528s-3.09,4.143-3.09,7.373a9.279,9.279,0,0,0,1.9,5.9,16.578,16.578,0,0,0,4.7,4.073,99.968,99.968,0,0,0,8.988,4.564c3.792,1.826,6.881,3.441,9.339,4.915a20.953,20.953,0,0,1,6.179,5.758,13.877,13.877,0,0,1,2.6,8.5,17.041,17.041,0,0,1-2.6,8.988,19.684,19.684,0,0,1-7.935,7.092,27.788,27.788,0,0,1-12.85,2.739A32.684,32.684,0,0,1,367.867,358.417Z" transform="translate(-241.612 -292.2)" fill="#fff"/>
        <g id="Group_67" data-name="Group 67" transform="translate(67.341 12.85)">
          <path id="Path_481" data-name="Path 481" d="M326.778,320.26a19.807,19.807,0,0,0-7.654-7.162c-3.3-1.755-8.637-2.6-12.991-2.6H289v3.16s3.862,0,3.862,2.177c0,0-.07,9.69-.07,15.378s.07,15.448.07,15.448c0,1.826-3.862,2.177-3.862,2.177v3.09h17.414c4.354,0,9.69-.843,12.92-2.6a19.283,19.283,0,0,0,7.584-7.233,19.934,19.934,0,0,0,2.668-10.392v-.843A21.117,21.117,0,0,0,326.778,320.26ZM322.284,331.5a18.813,18.813,0,0,1-2.036,8.777,15.089,15.089,0,0,1-5.758,6.109c-2.458,1.475-6.53,2.247-9.831,2.247h-5.477V313.66h5.337c3.3,0,7.373.7,9.9,2.177a15.536,15.536,0,0,1,5.828,6.039,18.307,18.307,0,0,1,2.107,8.848v.772Z" transform="translate(-289 -310.5)" fill="#fff"/>
        </g>
      </g>
    </g>
  </g>
</svg>
