<svg xmlns="http://www.w3.org/2000/svg" width="318.789" height="131.243" viewBox="0 0 318.789 131.243">
  <g id="UL_4c" transform="translate(-105.1 -313.6)">
    <g id="Group_46" data-name="Group 46" transform="translate(229.157 322.523)">
      <path id="Path_359" data-name="Path 359" d="M278.151,334.9h3.159v15.951c0,4.106-2.922,8.292-9.555,8.292-6,0-9.555-3-9.555-8.134v-16.03h3.632v15.635c0,4.106,1.974,6,6.238,6a5.726,5.726,0,0,0,6.08-6Z" transform="translate(-262.2 -327.003)"/>
      <path id="Path_360" data-name="Path 360" d="M298.58,334.9H295.5v23.69h3.08V340.428l14.214,18.162h3.238V334.9h-3.08v18.4Z" transform="translate(-269.204 -327.003)"/>
      <path id="Path_361" data-name="Path 361" d="M334.654,334.9v23.69H331.1V334.9Z" transform="translate(-276.692 -327.003)"/>
      <path id="Path_362" data-name="Path 362" d="M342,334.9h3.632l5.844,17.767,6.475-17.767h3.08l-9.081,23.69h-1.816Z" transform="translate(-278.985 -327.003)"/>
      <path id="Path_363" data-name="Path 363" d="M386.335,334.9v2.527H375.754v7.739H384.2v2.527h-8.449v8.449h10.582v2.527H372.2v-23.69h14.135Z" transform="translate(-285.337 -327.003)"/>
      <path id="Path_364" data-name="Path 364" d="M407.329,347.577l.395-.079a7.453,7.453,0,0,0,4.5-6.475c0-2.843-2.685-5.922-8.449-5.922H397.3v23.69h3.632V337.311h2.606c3.869,0,5.212,2.211,5.212,4.106a5.016,5.016,0,0,1-5.212,4.817h-.869l7.976,12.635h4.264Z" transform="translate(-290.616 -327.045)"/>
      <path id="Path_365" data-name="Path 365" d="M434.708,352.936c0-2.211-2.132-3.474-4.58-4.975l-.79-.474c-2.685-1.658-5.607-3.711-5.607-7.107,0-3.475,3.08-6.08,7.107-6.08a14.714,14.714,0,0,1,6.317,1.185c-.079.158-.869,2.132-.948,2.369a10.769,10.769,0,0,0-4.738-1.027c-2.606,0-4.185,1.106-4.185,2.922,0,2.211,1.816,3.317,4.106,4.738l1.027.632.158.079c2.369,1.5,5.922,3.79,5.922,7.028,0,4.027-4.343,6.791-8.37,6.791a14.644,14.644,0,0,1-7.028-1.579c.079-.158.948-2.053,1.027-2.29h0a13.715,13.715,0,0,0,6.08,1.342C432.734,356.49,434.708,354.91,434.708,352.936Z" transform="translate(-296.043 -326.877)"/>
      <path id="Path_366" data-name="Path 366" d="M453.853,334.9v23.69H450.3V334.9Z" transform="translate(-301.764 -327.003)"/>
      <path id="Path_367" data-name="Path 367" d="M479.789,334.9v2.527H472.05v21.242h-3.632V337.427H460.6V334.9Z" transform="translate(-303.93 -327.003)"/>
      <g id="Group_45" data-name="Group 45" transform="translate(180.439)">
        <path id="Path_368" data-name="Path 368" d="M494.411,337.448v7.739h8.37v2.527h-8.449v8.449h10.5v2.527H490.7V335h14.135v2.527H494.411Z" transform="translate(-490.7 -327.024)"/>
        <path id="Path_369" data-name="Path 369" d="M502.728,324.9l1.421,2.053-6.08,3.317-.869-1.263Z" transform="translate(-492.067 -324.9)"/>
      </g>
    </g>
    <g id="Group_47" data-name="Group 47" transform="translate(227.104 363.507)">
      <path id="Path_370" data-name="Path 370" d="M385.641,376.9v.237c5.054,1.974,2.29,8.37.079,13.977l-11.134,28.112L358.318,376.9H347.5v.237c3.159,2.448,4.817,7.186,6.4,11.213l15.477,40.115h7.818l20.689-51.486h-12.24Z" transform="translate(-278.088 -376.821)"/>
      <path id="Path_371" data-name="Path 371" d="M485.332,420.727a24.107,24.107,0,0,1-9.95,2.053H464.248V376.9h-12v.237c3.79,1.263,3.711,7.186,3.711,10.818v40.194c-4.027-1.974-6.08-6.633-7.976-11.055L431,376.9H418.052v.237c3.869,1.185,2.369,4.5,1.185,7.265l-13.661,32.613c-1.9,4.422-3.79,9.081-7.976,11.134v.237h10.266l5.212-13.661h25.111l5.449,13.661h41.773v-7.66Zm-70.043-11.687,10.187-25.506,10.345,25.506Z" transform="translate(-288.626 -376.821)"/>
      <path id="Path_372" data-name="Path 372" d="M333.592,417.073l-17.057-40.194H303.584v.237c3.869,1.185,2.369,4.5,1.263,7.265h0l-13.661,32.613c-.711,1.579-1.342,3.238-2.132,4.817a23.042,23.042,0,0,1-6.317.869H271.6V376.8h-12v.237c3.79,1.263,3.711,7.186,3.711,10.818v40.51h30.244l5.212-13.661h25.111l5.449,13.661h12.4v-.237C337.3,426,335.487,421.5,333.592,417.073Zm-32.613-8.055,10.187-25.506,10.345,25.506Z" transform="translate(-259.6 -376.8)"/>
    </g>
    <path id="Path_373" data-name="Path 373" d="M105.1,313.6V416.178a15.407,15.407,0,0,0,15.477,15.714h24.4c3.238,0,7.5,2.211,9.634,8.37l1.185,3.4c.316.711.711,1.185,1.184,1.185s.869-.474,1.185-1.185l1.184-3.4c2.132-6.159,6.4-8.37,9.634-8.37h24.4a15.455,15.455,0,0,0,15.477-15.714V313.6Z" transform="translate(0)"/>
    <g id="Group_48" data-name="Group 48" transform="translate(107.627 316.048)">
      <rect id="Rectangle_47" data-name="Rectangle 47" width="40.194" height="47.538" transform="translate(0 0)" fill="#e30613"/>
      <path id="Path_374" data-name="Path 374" d="M108.3,400.2v34.272a12.948,12.948,0,0,0,13.03,13.266h24.4a11.665,11.665,0,0,1,2.764.395V400.2Z" transform="translate(-108.3 -334.263)" fill="#e30613"/>
      <rect id="Rectangle_48" data-name="Rectangle 48" width="40.194" height="47.538" transform="translate(58.514 0)" fill="#e30613"/>
      <path id="Path_375" data-name="Path 375" d="M182.4,448.033a11.665,11.665,0,0,1,2.764-.395h24.4a13,13,0,0,0,13.03-13.266V400.1H182.4Z" transform="translate(-123.886 -334.242)" fill="#e30613"/>
    </g>
    <path id="Path_376" data-name="Path 376" d="M166.793,364.238V316.7h-18.4v47.538H108.2v18.4h40.194V430.57c3.475.948,7.186,3.869,9.16,9.634,1.974-5.765,5.686-8.686,9.16-9.634V382.637h40.194v-18.4Z" transform="translate(-0.652 -0.652)" fill="#fc0"/>
    <g id="Group_49" data-name="Group 49" transform="translate(111.01 320.47)">
      <path id="Path_377" data-name="Path 377" d="M123.968,337.541a.5.5,0,0,1-.316.632,3.887,3.887,0,0,1-2.132.158s-.632,1.106-1.5,1.106-1.5-1.106-1.5-1.106a3.943,3.943,0,0,1-2.132-.158.5.5,0,0,1-.316-.632c.237-.948,1.106-4.106,1.342-5.212l-1.658.632c-.316,1.263-1.185,3.238-2.685,3.4-.237,0-.553-.079-.474-.237.158-1.658,1.185-9.318,1.342-10.108.079-.711.316-1.106.869-1.263.474-.158.869-.079,1.421.474.395.395,1.9,1.737,1.9,1.737s.158-1.263.237-1.658h-.395a.373.373,0,0,1-.395-.395l.158-1.5c0-.158.079-.316.237-.316,0,0,.632-.316,1.185-.553a2.658,2.658,0,0,1,.948-.237,1.975,1.975,0,0,1,1.027.316,1.651,1.651,0,0,1,.553,1.027l.316,3.238s1.5-1.342,1.9-1.737c.553-.474.869-.632,1.421-.474.474.158.711.474.869,1.263.079.711,1.106,8.37,1.342,10.108,0,.237-.316.316-.474.237-1.5-.079-2.369-2.132-2.685-3.4l-1.658-.632C122.941,333.355,123.731,336.514,123.968,337.541Z" transform="translate(-112.584 -322.3)"/>
      <path id="Path_378" data-name="Path 378" d="M147.268,337.541a.5.5,0,0,1-.316.632,3.887,3.887,0,0,1-2.132.158s-.632,1.106-1.5,1.106-1.5-1.106-1.5-1.106a3.943,3.943,0,0,1-2.132-.158.5.5,0,0,1-.316-.632c.237-.948,1.106-4.106,1.342-5.212l-1.658.632c-.316,1.263-1.184,3.238-2.685,3.4-.237,0-.553-.079-.474-.237.158-1.658,1.185-9.318,1.342-10.108.079-.711.316-1.106.869-1.263.474-.158.869-.079,1.421.474.395.395,1.9,1.737,1.9,1.737s.158-1.263.237-1.658h-.395a.373.373,0,0,1-.395-.395l.158-1.5c0-.158.079-.316.237-.316,0,0,.632-.316,1.184-.553a2.658,2.658,0,0,1,.948-.237,1.975,1.975,0,0,1,1.027.316,1.651,1.651,0,0,1,.553,1.027l.316,3.238s1.5-1.342,1.9-1.737c.553-.474.869-.632,1.421-.474.474.158.711.474.869,1.263.079.711,1.106,8.37,1.342,10.108,0,.237-.316.316-.474.237-1.5-.079-2.369-2.132-2.685-3.4L146,332.25C146.241,333.355,147.031,336.514,147.268,337.541Z" transform="translate(-117.485 -322.3)"/>
      <path id="Path_379" data-name="Path 379" d="M123.968,365.041a.5.5,0,0,1-.316.632,3.887,3.887,0,0,1-2.132.158s-.632,1.106-1.5,1.106-1.5-1.106-1.5-1.106a3.943,3.943,0,0,1-2.132-.158.5.5,0,0,1-.316-.632c.237-.948,1.106-4.106,1.342-5.212l-1.658.632c-.316,1.263-1.185,3.238-2.685,3.4-.237,0-.553-.079-.474-.237.158-1.658,1.185-9.318,1.342-10.108.079-.711.316-1.106.869-1.263.474-.158.869-.079,1.421.474.395.395,1.9,1.737,1.9,1.737s.158-1.263.237-1.658h-.395a.373.373,0,0,1-.395-.395l.158-1.5c0-.158.079-.316.237-.316,0,0,.632-.316,1.185-.553a2.658,2.658,0,0,1,.948-.237,1.975,1.975,0,0,1,1.027.316,1.651,1.651,0,0,1,.553,1.027l.316,3.238s1.5-1.342,1.9-1.737c.553-.474.869-.632,1.421-.474.474.158.711.474.869,1.263.079.711,1.106,8.37,1.342,10.108,0,.237-.316.316-.474.237-1.5-.079-2.369-2.132-2.685-3.4l-1.658-.632C122.941,360.855,123.731,364.014,123.968,365.041Z" transform="translate(-112.584 -328.084)"/>
      <path id="Path_380" data-name="Path 380" d="M147.268,365.041a.5.5,0,0,1-.316.632,3.887,3.887,0,0,1-2.132.158s-.632,1.106-1.5,1.106-1.5-1.106-1.5-1.106a3.942,3.942,0,0,1-2.132-.158.5.5,0,0,1-.316-.632c.237-.948,1.106-4.106,1.342-5.212l-1.658.632c-.316,1.263-1.184,3.238-2.685,3.4-.237,0-.553-.079-.474-.237.158-1.658,1.185-9.318,1.342-10.108.079-.711.316-1.106.869-1.263.474-.158.869-.079,1.421.474.395.395,1.9,1.737,1.9,1.737s.158-1.263.237-1.658h-.395a.373.373,0,0,1-.395-.395l.158-1.5c0-.158.079-.316.237-.316,0,0,.632-.316,1.184-.553a2.658,2.658,0,0,1,.948-.237,1.975,1.975,0,0,1,1.027.316,1.651,1.651,0,0,1,.553,1.027l.316,3.238s1.5-1.342,1.9-1.737c.553-.474.869-.632,1.421-.474.474.158.711.474.869,1.263.079.711,1.106,8.37,1.342,10.108,0,.237-.316.316-.474.237-1.5-.079-2.369-2.132-2.685-3.4L146,359.75C146.241,360.855,147.031,364.014,147.268,365.041Z" transform="translate(-117.485 -328.084)"/>
      <path id="Path_381" data-name="Path 381" d="M198.168,337.541a.5.5,0,0,1-.316.632,3.887,3.887,0,0,1-2.132.158s-.632,1.106-1.5,1.106-1.5-1.106-1.5-1.106a3.943,3.943,0,0,1-2.132-.158.5.5,0,0,1-.316-.632c.237-.948,1.106-4.106,1.342-5.212l-1.658.632c-.316,1.263-1.184,3.238-2.685,3.4-.237,0-.553-.079-.474-.237.158-1.658,1.184-9.318,1.342-10.108.079-.711.316-1.106.869-1.263.474-.158.869-.079,1.421.474.395.395,1.9,1.737,1.9,1.737s.158-1.263.237-1.658h-.395a.373.373,0,0,1-.395-.395l.158-1.5c0-.158.079-.316.237-.316,0,0,.632-.316,1.184-.553a2.658,2.658,0,0,1,.948-.237,1.975,1.975,0,0,1,1.027.316,1.651,1.651,0,0,1,.553,1.027l.316,3.238s1.5-1.342,1.9-1.737c.553-.474.869-.632,1.421-.474s.711.474.869,1.263c.079.711,1.106,8.37,1.342,10.108,0,.237-.316.316-.474.237-1.5-.079-2.369-2.132-2.685-3.4l-1.658-.632C197.062,333.355,197.852,336.514,198.168,337.541Z" transform="translate(-128.191 -322.3)"/>
      <path id="Path_382" data-name="Path 382" d="M221.468,337.541a.5.5,0,0,1-.316.632,3.887,3.887,0,0,1-2.132.158s-.632,1.106-1.5,1.106-1.5-1.106-1.5-1.106a3.943,3.943,0,0,1-2.132-.158.5.5,0,0,1-.316-.632c.237-.948,1.106-4.106,1.342-5.212l-1.658.632c-.316,1.263-1.185,3.238-2.685,3.4-.237,0-.553-.079-.474-.237.158-1.658,1.185-9.318,1.342-10.108.079-.711.316-1.106.869-1.263.474-.158.869-.079,1.421.474.395.395,1.9,1.737,1.9,1.737s.158-1.263.237-1.658h-.395a.373.373,0,0,1-.395-.395l.158-1.5c0-.158.079-.316.237-.316,0,0,.632-.316,1.185-.553a2.658,2.658,0,0,1,.948-.237,1.975,1.975,0,0,1,1.027.316,1.651,1.651,0,0,1,.553,1.027l.316,3.238s1.5-1.342,1.9-1.737c.553-.474.869-.632,1.421-.474s.711.474.869,1.263c.079.711,1.106,8.37,1.342,10.108,0,.237-.316.316-.474.237-1.5-.079-2.369-2.132-2.685-3.4l-1.658-.632C220.362,333.355,221.152,336.514,221.468,337.541Z" transform="translate(-133.092 -322.3)"/>
      <path id="Path_383" data-name="Path 383" d="M198.168,365.041a.5.5,0,0,1-.316.632,3.887,3.887,0,0,1-2.132.158s-.632,1.106-1.5,1.106-1.5-1.106-1.5-1.106a3.943,3.943,0,0,1-2.132-.158.5.5,0,0,1-.316-.632c.237-.948,1.106-4.106,1.342-5.212l-1.658.632c-.316,1.263-1.184,3.238-2.685,3.4-.237,0-.553-.079-.474-.237.158-1.658,1.184-9.318,1.342-10.108.079-.711.316-1.106.869-1.263.474-.158.869-.079,1.421.474.395.395,1.9,1.737,1.9,1.737s.158-1.263.237-1.658h-.395a.373.373,0,0,1-.395-.395l.158-1.5c0-.158.079-.316.237-.316,0,0,.632-.316,1.184-.553a2.658,2.658,0,0,1,.948-.237,1.975,1.975,0,0,1,1.027.316,1.651,1.651,0,0,1,.553,1.027l.316,3.238s1.5-1.342,1.9-1.737c.553-.474.869-.632,1.421-.474s.711.474.869,1.263c.079.711,1.106,8.37,1.342,10.108,0,.237-.316.316-.474.237-1.5-.079-2.369-2.132-2.685-3.4l-1.658-.632C197.062,360.855,197.852,364.014,198.168,365.041Z" transform="translate(-128.191 -328.084)"/>
      <path id="Path_384" data-name="Path 384" d="M221.468,365.041a.5.5,0,0,1-.316.632,3.887,3.887,0,0,1-2.132.158s-.632,1.106-1.5,1.106-1.5-1.106-1.5-1.106a3.943,3.943,0,0,1-2.132-.158.5.5,0,0,1-.316-.632c.237-.948,1.106-4.106,1.342-5.212l-1.658.632c-.316,1.263-1.185,3.238-2.685,3.4-.237,0-.553-.079-.474-.237.158-1.658,1.185-9.318,1.342-10.108.079-.711.316-1.106.869-1.263.474-.158.869-.079,1.421.474.395.395,1.9,1.737,1.9,1.737s.158-1.263.237-1.658h-.395a.373.373,0,0,1-.395-.395l.158-1.5c0-.158.079-.316.237-.316,0,0,.632-.316,1.185-.553a2.658,2.658,0,0,1,.948-.237,1.975,1.975,0,0,1,1.027.316,1.651,1.651,0,0,1,.553,1.027l.316,3.238s1.5-1.342,1.9-1.737c.553-.474.869-.632,1.421-.474s.711.474.869,1.263c.079.711,1.106,8.37,1.342,10.108,0,.237-.316.316-.474.237-1.5-.079-2.369-2.132-2.685-3.4l-1.658-.632C220.362,360.855,221.152,364.014,221.468,365.041Z" transform="translate(-133.092 -328.084)"/>
      <path id="Path_385" data-name="Path 385" d="M123.968,420.941a.5.5,0,0,1-.316.632,3.887,3.887,0,0,1-2.132.158s-.632,1.106-1.5,1.106-1.5-1.106-1.5-1.106a3.943,3.943,0,0,1-2.132-.158.5.5,0,0,1-.316-.632c.237-.948,1.106-4.106,1.342-5.212l-1.658.632c-.316,1.263-1.185,3.238-2.685,3.4-.237,0-.553-.079-.474-.237.158-1.658,1.185-9.318,1.342-10.108.079-.711.316-1.106.869-1.263.474-.158.869-.079,1.421.474.395.395,1.9,1.737,1.9,1.737s.158-1.263.237-1.658h-.395a.373.373,0,0,1-.395-.395l.158-1.5c0-.158.079-.316.237-.316,0,0,.632-.316,1.185-.553a2.658,2.658,0,0,1,.948-.237,1.975,1.975,0,0,1,1.027.316,1.651,1.651,0,0,1,.553,1.027l.316,3.238s1.5-1.342,1.9-1.737c.553-.474.869-.632,1.421-.474.474.158.711.474.869,1.263.079.711,1.106,8.37,1.342,10.108,0,.237-.316.316-.474.237-1.5-.079-2.369-2.132-2.685-3.4l-1.658-.632C122.941,416.834,123.731,419.993,123.968,420.941Z" transform="translate(-112.584 -339.842)"/>
      <path id="Path_386" data-name="Path 386" d="M147.268,420.941a.5.5,0,0,1-.316.632,3.887,3.887,0,0,1-2.132.158s-.632,1.106-1.5,1.106-1.5-1.106-1.5-1.106a3.943,3.943,0,0,1-2.132-.158.5.5,0,0,1-.316-.632c.237-.948,1.106-4.106,1.342-5.212l-1.658.632c-.316,1.263-1.184,3.238-2.685,3.4-.237,0-.553-.079-.474-.237.158-1.658,1.185-9.318,1.342-10.108.079-.711.316-1.106.869-1.263.474-.158.869-.079,1.421.474.395.395,1.9,1.737,1.9,1.737s.158-1.263.237-1.658h-.395a.373.373,0,0,1-.395-.395l.158-1.5c0-.158.079-.316.237-.316,0,0,.632-.316,1.184-.553a2.658,2.658,0,0,1,.948-.237,1.975,1.975,0,0,1,1.027.316,1.651,1.651,0,0,1,.553,1.027l.316,3.238s1.5-1.342,1.9-1.737c.553-.474.869-.632,1.421-.474.474.158.711.474.869,1.263.079.711,1.106,8.37,1.342,10.108,0,.237-.316.316-.474.237-1.5-.079-2.369-2.132-2.685-3.4L146,415.65C146.241,416.834,147.031,419.993,147.268,420.941Z" transform="translate(-117.485 -339.842)"/>
      <path id="Path_387" data-name="Path 387" d="M123.968,448.441a.5.5,0,0,1-.316.632,3.887,3.887,0,0,1-2.132.158s-.632,1.106-1.5,1.106-1.5-1.106-1.5-1.106a3.943,3.943,0,0,1-2.132-.158.5.5,0,0,1-.316-.632c.237-.948,1.106-4.106,1.342-5.291l-1.658.632c-.316,1.263-1.185,3.238-2.685,3.4-.237,0-.553-.079-.474-.237.158-1.658,1.185-9.318,1.342-10.108.079-.711.316-1.106.869-1.263.474-.158.869-.079,1.421.474.395.395,1.9,1.737,1.9,1.737s.158-1.263.237-1.658h-.395a.373.373,0,0,1-.395-.395l.158-1.5c0-.158.079-.316.237-.316a8.22,8.22,0,0,1,1.185-.474,2.658,2.658,0,0,1,.948-.237,1.975,1.975,0,0,1,1.027.316,1.651,1.651,0,0,1,.553,1.027l.316,3.238s1.5-1.342,1.9-1.737c.553-.474.869-.632,1.421-.474.474.158.711.474.869,1.263.079.711,1.106,8.37,1.342,10.108,0,.237-.316.316-.474.237-1.5-.079-2.369-2.132-2.685-3.4l-1.658-.632C122.941,444.334,123.731,447.493,123.968,448.441Z" transform="translate(-112.584 -345.626)"/>
      <path id="Path_388" data-name="Path 388" d="M147.268,448.441a.5.5,0,0,1-.316.632,3.887,3.887,0,0,1-2.132.158s-.632,1.106-1.5,1.106-1.5-1.106-1.5-1.106a3.942,3.942,0,0,1-2.132-.158.5.5,0,0,1-.316-.632c.237-.948,1.106-4.106,1.342-5.291l-1.658.632c-.316,1.263-1.184,3.238-2.685,3.4-.237,0-.553-.079-.474-.237.158-1.658,1.185-9.318,1.342-10.108.079-.711.316-1.106.869-1.263.474-.158.869-.079,1.421.474.395.395,1.9,1.737,1.9,1.737s.158-1.263.237-1.658h-.395a.373.373,0,0,1-.395-.395l.158-1.5c0-.158.079-.316.237-.316a8.22,8.22,0,0,1,1.184-.474,2.658,2.658,0,0,1,.948-.237,1.975,1.975,0,0,1,1.027.316,1.651,1.651,0,0,1,.553,1.027l.316,3.238s1.5-1.342,1.9-1.737c.553-.474.869-.632,1.421-.474.474.158.711.474.869,1.263.079.711,1.106,8.37,1.342,10.108,0,.237-.316.316-.474.237-1.5-.079-2.369-2.132-2.685-3.4L146,443.15C146.241,444.334,147.031,447.493,147.268,448.441Z" transform="translate(-117.485 -345.626)"/>
      <path id="Path_389" data-name="Path 389" d="M198.168,420.941a.5.5,0,0,1-.316.632,3.887,3.887,0,0,1-2.132.158s-.632,1.106-1.5,1.106-1.5-1.106-1.5-1.106a3.943,3.943,0,0,1-2.132-.158.5.5,0,0,1-.316-.632c.237-.948,1.106-4.106,1.342-5.212l-1.658.632c-.316,1.263-1.184,3.238-2.685,3.4-.237,0-.553-.079-.474-.237.158-1.658,1.184-9.318,1.342-10.108.079-.711.316-1.106.869-1.263.474-.158.869-.079,1.421.474.395.395,1.9,1.737,1.9,1.737s.158-1.263.237-1.658h-.395a.373.373,0,0,1-.395-.395l.158-1.5c0-.158.079-.316.237-.316,0,0,.632-.316,1.184-.553a2.658,2.658,0,0,1,.948-.237,1.975,1.975,0,0,1,1.027.316,1.651,1.651,0,0,1,.553,1.027l.316,3.238s1.5-1.342,1.9-1.737c.553-.474.869-.632,1.421-.474s.711.474.869,1.263c.079.711,1.106,8.37,1.342,10.108,0,.237-.316.316-.474.237-1.5-.079-2.369-2.132-2.685-3.4l-1.658-.632A47.277,47.277,0,0,0,198.168,420.941Z" transform="translate(-128.191 -339.842)"/>
      <path id="Path_390" data-name="Path 390" d="M221.468,420.941a.5.5,0,0,1-.316.632,3.887,3.887,0,0,1-2.132.158s-.632,1.106-1.5,1.106-1.5-1.106-1.5-1.106a3.943,3.943,0,0,1-2.132-.158.5.5,0,0,1-.316-.632c.237-.948,1.106-4.106,1.342-5.212l-1.658.632c-.316,1.263-1.185,3.238-2.685,3.4-.237,0-.553-.079-.474-.237.158-1.658,1.185-9.318,1.342-10.108.079-.711.316-1.106.869-1.263.474-.158.869-.079,1.421.474.395.395,1.9,1.737,1.9,1.737s.158-1.263.237-1.658h-.395a.373.373,0,0,1-.395-.395l.158-1.5c0-.158.079-.316.237-.316,0,0,.632-.316,1.185-.553a2.658,2.658,0,0,1,.948-.237,1.975,1.975,0,0,1,1.027.316,1.651,1.651,0,0,1,.553,1.027l.316,3.238s1.5-1.342,1.9-1.737c.553-.474.869-.632,1.421-.474s.711.474.869,1.263c.079.711,1.106,8.37,1.342,10.108,0,.237-.316.316-.474.237-1.5-.079-2.369-2.132-2.685-3.4l-1.658-.632A47.28,47.28,0,0,0,221.468,420.941Z" transform="translate(-133.092 -339.842)"/>
      <path id="Path_391" data-name="Path 391" d="M198.168,448.441a.5.5,0,0,1-.316.632,3.887,3.887,0,0,1-2.132.158s-.632,1.106-1.5,1.106-1.5-1.106-1.5-1.106a3.943,3.943,0,0,1-2.132-.158.5.5,0,0,1-.316-.632c.237-.948,1.106-4.106,1.342-5.291l-1.658.632c-.316,1.263-1.184,3.238-2.685,3.4-.237,0-.553-.079-.474-.237.158-1.658,1.184-9.318,1.342-10.108.079-.711.316-1.106.869-1.263.474-.158.869-.079,1.421.474.395.395,1.9,1.737,1.9,1.737s.158-1.263.237-1.658h-.395a.373.373,0,0,1-.395-.395l.158-1.5c0-.158.079-.316.237-.316a8.22,8.22,0,0,1,1.184-.474,2.658,2.658,0,0,1,.948-.237,1.975,1.975,0,0,1,1.027.316,1.651,1.651,0,0,1,.553,1.027l.316,3.238s1.5-1.342,1.9-1.737c.553-.474.869-.632,1.421-.474s.711.474.869,1.263c.079.711,1.106,8.37,1.342,10.108,0,.237-.316.316-.474.237-1.5-.079-2.369-2.132-2.685-3.4l-1.658-.632A47.277,47.277,0,0,0,198.168,448.441Z" transform="translate(-128.191 -345.626)"/>
      <path id="Path_392" data-name="Path 392" d="M221.468,448.441a.5.5,0,0,1-.316.632,3.887,3.887,0,0,1-2.132.158s-.632,1.106-1.5,1.106-1.5-1.106-1.5-1.106a3.943,3.943,0,0,1-2.132-.158.5.5,0,0,1-.316-.632c.237-.948,1.106-4.106,1.342-5.291l-1.658.632c-.316,1.263-1.185,3.238-2.685,3.4-.237,0-.553-.079-.474-.237.158-1.658,1.185-9.318,1.342-10.108.079-.711.316-1.106.869-1.263.474-.158.869-.079,1.421.474.395.395,1.9,1.737,1.9,1.737s.158-1.263.237-1.658h-.395a.373.373,0,0,1-.395-.395l.158-1.5c0-.158.079-.316.237-.316a8.22,8.22,0,0,1,1.185-.474,2.658,2.658,0,0,1,.948-.237,1.975,1.975,0,0,1,1.027.316,1.651,1.651,0,0,1,.553,1.027l.316,3.238s1.5-1.342,1.9-1.737c.553-.474.869-.632,1.421-.474s.711.474.869,1.263c.079.711,1.106,8.37,1.342,10.108,0,.237-.316.316-.474.237-1.5-.079-2.369-2.132-2.685-3.4l-1.658-.632A47.281,47.281,0,0,0,221.468,448.441Z" transform="translate(-133.092 -345.626)"/>
    </g>
    <g id="Group_50" data-name="Group 50" transform="translate(120.341 333.342)">
      <path id="Path_393" data-name="Path 393" d="M168.844,351.866a2.222,2.222,0,0,0,1.9-1.027,2.25,2.25,0,0,0,3.238-1.737,2.181,2.181,0,0,0,1.658-3.632c-.553-.632-2.448-3-2.527-3v-1.263A1.08,1.08,0,0,0,172,340.1H170.9l-1.027-1.027a1.39,1.39,0,0,0-1.027-.474,1.273,1.273,0,0,0-1.027.474l-1.027,1.027h-1.106a1.08,1.08,0,0,0-1.106,1.106v1.263s-1.974,2.369-2.527,3a2.27,2.27,0,0,0-.553,1.421,2.207,2.207,0,0,0,2.211,2.211,2.25,2.25,0,0,0,3.238,1.737A2.222,2.222,0,0,0,168.844,351.866Z" transform="translate(-132.203 -338.6)"/>
      <path id="Path_394" data-name="Path 394" d="M168.844,393.566a2.222,2.222,0,0,0,1.9-1.027,2.25,2.25,0,0,0,3.238-1.737,2.181,2.181,0,0,0,1.658-3.632c-.553-.632-2.448-3-2.527-3v-1.263A1.08,1.08,0,0,0,172,381.8H170.9l-1.027-1.027a1.39,1.39,0,0,0-1.027-.474,1.273,1.273,0,0,0-1.027.474l-1.027,1.027h-1.106a1.08,1.08,0,0,0-1.106,1.106v1.263s-1.974,2.369-2.527,3a2.27,2.27,0,0,0-.553,1.421,2.207,2.207,0,0,0,2.211,2.211,2.25,2.25,0,0,0,3.238,1.737A2.222,2.222,0,0,0,168.844,393.566Z" transform="translate(-132.203 -347.371)"/>
      <path id="Path_395" data-name="Path 395" d="M131.744,393.566a2.222,2.222,0,0,0,1.9-1.027,2.25,2.25,0,0,0,3.238-1.737,2.181,2.181,0,0,0,1.658-3.632c-.553-.632-2.448-3-2.527-3v-1.263A1.08,1.08,0,0,0,134.9,381.8H133.8l-1.027-1.027a1.39,1.39,0,0,0-1.027-.474,1.273,1.273,0,0,0-1.027.474l-1.027,1.027h-1.106a1.08,1.08,0,0,0-1.106,1.106v1.263s-1.974,2.369-2.527,3a2.27,2.27,0,0,0-.553,1.421,2.207,2.207,0,0,0,2.211,2.211,2.25,2.25,0,0,0,3.238,1.737A2.222,2.222,0,0,0,131.744,393.566Z" transform="translate(-124.4 -347.371)"/>
      <path id="Path_396" data-name="Path 396" d="M205.844,393.566a2.222,2.222,0,0,0,1.9-1.027,2.25,2.25,0,0,0,3.238-1.737,2.181,2.181,0,0,0,1.658-3.632c-.553-.632-2.448-3-2.527-3v-1.263A1.08,1.08,0,0,0,209,381.8H207.9l-1.027-1.027a1.39,1.39,0,0,0-1.027-.474,1.273,1.273,0,0,0-1.027.474l-1.027,1.027h-1.106a1.08,1.08,0,0,0-1.106,1.106v1.263s-1.974,2.369-2.527,3a2.27,2.27,0,0,0-.553,1.421,2.207,2.207,0,0,0,2.211,2.211,2.25,2.25,0,0,0,3.238,1.737A2.326,2.326,0,0,0,205.844,393.566Z" transform="translate(-139.986 -347.371)"/>
      <path id="Path_397" data-name="Path 397" d="M168.844,435.266a2.222,2.222,0,0,0,1.9-1.027,2.25,2.25,0,0,0,3.238-1.737,2.181,2.181,0,0,0,1.658-3.632c-.553-.632-2.448-3-2.527-3v-1.263A1.08,1.08,0,0,0,172,423.5H170.9l-1.027-1.027a1.39,1.39,0,0,0-1.027-.474,1.273,1.273,0,0,0-1.027.474l-1.027,1.027h-1.106a1.08,1.08,0,0,0-1.106,1.106v1.263s-1.974,2.369-2.527,3a2.27,2.27,0,0,0-.553,1.421,2.207,2.207,0,0,0,2.211,2.211,2.25,2.25,0,0,0,3.238,1.737A2.222,2.222,0,0,0,168.844,435.266Z" transform="translate(-132.203 -356.142)"/>
    </g>
    <g id="Group_51" data-name="Group 51" transform="translate(121.209 334.21)">
      <path id="Path_398" data-name="Path 398" d="M169.075,351.387a1.362,1.362,0,0,0,1.184-.711l-.395-4.027c0-.158.079-.316.237-.316s.316.079.316.237l.711,3.869a1.273,1.273,0,0,0,.711.237,1.534,1.534,0,0,0,1.5-1.342l-1.658-3.869a.3.3,0,1,1,.553-.237l1.816,3.474h0a1.452,1.452,0,0,0,1.5-1.5,1.3,1.3,0,0,0-.158-.79l-2.843-3.4v-1.5a.34.34,0,0,0-.316-.316h-1.421l-1.263-1.263a.682.682,0,0,0-.474-.237.563.563,0,0,0-.474.237l-1.263,1.263h-1.421a.34.34,0,0,0-.316.316v1.5l-2.843,3.4a1.3,1.3,0,0,0-.158.79,1.553,1.553,0,0,0,1.5,1.5h0l1.816-3.474a.3.3,0,1,1,.553.237l-1.658,3.869a1.471,1.471,0,0,0,1.5,1.342,1.1,1.1,0,0,0,.711-.237l.711-3.869c0-.158.158-.237.316-.237s.237.158.237.316l-.395,4.027A1.42,1.42,0,0,0,169.075,351.387Z" transform="translate(-133.303 -339.7)" fill="#009fe3"/>
      <path id="Path_399" data-name="Path 399" d="M169.075,393.087a1.362,1.362,0,0,0,1.184-.711l-.395-4.027c0-.158.079-.316.237-.316s.316.079.316.237l.711,3.869a1.274,1.274,0,0,0,.711.237,1.534,1.534,0,0,0,1.5-1.342l-1.658-3.869a.3.3,0,1,1,.553-.237l1.816,3.475h0a1.452,1.452,0,0,0,1.5-1.5,1.3,1.3,0,0,0-.158-.79l-2.843-3.4v-1.5a.34.34,0,0,0-.316-.316h-1.421l-1.263-1.263a.682.682,0,0,0-.474-.237.563.563,0,0,0-.474.237l-1.263,1.263h-1.421a.34.34,0,0,0-.316.316v1.5l-2.843,3.4a1.3,1.3,0,0,0-.158.79,1.553,1.553,0,0,0,1.5,1.5h0l1.816-3.475a.3.3,0,0,1,.553.237l-1.658,3.869a1.471,1.471,0,0,0,1.5,1.342,1.1,1.1,0,0,0,.711-.237l.711-3.869c0-.158.158-.237.316-.237s.237.158.237.316l-.395,4.027A1.42,1.42,0,0,0,169.075,393.087Z" transform="translate(-133.303 -348.471)" fill="#009fe3"/>
      <path id="Path_400" data-name="Path 400" d="M131.975,393.087a1.362,1.362,0,0,0,1.185-.711l-.395-4.027c0-.158.079-.316.237-.316s.316.079.316.237l.711,3.869a1.274,1.274,0,0,0,.711.237,1.534,1.534,0,0,0,1.5-1.342l-1.658-3.869a.3.3,0,0,1,.553-.237l1.816,3.475h0a1.452,1.452,0,0,0,1.5-1.5,1.3,1.3,0,0,0-.158-.79l-2.843-3.4v-1.5a.34.34,0,0,0-.316-.316h-1.421l-1.263-1.263a.682.682,0,0,0-.474-.237.563.563,0,0,0-.474.237l-1.263,1.263h-1.421a.34.34,0,0,0-.316.316v1.5l-2.843,3.4a1.3,1.3,0,0,0-.158.79,1.553,1.553,0,0,0,1.5,1.5h0l1.816-3.475a.3.3,0,0,1,.553.237l-1.658,3.869a1.471,1.471,0,0,0,1.5,1.342,1.1,1.1,0,0,0,.711-.237l.711-3.869c0-.158.158-.237.316-.237s.237.158.237.316l-.395,4.027A1.545,1.545,0,0,0,131.975,393.087Z" transform="translate(-125.5 -348.471)" fill="#009fe3"/>
      <path id="Path_401" data-name="Path 401" d="M206.075,393.087a1.362,1.362,0,0,0,1.184-.711l-.395-4.027c0-.158.079-.316.237-.316s.316.079.316.237l.711,3.869a1.274,1.274,0,0,0,.711.237,1.534,1.534,0,0,0,1.5-1.342l-1.658-3.869a.3.3,0,0,1,.553-.237l1.816,3.475h0a1.452,1.452,0,0,0,1.5-1.5,1.3,1.3,0,0,0-.158-.79l-2.843-3.4v-1.5a.34.34,0,0,0-.316-.316h-1.421l-1.263-1.263a.682.682,0,0,0-.474-.237.563.563,0,0,0-.474.237l-1.263,1.263h-1.421a.34.34,0,0,0-.316.316v1.5l-2.843,3.4a1.3,1.3,0,0,0-.158.79,1.553,1.553,0,0,0,1.5,1.5h0l1.816-3.475a.3.3,0,0,1,.553.237l-1.658,3.869a1.471,1.471,0,0,0,1.5,1.342,1.1,1.1,0,0,0,.711-.237l.711-3.869c0-.158.158-.237.316-.237s.237.158.237.316l-.395,4.027A1.693,1.693,0,0,0,206.075,393.087Z" transform="translate(-141.086 -348.471)" fill="#009fe3"/>
      <path id="Path_402" data-name="Path 402" d="M169.075,434.766a1.362,1.362,0,0,0,1.184-.711l-.395-4.027c0-.158.079-.316.237-.316s.316.079.316.237l.711,3.869a1.173,1.173,0,0,0,.711.158,1.534,1.534,0,0,0,1.5-1.342l-1.658-3.869a.3.3,0,0,1,.553-.237L174.05,432h0a1.452,1.452,0,0,0,1.5-1.5,1.3,1.3,0,0,0-.158-.79l-2.843-3.4v-1.5a.34.34,0,0,0-.316-.316h-1.421l-1.263-1.263a.682.682,0,0,0-.474-.237.563.563,0,0,0-.474.237l-1.263,1.263h-1.421a.34.34,0,0,0-.316.316v1.5l-2.843,3.4a1.3,1.3,0,0,0-.158.79,1.553,1.553,0,0,0,1.5,1.5h0l1.816-3.475a.3.3,0,0,1,.553.237l-1.658,3.869a1.471,1.471,0,0,0,1.5,1.342,1.886,1.886,0,0,0,.711-.158l.711-3.869c0-.158.158-.237.316-.237s.237.158.237.316l-.395,4.027A1.271,1.271,0,0,0,169.075,434.766Z" transform="translate(-133.303 -357.221)" fill="#009fe3"/>
    </g>
  </g>
</svg>
