<svg xmlns="http://www.w3.org/2000/svg" width="363" height="168.019" viewBox="0 0 363 168.019">
  <g id="UQAM" transform="translate(-140 -319.3)">
    <rect id="Rectangle_49" data-name="Rectangle 49" width="363" height="168.019" transform="translate(140 319.3)" fill="none"/>
    <g id="Group_53" data-name="Group 53" transform="translate(196.006 360.291)">
      <path id="Path_419" data-name="Path 419" d="M275.527,374.442c-13.043-.11-17.865,12.275-17.975,24.441-.11,13.043,6.686,23.345,17.755,23.455,11.289.11,17.755-10.3,18.194-23.455.438-12.275-4.713-24.331-17.975-24.441m40.881,61.815c-5.042.548-8.987,1.1-14.248,2.082-4.055-1.315-19.619-7.782-28.168-10.522-22.578-.219-29.592-15.892-29.592-28.825,0-14.906,9.974-29.592,31.127-29.592,22.249,0,31.456,14.8,31.346,29.483,0,13.152-9.864,25.1-20.824,27.181a13,13,0,0,1,3.726.767c1.754.548,22.8,7.343,26.743,8.659v.767Z" transform="translate(-185.982 -355.481)" fill="#096fb7"/>
      <path id="Path_420" data-name="Path 420" d="M337.076,403.828l-8.11-20.167-7.672,20.167Zm-18.194,6.028-6.357,16.55H303.1c2.85-6.9,23.564-53.486,24.66-56.006h6.466c1.754,3.288,22.907,51.074,25.208,56.006H346.283l-6.686-16.55Z" transform="translate(-180.346 -355.385)" fill="#096fb7"/>
      <path id="Path_421" data-name="Path 421" d="M392.438,408.213,374.244,370.4h-7.672L358.9,426.406h9.316L371.5,389.58c1.425,2.082,16.769,35.182,17.427,36.936h3.726l16.769-36.936,3.178,36.826h13.262L418.633,370.4h-8.111Z" transform="translate(-174.989 -355.385)" fill="#096fb7"/>
      <path id="Path_422" data-name="Path 422" d="M231.1,370.41v31.456c0,8.111-1.754,18.851-13.81,18.851-7.672,0-13.591-4.165-13.591-14.467V370.3H191.1v35.62c0,14.467,11.179,21.263,24.66,21.372,17.427.11,25.208-9.974,25.318-21.92V370.3H231.1Z" transform="translate(-191.1 -355.394)" fill="#096fb7"/>
      <path id="Path_423" data-name="Path 423" d="M303.8,358.782c5.042-.658,10.083-1.534,13.481-2.082,3.178,1.1,22.578,8.439,26.414,9.645v.548a74.8,74.8,0,0,0-9.645,2.3c-2.959-.986-27.729-8.987-30.25-9.755Z" transform="translate(-180.279 -356.7)" fill="#096fb7"/>
    </g>
  </g>
</svg>
