<svg xmlns="http://www.w3.org/2000/svg" width="266.6" height="128.173" viewBox="0 0 266.6 128.173">
  <g id="Layer_1" transform="translate(-167.7 -325.1)">
    <g id="Group_55" data-name="Group 55" transform="translate(301.814 400.62)">
      <g id="Group_54" data-name="Group 54">
        <path id="Path_424" data-name="Path 424" d="M339.906,433.286a2.645,2.645,0,0,0,1.058-1.058,3.94,3.94,0,0,0,.57-1.465,12.14,12.14,0,0,0,.163-1.709v-6.592h2.034v6.592a8.586,8.586,0,0,1-.326,2.523,6.757,6.757,0,0,1-.977,2.034A5.57,5.57,0,0,1,340.719,435a6.2,6.2,0,0,1-2.6.488,5.138,5.138,0,0,1-2.6-.57,3.765,3.765,0,0,1-1.709-1.465,7.269,7.269,0,0,1-.977-2.116,12.562,12.562,0,0,1-.326-2.441V422.3h2.034v6.592a12.14,12.14,0,0,0,.163,1.709,3.94,3.94,0,0,0,.57,1.465,3.285,3.285,0,0,0,1.058,1.058,3.783,3.783,0,0,0,1.709.407A2.333,2.333,0,0,0,339.906,433.286Z" transform="translate(-332.5 -418.719)" fill="#3c3c3b"/>
        <path id="Path_425" data-name="Path 425" d="M351.734,435.521H349.7V422.5h1.628l7.406,9.359V422.5h2.034v12.939h-1.709l-7.324-9.115Z" transform="translate(-335.703 -418.757)" fill="#3c3c3b"/>
        <path id="Path_426" data-name="Path 426" d="M367,422.5h2.034v12.939H367Z" transform="translate(-338.924 -418.757)" fill="#3c3c3b"/>
        <path id="Path_427" data-name="Path 427" d="M377.5,432.917,381.41,422.5h2.2L378.4,435.521h-1.79L371.4,422.5h2.2Z" transform="translate(-339.743 -418.757)" fill="#3c3c3b"/>
        <path id="Path_428" data-name="Path 428" d="M397.17,435.521H388.3V422.5h8.708v1.79h-6.673v3.662h5.778v1.709h-5.778v3.988h6.836v1.872Z" transform="translate(-342.89 -418.757)" fill="#3c3c3b"/>
        <path id="Path_429" data-name="Path 429" d="M401.9,422.5h5.615a3.7,3.7,0,0,1,1.628.407,4.964,4.964,0,0,1,1.3.977,3.893,3.893,0,0,1,.814,1.383,5.253,5.253,0,0,1,.326,1.546,7.122,7.122,0,0,1-.163,1.3c-.163.407-.326.814-.488,1.139a4.266,4.266,0,0,1-.814.9,4.385,4.385,0,0,1-1.058.57l3.092,4.964h-2.36l-2.848-4.557h-3.011v4.557H401.9V422.5Zm5.615,6.673a2.407,2.407,0,0,0,.814-.163,4.074,4.074,0,0,0,.651-.57,2.545,2.545,0,0,0,.407-.814,3.462,3.462,0,0,0,.163-.9,2.926,2.926,0,0,0-.163-.9,1.185,1.185,0,0,0-.488-.732,1.265,1.265,0,0,0-.651-.488,1.338,1.338,0,0,0-.814-.163h-3.5v4.883h3.581Z" transform="translate(-345.422 -418.757)" fill="#3c3c3b"/>
        <path id="Path_430" data-name="Path 430" d="M423.9,425.086a2.546,2.546,0,0,0-.814-.407,4.029,4.029,0,0,0-1.058-.326,6.281,6.281,0,0,0-1.221-.163,2.766,2.766,0,0,0-1.79.488,1.581,1.581,0,0,0-.651,1.3,2.407,2.407,0,0,0,.163.814c.163.163.326.407.57.488a5.9,5.9,0,0,0,.977.407,12.552,12.552,0,0,1,1.383.407,8.406,8.406,0,0,1,1.709.57,5.462,5.462,0,0,1,1.383.651,3.373,3.373,0,0,1,.9.977,2.787,2.787,0,0,1,.326,1.465,3.533,3.533,0,0,1-.407,1.709,2.4,2.4,0,0,1-1.058,1.139,3.86,3.86,0,0,1-1.546.651,6.778,6.778,0,0,1-1.79.244,8.382,8.382,0,0,1-2.848-.488,9.266,9.266,0,0,1-2.523-1.3l.977-1.79c.163.163.407.326.651.57.326.163.651.407,1.058.57a6.1,6.1,0,0,0,1.3.407,8.966,8.966,0,0,0,1.465.163,3.42,3.42,0,0,0,1.79-.407,1.545,1.545,0,0,0,.651-1.221,1.375,1.375,0,0,0-.244-.814,1.773,1.773,0,0,0-.732-.57,3.716,3.716,0,0,0-1.139-.407c-.407-.163-.977-.244-1.465-.407a8.406,8.406,0,0,1-1.709-.57,4.313,4.313,0,0,1-1.221-.651,2.221,2.221,0,0,1-.732-.977,3.1,3.1,0,0,1-.244-1.3,3.774,3.774,0,0,1,.326-1.709,3.6,3.6,0,0,1,.977-1.221,4.13,4.13,0,0,1,1.465-.732,6.937,6.937,0,0,1,1.872-.244,7.671,7.671,0,0,1,2.441.407,7.491,7.491,0,0,1,1.953,1.058l-.9,1.709C424.308,425.411,424.145,425.248,423.9,425.086Z" transform="translate(-347.973 -418.738)" fill="#3c3c3b"/>
        <path id="Path_431" data-name="Path 431" d="M430.8,422.5h2.034v12.939H430.8Z" transform="translate(-350.804 -418.757)" fill="#3c3c3b"/>
        <path id="Path_432" data-name="Path 432" d="M441.848,424.29v11.149h-2.034V424.29H435.5V422.5h10.661v1.79Z" transform="translate(-351.679 -418.757)" fill="#3c3c3b"/>
        <path id="Path_433" data-name="Path 433" d="M459.67,434.664H450.8V421.643h8.708v1.79h-6.673V427.1h5.778V428.8h-5.778v3.988h6.836Zm-5.208-14.73,1.058-2.035h1.953l-1.628,2.441Z" transform="translate(-354.528 -417.9)" fill="#3c3c3b"/>
        <path id="Path_434" data-name="Path 434" d="M332.8,444.4h4.639a7.3,7.3,0,0,1,2.767.488,4.994,4.994,0,0,1,1.953,1.383,6.457,6.457,0,0,1,1.221,2.035,8.617,8.617,0,0,1,.407,2.523,9.293,9.293,0,0,1-.407,2.686,5.633,5.633,0,0,1-3.337,3.337,6.748,6.748,0,0,1-2.6.488H332.8V444.4Zm8.626,4.639a4.267,4.267,0,0,0-.814-1.465,4.965,4.965,0,0,0-1.3-.977,4.14,4.14,0,0,0-1.79-.326H335v9.359h2.523a4.14,4.14,0,0,0,1.79-.326,3.237,3.237,0,0,0,1.3-.977,4.268,4.268,0,0,0,.814-1.465,6.936,6.936,0,0,0,.244-1.872A7.119,7.119,0,0,0,341.426,449.039Z" transform="translate(-332.556 -422.834)" fill="#3c3c3b"/>
        <path id="Path_435" data-name="Path 435" d="M356.006,455.286a2.645,2.645,0,0,0,1.058-1.058,3.941,3.941,0,0,0,.57-1.465,12.14,12.14,0,0,0,.163-1.709v-6.592h2.034v6.592a8.586,8.586,0,0,1-.326,2.523,6.757,6.757,0,0,1-.977,2.034A5.57,5.57,0,0,1,356.819,457a6.2,6.2,0,0,1-2.6.488,5.139,5.139,0,0,1-2.6-.57,3.765,3.765,0,0,1-1.709-1.465,7.269,7.269,0,0,1-.977-2.116,12.562,12.562,0,0,1-.326-2.441V444.3h2.034v6.592a12.14,12.14,0,0,0,.163,1.709,3.94,3.94,0,0,0,.57,1.465,3.285,3.285,0,0,0,1.058,1.058,3.783,3.783,0,0,0,1.709.407A3.059,3.059,0,0,0,356.006,455.286Z" transform="translate(-335.498 -422.816)" fill="#3c3c3b"/>
        <path id="Path_436" data-name="Path 436" d="M378.294,457.221a6.345,6.345,0,0,1-1.79.244,5.452,5.452,0,0,1-2.523-.57,8.758,8.758,0,0,1-1.953-1.465,5,5,0,0,1-1.221-2.116,6.419,6.419,0,0,1-.407-2.441,6.632,6.632,0,0,1,.488-2.523,7.072,7.072,0,0,1,1.3-2.116,8.759,8.759,0,0,1,1.953-1.465,5.981,5.981,0,0,1,2.441-.57,5.452,5.452,0,0,1,2.523.57,7.126,7.126,0,0,1,1.953,1.546,5.543,5.543,0,0,1,1.221,2.116,6.419,6.419,0,0,1,.407,2.441,6.53,6.53,0,0,1-.488,2.441,7.114,7.114,0,0,1-1.221,2.034l1.709,1.953h-1.953l-.9-.977A4.823,4.823,0,0,1,378.294,457.221Zm-.57-1.79a2.749,2.749,0,0,0,.977-.488l-1.79-2.116h1.953l.9,1.058a3.1,3.1,0,0,0,.651-1.383,5.246,5.246,0,0,0,.244-1.628,4.38,4.38,0,0,0-.326-1.79,5.628,5.628,0,0,0-.814-1.546,4.14,4.14,0,0,0-1.3-1.058,3.7,3.7,0,0,0-1.628-.407,3.783,3.783,0,0,0-1.709.407,5.315,5.315,0,0,0-1.3,1.058,4.668,4.668,0,0,0-.814,1.546,6.2,6.2,0,0,0-.244,1.709,6.78,6.78,0,0,0,.244,1.79,5.629,5.629,0,0,0,.814,1.546,4.141,4.141,0,0,0,1.3,1.058,3.783,3.783,0,0,0,1.709.407A2.769,2.769,0,0,0,377.724,455.43Z" transform="translate(-339.557 -422.797)" fill="#3c3c3b"/>
        <path id="Path_437" data-name="Path 437" d="M395.206,455.286a2.645,2.645,0,0,0,1.058-1.058,3.941,3.941,0,0,0,.57-1.465,12.144,12.144,0,0,0,.163-1.709v-6.592h2.034v6.592a8.586,8.586,0,0,1-.326,2.523,6.758,6.758,0,0,1-.977,2.034A5.57,5.57,0,0,1,396.019,457a6.2,6.2,0,0,1-2.6.488,5.139,5.139,0,0,1-2.6-.57,3.765,3.765,0,0,1-1.709-1.465,7.268,7.268,0,0,1-.977-2.116,12.562,12.562,0,0,1-.326-2.441V444.3h2.035v6.592A12.14,12.14,0,0,0,390,452.6a3.94,3.94,0,0,0,.57,1.465,3.285,3.285,0,0,0,1.058,1.058,3.783,3.783,0,0,0,1.709.407A3.285,3.285,0,0,0,395.206,455.286Z" transform="translate(-342.797 -422.816)" fill="#3c3c3b"/>
        <path id="Path_438" data-name="Path 438" d="M413.952,456.564H405V443.543h8.708v1.79h-6.673V449h5.778V450.7h-5.778v3.988h6.836v1.872Zm-5.208-14.73L409.8,439.8h1.953l-1.628,2.441Z" transform="translate(-346 -421.978)" fill="#3c3c3b"/>
        <path id="Path_439" data-name="Path 439" d="M428.528,455.468a3.652,3.652,0,0,1-.9,1.058,3.271,3.271,0,0,1-1.3.651,4.738,4.738,0,0,1-1.546.244H418.6V444.4h6.673a1.962,1.962,0,0,1,1.221.326,3.916,3.916,0,0,1,.9.732,2.68,2.68,0,0,1,.57,1.058,3.265,3.265,0,0,1,.244,1.221,3.485,3.485,0,0,1-.488,1.79,2.873,2.873,0,0,1-1.383,1.221,3.927,3.927,0,0,1,1.79,1.221,3.627,3.627,0,0,1,.651,2.116A2.028,2.028,0,0,1,428.528,455.468Zm-7.812-5.452h3.743a2.376,2.376,0,0,0,.732-.163,2.129,2.129,0,0,0,.977-.977,2.376,2.376,0,0,0,.163-.732,1.914,1.914,0,0,0-.488-1.383,1.731,1.731,0,0,0-1.221-.57h-3.906v3.825Zm5.941,2.93a4.83,4.83,0,0,0-.326-.651,1.46,1.46,0,0,0-.57-.407,2.376,2.376,0,0,0-.732-.163h-4.313v3.988h4.15a2.376,2.376,0,0,0,.732-.163,1.459,1.459,0,0,0,.57-.407,1.771,1.771,0,0,0,.407-.651,2.376,2.376,0,0,0,.163-.732A2.509,2.509,0,0,0,426.657,452.945Z" transform="translate(-348.532 -422.834)" fill="#3c3c3b"/>
        <path id="Path_440" data-name="Path 440" d="M442.77,457.421H433.9V444.4h8.708v1.79h-6.673v3.662h5.778v1.709h-5.778v3.988h6.836Z" transform="translate(-351.381 -422.834)" fill="#3c3c3b"/>
        <path id="Path_441" data-name="Path 441" d="M447.019,448.55a5.543,5.543,0,0,1,1.221-2.116,4.959,4.959,0,0,1,1.953-1.465,5.342,5.342,0,0,1,2.6-.57,5.4,5.4,0,0,1,3.011.814,5,5,0,0,1,1.872,2.035l-1.628,1.058a2.926,2.926,0,0,0-.651-.977,5.7,5.7,0,0,0-.814-.651,3.967,3.967,0,0,0-.9-.326,3.649,3.649,0,0,0-.9-.081,3.783,3.783,0,0,0-1.709.407,5.312,5.312,0,0,0-1.3,1.058,5.4,5.4,0,0,0-.732,1.546,6.194,6.194,0,0,0-.244,1.709,4.38,4.38,0,0,0,.326,1.79,5.628,5.628,0,0,0,.814,1.546,5.314,5.314,0,0,0,1.3,1.058,3.7,3.7,0,0,0,1.628.407,3.962,3.962,0,0,0,.977-.081,4.978,4.978,0,0,0,.977-.407,3.187,3.187,0,0,0,.814-.651,2.926,2.926,0,0,0,.651-.977l1.709.977a4.651,4.651,0,0,1-.9,1.3,12.822,12.822,0,0,1-1.221.977,5.454,5.454,0,0,1-1.465.57,5.008,5.008,0,0,1-1.546.163,4.915,4.915,0,0,1-2.441-.57,7.154,7.154,0,0,1-3.255-3.662,6.531,6.531,0,0,1-.488-2.441A4.834,4.834,0,0,1,447.019,448.55Z" transform="translate(-353.758 -422.834)" fill="#3c3c3b"/>
        <path id="Path_442" data-name="Path 442" d="M341.77,479.321H332.9V466.3h8.708v1.79h-6.673v3.662h5.778v1.709h-5.778v3.988h6.836Z" transform="translate(-332.574 -426.912)" fill="#3c3c3b"/>
        <path id="Path_443" data-name="Path 443" d="M348.534,479.321H346.5V466.3h1.628l7.406,9.359V466.3h2.034v12.939h-1.709l-7.324-9.115Z" transform="translate(-335.107 -426.912)" fill="#3c3c3b"/>
        <path id="Path_444" data-name="Path 444" d="M371.981,478.9a8.761,8.761,0,0,1-1.953-1.465,5.543,5.543,0,0,1-1.221-2.116,6.419,6.419,0,0,1-.407-2.441,6.632,6.632,0,0,1,.488-2.523,7.071,7.071,0,0,1,1.3-2.116,8.762,8.762,0,0,1,1.953-1.465,5.981,5.981,0,0,1,2.441-.57,5.453,5.453,0,0,1,2.523.57,7.128,7.128,0,0,1,1.953,1.546,5.542,5.542,0,0,1,1.221,2.116,6.418,6.418,0,0,1,.407,2.441,6.631,6.631,0,0,1-.488,2.523,7.071,7.071,0,0,1-1.3,2.116,8.762,8.762,0,0,1-1.953,1.465,5.981,5.981,0,0,1-2.441.57A10.36,10.36,0,0,1,371.981,478.9Zm-1.3-4.313a5.628,5.628,0,0,0,.814,1.546,4.14,4.14,0,0,0,1.3,1.058,3.792,3.792,0,0,0,3.418,0,5.312,5.312,0,0,0,1.3-1.058,5.628,5.628,0,0,0,.814-1.546,6.2,6.2,0,0,0,.244-1.709,4.38,4.38,0,0,0-.326-1.79,4.268,4.268,0,0,0-.814-1.465,4.14,4.14,0,0,0-1.3-1.058,3.7,3.7,0,0,0-1.628-.407,3.783,3.783,0,0,0-1.709.407,5.314,5.314,0,0,0-1.3,1.058,4.667,4.667,0,0,0-.814,1.546,6.1,6.1,0,0,0,0,3.418Z" transform="translate(-339.185 -426.894)" fill="#3c3c3b"/>
        <path id="Path_445" data-name="Path 445" d="M393.106,477.186a2.645,2.645,0,0,0,1.058-1.058,3.941,3.941,0,0,0,.57-1.465,12.139,12.139,0,0,0,.163-1.709v-6.592h2.035v6.592a8.585,8.585,0,0,1-.326,2.523,6.756,6.756,0,0,1-.977,2.034,5.57,5.57,0,0,1-1.709,1.383,6.2,6.2,0,0,1-2.6.488,5.139,5.139,0,0,1-2.6-.57A3.765,3.765,0,0,1,387,477.349a7.267,7.267,0,0,1-.977-2.116,12.561,12.561,0,0,1-.326-2.441V466.2h2.034v6.592a12.145,12.145,0,0,0,.163,1.709,3.94,3.94,0,0,0,.57,1.465,3.284,3.284,0,0,0,1.058,1.058,3.783,3.783,0,0,0,1.709.407A2.72,2.72,0,0,0,393.106,477.186Z" transform="translate(-342.406 -426.894)" fill="#3c3c3b"/>
        <path id="Path_446" data-name="Path 446" d="M407.848,468.19v11.149h-2.034V468.19H401.5V466.4h10.661v1.79Z" transform="translate(-345.348 -426.931)" fill="#3c3c3b"/>
        <path id="Path_447" data-name="Path 447" d="M418.89,466.4H420.6l5.208,13.021h-2.2l-1.383-3.5h-5.046l-1.383,3.5h-2.2Zm-1.383,7.894h4.232l-2.116-5.615Z" transform="translate(-347.601 -426.931)" fill="#3c3c3b"/>
        <path id="Path_448" data-name="Path 448" d="M432.581,478.9a8.761,8.761,0,0,1-1.953-1.465,5.543,5.543,0,0,1-1.221-2.116,6.419,6.419,0,0,1-.407-2.441,6.631,6.631,0,0,1,.488-2.523,7.071,7.071,0,0,1,1.3-2.116,8.762,8.762,0,0,1,1.953-1.465,5.981,5.981,0,0,1,2.441-.57,5.453,5.453,0,0,1,2.523.57,7.129,7.129,0,0,1,1.953,1.546,5.543,5.543,0,0,1,1.221,2.116,6.418,6.418,0,0,1,.407,2.441,6.631,6.631,0,0,1-.488,2.523,7.072,7.072,0,0,1-1.3,2.116,8.762,8.762,0,0,1-1.953,1.465,5.981,5.981,0,0,1-2.441.57A10.36,10.36,0,0,1,432.581,478.9Zm-1.3-4.313a5.628,5.628,0,0,0,.814,1.546,4.14,4.14,0,0,0,1.3,1.058,3.792,3.792,0,0,0,3.418,0,5.313,5.313,0,0,0,1.3-1.058,5.628,5.628,0,0,0,.814-1.546,6.194,6.194,0,0,0,.244-1.709,4.38,4.38,0,0,0-.326-1.79,4.268,4.268,0,0,0-.814-1.465,4.14,4.14,0,0,0-1.3-1.058,3.7,3.7,0,0,0-1.628-.407,3.783,3.783,0,0,0-1.709.407,5.313,5.313,0,0,0-1.3,1.058,4.667,4.667,0,0,0-.814,1.546,6.1,6.1,0,0,0,0,3.418Z" transform="translate(-350.469 -426.894)" fill="#3c3c3b"/>
        <path id="Path_449" data-name="Path 449" d="M453.706,477.186a2.646,2.646,0,0,0,1.058-1.058,3.941,3.941,0,0,0,.57-1.465,12.143,12.143,0,0,0,.163-1.709v-6.592h2.034v6.592a8.587,8.587,0,0,1-.326,2.523,6.758,6.758,0,0,1-.977,2.034,5.57,5.57,0,0,1-1.709,1.383,6.2,6.2,0,0,1-2.6.488,5.139,5.139,0,0,1-2.6-.57,3.765,3.765,0,0,1-1.709-1.465,7.267,7.267,0,0,1-.977-2.116,12.562,12.562,0,0,1-.326-2.441V466.2h2.034v6.592a12.145,12.145,0,0,0,.163,1.709,3.941,3.941,0,0,0,.57,1.465,3.284,3.284,0,0,0,1.058,1.058,3.783,3.783,0,0,0,1.709.407A2.72,2.72,0,0,0,453.706,477.186Z" transform="translate(-353.69 -426.894)" fill="#3c3c3b"/>
        <path id="Path_450" data-name="Path 450" d="M466.49,466.4H468.2l5.208,13.021h-2.2l-1.383-3.5h-5.046l-1.383,3.5h-2.2Zm-1.3,7.894h4.232l-2.116-5.615Z" transform="translate(-356.464 -426.931)" fill="#3c3c3b"/>
        <path id="Path_451" data-name="Path 451" d="M478.1,466.4h2.035v12.939H478.1Z" transform="translate(-359.611 -426.931)" fill="#3c3c3b"/>
        <path id="Path_452" data-name="Path 452" d="M491.1,468.986a2.546,2.546,0,0,0-.814-.407,4.027,4.027,0,0,0-1.058-.326,6.283,6.283,0,0,0-1.221-.163,2.766,2.766,0,0,0-1.79.488,1.581,1.581,0,0,0-.651,1.3,2.408,2.408,0,0,0,.163.814c.163.163.326.407.57.488a5.9,5.9,0,0,0,.977.407,12.561,12.561,0,0,1,1.383.407,8.408,8.408,0,0,1,1.709.57,5.463,5.463,0,0,1,1.383.651,3.373,3.373,0,0,1,.9.977,2.787,2.787,0,0,1,.326,1.465,3.534,3.534,0,0,1-.407,1.709,2.4,2.4,0,0,1-1.058,1.139,3.86,3.86,0,0,1-1.546.651,6.78,6.78,0,0,1-1.79.244,8.381,8.381,0,0,1-2.848-.488,9.268,9.268,0,0,1-2.523-1.3l.977-1.79c.163.163.407.326.651.57.326.163.651.407,1.058.57a6.1,6.1,0,0,0,1.3.407,8.963,8.963,0,0,0,1.465.163,3.42,3.42,0,0,0,1.79-.407,1.545,1.545,0,0,0,.651-1.221,1.375,1.375,0,0,0-.244-.814,1.773,1.773,0,0,0-.732-.57,3.716,3.716,0,0,0-1.139-.407c-.407-.163-.977-.244-1.465-.407a8.408,8.408,0,0,1-1.709-.57,4.315,4.315,0,0,1-1.221-.651,2.222,2.222,0,0,1-.732-.977,3.1,3.1,0,0,1-.244-1.3,3.775,3.775,0,0,1,.326-1.709,3.6,3.6,0,0,1,.977-1.221,4.129,4.129,0,0,1,1.465-.732,6.936,6.936,0,0,1,1.872-.244,7.673,7.673,0,0,1,2.441.407,7.491,7.491,0,0,1,1.953,1.058l-.9,1.709C491.508,469.311,491.345,469.148,491.1,468.986Z" transform="translate(-360.486 -426.912)" fill="#3c3c3b"/>
      </g>
    </g>
    <g id="Group_58" data-name="Group 58" transform="translate(167.7 325.1)">
      <path id="Path_453" data-name="Path 453" d="M261.893,355.084a18.563,18.563,0,1,1,17.5,23.926l16.764,12.532a34.775,34.775,0,0,0,17.171-21,35.2,35.2,0,1,0-54.443,18.392l19.694,14.648h0c7.731,5.941,13.672,5.208,15.95,4.639l12.858-3.906-38.818-28.89A18.968,18.968,0,0,1,261.893,355.084Z" transform="translate(-181.978 -325.136)" fill="#005982"/>
      <path id="Path_454" data-name="Path 454" d="M371.156,325.1a35.156,35.156,0,1,0,35.156,35.156A35.165,35.165,0,0,0,371.156,325.1Zm0,53.711a18.555,18.555,0,1,1,18.555-18.555A18.546,18.546,0,0,1,371.156,378.811Z" transform="translate(-199.038 -325.1)" fill="#005982"/>
      <g id="Group_57" data-name="Group 57" transform="translate(0 4.476)">
        <g id="Group_56" data-name="Group 56">
          <path id="Path_455" data-name="Path 455" d="M209.285,330.6v35.319a19.36,19.36,0,0,1-.57,5.127l-.081.407a3.35,3.35,0,0,1-.244.651c-.244.57-.407.977-.57,1.3a11.671,11.671,0,0,1-9.033,6.185l-.732.081a5.374,5.374,0,0,1-1.139.081h-.163a5.766,5.766,0,0,1-1.139-.081l-.651-.081a11.708,11.708,0,0,1-9.115-6.266,9.153,9.153,0,0,1-.57-1.221,2.069,2.069,0,0,1-.163-.57l-.081-.488a19.361,19.361,0,0,1-.57-5.127V330.6H167.7v33.2c0,1.546.081,9.359,1.872,14.079A29.2,29.2,0,0,0,196.915,396.6h.163a29.164,29.164,0,0,0,27.344-18.717c1.79-4.72,1.872-12.532,1.872-14.079V330.6H209.285Z" transform="translate(-167.7 -330.6)" fill="#005982"/>
        </g>
      </g>
    </g>
  </g>
</svg>
